o Jets_13
vn -0.05916938127669469 -0.03777800180370683 -0.011877740905954837
vn -0.06202205728932775 -0.0319247596417378 -0.014260012671574174
vn -0.06425915142751859 -0.025787479097992394 -0.016584366420296426
vn -0.06585911925179766 -0.019425265539084746 -0.018828417354900984
vn -0.06680655219738596 -0.012899390559528934 -0.020970554038164113
vn -0.06709232596709658 -0.006272701902781952 -0.022990146522815058
vn -0.06671368840330882 0.00039098179687435675 -0.024867745029205413
vn -0.0656742859927455 0.007027485622671081 -0.026585267257318246
vn -0.06398412874881587 0.013572896414886015 -0.028126172529204463
vn -0.06165949380971236 0.019964178289502588 -0.029475621084750547
vn -0.05872276868067461 0.026139779708238997 -0.030620616996683392
vn -0.05520223563007076 0.032040226253506 -0.03155013332845258
vn -0.05113179931569767 0.0376086933995603 -0.03225521832965783
vn -0.04655066026439125 0.042791553763750656 -0.03272908164629895
vn -0.041502937349518376 0.04753889356753138 -0.03296715971559627
vn -0.03603724290211785 0.05180499333343258 -0.032967159715596495
vn -0.030206214547568555 0.05554876818861931 -0.03272908164629884
vn -0.02406600827649008 0.058734163534682526 -0.03225521832965772
vn -0.01767575763185114 0.061330502273124976 -0.03155013332845269
vn -0.011097004220625095 0.06331278024259146 -0.030620616996683392
vn -0.004393105034475653 0.06466190702261332 -0.029475621084750436
vn 0.002371377712710121 0.0653648897847916 -0.028126172529204463
vn 0.009131298354236428 0.06541495842083589 -0.026585267257318412
vn 0.015821555158975542 0.06481163074241203 -0.024867745029205357
vn 0.022377717296631516 0.06356071712487499 -0.022990146522815225
vn 0.028736645341855382 0.061674264550180435 -0.020970554038164002
vn 0.03483709934142887 0.05917044058786358 -0.01882841735490104
vn 0.040620328588489185 0.056073358431409925 -0.016584366420296537
vn 0.046030637423950305 0.05241284467502361 -0.014260012671574118
vn 0.05101592161615365 0.048224152067219195 -0.011877740905954781
vn 0.05552817015309319 0.0435476200075825 -0.009460493702823952
vn 0.05952392761471281 0.038428286056299554 -0.007031550474149245
vn 0.06296471267235293 0.032915452197834094 -0.004614303271018333
vn 0.06581738868498532 0.02706221003586462 -0.0022320315053990514
vn 0.06805448282317705 0.020924929492119215 9.232224332333949E-05
vn 0.06965445064745568 0.01456271593321179 0.002336373177927842
vn 0.07060188359304376 0.008036840953655422 0.0044785098611909435
vn 0.07088765736275482 0.0014101522969085512 0.006498102345842027
vn 0.0705090197989664 -0.0052535314027473135 0.008375700852232187
vn 0.06946961738840352 -0.011890035228544593 0.010093223080345215
vn 0.06777946014447433 -0.018435446020759083 0.011634128352231321
vn 0.06545482520537038 -0.024826727895375655 0.012983576907777378
vn 0.06251810007633218 -0.031002329314112065 0.014128572819710195
vn 0.058997567025729 -0.0369027758593794 0.01505808915147952
vn 0.05492713071135613 -0.042471243005432924 0.01576317415268466
vn 0.05034599166004927 -0.04765410336962417 0.01623703746932581
vn 0.045298268745176395 -0.05240144317340467 0.016475115538623214
vn 0.03983257429777565 -0.056667542939305315 0.016475115538623242
vn 0.034001545943226574 -0.06041131779449305 0.01623703746932581
vn 0.0278613396721481 -0.0635967131405556 0.01576317415268466
vn 0.02147108902750894 -0.06619305187899827 0.01505808915147952
vn 0.014892335616283336 -0.06817532984846442 0.014128572819710222
vn 0.008188436430134116 -0.06952445662848628 0.012983576907777405
vn 0.0014239536829475652 -0.07022743939066456 0.011634128352231266
vn -0.00533596695857852 -0.07027750802670907 0.010093223080345215
vn -0.01202622376331719 -0.06967418034828476 0.008375700852232215
vn -0.018582385900973164 -0.0684232667307485 0.006498102345842083
vn -0.024941313946197252 -0.06653681415605361 0.004478509861190971
vn -0.03104176794577107 -0.06403299019373665 0.002336373177927842
vn -0.036824997192831055 -0.06093590803728355 9.2322243323395E-05
vn -0.04223530602829251 -0.057275394280896785 -0.002232031505398968
vn -0.04722059022049563 -0.05308670167309271 -0.004614303271018361
vn -0.05173283875743495 -0.048410169613455345 -0.007031550474149217
vn -0.05572859621905457 -0.043290835662173066 -0.009460493702823924
vn 0.05916938127669469 0.03777800180370683 0.011877740905954837
vn 0.06202205728932775 0.0319247596417378 0.014260012671574174
vn 0.06425915142751859 0.025787479097992394 0.016584366420296426
vn 0.06585911925179766 0.019425265539084746 0.018828417354900984
vn 0.06680655219738596 0.012899390559528934 0.020970554038164113
vn 0.06709232596709658 0.006272701902781952 0.022990146522815058
vn 0.06671368840330882 -0.00039098179687435675 0.024867745029205413
vn 0.0656742859927455 -0.007027485622671081 0.026585267257318246
vn 0.06398412874881587 -0.013572896414886015 0.028126172529204463
vn 0.06165949380971236 -0.019964178289502588 0.029475621084750547
vn 0.05872276868067461 -0.026139779708238997 0.030620616996683392
vn 0.05520223563007076 -0.032040226253506 0.03155013332845258
vn 0.05113179931569767 -0.0376086933995603 0.03225521832965783
vn 0.04655066026439125 -0.042791553763750656 0.03272908164629895
vn 0.041502937349518376 -0.04753889356753138 0.03296715971559627
vn 0.03603724290211785 -0.05180499333343258 0.032967159715596495
vn 0.030206214547568555 -0.05554876818861931 0.03272908164629884
vn 0.02406600827649008 -0.058734163534682526 0.03225521832965772
vn 0.01767575763185114 -0.061330502273124976 0.03155013332845269
vn 0.011097004220625095 -0.06331278024259146 0.030620616996683392
vn 0.004393105034475653 -0.06466190702261332 0.029475621084750436
vn -0.002371377712710121 -0.0653648897847916 0.028126172529204463
vn -0.009131298354236428 -0.06541495842083589 0.026585267257318412
vn -0.015821555158975542 -0.06481163074241203 0.024867745029205357
vn -0.022377717296631516 -0.06356071712487499 0.022990146522815225
vn -0.028736645341855382 -0.061674264550180435 0.020970554038164002
vn -0.03483709934142887 -0.05917044058786358 0.01882841735490104
vn -0.040620328588489185 -0.056073358431409925 0.016584366420296537
vn -0.046030637423950305 -0.05241284467502361 0.014260012671574118
vn -0.05101592161615365 -0.048224152067219195 0.011877740905954781
vn -0.05552817015309319 -0.0435476200075825 0.009460493702823952
vn -0.05952392761471281 -0.038428286056299554 0.007031550474149245
vn -0.06296471267235293 -0.032915452197834094 0.004614303271018333
vn -0.06581738868498532 -0.02706221003586462 0.0022320315053990514
vn -0.06805448282317705 -0.020924929492119215 -9.232224332333949E-05
vn -0.06965445064745568 -0.01456271593321179 -0.002336373177927842
vn -0.07060188359304376 -0.008036840953655422 -0.0044785098611909435
vn -0.07088765736275482 -0.0014101522969085512 -0.006498102345842027
vn -0.0705090197989664 0.0052535314027473135 -0.008375700852232187
vn -0.06946961738840352 0.011890035228544593 -0.010093223080345215
vn -0.06777946014447433 0.018435446020759083 -0.011634128352231321
vn -0.06545482520537038 0.024826727895375655 -0.012983576907777378
vn -0.06251810007633218 0.031002329314112065 -0.014128572819710195
vn -0.058997567025729 0.0369027758593794 -0.01505808915147952
vn -0.05492713071135613 0.042471243005432924 -0.01576317415268466
vn -0.05034599166004927 0.04765410336962417 -0.01623703746932581
vn -0.045298268745176395 0.05240144317340467 -0.016475115538623214
vn -0.03983257429777565 0.056667542939305315 -0.016475115538623242
vn -0.034001545943226574 0.06041131779449305 -0.01623703746932581
vn -0.0278613396721481 0.0635967131405556 -0.01576317415268466
vn -0.02147108902750894 0.06619305187899827 -0.01505808915147952
vn -0.014892335616283336 0.06817532984846442 -0.014128572819710222
vn -0.008188436430134116 0.06952445662848628 -0.012983576907777405
vn -0.0014239536829475652 0.07022743939066456 -0.011634128352231266
vn 0.00533596695857852 0.07027750802670907 -0.010093223080345215
vn 0.01202622376331719 0.06967418034828476 -0.008375700852232215
vn 0.018582385900973164 0.0684232667307485 -0.006498102345842083
vn 0.024941313946197252 0.06653681415605361 -0.004478509861190971
vn 0.03104176794577107 0.06403299019373665 -0.002336373177927842
vn 0.036824997192831055 0.06093590803728355 -9.2322243323395E-05
vn 0.04223530602829251 0.057275394280896785 0.002232031505398968
vn 0.04722059022049563 0.05308670167309271 0.004614303271018361
vn 0.05173283875743495 0.048410169613455345 0.007031550474149217
vn 0.05572859621905457 0.043290835662173066 0.009460493702823924
v 0 0 0
v 0 0 0
v 0 0 0
v 0 0 0
v 0 0 0
v 0 0 0
v 0 0 0
v 0 0 0
v 0 0 0
v 0 0 0
v 0 0 0
v 0 0 0
v 0 0 0
v 0 0 0
v 0 0 0
v 0 0 0
v 0 0 0
v 0 0 0
v 0 0 0
v 0 0 0
v 0 0 0
v 0 0 0
v 0 0 0
v 0 0 0
v 0 0 0
v 0 0 0
v 0 0 0
v 0 0 0
v 0 0 0
v 0 0 0
v 0 0 0
v 0 0 0
v 0 0 0
v 0 0 0
v 0 0 0
v 0 0 0
v 0 0 0
v 0 0 0
v 0 0 0
v 0 0 0
v 0 0 0
v 0 0 0
v 0 0 0
v 0 0 0
v 0 0 0
v 0 0 0
v 0 0 0
v 0 0 0
v 0 0 0
v 0 0 0
v 0 0 0
v 0 0 0
v 0 0 0
v 0 0 0
v 0 0 0
v 0 0 0
v 0 0 0
v 0 0 0
v 0 0 0
v 0 0 0
v 0 0 0
v 0 0 0
v 0 0 0
v 0 0 0
v 0.7698408546867055 -0.5015702776149225 -2.2397090837008338
v 0.7832050594198053 -0.5257062125564371 -2.229517274551216
v 0.7940132188062708 -0.5511681640179256 -2.2195227252446665
v 0.8021612443628694 -0.5777109194878948 -2.209821688754584
v 0.8075706661493269 -0.6050788577214231 -2.200507591365494
v 0.8101893884767494 -0.6330084105124848 -2.1916701329268564
v 0.8099921916175843 -0.6612306009998552 -2.1833944229944824
v 0.8069809746853841 -0.6894736340613224 -2.175760161178984
v 0.8011847373453047 -0.717465513849292 -2.1688408695949555
v 0.7926593005314765 -0.744936663259488 -2.1627031848028215
v 0.7814867688608946 -0.7716225201058322 -2.1574062160623297
v 0.7677747399210738 -0.7972660849989213 -2.1530009760780686
v 0.7516552680464621 -0.8216203963906361 -2.1495298897192363
v 0.7332835925630115 -0.8444509089488534 -2.1470263854449567
v 0.7128366427486071 -0.8655377523572103 -2.1455145733699457
v 0.6905113339074016 -0.8846778487864428 -2.1450090130709265
v 0.6665226709677906 -0.9016868686448967 -2.1455145733699457
v 0.6411016778674201 -0.9164010057732588 -2.1470263854449567
v 0.6144931726663748 -0.9286785549874174 -2.1495298897192363
v 0.5869534098154292 -0.938401276776849 -2.1530009760780686
v 0.558747612285604 -0.9454755360157413 -2.1574062160623297
v 0.5301474173259686 -0.94983320372044 -2.1627031848028215
v 0.501428260448441 -0.9514323131688055 -2.1688408695949555
v 0.4728667228332402 -0.950257464062688 -2.175760161178984
v 0.4447378677009251 -0.9463199708412169 -2.1833944229944824
v 0.4173125913032163 -0.939657753716568 -2.1916701329268564
v 0.3908550140440049 -0.93033497348159 -2.2005075913654935
v 0.3656199368554799 -0.9184414136062958 -2.209821688754584
v 0.3418503873258632 -0.9040916155739656 -2.2195227252446665
v 0.31977527921088267 -0.8874237757840484 -2.229517274551216
v 0.2996072078691671 -0.868598414645289 -2.2397090837008338
v 0.2815404028527264 -0.847796830676443 -2.25
v 0.2657488573701892 -0.8252193545024327 -2.2602909162991662
v 0.25238465263708926 -0.8010834195609179 -2.270482725448784
v 0.2415764932506238 -0.7756214680994297 -2.2804772747553335
v 0.23342846769402525 -0.7490787126294604 -2.290178311245416
v 0.22801904590756766 -0.721710774395932 -2.299492408634506
v 0.22540032358014522 -0.6937812216048704 -2.3083298670731436
v 0.22559752043931036 -0.6655590311174999 -2.3166055770055176
v 0.2286087373715105 -0.6373159980560328 -2.324239838821016
v 0.23440497471158994 -0.6093241182680632 -2.3311591304050445
v 0.24293041152541817 -0.5818529688578671 -2.3372968151971785
v 0.254102943196 -0.5551671120115229 -2.3425937839376703
v 0.26781497213582073 -0.529523547118434 -2.3469990239219314
v 0.2839344440104326 -0.5051692357267191 -2.3504701102807637
v 0.3023061194938831 -0.4823387231685017 -2.3529736145550433
v 0.3227530693082875 -0.46125187976014476 -2.3544854266300543
v 0.34507837814949305 -0.4421117833309123 -2.3549909869290735
v 0.3690670410891039 -0.4251027634724585 -2.3544854266300543
v 0.3944880341894746 -0.4103886263440964 -2.3529736145550433
v 0.42109653939051983 -0.39811107712993776 -2.3504701102807637
v 0.4486363022414655 -0.3883883553405061 -2.3469990239219314
v 0.47684209977129066 -0.3813140961016139 -2.3425937839376703
v 0.5054422947309261 -0.3769564283969151 -2.3372968151971785
v 0.5341614516084536 -0.3753573189485496 -2.3311591304050445
v 0.5627229892236544 -0.37653216805466727 -2.324239838821016
v 0.5908518443559694 -0.38046966127613824 -2.3166055770055176
v 0.6182771207536784 -0.3871318784007871 -2.3083298670731436
v 0.6447346980128897 -0.39645465863576507 -2.2994924086345065
v 0.6699697752014147 -0.40834821851105924 -2.290178311245416
v 0.6937393247310314 -0.4226980165433895 -2.2804772747553335
v 0.715814432846012 -0.4393658563333067 -2.270482725448784
v 0.7359825041877277 -0.4581912174720662 -2.2602909162991662
v 0.7540493092041682 -0.47899280144091216 -2.25
f 1//1 65//1 66//1 2//1
f 2//65 66//65 65//65 1//65
f 2//2 66//2 67//2 3//2
f 3//66 67//66 66//66 2//66
f 3//3 67//3 68//3 4//3
f 4//67 68//67 67//67 3//67
f 4//4 68//4 69//4 5//4
f 5//68 69//68 68//68 4//68
f 5//5 69//5 70//5 6//5
f 6//69 70//69 69//69 5//69
f 6//6 70//6 71//6 7//6
f 7//70 71//70 70//70 6//70
f 7//7 71//7 72//7 8//7
f 8//71 72//71 71//71 7//71
f 8//8 72//8 73//8 9//8
f 9//72 73//72 72//72 8//72
f 9//9 73//9 74//9 10//9
f 10//73 74//73 73//73 9//73
f 10//10 74//10 75//10 11//10
f 11//74 75//74 74//74 10//74
f 11//11 75//11 76//11 12//11
f 12//75 76//75 75//75 11//75
f 12//12 76//12 77//12 13//12
f 13//76 77//76 76//76 12//76
f 13//13 77//13 78//13 14//13
f 14//77 78//77 77//77 13//77
f 14//14 78//14 79//14 15//14
f 15//78 79//78 78//78 14//78
f 15//15 79//15 80//15 16//15
f 16//79 80//79 79//79 15//79
f 16//16 80//16 81//16 17//16
f 17//80 81//80 80//80 16//80
f 17//17 81//17 82//17 18//17
f 18//81 82//81 81//81 17//81
f 18//18 82//18 83//18 19//18
f 19//82 83//82 82//82 18//82
f 19//19 83//19 84//19 20//19
f 20//83 84//83 83//83 19//83
f 20//20 84//20 85//20 21//20
f 21//84 85//84 84//84 20//84
f 21//21 85//21 86//21 22//21
f 22//85 86//85 85//85 21//85
f 22//22 86//22 87//22 23//22
f 23//86 87//86 86//86 22//86
f 23//23 87//23 88//23 24//23
f 24//87 88//87 87//87 23//87
f 24//24 88//24 89//24 25//24
f 25//88 89//88 88//88 24//88
f 25//25 89//25 90//25 26//25
f 26//89 90//89 89//89 25//89
f 26//26 90//26 91//26 27//26
f 27//90 91//90 90//90 26//90
f 27//27 91//27 92//27 28//27
f 28//91 92//91 91//91 27//91
f 28//28 92//28 93//28 29//28
f 29//92 93//92 92//92 28//92
f 29//29 93//29 94//29 30//29
f 30//93 94//93 93//93 29//93
f 30//30 94//30 95//30 31//30
f 31//94 95//94 94//94 30//94
f 31//31 95//31 96//31 32//31
f 32//95 96//95 95//95 31//95
f 32//32 96//32 97//32 33//32
f 33//96 97//96 96//96 32//96
f 33//33 97//33 98//33 34//33
f 34//97 98//97 97//97 33//97
f 34//34 98//34 99//34 35//34
f 35//98 99//98 98//98 34//98
f 35//35 99//35 100//35 36//35
f 36//99 100//99 99//99 35//99
f 36//36 100//36 101//36 37//36
f 37//100 101//100 100//100 36//100
f 37//37 101//37 102//37 38//37
f 38//101 102//101 101//101 37//101
f 38//38 102//38 103//38 39//38
f 39//102 103//102 102//102 38//102
f 39//39 103//39 104//39 40//39
f 40//103 104//103 103//103 39//103
f 40//40 104//40 105//40 41//40
f 41//104 105//104 104//104 40//104
f 41//41 105//41 106//41 42//41
f 42//105 106//105 105//105 41//105
f 42//42 106//42 107//42 43//42
f 43//106 107//106 106//106 42//106
f 43//43 107//43 108//43 44//43
f 44//107 108//107 107//107 43//107
f 44//44 108//44 109//44 45//44
f 45//108 109//108 108//108 44//108
f 45//45 109//45 110//45 46//45
f 46//109 110//109 109//109 45//109
f 46//46 110//46 111//46 47//46
f 47//110 111//110 110//110 46//110
f 47//47 111//47 112//47 48//47
f 48//111 112//111 111//111 47//111
f 48//48 112//48 113//48 49//48
f 49//112 113//112 112//112 48//112
f 49//49 113//49 114//49 50//49
f 50//113 114//113 113//113 49//113
f 50//50 114//50 115//50 51//50
f 51//114 115//114 114//114 50//114
f 51//51 115//51 116//51 52//51
f 52//115 116//115 115//115 51//115
f 52//52 116//52 117//52 53//52
f 53//116 117//116 116//116 52//116
f 53//53 117//53 118//53 54//53
f 54//117 118//117 117//117 53//117
f 54//54 118//54 119//54 55//54
f 55//118 119//118 118//118 54//118
f 55//55 119//55 120//55 56//55
f 56//119 120//119 119//119 55//119
f 56//56 120//56 121//56 57//56
f 57//120 121//120 120//120 56//120
f 57//57 121//57 122//57 58//57
f 58//121 122//121 121//121 57//121
f 58//58 122//58 123//58 59//58
f 59//122 123//122 122//122 58//122
f 59//59 123//59 124//59 60//59
f 60//123 124//123 123//123 59//123
f 60//60 124//60 125//60 61//60
f 61//124 125//124 124//124 60//124
f 61//61 125//61 126//61 62//61
f 62//125 126//125 125//125 61//125
f 62//62 126//62 127//62 63//62
f 63//126 127//126 126//126 62//126
f 63//63 127//63 128//63 64//63
f 64//127 128//127 127//127 63//127
f 64//64 128//64 65//64 1//64
f 1//128 65//128 128//128 64//128