o Jets_0
vn -0.07036333349839285 -0.014421101049097551 0.004221110398307859
vn -0.06886973824711928 -0.02076198305128263 0.0016382438831357704
vn -0.06671225586975882 -0.026934771691624726 -0.0008818277365811866
vn -0.06391166410100513 -0.032880019641127856 -0.003314834793533783
vn -0.06049493417055163 -0.03854047091203505 -0.005637346099746643
vn -0.05649497105540191 -0.043861612264290084 -0.007826994601727033
vn -0.05195029658695782 -0.04879219819783931 -0.009862692787417443
vn -0.04690467846472224 -0.05328474447480974 -0.011724835770463626
vn -0.04140670874942787 -0.05729598541867875 -0.01339549009598806
vn -0.03550933589492811 -0.06078729058638943 -0.014858566449563362
vn -0.029269354825644855 -0.06372503680063552 -0.016099974606105794
vn -0.022746859970395494 -0.06608093195943796 -0.017107759126444994
vn -0.01600466652019361 -0.06783228750455417 -0.017872214494739087
vn -0.00910770548362394 -0.06896223692469679 -0.01838597858789763
vn -0.0021223983657308043 -0.06945989818925653 -0.018644103576851485
vn 0.00488398250738431 -0.0693204785482061 -0.01864410357685148
vn 0.011843961857834984 -0.06854532068890334 -0.018385978587897624
vn 0.018690511279765065 -0.06714188980527798 -0.017872214494739077
vn 0.025357694759536198 -0.06512370170393283 -0.01710775912644502
vn 0.03178130367558585 -0.06251019263953733 -0.016099974606105807
vn 0.03789947516254921 -0.0593265321330706 -0.01485856644956332
vn 0.04365328788447598 -0.05560338057557701 -0.013395490095988088
vn 0.04898732947949869 -0.05137659395183586 -0.011724835770463626
vn 0.05385023021117341 -0.04668687852763076 -0.009862692787417415
vn 0.05819515768712269 -0.0415793988261558 -0.00782699460172706
vn 0.061980267880574536 -0.03610334266896875 -0.005637346099746587
vn 0.06516910811121357 -0.03031144747038028 -0.003314834793533755
vn 0.06773096810442181 -0.024259492347324607 -0.0008818277365811311
vn 0.06964117574800865 -0.018005760935971837 0.001638243883135715
vn 0.0708813346981425 -0.011610480088451003 0.004221110398307942
vn 0.07143950154619194 -0.005135239855339702 0.006841897392455609
vn 0.07131030084028556 0.0013575996601912221 0.009475365254157486
vn 0.07049497685384987 0.0078055088642600134 0.012096152248305347
vn 0.0690013816025763 0.014146390866444647 0.014679018763477325
vn 0.06684389922521561 0.020319179506786966 0.017199090383194393
vn 0.06404330745646147 0.026264427456290318 0.01963209744014696
vn 0.06062657752600842 0.03192487872719718 0.02195460874635971
vn 0.0566266144108587 0.037246020079452546 0.024144257248340267
vn 0.052081939942414834 0.042176606013001716 0.026179955434030622
vn 0.04703632182017925 0.046669152289971816 0.028042098417076666
vn 0.04153835210488488 0.05068039323384138 0.029712752742601406
vn 0.035640979250384675 0.05417169840155167 0.03117582909617647
vn 0.0294009981811012 0.05710944461579748 0.03241723725271879
vn 0.02287850332585295 0.0594653397746005 0.03342502177305835
vn 0.0161363098756504 0.061216695319716435 0.03418947714135217
vn 0.009239348839081618 0.06234664473985954 0.03470324123451102
vn 0.002254041721186706 0.06284430600441855 0.03496136622346452
vn -0.004752339151927298 0.06270488636336813 0.03496136622346452
vn -0.011712318502377528 0.06192972850406607 0.03470324123451099
vn -0.018558867924308053 0.06052629762044015 0.03418947714135215
vn -0.025226051404080074 0.05850810951909538 0.033425021773058367
vn -0.03164966032012817 0.05589460045469935 0.032417237252718833
vn -0.037767831807092644 0.05271093994823289 0.031175829096176416
vn -0.043521644529018744 0.04898778839073964 0.029712752742601434
vn -0.048855686124041675 0.04476100176699788 0.028042098417076722
vn -0.0537185868557164 0.04007128634279289 0.02617995543403051
vn -0.058063514331666344 0.03496380664131837 0.02414425724834046
vn -0.0618486245251173 0.029487750484131103 0.02195460874635974
vn -0.06503746475575634 0.023695855285542744 0.019632097440146934
vn -0.06759932474896546 0.01764390016248696 0.017199090383194393
vn -0.06950953239255186 0.0113901687511343 0.01467901876347738
vn -0.07074969134268594 0.004994887903613354 0.012096152248305347
vn -0.07130785819073449 -0.001480352329498169 0.009475365254157486
vn -0.07117865748482899 -0.007973191845028982 0.00684189739245572
vn 0.07036333349839285 0.014421101049097551 -0.004221110398307859
vn 0.06886973824711928 0.02076198305128263 -0.0016382438831357704
vn 0.06671225586975882 0.026934771691624726 0.0008818277365811866
vn 0.06391166410100513 0.032880019641127856 0.003314834793533783
vn 0.06049493417055163 0.03854047091203505 0.005637346099746643
vn 0.05649497105540191 0.043861612264290084 0.007826994601727033
vn 0.05195029658695782 0.04879219819783931 0.009862692787417443
vn 0.04690467846472224 0.05328474447480974 0.011724835770463626
vn 0.04140670874942787 0.05729598541867875 0.01339549009598806
vn 0.03550933589492811 0.06078729058638943 0.014858566449563362
vn 0.029269354825644855 0.06372503680063552 0.016099974606105794
vn 0.022746859970395494 0.06608093195943796 0.017107759126444994
vn 0.01600466652019361 0.06783228750455417 0.017872214494739087
vn 0.00910770548362394 0.06896223692469679 0.01838597858789763
vn 0.0021223983657308043 0.06945989818925653 0.018644103576851485
vn -0.00488398250738431 0.0693204785482061 0.01864410357685148
vn -0.011843961857834984 0.06854532068890334 0.018385978587897624
vn -0.018690511279765065 0.06714188980527798 0.017872214494739077
vn -0.025357694759536198 0.06512370170393283 0.01710775912644502
vn -0.03178130367558585 0.06251019263953733 0.016099974606105807
vn -0.03789947516254921 0.0593265321330706 0.01485856644956332
vn -0.04365328788447598 0.05560338057557701 0.013395490095988088
vn -0.04898732947949869 0.05137659395183586 0.011724835770463626
vn -0.05385023021117341 0.04668687852763076 0.009862692787417415
vn -0.05819515768712269 0.0415793988261558 0.00782699460172706
vn -0.061980267880574536 0.03610334266896875 0.005637346099746587
vn -0.06516910811121357 0.03031144747038028 0.003314834793533755
vn -0.06773096810442181 0.024259492347324607 0.0008818277365811311
vn -0.06964117574800865 0.018005760935971837 -0.001638243883135715
vn -0.0708813346981425 0.011610480088451003 -0.004221110398307942
vn -0.07143950154619194 0.005135239855339702 -0.006841897392455609
vn -0.07131030084028556 -0.0013575996601912221 -0.009475365254157486
vn -0.07049497685384987 -0.0078055088642600134 -0.012096152248305347
vn -0.0690013816025763 -0.014146390866444647 -0.014679018763477325
vn -0.06684389922521561 -0.020319179506786966 -0.017199090383194393
vn -0.06404330745646147 -0.026264427456290318 -0.01963209744014696
vn -0.06062657752600842 -0.03192487872719718 -0.02195460874635971
vn -0.0566266144108587 -0.037246020079452546 -0.024144257248340267
vn -0.052081939942414834 -0.042176606013001716 -0.026179955434030622
vn -0.04703632182017925 -0.046669152289971816 -0.028042098417076666
vn -0.04153835210488488 -0.05068039323384138 -0.029712752742601406
vn -0.035640979250384675 -0.05417169840155167 -0.03117582909617647
vn -0.0294009981811012 -0.05710944461579748 -0.03241723725271879
vn -0.02287850332585295 -0.0594653397746005 -0.03342502177305835
vn -0.0161363098756504 -0.061216695319716435 -0.03418947714135217
vn -0.009239348839081618 -0.06234664473985954 -0.03470324123451102
vn -0.002254041721186706 -0.06284430600441855 -0.03496136622346452
vn 0.004752339151927298 -0.06270488636336813 -0.03496136622346452
vn 0.011712318502377528 -0.06192972850406607 -0.03470324123451099
vn 0.018558867924308053 -0.06052629762044015 -0.03418947714135215
vn 0.025226051404080074 -0.05850810951909538 -0.033425021773058367
vn 0.03164966032012817 -0.05589460045469935 -0.032417237252718833
vn 0.037767831807092644 -0.05271093994823289 -0.031175829096176416
vn 0.043521644529018744 -0.04898778839073964 -0.029712752742601434
vn 0.048855686124041675 -0.04476100176699788 -0.028042098417076722
vn 0.0537185868557164 -0.04007128634279289 -0.02617995543403051
vn 0.058063514331666344 -0.03496380664131837 -0.02414425724834046
vn 0.0618486245251173 -0.029487750484131103 -0.02195460874635974
vn 0.06503746475575634 -0.023695855285542744 -0.019632097440146934
vn 0.06759932474896546 -0.01764390016248696 -0.017199090383194393
vn 0.06950953239255186 -0.0113901687511343 -0.01467901876347738
vn 0.07074969134268594 -0.004994887903613354 -0.012096152248305347
vn 0.07130785819073449 0.001480352329498169 -0.009475365254157486
vn 0.07117865748482899 0.007973191845028982 -0.00684189739245572
v 0 0 0
v 0 0 0
v 0 0 0
v 0 0 0
v 0 0 0
v 0 0 0
v 0 0 0
v 0 0 0
v 0 0 0
v 0 0 0
v 0 0 0
v 0 0 0
v 0 0 0
v 0 0 0
v 0 0 0
v 0 0 0
v 0 0 0
v 0 0 0
v 0 0 0
v 0 0 0
v 0 0 0
v 0 0 0
v 0 0 0
v 0 0 0
v 0 0 0
v 0 0 0
v 0 0 0
v 0 0 0
v 0 0 0
v 0 0 0
v 0 0 0
v 0 0 0
v 0 0 0
v 0 0 0
v 0 0 0
v 0 0 0
v 0 0 0
v 0 0 0
v 0 0 0
v 0 0 0
v 0 0 0
v 0 0 0
v 0 0 0
v 0 0 0
v 0 0 0
v 0 0 0
v 0 0 0
v 0 0 0
v 0 0 0
v 0 0 0
v 0 0 0
v 0 0 0
v 0 0 0
v 0 0 0
v 0 0 0
v 0 0 0
v 0 0 0
v 0 0 0
v 0 0 0
v 0 0 0
v 0 0 0
v 0 0 0
v 0 0 0
v 0 0 0
v 0.3158089378776803 -0.8790780610486166 2.2610391978991493
v 0.3109578948473157 -0.852208790164362 2.27197208228789
v 0.30328697487989487 -0.8259175480267943 2.282693363513037
v 0.29287005312805536 -0.800457533669953 2.293099789775543
v 0.27980745024273607 -0.7760739409499542 2.3030911415017683
v 0.2642249662304677 -0.7530015971941191 2.3125711965127618
v 0.24627266893054076 -0.7314627016854425 2.321448656696442
v 0.2261234487796773 -0.7116646857620309 2.3296380272583264
v 0.20397135378261447 -0.6937982151399233 2.3370604400831394
v 0.18002972072374082 -0.6780353536980167 2.343644413277874
v 0.1545291206172413 -0.6645279064088534 2.349326539581499
v 0.1277151381821874 -0.6534059573737497 2.354052097011545
v 0.09984600672744258 -0.6447766170417895 2.357775575866707
v 0.07119012122373305 -0.6387229906776469 2.36046111701015
v 0.042023453513359926 -0.6353033780124575 2.3620828572125965
v 0.012626894550496452 -0.6345507117855371 2.3626251782293632
v -0.01671645073225116 -0.6364722405841005 2.3620828572125965
v -0.045723989879105795 -0.6410494590354029 2.36046111701015
v -0.07411636443094938 -0.6482382860235962 2.357775575866707
v -0.10162014029999705 -0.6579694892149716 2.354052097011545
v -0.12797044108953654 -0.6701493518031791 2.349326539581499
v -0.1529134989984247 -0.6846605750533044 2.343644413277874
v -0.17620909874373689 -0.701363407952807 2.3370604400831394
v -0.19763289096525533 -0.7200969930901677 2.3296380272583264
v -0.21697855283245074 -0.7406809157996943 2.321448656696442
v -0.23405977504612743 -0.7629169416533771 2.3125711965127618
v -0.24871205609882183 -0.7865909255667971 2.3030911415017683
v -0.26079428651424497 -0.8114748741333522 2.293099789775543
v -0.27019010780867725 -0.8373291413253962 2.282693363513037
v -0.276809033086775 -0.8639047364164896 2.2719720822878906
v -0.2805873184798375 -0.8909457218982074 2.2610391978991493
v -0.2814885770341087 -0.9181916782982543 2.25
v -0.2795041291370328 -0.9453802121623428 2.2389608021008507
v -0.2746530861066682 -0.9722494830465975 2.22802791771211
v -0.26698216613924747 -0.9985407251841653 2.217306636486963
v -0.25656524438740796 -1.0240007395410067 2.206900210224457
v -0.24350264150208864 -1.0483843322610054 2.1969088584982317
v -0.2279201574898204 -1.0714566760168405 2.1874288034872382
v -0.20996786018989338 -1.092995571525517 2.178551343303558
v -0.18981864003902993 -1.1127935874489285 2.1703619727416736
v -0.16766654504196718 -1.1306600580710362 2.1629395599168606
v -0.1437249119830934 -1.146422919512943 2.156355586722126
v -0.11822431187659391 -1.1599303668021061 2.150673460418501
v -0.09141032944154016 -1.1710523158372097 2.1459479029884556
v -0.06354119798679522 -1.17968165616917 2.142224424133293
v -0.03488531248308574 -1.1857352825333125 2.13953888298985
v -0.005718644772712417 -1.1891548951985023 2.1379171427874035
v 0.023677914190150917 -1.1899075614254224 2.1373748217706368
v 0.0530212594728984 -1.187986032626859 2.1379171427874035
v 0.08202879861975322 -1.1834088141755568 2.13953888298985
v 0.11042117317159673 -1.1762199871873633 2.142224424133293
v 0.13792494904064453 -1.1664887839959879 2.1459479029884556
v 0.16427524983018388 -1.1543089214077804 2.150673460418501
v 0.18921830773907206 -1.1397976981576552 2.156355586722126
v 0.21251390748438437 -1.1230948652581525 2.1629395599168606
v 0.2339376997059027 -1.1043612801207918 2.1703619727416736
v 0.253283361573098 -1.0837773574112655 2.178551343303558
v 0.2703645837867748 -1.0615413315575823 2.1874288034872382
v 0.2850168648394692 -1.0378673476441624 2.1969088584982317
v 0.29709909525489236 -1.0129833990776076 2.206900210224457
v 0.3064949165493247 -0.9871291318855634 2.217306636486963
v 0.31311384182742247 -0.96055353679447 2.2280279177121094
v 0.316892127220485 -0.933512551312752 2.2389608021008507
v 0.31779338577475613 -0.9062665949127053 2.25
f 1//1 65//1 66//1 2//1
f 2//65 66//65 65//65 1//65
f 2//2 66//2 67//2 3//2
f 3//66 67//66 66//66 2//66
f 3//3 67//3 68//3 4//3
f 4//67 68//67 67//67 3//67
f 4//4 68//4 69//4 5//4
f 5//68 69//68 68//68 4//68
f 5//5 69//5 70//5 6//5
f 6//69 70//69 69//69 5//69
f 6//6 70//6 71//6 7//6
f 7//70 71//70 70//70 6//70
f 7//7 71//7 72//7 8//7
f 8//71 72//71 71//71 7//71
f 8//8 72//8 73//8 9//8
f 9//72 73//72 72//72 8//72
f 9//9 73//9 74//9 10//9
f 10//73 74//73 73//73 9//73
f 10//10 74//10 75//10 11//10
f 11//74 75//74 74//74 10//74
f 11//11 75//11 76//11 12//11
f 12//75 76//75 75//75 11//75
f 12//12 76//12 77//12 13//12
f 13//76 77//76 76//76 12//76
f 13//13 77//13 78//13 14//13
f 14//77 78//77 77//77 13//77
f 14//14 78//14 79//14 15//14
f 15//78 79//78 78//78 14//78
f 15//15 79//15 80//15 16//15
f 16//79 80//79 79//79 15//79
f 16//16 80//16 81//16 17//16
f 17//80 81//80 80//80 16//80
f 17//17 81//17 82//17 18//17
f 18//81 82//81 81//81 17//81
f 18//18 82//18 83//18 19//18
f 19//82 83//82 82//82 18//82
f 19//19 83//19 84//19 20//19
f 20//83 84//83 83//83 19//83
f 20//20 84//20 85//20 21//20
f 21//84 85//84 84//84 20//84
f 21//21 85//21 86//21 22//21
f 22//85 86//85 85//85 21//85
f 22//22 86//22 87//22 23//22
f 23//86 87//86 86//86 22//86
f 23//23 87//23 88//23 24//23
f 24//87 88//87 87//87 23//87
f 24//24 88//24 89//24 25//24
f 25//88 89//88 88//88 24//88
f 25//25 89//25 90//25 26//25
f 26//89 90//89 89//89 25//89
f 26//26 90//26 91//26 27//26
f 27//90 91//90 90//90 26//90
f 27//27 91//27 92//27 28//27
f 28//91 92//91 91//91 27//91
f 28//28 92//28 93//28 29//28
f 29//92 93//92 92//92 28//92
f 29//29 93//29 94//29 30//29
f 30//93 94//93 93//93 29//93
f 30//30 94//30 95//30 31//30
f 31//94 95//94 94//94 30//94
f 31//31 95//31 96//31 32//31
f 32//95 96//95 95//95 31//95
f 32//32 96//32 97//32 33//32
f 33//96 97//96 96//96 32//96
f 33//33 97//33 98//33 34//33
f 34//97 98//97 97//97 33//97
f 34//34 98//34 99//34 35//34
f 35//98 99//98 98//98 34//98
f 35//35 99//35 100//35 36//35
f 36//99 100//99 99//99 35//99
f 36//36 100//36 101//36 37//36
f 37//100 101//100 100//100 36//100
f 37//37 101//37 102//37 38//37
f 38//101 102//101 101//101 37//101
f 38//38 102//38 103//38 39//38
f 39//102 103//102 102//102 38//102
f 39//39 103//39 104//39 40//39
f 40//103 104//103 103//103 39//103
f 40//40 104//40 105//40 41//40
f 41//104 105//104 104//104 40//104
f 41//41 105//41 106//41 42//41
f 42//105 106//105 105//105 41//105
f 42//42 106//42 107//42 43//42
f 43//106 107//106 106//106 42//106
f 43//43 107//43 108//43 44//43
f 44//107 108//107 107//107 43//107
f 44//44 108//44 109//44 45//44
f 45//108 109//108 108//108 44//108
f 45//45 109//45 110//45 46//45
f 46//109 110//109 109//109 45//109
f 46//46 110//46 111//46 47//46
f 47//110 111//110 110//110 46//110
f 47//47 111//47 112//47 48//47
f 48//111 112//111 111//111 47//111
f 48//48 112//48 113//48 49//48
f 49//112 113//112 112//112 48//112
f 49//49 113//49 114//49 50//49
f 50//113 114//113 113//113 49//113
f 50//50 114//50 115//50 51//50
f 51//114 115//114 114//114 50//114
f 51//51 115//51 116//51 52//51
f 52//115 116//115 115//115 51//115
f 52//52 116//52 117//52 53//52
f 53//116 117//116 116//116 52//116
f 53//53 117//53 118//53 54//53
f 54//117 118//117 117//117 53//117
f 54//54 118//54 119//54 55//54
f 55//118 119//118 118//118 54//118
f 55//55 119//55 120//55 56//55
f 56//119 120//119 119//119 55//119
f 56//56 120//56 121//56 57//56
f 57//120 121//120 120//120 56//120
f 57//57 121//57 122//57 58//57
f 58//121 122//121 121//121 57//121
f 58//58 122//58 123//58 59//58
f 59//122 123//122 122//122 58//122
f 59//59 123//59 124//59 60//59
f 60//123 124//123 123//123 59//123
f 60//60 124//60 125//60 61//60
f 61//124 125//124 124//124 60//124
f 61//61 125//61 126//61 62//61
f 62//125 126//125 125//125 61//125
f 62//62 126//62 127//62 63//62
f 63//126 127//126 126//126 62//126
f 63//63 127//63 128//63 64//63
f 64//127 128//127 127//127 63//127
f 64//64 128//64 65//64 1//64
f 1//128 65//128 128//128 64//128