o Jets_42
vn -0.02306507087924206 -0.06601965214762862 0.005222853990419267
vn -0.016865366012808553 -0.06799610558267344 0.00315582366546803
vn -0.010480458189236985 -0.06933060461177565 0.00113904717763752
vn -0.003971837561213748 -0.07001029727977381 -0.0008080528130123207
vn 0.0025978142966390505 -0.07002863777471724 -0.00266672466917834
vn 0.009165228045593332 -0.06938544946761405 -0.004419068364832308
vn 0.015667155901133323 -0.06808692661346338 -0.006048207872256579
vn 0.022040980743694844 -0.06614557469719595 -0.007538453687416444
vn 0.028225319155756184 -0.06358008999901688 -0.008875453928460508
vn 0.03416061257770722 -0.06041517953900488 -0.010046332552189105
vn 0.03978970088933226 -0.05668132313500718 -0.011039813357388191
vn 0.04505837289301773 -0.052414479865327435 -0.011846328580811853
vn 0.04991588839721939 -0.047655741763145576 -0.012458111039972505
vn 0.0543154668722432 -0.042450938077778 -0.012869268935354089
vn 0.058214737972321184 -0.03685019391394939 -0.013075842591662376
vn 0.061576149585200635 -0.030907447499634588 -0.013075842591662362
vn 0.06436732947951496 -0.024679930731439925 -0.012869268935354089
vn 0.06656139706706776 -0.018227618000150825 -0.012458111039972505
vn 0.06813722227759256 -0.011612648604561016 -0.011846328580811874
vn 0.0690796290528769 -0.004898728316061196 -0.011039813357388198
vn 0.06937954150050296 0.0018494841427688646 -0.01004633255218905
vn 0.06903407129965278 0.008566999797001928 -0.008875453928460592
vn 0.06804654551721223 0.015189125298720518 -0.007538453687416402
vn 0.06642647456630346 0.021652085959320777 -0.006048207872256628
vn 0.06418946061580422 0.02789363993462779 -0.004419068364832329
vn 0.06135704733293412 0.03385367764787828 -0.0026667246691783886
vn 0.057956512405962 0.03947480067780651 -0.0008080528130122722
vn 0.05402060484515592 0.044702874536815096 0.00113904717763752
vn 0.049587229591911974 0.04948755001568561 0.003155823665468044
vn 0.04469908247344989 0.05378274807398853 0.005222853990419329
vn 0.03940323901865184 0.05754710360642634 0.0073202315205082025
vn 0.03375070109498979 0.06074436381141668 0.009427757363577094
vn 0.027795905732661996 0.0633437373253849 0.011525134893665967
vn 0.021596200866228488 0.0653201907604295 0.013592165218617114
vn 0.015211293042656893 0.06665468978953237 0.015608941706447832
vn 0.008702672414633073 0.0673343824575301 0.017556041697097735
vn 0.0021330205567808846 0.0673527229524733 0.01941471355326352
vn -0.004434393192173536 0.06670953464537033 0.021167057248917598
vn -0.010936321047713582 0.06541101179121966 0.02279619675634187
vn -0.01731014589027491 0.06346965987495223 0.024286442571501643
vn -0.023494484302337026 0.060904175176773157 0.02562344281254597
vn -0.029429777724287343 0.05773926471676116 0.02679432143627425
vn -0.035058866035911906 0.05400540831276346 0.027787802241473314
vn -0.04032753803959843 0.04973856504308394 0.028594317464897323
vn -0.0451850535437992 0.04497982694090186 0.029206099924057594
vn -0.04958463201882379 0.03977502325553495 0.02961725781943958
vn -0.053483903118901166 0.03417427909170523 0.02982383147574752
vn -0.05684531473178045 0.028231532677390758 0.029823831475747575
vn -0.05963649462609566 0.02200401590919654 0.02961725781943958
vn -0.0618305622136478 0.015551703177907106 0.029206099924057594
vn -0.06340638742417304 0.008936733782317186 0.028594317464897323
vn -0.0643487941994566 0.002222813493817144 0.027787802241473314
vn -0.06464870664708311 -0.0045253989650118065 0.02679432143627425
vn -0.06430323644623337 -0.01124291461924587 0.025623442812546027
vn -0.06331571066379227 -0.01786504012096435 0.024286442571501587
vn -0.06169563971288328 -0.024328000781564718 0.022796196756341758
vn -0.0594586257623847 -0.030569554756871398 0.021167057248917737
vn -0.05662621247951416 -0.03652959247012211 0.019414713553263546
vn -0.05322567755254204 -0.04215071550005001 0.01755604169709754
vn -0.04928976999173634 -0.047378789359058926 0.015608941706447832
vn -0.04485639473849257 -0.05216346483792966 0.013592165218617239
vn -0.03996824762003004 -0.05645866289623225 0.01152513489366605
vn -0.03467240416523157 -0.06022301842867006 0.009427757363576983
vn -0.02901986624157038 -0.06342027863366062 0.007320231520508272
vn 0.02306507087924206 0.06601965214762862 -0.005222853990419267
vn 0.016865366012808553 0.06799610558267344 -0.00315582366546803
vn 0.010480458189236985 0.06933060461177565 -0.00113904717763752
vn 0.003971837561213748 0.07001029727977381 0.0008080528130123207
vn -0.0025978142966390505 0.07002863777471724 0.00266672466917834
vn -0.009165228045593332 0.06938544946761405 0.004419068364832308
vn -0.015667155901133323 0.06808692661346338 0.006048207872256579
vn -0.022040980743694844 0.06614557469719595 0.007538453687416444
vn -0.028225319155756184 0.06358008999901688 0.008875453928460508
vn -0.03416061257770722 0.06041517953900488 0.010046332552189105
vn -0.03978970088933226 0.05668132313500718 0.011039813357388191
vn -0.04505837289301773 0.052414479865327435 0.011846328580811853
vn -0.04991588839721939 0.047655741763145576 0.012458111039972505
vn -0.0543154668722432 0.042450938077778 0.012869268935354089
vn -0.058214737972321184 0.03685019391394939 0.013075842591662376
vn -0.061576149585200635 0.030907447499634588 0.013075842591662362
vn -0.06436732947951496 0.024679930731439925 0.012869268935354089
vn -0.06656139706706776 0.018227618000150825 0.012458111039972505
vn -0.06813722227759256 0.011612648604561016 0.011846328580811874
vn -0.0690796290528769 0.004898728316061196 0.011039813357388198
vn -0.06937954150050296 -0.0018494841427688646 0.01004633255218905
vn -0.06903407129965278 -0.008566999797001928 0.008875453928460592
vn -0.06804654551721223 -0.015189125298720518 0.007538453687416402
vn -0.06642647456630346 -0.021652085959320777 0.006048207872256628
vn -0.06418946061580422 -0.02789363993462779 0.004419068364832329
vn -0.06135704733293412 -0.03385367764787828 0.0026667246691783886
vn -0.057956512405962 -0.03947480067780651 0.0008080528130122722
vn -0.05402060484515592 -0.044702874536815096 -0.00113904717763752
vn -0.049587229591911974 -0.04948755001568561 -0.003155823665468044
vn -0.04469908247344989 -0.05378274807398853 -0.005222853990419329
vn -0.03940323901865184 -0.05754710360642634 -0.0073202315205082025
vn -0.03375070109498979 -0.06074436381141668 -0.009427757363577094
vn -0.027795905732661996 -0.0633437373253849 -0.011525134893665967
vn -0.021596200866228488 -0.0653201907604295 -0.013592165218617114
vn -0.015211293042656893 -0.06665468978953237 -0.015608941706447832
vn -0.008702672414633073 -0.0673343824575301 -0.017556041697097735
vn -0.0021330205567808846 -0.0673527229524733 -0.01941471355326352
vn 0.004434393192173536 -0.06670953464537033 -0.021167057248917598
vn 0.010936321047713582 -0.06541101179121966 -0.02279619675634187
vn 0.01731014589027491 -0.06346965987495223 -0.024286442571501643
vn 0.023494484302337026 -0.060904175176773157 -0.02562344281254597
vn 0.029429777724287343 -0.05773926471676116 -0.02679432143627425
vn 0.035058866035911906 -0.05400540831276346 -0.027787802241473314
vn 0.04032753803959843 -0.04973856504308394 -0.028594317464897323
vn 0.0451850535437992 -0.04497982694090186 -0.029206099924057594
vn 0.04958463201882379 -0.03977502325553495 -0.02961725781943958
vn 0.053483903118901166 -0.03417427909170523 -0.02982383147574752
vn 0.05684531473178045 -0.028231532677390758 -0.029823831475747575
vn 0.05963649462609566 -0.02200401590919654 -0.02961725781943958
vn 0.0618305622136478 -0.015551703177907106 -0.029206099924057594
vn 0.06340638742417304 -0.008936733782317186 -0.028594317464897323
vn 0.0643487941994566 -0.002222813493817144 -0.027787802241473314
vn 0.06464870664708311 0.0045253989650118065 -0.02679432143627425
vn 0.06430323644623337 0.01124291461924587 -0.025623442812546027
vn 0.06331571066379227 0.01786504012096435 -0.024286442571501587
vn 0.06169563971288328 0.024328000781564718 -0.022796196756341758
vn 0.0594586257623847 0.030569554756871398 -0.021167057248917737
vn 0.05662621247951416 0.03652959247012211 -0.019414713553263546
vn 0.05322567755254204 0.04215071550005001 -0.01755604169709754
vn 0.04928976999173634 0.047378789359058926 -0.015608941706447832
vn 0.04485639473849257 0.05216346483792966 -0.013592165218617239
vn 0.03996824762003004 0.05645866289623225 -0.01152513489366605
vn 0.03467240416523157 0.06022301842867006 -0.009427757363576983
vn 0.02901986624157038 0.06342027863366062 -0.007320231520508272
v 0 0 0
v 0 0 0
v 0 0 0
v 0 0 0
v 0 0 0
v 0 0 0
v 0 0 0
v 0 0 0
v 0 0 0
v 0 0 0
v 0 0 0
v 0 0 0
v 0 0 0
v 0 0 0
v 0 0 0
v 0 0 0
v 0 0 0
v 0 0 0
v 0 0 0
v 0 0 0
v 0 0 0
v 0 0 0
v 0 0 0
v 0 0 0
v 0 0 0
v 0 0 0
v 0 0 0
v 0 0 0
v 0 0 0
v 0 0 0
v 0 0 0
v 0 0 0
v 0 0 0
v 0 0 0
v 0 0 0
v 0 0 0
v 0 0 0
v 0 0 0
v 0 0 0
v 0 0 0
v 0 0 0
v 0 0 0
v 0 0 0
v 0 0 0
v 0 0 0
v 0 0 0
v 0 0 0
v 0 0 0
v 0 0 0
v 0 0 0
v 0 0 0
v 0 0 0
v 0 0 0
v 0 0 0
v 0 0 0
v 0 0 0
v 0 0 0
v 0 0 0
v 0 0 0
v 0 0 0
v 0 0 0
v 0 0 0
v 0 0 0
v 0 0 0
v 0.7580826234600456 -0.08613266562431277 2.259067712979554
v 0.7318719095140629 -0.07626507016834416 2.2680480989261986
v 0.7047336745286238 -0.06912512806515958 2.27685467181409
v 0.6769292745419062 -0.06478160086030205 2.2854026195321544
v 0.6487264811252135 -0.0632763190951679 2.293609620671084
v 0.6203969025963635 -0.06462377945602604 2.301396637323507
v 0.5922133682831119 -0.06881100516300465 2.308688676262245
v 0.5644473010275824 -0.07579767094357515 2.3154155111660835
v 0.5373661032359223 -0.0855164913869707 2.3215123589376367
v 0.5112305816469535 -0.09787386893947347 2.3269205035999887
v 0.48629243562070734 -0.11275079530002341 2.331587861763648
v 0.4627918331359939 -0.13000399753521313 2.3354694842180614
v 0.4409550978414771 -0.149467317875958 2.3385279888170825
v 0.4209925294352169 -0.17095331390764348 2.3407339204894733
v 0.40309637836361556 -0.19425506374304422 2.3420660349073446
v 0.38743899434452367 -0.2191481587932132 2.342511503080644
v 0.37417116654524213 -0.2453928649448673 2.3420660349073446
v 0.36342067140041046 -0.2727364313309503 2.3407339204894733
v 0.3552910420550916 -0.30091552445965036 2.3385279888170825
v 0.3498605712839886 -0.329658764259879 2.3354694842180614
v 0.3471815574892244 -0.3586893376197067 2.331587861763648
v 0.3472798010381406 -0.3877276642479526 2.3269205035999887
v 0.3501543557916556 -0.41649408918522274 2.3215123589376367
v 0.3557775382161017 -0.44471157603404377 2.3154155111660835
v 0.3640951939907872 -0.47210837497081415 2.308688676262245
v 0.3750272195437088 -0.49842063984515894 2.301396637323507
v 0.38846833349273874 -0.5233949691625912 2.293609620671084
v 0.40428909056288764 -0.5467908464794269 2.2854026195321544
v 0.42233712821506436 -0.5683829567076174 2.27685467181409
v 0.4424386339806174 -0.587963356022217 2.268048098926199
v 0.46440001937042386 -0.6053434744740913 2.259067712979554
v 0.48800978423786534 -0.6203559320216097 2.25
v 0.5130405536408581 -0.6328561504919449 2.240932287020446
v 0.5392512675868408 -0.6427237459479136 2.2319519010738014
v 0.5663895025722798 -0.6498636880510982 2.22314532818591
v 0.5941939025589975 -0.6542072152559557 2.2145973804678456
v 0.6223966959756903 -0.6557124970210897 2.206390379328916
v 0.6507262745045401 -0.6543650366602316 2.198603362676493
v 0.6789098088177917 -0.650177810953253 2.191311323737755
v 0.7066758760733212 -0.6431911451726825 2.1845844888339165
v 0.7337570738649813 -0.633472324729287 2.1784876410623633
v 0.7598925954539503 -0.6211149471767841 2.1730794964000113
v 0.7848307414801964 -0.6062380208162342 2.168412138236352
v 0.8083313439649097 -0.5889848185810447 2.1645305157819386
v 0.8301680792594266 -0.5695214982402996 2.1614720111829175
v 0.8501306476656867 -0.5480355022086143 2.1592660795105267
v 0.8680267987372883 -0.5247337523732134 2.1579339650926554
v 0.8836841827563799 -0.4998406573230445 2.157488496919356
v 0.8969520105556614 -0.4735959511713905 2.1579339650926554
v 0.9077025057004933 -0.44625238478530727 2.1592660795105267
v 0.9158321350458121 -0.41807329165660734 2.1614720111829175
v 0.9212626058169151 -0.38933005185637853 2.1645305157819386
v 0.9239416196116792 -0.360299478496551 2.168412138236352
v 0.9238433760627631 -0.3312611518683052 2.1730794964000113
v 0.9209688213092481 -0.3024947269310348 2.1784876410623633
v 0.915345638884802 -0.2742772400822139 2.1845844888339165
v 0.9070279831101165 -0.24688044114544366 2.191311323737755
v 0.896095957557195 -0.2205681762710987 2.198603362676493
v 0.8826548436081649 -0.19559384695366652 2.206390379328916
v 0.8668340865380162 -0.1721979696368309 2.2145973804678456
v 0.8487860488858394 -0.1506058594086403 2.22314532818591
v 0.8286845431202863 -0.13102546009404056 2.231951901073801
v 0.8067231577304799 -0.11364534164216619 2.240932287020446
v 0.7831133928630384 -0.0986328840946481 2.25
f 1//1 65//1 66//1 2//1
f 2//65 66//65 65//65 1//65
f 2//2 66//2 67//2 3//2
f 3//66 67//66 66//66 2//66
f 3//3 67//3 68//3 4//3
f 4//67 68//67 67//67 3//67
f 4//4 68//4 69//4 5//4
f 5//68 69//68 68//68 4//68
f 5//5 69//5 70//5 6//5
f 6//69 70//69 69//69 5//69
f 6//6 70//6 71//6 7//6
f 7//70 71//70 70//70 6//70
f 7//7 71//7 72//7 8//7
f 8//71 72//71 71//71 7//71
f 8//8 72//8 73//8 9//8
f 9//72 73//72 72//72 8//72
f 9//9 73//9 74//9 10//9
f 10//73 74//73 73//73 9//73
f 10//10 74//10 75//10 11//10
f 11//74 75//74 74//74 10//74
f 11//11 75//11 76//11 12//11
f 12//75 76//75 75//75 11//75
f 12//12 76//12 77//12 13//12
f 13//76 77//76 76//76 12//76
f 13//13 77//13 78//13 14//13
f 14//77 78//77 77//77 13//77
f 14//14 78//14 79//14 15//14
f 15//78 79//78 78//78 14//78
f 15//15 79//15 80//15 16//15
f 16//79 80//79 79//79 15//79
f 16//16 80//16 81//16 17//16
f 17//80 81//80 80//80 16//80
f 17//17 81//17 82//17 18//17
f 18//81 82//81 81//81 17//81
f 18//18 82//18 83//18 19//18
f 19//82 83//82 82//82 18//82
f 19//19 83//19 84//19 20//19
f 20//83 84//83 83//83 19//83
f 20//20 84//20 85//20 21//20
f 21//84 85//84 84//84 20//84
f 21//21 85//21 86//21 22//21
f 22//85 86//85 85//85 21//85
f 22//22 86//22 87//22 23//22
f 23//86 87//86 86//86 22//86
f 23//23 87//23 88//23 24//23
f 24//87 88//87 87//87 23//87
f 24//24 88//24 89//24 25//24
f 25//88 89//88 88//88 24//88
f 25//25 89//25 90//25 26//25
f 26//89 90//89 89//89 25//89
f 26//26 90//26 91//26 27//26
f 27//90 91//90 90//90 26//90
f 27//27 91//27 92//27 28//27
f 28//91 92//91 91//91 27//91
f 28//28 92//28 93//28 29//28
f 29//92 93//92 92//92 28//92
f 29//29 93//29 94//29 30//29
f 30//93 94//93 93//93 29//93
f 30//30 94//30 95//30 31//30
f 31//94 95//94 94//94 30//94
f 31//31 95//31 96//31 32//31
f 32//95 96//95 95//95 31//95
f 32//32 96//32 97//32 33//32
f 33//96 97//96 96//96 32//96
f 33//33 97//33 98//33 34//33
f 34//97 98//97 97//97 33//97
f 34//34 98//34 99//34 35//34
f 35//98 99//98 98//98 34//98
f 35//35 99//35 100//35 36//35
f 36//99 100//99 99//99 35//99
f 36//36 100//36 101//36 37//36
f 37//100 101//100 100//100 36//100
f 37//37 101//37 102//37 38//37
f 38//101 102//101 101//101 37//101
f 38//38 102//38 103//38 39//38
f 39//102 103//102 102//102 38//102
f 39//39 103//39 104//39 40//39
f 40//103 104//103 103//103 39//103
f 40//40 104//40 105//40 41//40
f 41//104 105//104 104//104 40//104
f 41//41 105//41 106//41 42//41
f 42//105 106//105 105//105 41//105
f 42//42 106//42 107//42 43//42
f 43//106 107//106 106//106 42//106
f 43//43 107//43 108//43 44//43
f 44//107 108//107 107//107 43//107
f 44//44 108//44 109//44 45//44
f 45//108 109//108 108//108 44//108
f 45//45 109//45 110//45 46//45
f 46//109 110//109 109//109 45//109
f 46//46 110//46 111//46 47//46
f 47//110 111//110 110//110 46//110
f 47//47 111//47 112//47 48//47
f 48//111 112//111 111//111 47//111
f 48//48 112//48 113//48 49//48
f 49//112 113//112 112//112 48//112
f 49//49 113//49 114//49 50//49
f 50//113 114//113 113//113 49//113
f 50//50 114//50 115//50 51//50
f 51//114 115//114 114//114 50//114
f 51//51 115//51 116//51 52//51
f 52//115 116//115 115//115 51//115
f 52//52 116//52 117//52 53//52
f 53//116 117//116 116//116 52//116
f 53//53 117//53 118//53 54//53
f 54//117 118//117 117//117 53//117
f 54//54 118//54 119//54 55//54
f 55//118 119//118 118//118 54//118
f 55//55 119//55 120//55 56//55
f 56//119 120//119 119//119 55//119
f 56//56 120//56 121//56 57//56
f 57//120 121//120 120//120 56//120
f 57//57 121//57 122//57 58//57
f 58//121 122//121 121//121 57//121
f 58//58 122//58 123//58 59//58
f 59//122 123//122 122//122 58//122
f 59//59 123//59 124//59 60//59
f 60//123 124//123 123//123 59//123
f 60//60 124//60 125//60 61//60
f 61//124 125//124 124//124 60//124
f 61//61 125//61 126//61 62//61
f 62//125 126//125 125//125 61//125
f 62//62 126//62 127//62 63//62
f 63//126 127//126 126//126 62//126
f 63//63 127//63 128//63 64//63
f 64//127 128//127 127//127 63//127
f 64//64 128//64 65//64 1//64
f 1//128 65//128 128//128 64//128