o Jets_3
vn 0.0327932732006152 -0.023011031669307958 -0.010006596425920944
vn 0.03070820726037038 -0.02428779288256233 -0.013120496998026976
vn 0.02837120414825045 -0.025278642402936202 -0.016158692124367824
vn 0.025804770481761663 -0.025974037807894812 -0.01909192232503043
vn 0.023033622420067457 -0.026367282059546637 -0.02189193898971531
vn 0.0200844476338653 -0.026454588000779045 -0.024531776427297425
vn 0.01698564828852933 -0.02623511482765173 -0.026986011560170442
vn 0.013767067515731646 -0.02571097618679824 -0.02923100876238338
vn 0.010459702007769023 -0.024887219819853035 -0.03124514748363849
vn 0.007095403502473285 -0.02377177895094118 -0.033009030467010425
vn 0.0037065720335628383 -0.022375395885392113 -0.03450567055513243
vn 0.00032584390060719226 -0.020711518555467823 -0.035720654285809395
vn -0.0030142226363795155 -0.01879617100942288 -0.03664228070153641
vn -0.006281460910779857 -0.01664779909116193 -0.03726167403611935
vn -0.00944440563195692 -0.014287092796676948 -0.03757286919314973
vn -0.01247259591320482 -0.011736787018077233 -0.03757286919314984
vn -0.015336868626737887 -0.009021442594149331 -0.03726167403611902
vn -0.018009639260553545 -0.006167209776054672 -0.036642280701536634
vn -0.02046516757236394 -0.0032015763861129587 -0.035720654285809395
vn -0.02267980548219717 -0.00015310309505023323 -0.03450567055513243
vn -0.024632224816337644 0.0029488516328759484 -0.033009030467010314
vn -0.02630362270929687 0.006074414277934648 -0.031245147483638602
vn -0.027677902685686484 0.009193483963247817 -0.02923100876238327
vn -0.028741829678075592 0.01227602234268832 -0.02698601156017022
vn -0.02948515748792646 0.015292342886575994 -0.024531776427297425
vn -0.029900727462085497 0.01821339677918421 -0.02189193898971531
vn -0.029984537434528113 0.021011052674716924 -0.01909192232503043
vn -0.029735780269404377 0.023658367617545695 -0.016158692124367824
vn -0.0291568516341989 0.02612984651760153 -0.013120496998026976
vn -0.028253326928143307 0.02840168768202933 -0.010006596425920833
vn -0.027033907588074002 0.030452012038500675 -0.006846978972790296
vn -0.025510337288837892 0.03226107384264154 -0.003672073481930993
vn -0.023697288845285103 0.033811450840344426 -0.0005124560288001234
vn -0.021612222905039946 0.035088212053598467 0.0026014445433057976
vn -0.01927521979292024 0.03607906157397278 0.0056396396696467566
vn -0.01670878612643134 0.036774456978931225 0.008572869870309141
vn -0.013937638064737023 0.037167701230582884 0.011372886534994242
vn -0.010988463278534866 0.0372550071718154 0.014012723972576302
vn -0.007889663933199342 0.037035533998688086 0.01646695910544904
vn -0.004671083160401324 0.03651139535783454 0.018711956307662037
vn -0.0013637176524385897 0.03568763899088956 0.020726095028917535
vn 0.002000580852857037 0.03457219812197743 0.02248997801228919
vn 0.005389412321767373 0.033175815056428526 0.02398661810041114
vn 0.008770140454723241 0.03151193772650418 0.02520160183108816
vn 0.012110206991709727 0.029596590180459348 0.0261232282468154
vn 0.01537744526611029 0.027448218262198454 0.026742621581398174
vn 0.01854038998728713 0.025087511967713305 0.027053816738428604
vn 0.02156858026853503 0.022537206189113368 0.02705381673842855
vn 0.02443285298206832 0.019821861765185855 0.026742621581398174
vn 0.027105623615883645 0.016967628947090918 0.0261232282468154
vn 0.029561151927694373 0.014001995557149427 0.02520160183108816
vn 0.03177578983752738 0.01095352226608648 0.02398661810041114
vn 0.033728209171667856 0.007851567538160409 0.022489978012289247
vn 0.035399607064627414 0.004726004893101821 0.02072609502891759
vn 0.036773887041016584 0.0016069352077886512 0.01871195630766198
vn 0.0378378140334058 -0.0014756031716519624 0.016466959105449097
vn 0.038581141843257116 -0.004491923715539581 0.014012723972576357
vn 0.03899671181741582 -0.007412977608147908 0.011372886534994187
vn 0.039080521789858325 -0.010210633503680455 0.008572869870309197
vn 0.03883176462473492 -0.012857948446509393 0.005639639669646812
vn 0.03825283598952922 -0.015329427346565228 0.0026014445433059086
vn 0.03734931128347396 -0.01760126851099303 -0.0005124560288001789
vn 0.0361298919434041 -0.019651592867464263 -0.003672073481930993
vn 0.034606321644168325 -0.021460654671605184 -0.006846978972790185
vn -0.0327932732006152 0.023011031669307958 0.010006596425920944
vn -0.03070820726037038 0.02428779288256233 0.013120496998026976
vn -0.02837120414825045 0.025278642402936202 0.016158692124367824
vn -0.025804770481761663 0.025974037807894812 0.01909192232503043
vn -0.023033622420067457 0.026367282059546637 0.02189193898971531
vn -0.0200844476338653 0.026454588000779045 0.024531776427297425
vn -0.01698564828852933 0.02623511482765173 0.026986011560170442
vn -0.013767067515731646 0.02571097618679824 0.02923100876238338
vn -0.010459702007769023 0.024887219819853035 0.03124514748363849
vn -0.007095403502473285 0.02377177895094118 0.033009030467010425
vn -0.0037065720335628383 0.022375395885392113 0.03450567055513243
vn -0.00032584390060719226 0.020711518555467823 0.035720654285809395
vn 0.0030142226363795155 0.01879617100942288 0.03664228070153641
vn 0.006281460910779857 0.01664779909116193 0.03726167403611935
vn 0.00944440563195692 0.014287092796676948 0.03757286919314973
vn 0.01247259591320482 0.011736787018077233 0.03757286919314984
vn 0.015336868626737887 0.009021442594149331 0.03726167403611902
vn 0.018009639260553545 0.006167209776054672 0.036642280701536634
vn 0.02046516757236394 0.0032015763861129587 0.035720654285809395
vn 0.02267980548219717 0.00015310309505023323 0.03450567055513243
vn 0.024632224816337644 -0.0029488516328759484 0.033009030467010314
vn 0.02630362270929687 -0.006074414277934648 0.031245147483638602
vn 0.027677902685686484 -0.009193483963247817 0.02923100876238327
vn 0.028741829678075592 -0.01227602234268832 0.02698601156017022
vn 0.02948515748792646 -0.015292342886575994 0.024531776427297425
vn 0.029900727462085497 -0.01821339677918421 0.02189193898971531
vn 0.029984537434528113 -0.021011052674716924 0.01909192232503043
vn 0.029735780269404377 -0.023658367617545695 0.016158692124367824
vn 0.0291568516341989 -0.02612984651760153 0.013120496998026976
vn 0.028253326928143307 -0.02840168768202933 0.010006596425920833
vn 0.027033907588074002 -0.030452012038500675 0.006846978972790296
vn 0.025510337288837892 -0.03226107384264154 0.003672073481930993
vn 0.023697288845285103 -0.033811450840344426 0.0005124560288001234
vn 0.021612222905039946 -0.035088212053598467 -0.0026014445433057976
vn 0.01927521979292024 -0.03607906157397278 -0.0056396396696467566
vn 0.01670878612643134 -0.036774456978931225 -0.008572869870309141
vn 0.013937638064737023 -0.037167701230582884 -0.011372886534994242
vn 0.010988463278534866 -0.0372550071718154 -0.014012723972576302
vn 0.007889663933199342 -0.037035533998688086 -0.01646695910544904
vn 0.004671083160401324 -0.03651139535783454 -0.018711956307662037
vn 0.0013637176524385897 -0.03568763899088956 -0.020726095028917535
vn -0.002000580852857037 -0.03457219812197743 -0.02248997801228919
vn -0.005389412321767373 -0.033175815056428526 -0.02398661810041114
vn -0.008770140454723241 -0.03151193772650418 -0.02520160183108816
vn -0.012110206991709727 -0.029596590180459348 -0.0261232282468154
vn -0.01537744526611029 -0.027448218262198454 -0.026742621581398174
vn -0.01854038998728713 -0.025087511967713305 -0.027053816738428604
vn -0.02156858026853503 -0.022537206189113368 -0.02705381673842855
vn -0.02443285298206832 -0.019821861765185855 -0.026742621581398174
vn -0.027105623615883645 -0.016967628947090918 -0.0261232282468154
vn -0.029561151927694373 -0.014001995557149427 -0.02520160183108816
vn -0.03177578983752738 -0.01095352226608648 -0.02398661810041114
vn -0.033728209171667856 -0.007851567538160409 -0.022489978012289247
vn -0.035399607064627414 -0.004726004893101821 -0.02072609502891759
vn -0.036773887041016584 -0.0016069352077886512 -0.01871195630766198
vn -0.0378378140334058 0.0014756031716519624 -0.016466959105449097
vn -0.038581141843257116 0.004491923715539581 -0.014012723972576357
vn -0.03899671181741582 0.007412977608147908 -0.011372886534994187
vn -0.039080521789858325 0.010210633503680455 -0.008572869870309197
vn -0.03883176462473492 0.012857948446509393 -0.005639639669646812
vn -0.03825283598952922 0.015329427346565228 -0.0026014445433059086
vn -0.03734931128347396 0.01760126851099303 0.0005124560288001789
vn -0.0361298919434041 0.019651592867464263 0.003672073481930993
vn -0.034606321644168325 0.021460654671605184 0.006846978972790185
v 0 0 0
v 0 0 0
v 0 0 0
v 0 0 0
v 0 0 0
v 0 0 0
v 0 0 0
v 0 0 0
v 0 0 0
v 0 0 0
v 0 0 0
v 0 0 0
v 0 0 0
v 0 0 0
v 0 0 0
v 0 0 0
v 0 0 0
v 0 0 0
v 0 0 0
v 0 0 0
v 0 0 0
v 0 0 0
v 0 0 0
v 0 0 0
v 0 0 0
v 0 0 0
v 0 0 0
v 0 0 0
v 0 0 0
v 0 0 0
v 0 0 0
v 0 0 0
v 0 0 0
v 0 0 0
v 0 0 0
v 0 0 0
v 0 0 0
v 0 0 0
v 0 0 0
v 0 0 0
v 0 0 0
v 0 0 0
v 0 0 0
v 0 0 0
v 0 0 0
v 0 0 0
v 0 0 0
v 0 0 0
v 0 0 0
v 0 0 0
v 0 0 0
v 0 0 0
v 0 0 0
v 0 0 0
v 0 0 0
v 0 0 0
v 0 0 0
v 0 0 0
v 0 0 0
v 0 0 0
v 0 0 0
v 0 0 0
v 0 0 0
v 0 0 0
v 0.49176393171153066 1.0469202337111303 -0.7958915650591087
v 0.5062606869702024 1.0574341198343884 -0.7725608860516556
v 0.5227059849982766 1.0658671709434016 -0.7496817663318746
v 0.5409414485858285 1.072138172146015 -0.7274745443296662
v 0.5607914602499916 1.0761867302725698 -0.7061530877326141
v 0.5820648535273198 1.0779738554951406 -0.6859227338232418
v 0.6045567540113329 1.0774823368208915 -0.6669783119687328
v 0.6280505524050461 1.0747169078433467 -0.6495022673076205
v 0.6523199905869117 1.069704201155298 -0.6336629037033692
v 0.6771313406002135 1.062492491862375 -0.6196127628861647
v 0.70224565558106 1.0531512326673902 -0.607487155392665
v 0.7274210709473047 1.0417703850028428 -0.5974028574515637
v 0.7524151336866886 1.0284595526531464 -0.5894569863646717
v 0.7769871373118866 1.0133469262102701 -0.5837260652142109
v 0.800900439995565 0.9965780485282604 -0.5802652859037002
v 0.8239247435605388 0.9783144130659962 -0.5791079776297542
v 0.8458383113771127 0.9587319086168979 -0.5802652859037001
v 0.8664301038080383 0.9380191254036961 -0.5837260652142109
v 0.8855018106355871 0.916375538851493 -0.5894569863646717
v 0.9028697608973544 0.8940095885303742 -0.5974028574515637
v 0.9183666917380319 0.8711366707684042 -0.607487155392665
v 0.9318433592421397 0.8479770642672396 -0.6196127628861646
v 0.9431699757345176 0.8247538086978153 -0.6336629037033691
v 0.9522374597065854 0.8016905567063876 -0.6495022673076205
v 0.9589584863309013 0.7790094200172901 -0.6669783119687328
v 0.9632683284469861 0.7569288303756092 -0.6859227338232418
v 0.9651254799192626 0.7356614359300726 -0.7061530877326141
v 0.9645120553638306 0.715412053315131 -0.7274745443296662
v 0.9614339623944907 0.6963756951548049 -0.7496817663318746
v 0.9559208447291947 0.6787356919845102 -0.7725608860516555
v 0.9480257967048358 0.6626619266777835 -0.7958915650591086
v 0.9378248519497611 0.6483091983813423 -0.8194491161615457
v 0.9254162511383653 0.6358157317146809 -0.8430066672639827
v 0.9109194958796936 0.6253018455914228 -0.8663373462714359
v 0.8944741978516195 0.6168687944824096 -0.8892164659912167
v 0.8762387342640675 0.6105977932797961 -0.9114236879934252
v 0.8563887225999044 0.6065492351532412 -0.9327451445904773
v 0.8351153293225761 0.6047621099306706 -0.9529754984998495
v 0.8126234288385632 0.6052536286049199 -0.9719199203543586
v 0.7891296304448498 0.6080190575824643 -0.9893959650154709
v 0.7648601922629844 0.6130317642705131 -1.0052353286197222
v 0.7400488422496825 0.6202434735634361 -1.0192854694369267
v 0.714934527268836 0.629584732758421 -1.0314110769304263
v 0.6897591119025914 0.6409655804229684 -1.0414953748715277
v 0.6647650491632076 0.6542764127726648 -1.0494412459584197
v 0.6401930455380094 0.669389039215541 -1.0551721671088805
v 0.616279742854331 0.6861579168975509 -1.0586329464193913
v 0.5932554392893572 0.704421552359815 -1.0597902546933373
v 0.5713418714727834 0.7240040568089131 -1.0586329464193913
v 0.5507500790418577 0.7447168400221151 -1.0551721671088805
v 0.5316783722143089 0.766360426574318 -1.0494412459584197
v 0.5143104219525416 0.788726376895437 -1.0414953748715277
v 0.4988134911118642 0.8115992946574069 -1.0314110769304263
v 0.4853368236077563 0.8347589011585714 -1.0192854694369267
v 0.4740102071153784 0.8579821567279959 -1.0052353286197222
v 0.46494272314331064 0.8810454087194235 -0.9893959650154709
v 0.4582216965189948 0.9037265454085209 -0.9719199203543587
v 0.45391185440290993 0.925807135050202 -0.9529754984998496
v 0.45205470293063343 0.9470745294957386 -0.9327451445904773
v 0.45266812748606544 0.96732391211068 -0.9114236879934253
v 0.45574622045540525 0.9863602702710063 -0.8892164659912168
v 0.4612593381207013 1.004000273441301 -0.8663373462714359
v 0.46915438614506016 1.0200740387480278 -0.8430066672639827
v 0.47935533090013493 1.034426767044469 -0.8194491161615458
f 1//1 65//1 66//1 2//1
f 2//65 66//65 65//65 1//65
f 2//2 66//2 67//2 3//2
f 3//66 67//66 66//66 2//66
f 3//3 67//3 68//3 4//3
f 4//67 68//67 67//67 3//67
f 4//4 68//4 69//4 5//4
f 5//68 69//68 68//68 4//68
f 5//5 69//5 70//5 6//5
f 6//69 70//69 69//69 5//69
f 6//6 70//6 71//6 7//6
f 7//70 71//70 70//70 6//70
f 7//7 71//7 72//7 8//7
f 8//71 72//71 71//71 7//71
f 8//8 72//8 73//8 9//8
f 9//72 73//72 72//72 8//72
f 9//9 73//9 74//9 10//9
f 10//73 74//73 73//73 9//73
f 10//10 74//10 75//10 11//10
f 11//74 75//74 74//74 10//74
f 11//11 75//11 76//11 12//11
f 12//75 76//75 75//75 11//75
f 12//12 76//12 77//12 13//12
f 13//76 77//76 76//76 12//76
f 13//13 77//13 78//13 14//13
f 14//77 78//77 77//77 13//77
f 14//14 78//14 79//14 15//14
f 15//78 79//78 78//78 14//78
f 15//15 79//15 80//15 16//15
f 16//79 80//79 79//79 15//79
f 16//16 80//16 81//16 17//16
f 17//80 81//80 80//80 16//80
f 17//17 81//17 82//17 18//17
f 18//81 82//81 81//81 17//81
f 18//18 82//18 83//18 19//18
f 19//82 83//82 82//82 18//82
f 19//19 83//19 84//19 20//19
f 20//83 84//83 83//83 19//83
f 20//20 84//20 85//20 21//20
f 21//84 85//84 84//84 20//84
f 21//21 85//21 86//21 22//21
f 22//85 86//85 85//85 21//85
f 22//22 86//22 87//22 23//22
f 23//86 87//86 86//86 22//86
f 23//23 87//23 88//23 24//23
f 24//87 88//87 87//87 23//87
f 24//24 88//24 89//24 25//24
f 25//88 89//88 88//88 24//88
f 25//25 89//25 90//25 26//25
f 26//89 90//89 89//89 25//89
f 26//26 90//26 91//26 27//26
f 27//90 91//90 90//90 26//90
f 27//27 91//27 92//27 28//27
f 28//91 92//91 91//91 27//91
f 28//28 92//28 93//28 29//28
f 29//92 93//92 92//92 28//92
f 29//29 93//29 94//29 30//29
f 30//93 94//93 93//93 29//93
f 30//30 94//30 95//30 31//30
f 31//94 95//94 94//94 30//94
f 31//31 95//31 96//31 32//31
f 32//95 96//95 95//95 31//95
f 32//32 96//32 97//32 33//32
f 33//96 97//96 96//96 32//96
f 33//33 97//33 98//33 34//33
f 34//97 98//97 97//97 33//97
f 34//34 98//34 99//34 35//34
f 35//98 99//98 98//98 34//98
f 35//35 99//35 100//35 36//35
f 36//99 100//99 99//99 35//99
f 36//36 100//36 101//36 37//36
f 37//100 101//100 100//100 36//100
f 37//37 101//37 102//37 38//37
f 38//101 102//101 101//101 37//101
f 38//38 102//38 103//38 39//38
f 39//102 103//102 102//102 38//102
f 39//39 103//39 104//39 40//39
f 40//103 104//103 103//103 39//103
f 40//40 104//40 105//40 41//40
f 41//104 105//104 104//104 40//104
f 41//41 105//41 106//41 42//41
f 42//105 106//105 105//105 41//105
f 42//42 106//42 107//42 43//42
f 43//106 107//106 106//106 42//106
f 43//43 107//43 108//43 44//43
f 44//107 108//107 107//107 43//107
f 44//44 108//44 109//44 45//44
f 45//108 109//108 108//108 44//108
f 45//45 109//45 110//45 46//45
f 46//109 110//109 109//109 45//109
f 46//46 110//46 111//46 47//46
f 47//110 111//110 110//110 46//110
f 47//47 111//47 112//47 48//47
f 48//111 112//111 111//111 47//111
f 48//48 112//48 113//48 49//48
f 49//112 113//112 112//112 48//112
f 49//49 113//49 114//49 50//49
f 50//113 114//113 113//113 49//113
f 50//50 114//50 115//50 51//50
f 51//114 115//114 114//114 50//114
f 51//51 115//51 116//51 52//51
f 52//115 116//115 115//115 51//115
f 52//52 116//52 117//52 53//52
f 53//116 117//116 116//116 52//116
f 53//53 117//53 118//53 54//53
f 54//117 118//117 117//117 53//117
f 54//54 118//54 119//54 55//54
f 55//118 119//118 118//118 54//118
f 55//55 119//55 120//55 56//55
f 56//119 120//119 119//119 55//119
f 56//56 120//56 121//56 57//56
f 57//120 121//120 120//120 56//120
f 57//57 121//57 122//57 58//57
f 58//121 122//121 121//121 57//121
f 58//58 122//58 123//58 59//58
f 59//122 123//122 122//122 58//122
f 59//59 123//59 124//59 60//59
f 60//123 124//123 123//123 59//123
f 60//60 124//60 125//60 61//60
f 61//124 125//124 124//124 60//124
f 61//61 125//61 126//61 62//61
f 62//125 126//125 125//125 61//125
f 62//62 126//62 127//62 63//62
f 63//126 127//126 126//126 62//126
f 63//63 127//63 128//63 64//63
f 64//127 128//127 127//127 63//127
f 64//64 128//64 65//64 1//64
f 1//128 65//128 128//128 64//128