o Jets_4
vn 0.03409079926416503 -0.06011686951057649 -0.01150106474141993
vn 0.02812741417213105 -0.06272019632537695 -0.013546978604217774
vn 0.02191428681200258 -0.06470447854173167 -0.015543152015323414
vn 0.01551125299669609 -0.06605060643717864 -0.017470360733569112
vn 0.008979977442108655 -0.06674561606421525 -0.01931004468547809
vn 0.002383359902189408 -0.06678281410020315 -0.021044486708920285
vn -0.004215070590074976 -0.06616184230772104 -0.022656983179067502
vn -0.010751767541973933 -0.06488868098458767 -0.024132004873431534
vn -0.017163778988539047 -0.06297559137032693 -0.025455346526767453
vn -0.023389353754379005 -0.06044099756372345 -0.026614263635540925
vn -0.029368536151251456 -0.057309309088686256 -0.027597595194466307
vn -0.035043743384123305 -0.05361068581718431 -0.028395871183087396
vn -0.04036032010495516 -0.049380747513195766 -0.029001403767251355
vn -0.04526706477359155 -0.044660230794906886 -0.029408361337155298
vn -0.049716722756572906 -0.03949459681881273 -0.0296128246689355
vn -0.053666441415092914 -0.033933593463924216 -0.02961282466893539
vn -0.057078182799334076 -0.02803077623250405 -0.02940836133715541
vn -0.059919089974718176 -0.021842992481298396 -0.029001403767251355
vn -0.062161803452148945 -0.015429833950418859 -0.028395871183087396
vn -0.06378472467484697 -0.008853062862305361 -0.027597595194466418
vn -0.06477222402425797 -0.0021760171177660492 -0.026614263635540925
vn -0.06511479134182618 0.004536999682634768 -0.025455346526767453
vn -0.06480912751701606 0.011221337517400176 -0.024132004873431645
vn -0.0638581762595537 0.017812622559151947 -0.022656983179067447
vn -0.062271095749891425 0.024247377129775094 -0.021044486708920285
vn -0.06006317044092346 0.030463631025158477 -0.019310044685478034
vn -0.057255663860350414 0.03640151832214089 -0.017470360733569085
vn -0.05387561383128181 0.042003853920071776 -0.01554315201532358
vn -0.049955572083221156 0.04721668426459602 -0.013546978604217719
vn -0.04553329076111523 0.05198980694987276 -0.011501064741419875
vn -0.04065135885156068 0.056277254195187254 -0.009425113695839232
vn -0.03535679202758191 0.06003773553981162 -0.007339118010874793
vn -0.029700579861998366 0.06323503549270848 -0.005263166965294025
vn -0.02373719476996472 0.06583836230750872 -0.003217253102496223
vn -0.01752406740983553 0.0678226445238641 -0.0012210796913904032
vn -0.011121033594529262 0.06916877241931063 0.0007061290268551568
vn -0.0045897580399421045 0.06986378204634747 0.0025458129787641753
vn 0.0020068594999773093 0.06990098008233492 0.004280255002206343
vn 0.008605289992241305 0.06928000828985326 0.00589275147235345
vn 0.015141986944140484 0.06800684696671966 0.0073677731667176755
vn 0.021553998390706097 0.06609375735245915 0.008691114820053525
vn 0.027779573156545445 0.06355916354585545 0.009850031928827038
vn 0.03375875555341812 0.06042747507081825 0.010833363487752365
vn 0.03943396278628969 0.05672885179931664 0.011631639476373454
vn 0.04475053950712182 0.05249891349532765 0.01223717206053744
vn 0.04965728417575854 0.04777839677703921 0.012644129630441522
vn 0.05410694215873946 0.04261276280094428 0.012848592962221433
vn 0.05805666081725935 0.03705175944605632 0.012848592962221447
vn 0.06146840220150085 0.031148942214636488 0.012644129630441536
vn 0.06430930937688473 0.024961158463430833 0.012237172060537468
vn 0.06655202285431594 0.01854799993255085 0.01163163947637344
vn 0.06817494407701341 0.011971228844437243 0.010833363487752379
vn 0.06916244342642464 0.005294183099898153 0.009850031928827038
vn 0.0695050107439934 -0.001418833700502442 0.008691114820053567
vn 0.06919934691918228 -0.008103171535268405 0.007367773166717662
vn 0.06824839566172014 -0.014694456577020176 0.005892751472353436
vn 0.06666131515205853 -0.0211292111476431 0.004280255002206357
vn 0.06445338984309013 -0.027345465043026485 0.002545812978764189
vn 0.061645883262517076 -0.03328335234000834 0.0007061290268551845
vn 0.05826583323344847 -0.038885687937939895 -0.0012210796913904032
vn 0.05434579148538754 -0.044098518282463806 -0.003217253102496209
vn 0.049923510163282225 -0.04887164096774077 -0.005263166965294053
vn 0.04504157825372723 -0.05315908821305526 -0.007339118010874723
vn 0.03974701142974846 -0.05691956955767985 -0.009425113695839205
vn -0.03409079926416503 0.06011686951057649 0.01150106474141993
vn -0.02812741417213105 0.06272019632537695 0.013546978604217774
vn -0.02191428681200258 0.06470447854173167 0.015543152015323414
vn -0.01551125299669609 0.06605060643717864 0.017470360733569112
vn -0.008979977442108655 0.06674561606421525 0.01931004468547809
vn -0.002383359902189408 0.06678281410020315 0.021044486708920285
vn 0.004215070590074976 0.06616184230772104 0.022656983179067502
vn 0.010751767541973933 0.06488868098458767 0.024132004873431534
vn 0.017163778988539047 0.06297559137032693 0.025455346526767453
vn 0.023389353754379005 0.06044099756372345 0.026614263635540925
vn 0.029368536151251456 0.057309309088686256 0.027597595194466307
vn 0.035043743384123305 0.05361068581718431 0.028395871183087396
vn 0.04036032010495516 0.049380747513195766 0.029001403767251355
vn 0.04526706477359155 0.044660230794906886 0.029408361337155298
vn 0.049716722756572906 0.03949459681881273 0.0296128246689355
vn 0.053666441415092914 0.033933593463924216 0.02961282466893539
vn 0.057078182799334076 0.02803077623250405 0.02940836133715541
vn 0.059919089974718176 0.021842992481298396 0.029001403767251355
vn 0.062161803452148945 0.015429833950418859 0.028395871183087396
vn 0.06378472467484697 0.008853062862305361 0.027597595194466418
vn 0.06477222402425797 0.0021760171177660492 0.026614263635540925
vn 0.06511479134182618 -0.004536999682634768 0.025455346526767453
vn 0.06480912751701606 -0.011221337517400176 0.024132004873431645
vn 0.0638581762595537 -0.017812622559151947 0.022656983179067447
vn 0.062271095749891425 -0.024247377129775094 0.021044486708920285
vn 0.06006317044092346 -0.030463631025158477 0.019310044685478034
vn 0.057255663860350414 -0.03640151832214089 0.017470360733569085
vn 0.05387561383128181 -0.042003853920071776 0.01554315201532358
vn 0.049955572083221156 -0.04721668426459602 0.013546978604217719
vn 0.04553329076111523 -0.05198980694987276 0.011501064741419875
vn 0.04065135885156068 -0.056277254195187254 0.009425113695839232
vn 0.03535679202758191 -0.06003773553981162 0.007339118010874793
vn 0.029700579861998366 -0.06323503549270848 0.005263166965294025
vn 0.02373719476996472 -0.06583836230750872 0.003217253102496223
vn 0.01752406740983553 -0.0678226445238641 0.0012210796913904032
vn 0.011121033594529262 -0.06916877241931063 -0.0007061290268551568
vn 0.0045897580399421045 -0.06986378204634747 -0.0025458129787641753
vn -0.0020068594999773093 -0.06990098008233492 -0.004280255002206343
vn -0.008605289992241305 -0.06928000828985326 -0.00589275147235345
vn -0.015141986944140484 -0.06800684696671966 -0.0073677731667176755
vn -0.021553998390706097 -0.06609375735245915 -0.008691114820053525
vn -0.027779573156545445 -0.06355916354585545 -0.009850031928827038
vn -0.03375875555341812 -0.06042747507081825 -0.010833363487752365
vn -0.03943396278628969 -0.05672885179931664 -0.011631639476373454
vn -0.04475053950712182 -0.05249891349532765 -0.01223717206053744
vn -0.04965728417575854 -0.04777839677703921 -0.012644129630441522
vn -0.05410694215873946 -0.04261276280094428 -0.012848592962221433
vn -0.05805666081725935 -0.03705175944605632 -0.012848592962221447
vn -0.06146840220150085 -0.031148942214636488 -0.012644129630441536
vn -0.06430930937688473 -0.024961158463430833 -0.012237172060537468
vn -0.06655202285431594 -0.01854799993255085 -0.01163163947637344
vn -0.06817494407701341 -0.011971228844437243 -0.010833363487752379
vn -0.06916244342642464 -0.005294183099898153 -0.009850031928827038
vn -0.0695050107439934 0.001418833700502442 -0.008691114820053567
vn -0.06919934691918228 0.008103171535268405 -0.007367773166717662
vn -0.06824839566172014 0.014694456577020176 -0.005892751472353436
vn -0.06666131515205853 0.0211292111476431 -0.004280255002206357
vn -0.06445338984309013 0.027345465043026485 -0.002545812978764189
vn -0.061645883262517076 0.03328335234000834 -0.0007061290268551845
vn -0.05826583323344847 0.038885687937939895 0.0012210796913904032
vn -0.05434579148538754 0.044098518282463806 0.003217253102496209
vn -0.049923510163282225 0.04887164096774077 0.005263166965294053
vn -0.04504157825372723 0.05315908821305526 0.007339118010874723
vn -0.03974701142974846 0.05691956955767985 0.009425113695839205
v 0 0 0
v 0 0 0
v 0 0 0
v 0 0 0
v 0 0 0
v 0 0 0
v 0 0 0
v 0 0 0
v 0 0 0
v 0 0 0
v 0 0 0
v 0 0 0
v 0 0 0
v 0 0 0
v 0 0 0
v 0 0 0
v 0 0 0
v 0 0 0
v 0 0 0
v 0 0 0
v 0 0 0
v 0 0 0
v 0 0 0
v 0 0 0
v 0 0 0
v 0 0 0
v 0 0 0
v 0 0 0
v 0 0 0
v 0 0 0
v 0 0 0
v 0 0 0
v 0 0 0
v 0 0 0
v 0 0 0
v 0 0 0
v 0 0 0
v 0 0 0
v 0 0 0
v 0 0 0
v 0 0 0
v 0 0 0
v 0 0 0
v 0 0 0
v 0 0 0
v 0 0 0
v 0 0 0
v 0 0 0
v 0 0 0
v 0 0 0
v 0 0 0
v 0 0 0
v 0 0 0
v 0 0 0
v 0 0 0
v 0 0 0
v 0 0 0
v 0 0 0
v 0 0 0
v 0 0 0
v 0 0 0
v 0 0 0
v 0 0 0
v 0 0 0
v 0.43932400945783223 0.6778626290508525 -2.2410162170088954
v 0.4644055270660097 0.6903835899057644 -2.23211895275903
v 0.4906891756903122 0.7002861875727302 -2.2233938927688706
v 0.5179218294263837 0.7074750546229067 -2.2149250641357243
v 0.5458412229318631 0.7118809583367658 -2.2067940263088612
v 0.5741784771849996 0.7134614674530313 -2.1990790856274316
v 0.6026606889366166 0.7122013608049194 -2.191854541187613
v 0.6310135589175855 0.7081127739082955 -2.185189969301699
v 0.6589640334907338 0.7012350820900235 -2.1791495534401766
v 0.686242934306639 0.6916345212820418 -2.1737914661098183
v 0.7125875506382794 0.6794035501331319 -2.1691673086206453
v 0.7377441694289493 0.6646599595815866 -2.165321614137099
v 0.7614705186876879 0.6475457384640837 -2.1622914187993274
v 0.7835381007009916 0.6282257060855698 -2.1601059050449054
v 0.8037343925907048 0.6068859249192539 -2.158786120566012
v 0.8218648930255137 0.5837319087232785 -2.1583447756086462
v 0.837754995375091 0.5589866433308839 -2.158786120566012
v 0.8512516692673969 0.5328884391749367 -2.1601059050449054
v 0.8622249343548161 0.5056886362281884 -2.1622914187993274
v 0.8705691120959598 0.47764918346194074 -2.165321614137099
v 0.8762038434977893 0.44904011613425704 -2.1691673086206453
v 0.8790748630166474 0.42013695520280986 -2.1737914661098183
v 0.8791545211651086 0.39121805390744385 -2.1791495534401766
v 0.8764420507916577 0.3625619170763129 -2.185189969301699
v 0.8709635744687783 0.33444451897213884 -2.191854541187613
v 0.862771852918299 0.30713664550919806 -2.1990790856274316
v 0.8519457768968021 0.2809012864369409 -2.2067940263088612
v 0.8385896074345093 0.2559911026049391 -2.2149250641357243
v 0.8228319717445676 0.23264599270078667 -2.2233938927688706
v 0.8048246244726709 0.21109078289459576 -2.23211895275903
v 0.7847409862168649 0.19153306164007627 -2.2410162170088954
v 0.7627744733923867 0.1741611804842471 -2.25
v 0.7391366355258532 0.1591424401390752 -2.2589837829911046
v 0.7140551179176757 0.1466214792841632 -2.26788104724097
v 0.6877714692933734 0.13671888161719736 -2.2766061072311294
v 0.6605388155573018 0.129530014567021 -2.2850749358642757
v 0.6326194220518223 0.12512411085316194 -2.2932059736911388
v 0.6042821677986858 0.12354360173689644 -2.3009209143725684
v 0.5757999560470688 0.12480370838500837 -2.3081454588123864
v 0.5474470860661 0.1288922952816321 -2.314810030698301
v 0.5194966114929517 0.13576998709990412 -2.3208504465598234
v 0.49221771067704645 0.14537054790788578 -2.3262085338901817
v 0.4658730943454061 0.1576015190567957 -2.3308326913793547
v 0.44071647555473625 0.17234510960834093 -2.334678385862901
v 0.4169901262959976 0.18945933072584392 -2.3377085812006726
v 0.3949225442826939 0.2087793631043578 -2.3398940949550946
v 0.3747262523929805 0.23011914427067387 -2.341213879433988
v 0.35659575195817184 0.2532731604666491 -2.3416552243913538
v 0.3407056496085945 0.2780184258590437 -2.341213879433988
v 0.3272089757162885 0.304116630014991 -2.3398940949550946
v 0.3162357106288693 0.3313164329617393 -2.3377085812006726
v 0.3078915328877256 0.359355885727987 -2.334678385862901
v 0.3022568014858961 0.3879649530556706 -2.3308326913793547
v 0.299385781967038 0.41686811398711776 -2.3262085338901817
v 0.29930612381857674 0.445787015282484 -2.3208504465598234
v 0.30201859419202765 0.4744431521136147 -2.314810030698301
v 0.30749707051490716 0.5025605502177887 -2.308145458812387
v 0.31568879206538636 0.5298684236807296 -2.3009209143725684
v 0.32651486808688335 0.5561037827529868 -2.2932059736911388
v 0.339871037549176 0.5810139665849885 -2.2850749358642757
v 0.35562867323911784 0.604359076489141 -2.2766061072311294
v 0.37363602051101447 0.6259142862953319 -2.26788104724097
v 0.39371965876682047 0.6454720075498515 -2.2589837829911046
v 0.41568617159129867 0.6628438887056806 -2.25
f 1//1 65//1 66//1 2//1
f 2//65 66//65 65//65 1//65
f 2//2 66//2 67//2 3//2
f 3//66 67//66 66//66 2//66
f 3//3 67//3 68//3 4//3
f 4//67 68//67 67//67 3//67
f 4//4 68//4 69//4 5//4
f 5//68 69//68 68//68 4//68
f 5//5 69//5 70//5 6//5
f 6//69 70//69 69//69 5//69
f 6//6 70//6 71//6 7//6
f 7//70 71//70 70//70 6//70
f 7//7 71//7 72//7 8//7
f 8//71 72//71 71//71 7//71
f 8//8 72//8 73//8 9//8
f 9//72 73//72 72//72 8//72
f 9//9 73//9 74//9 10//9
f 10//73 74//73 73//73 9//73
f 10//10 74//10 75//10 11//10
f 11//74 75//74 74//74 10//74
f 11//11 75//11 76//11 12//11
f 12//75 76//75 75//75 11//75
f 12//12 76//12 77//12 13//12
f 13//76 77//76 76//76 12//76
f 13//13 77//13 78//13 14//13
f 14//77 78//77 77//77 13//77
f 14//14 78//14 79//14 15//14
f 15//78 79//78 78//78 14//78
f 15//15 79//15 80//15 16//15
f 16//79 80//79 79//79 15//79
f 16//16 80//16 81//16 17//16
f 17//80 81//80 80//80 16//80
f 17//17 81//17 82//17 18//17
f 18//81 82//81 81//81 17//81
f 18//18 82//18 83//18 19//18
f 19//82 83//82 82//82 18//82
f 19//19 83//19 84//19 20//19
f 20//83 84//83 83//83 19//83
f 20//20 84//20 85//20 21//20
f 21//84 85//84 84//84 20//84
f 21//21 85//21 86//21 22//21
f 22//85 86//85 85//85 21//85
f 22//22 86//22 87//22 23//22
f 23//86 87//86 86//86 22//86
f 23//23 87//23 88//23 24//23
f 24//87 88//87 87//87 23//87
f 24//24 88//24 89//24 25//24
f 25//88 89//88 88//88 24//88
f 25//25 89//25 90//25 26//25
f 26//89 90//89 89//89 25//89
f 26//26 90//26 91//26 27//26
f 27//90 91//90 90//90 26//90
f 27//27 91//27 92//27 28//27
f 28//91 92//91 91//91 27//91
f 28//28 92//28 93//28 29//28
f 29//92 93//92 92//92 28//92
f 29//29 93//29 94//29 30//29
f 30//93 94//93 93//93 29//93
f 30//30 94//30 95//30 31//30
f 31//94 95//94 94//94 30//94
f 31//31 95//31 96//31 32//31
f 32//95 96//95 95//95 31//95
f 32//32 96//32 97//32 33//32
f 33//96 97//96 96//96 32//96
f 33//33 97//33 98//33 34//33
f 34//97 98//97 97//97 33//97
f 34//34 98//34 99//34 35//34
f 35//98 99//98 98//98 34//98
f 35//35 99//35 100//35 36//35
f 36//99 100//99 99//99 35//99
f 36//36 100//36 101//36 37//36
f 37//100 101//100 100//100 36//100
f 37//37 101//37 102//37 38//37
f 38//101 102//101 101//101 37//101
f 38//38 102//38 103//38 39//38
f 39//102 103//102 102//102 38//102
f 39//39 103//39 104//39 40//39
f 40//103 104//103 103//103 39//103
f 40//40 104//40 105//40 41//40
f 41//104 105//104 104//104 40//104
f 41//41 105//41 106//41 42//41
f 42//105 106//105 105//105 41//105
f 42//42 106//42 107//42 43//42
f 43//106 107//106 106//106 42//106
f 43//43 107//43 108//43 44//43
f 44//107 108//107 107//107 43//107
f 44//44 108//44 109//44 45//44
f 45//108 109//108 108//108 44//108
f 45//45 109//45 110//45 46//45
f 46//109 110//109 109//109 45//109
f 46//46 110//46 111//46 47//46
f 47//110 111//110 110//110 46//110
f 47//47 111//47 112//47 48//47
f 48//111 112//111 111//111 47//111
f 48//48 112//48 113//48 49//48
f 49//112 113//112 112//112 48//112
f 49//49 113//49 114//49 50//49
f 50//113 114//113 113//113 49//113
f 50//50 114//50 115//50 51//50
f 51//114 115//114 114//114 50//114
f 51//51 115//51 116//51 52//51
f 52//115 116//115 115//115 51//115
f 52//52 116//52 117//52 53//52
f 53//116 117//116 116//116 52//116
f 53//53 117//53 118//53 54//53
f 54//117 118//117 117//117 53//117
f 54//54 118//54 119//54 55//54
f 55//118 119//118 118//118 54//118
f 55//55 119//55 120//55 56//55
f 56//119 120//119 119//119 55//119
f 56//56 120//56 121//56 57//56
f 57//120 121//120 120//120 56//120
f 57//57 121//57 122//57 58//57
f 58//121 122//121 121//121 57//121
f 58//58 122//58 123//58 59//58
f 59//122 123//122 122//122 58//122
f 59//59 123//59 124//59 60//59
f 60//123 124//123 123//123 59//123
f 60//60 124//60 125//60 61//60
f 61//124 125//124 124//124 60//124
f 61//61 125//61 126//61 62//61
f 62//125 126//125 125//125 61//125
f 62//62 126//62 127//62 63//62
f 63//126 127//126 126//126 62//126
f 63//63 127//63 128//63 64//63
f 64//127 128//127 127//127 63//127
f 64//64 128//64 65//64 1//64
f 1//128 65//128 128//128 64//128