o Jets_24
vn 0.03595986025438508 0.055542070708289815 -0.009099124481966397
vn 0.041215512392455744 0.0517271913777152 -0.009295506700468449
vn 0.046071863110187405 0.047415243574987054 -0.009487114455866162
vn 0.050482143095417153 0.04264775371459595 -0.009672102460731594
vn 0.05440387894098292 0.03747063533007278 -0.009848689179453203
vn 0.057799302186853224 0.0319337469015607 -0.010015173985397557
vn 0.0606357130510429 0.02609041169139803 -0.010169953538873556
vn 0.06288579534638991 0.019996904211950217 -0.010311537228170107
vn 0.06452787955037023 0.01371190827129476 -0.010438561524961802
vn 0.06554615149444462 0.007295951816067903 -0.010549803115831938
vn 0.06593080466314802 0.0008108240142524759 -0.010644190683449668
vn 0.0656781346361927 -0.005681019808288723 -0.010720815223941292
vn 0.06479057476406141 -0.012117059646742145 -0.010778938801094595
vn 0.06327667273351312 -0.018435312919165336 -0.010818001653088105
vn 0.061151008248684635 -0.024574931392637334 -0.010837627583303186
vn 0.058434052620571275 -0.03047678718500102 -0.010837627583303186
vn 0.055151971617110496 -0.036084042198693655 -0.010818001653088112
vn 0.051336373472534225 -0.04134269550269576 -0.010778938801094595
vn 0.047024004482792425 -0.04620210339101816 -0.01072081522394129
vn 0.04225639511863721 -0.05061546710927278 -0.010644190683449677
vn 0.03707946006448537 -0.0545402835522632 -0.01054980311583189
vn 0.0315430560349097 -0.05793875459212117 -0.010438561524961816
vn 0.025700501627220596 -0.06077815109493878 -0.010311537228170124
vn 0.01960806383422975 -0.06303112812022194 -0.010169953538873566
vn 0.013324416162348363 -0.06467598826761492 -0.010015173985397557
vn 0.006910073573648257 -0.06569689063472617 -0.009848689179453193
vn 0.0004268096936949073 -0.06608400337367872 -0.009672102460731608
vn -0.006062938102234905 -0.06583359837717871 -0.009487114455866159
vn -0.012496669995209597 -0.06494808718222761 -0.009295506700468411
vn -0.01881242563006491 -0.06343599774570326 -0.009099124481966411
vn -0.024949380827492762 -0.06131189231547077 -0.008899859068477657
vn -0.03084843335414167 -0.05859622718797758 -0.008699629494863637
vn -0.036452772109429654 -0.05531515570293516 -0.008500364081374879
vn -0.04170842424749999 -0.051500276372360376 -0.008303981862872817
vn -0.046564774965231814 -0.04718832856963251 -0.008112374107475138
vn -0.050975054950461895 -0.04242083870924113 -0.007927386102609672
vn -0.05489679079602733 -0.037243720324717844 -0.007750799383888042
vn -0.058292214041897716 -0.031706831896205934 -0.007584314577943712
vn -0.06112862490608756 -0.02586349668604354 -0.007429535024467748
vn -0.06337870720143432 -0.01976998920659545 -0.007287951335171138
vn -0.06502079140541514 -0.013484993265939882 -0.007160927038379512
vn -0.06603906334948909 -0.007069036810713247 -0.007049685447509307
vn -0.0664237165181922 -0.0005839090088978205 -0.006955297879891584
vn -0.06617104649123749 0.0059079348136438226 -0.006878673339400045
vn -0.06528348661910591 0.01234397465209669 -0.006820549762246637
vn -0.0637695845885581 0.018662227924520436 -0.00678148691025319
vn -0.06164392010372896 0.024801846397991933 -0.006761860980038073
vn -0.05892696447561549 0.03070370219035573 -0.0067618609800380765
vn -0.055644883472155515 0.036310957204048644 -0.0067814869102531886
vn -0.051829285327578634 0.04156961050805047 -0.0068205497622466325
vn -0.04751691633783728 0.046429018396373034 -0.006878673339400038
vn -0.04274930697368168 0.05084238211462738 -0.006955297879891593
vn -0.037572371919529945 0.05476719855761797 -0.0070496854475092935
vn -0.03203596788995444 0.05816566959747618 -0.007160927038379519
vn -0.026193413482265115 0.061005066100293145 -0.007287951335171131
vn -0.02010097568927416 0.06325804312557648 -0.007429535024467698
vn -0.013817328017392883 0.06490290327296999 -0.007584314577943753
vn -0.0074029854286928876 0.06592380564008081 -0.0077507993838880395
vn -0.0009197215487397603 0.06631091837903325 -0.007927386102609645
vn 0.005570026247190385 0.06606051338253374 -0.00811237410747516
vn 0.0120037581401653 0.06517500218758232 -0.008303981862872806
vn 0.01831951377502039 0.06366291275105829 -0.008500364081374931
vn 0.02445646897244802 0.06153880732082517 -0.008699629494863595
vn 0.03035552149909715 0.058823142193332456 -0.008899859068477671
vn -0.03595986025438508 -0.055542070708289815 0.009099124481966397
vn -0.041215512392455744 -0.0517271913777152 0.009295506700468449
vn -0.046071863110187405 -0.047415243574987054 0.009487114455866162
vn -0.050482143095417153 -0.04264775371459595 0.009672102460731594
vn -0.05440387894098292 -0.03747063533007278 0.009848689179453203
vn -0.057799302186853224 -0.0319337469015607 0.010015173985397557
vn -0.0606357130510429 -0.02609041169139803 0.010169953538873556
vn -0.06288579534638991 -0.019996904211950217 0.010311537228170107
vn -0.06452787955037023 -0.01371190827129476 0.010438561524961802
vn -0.06554615149444462 -0.007295951816067903 0.010549803115831938
vn -0.06593080466314802 -0.0008108240142524759 0.010644190683449668
vn -0.0656781346361927 0.005681019808288723 0.010720815223941292
vn -0.06479057476406141 0.012117059646742145 0.010778938801094595
vn -0.06327667273351312 0.018435312919165336 0.010818001653088105
vn -0.061151008248684635 0.024574931392637334 0.010837627583303186
vn -0.058434052620571275 0.03047678718500102 0.010837627583303186
vn -0.055151971617110496 0.036084042198693655 0.010818001653088112
vn -0.051336373472534225 0.04134269550269576 0.010778938801094595
vn -0.047024004482792425 0.04620210339101816 0.01072081522394129
vn -0.04225639511863721 0.05061546710927278 0.010644190683449677
vn -0.03707946006448537 0.0545402835522632 0.01054980311583189
vn -0.0315430560349097 0.05793875459212117 0.010438561524961816
vn -0.025700501627220596 0.06077815109493878 0.010311537228170124
vn -0.01960806383422975 0.06303112812022194 0.010169953538873566
vn -0.013324416162348363 0.06467598826761492 0.010015173985397557
vn -0.006910073573648257 0.06569689063472617 0.009848689179453193
vn -0.0004268096936949073 0.06608400337367872 0.009672102460731608
vn 0.006062938102234905 0.06583359837717871 0.009487114455866159
vn 0.012496669995209597 0.06494808718222761 0.009295506700468411
vn 0.01881242563006491 0.06343599774570326 0.009099124481966411
vn 0.024949380827492762 0.06131189231547077 0.008899859068477657
vn 0.03084843335414167 0.05859622718797758 0.008699629494863637
vn 0.036452772109429654 0.05531515570293516 0.008500364081374879
vn 0.04170842424749999 0.051500276372360376 0.008303981862872817
vn 0.046564774965231814 0.04718832856963251 0.008112374107475138
vn 0.050975054950461895 0.04242083870924113 0.007927386102609672
vn 0.05489679079602733 0.037243720324717844 0.007750799383888042
vn 0.058292214041897716 0.031706831896205934 0.007584314577943712
vn 0.06112862490608756 0.02586349668604354 0.007429535024467748
vn 0.06337870720143432 0.01976998920659545 0.007287951335171138
vn 0.06502079140541514 0.013484993265939882 0.007160927038379512
vn 0.06603906334948909 0.007069036810713247 0.007049685447509307
vn 0.0664237165181922 0.0005839090088978205 0.006955297879891584
vn 0.06617104649123749 -0.0059079348136438226 0.006878673339400045
vn 0.06528348661910591 -0.01234397465209669 0.006820549762246637
vn 0.0637695845885581 -0.018662227924520436 0.00678148691025319
vn 0.06164392010372896 -0.024801846397991933 0.006761860980038073
vn 0.05892696447561549 -0.03070370219035573 0.0067618609800380765
vn 0.055644883472155515 -0.036310957204048644 0.0067814869102531886
vn 0.051829285327578634 -0.04156961050805047 0.0068205497622466325
vn 0.04751691633783728 -0.046429018396373034 0.006878673339400038
vn 0.04274930697368168 -0.05084238211462738 0.006955297879891593
vn 0.037572371919529945 -0.05476719855761797 0.0070496854475092935
vn 0.03203596788995444 -0.05816566959747618 0.007160927038379519
vn 0.026193413482265115 -0.061005066100293145 0.007287951335171131
vn 0.02010097568927416 -0.06325804312557648 0.007429535024467698
vn 0.013817328017392883 -0.06490290327296999 0.007584314577943753
vn 0.0074029854286928876 -0.06592380564008081 0.0077507993838880395
vn 0.0009197215487397603 -0.06631091837903325 0.007927386102609645
vn -0.005570026247190385 -0.06606051338253374 0.00811237410747516
vn -0.0120037581401653 -0.06517500218758232 0.008303981862872806
vn -0.01831951377502039 -0.06366291275105829 0.008500364081374931
vn -0.02445646897244802 -0.06153880732082517 0.008699629494863595
vn -0.03035552149909715 -0.058823142193332456 0.008899859068477671
v 0 0 0
v 0 0 0
v 0 0 0
v 0 0 0
v 0 0 0
v 0 0 0
v 0 0 0
v 0 0 0
v 0 0 0
v 0 0 0
v 0 0 0
v 0 0 0
v 0 0 0
v 0 0 0
v 0 0 0
v 0 0 0
v 0 0 0
v 0 0 0
v 0 0 0
v 0 0 0
v 0 0 0
v 0 0 0
v 0 0 0
v 0 0 0
v 0 0 0
v 0 0 0
v 0 0 0
v 0 0 0
v 0 0 0
v 0 0 0
v 0 0 0
v 0 0 0
v 0 0 0
v 0 0 0
v 0 0 0
v 0 0 0
v 0 0 0
v 0 0 0
v 0 0 0
v 0 0 0
v 0 0 0
v 0 0 0
v 0 0 0
v 0 0 0
v 0 0 0
v 0 0 0
v 0 0 0
v 0 0 0
v 0 0 0
v 0 0 0
v 0 0 0
v 0 0 0
v 0 0 0
v 0 0 0
v 0 0 0
v 0 0 0
v 0 0 0
v 0 0 0
v 0 0 0
v 0 0 0
v 0 0 0
v 0 0 0
v 0 0 0
v 0 0 0
v -0.2144104249646161 -0.22963896744586734 -2.249094704290202
v -0.23902025357723494 -0.21355883117957422 -2.2481981270729747
v -0.2619350662741584 -0.19514262578134747 -2.247318902877039
v -0.2829341808826043 -0.17456770937649393 -2.2464654991120336
v -0.3018153644496095 -0.1520322296573858 -2.245646134522734
v -0.318396780855919 -0.1277532156128644 -2.2448687000380456
v -0.3325187419972157 -0.10196448742043757 -2.244140682777045
v -0.3440452456678597 -0.07491440463015123 -2.2434690939439297
v -0.3528652853364749 -0.046863474326355285 -2.2428604013062907
v -0.35889391919952834 -0.01808184230207354 -2.242320466906974
v -0.3620730882173324 0.011153308592659582 -2.241854490609403
v -0.362372175254335 0.040560427873168776 -2.2414669600200514
v -0.35978829993887224 0.0698563089052161 -2.241161607270341
v -0.35434634640272183 0.09875881633970518 -2.2409413730741745
v -0.3460987236333115 0.1269896032303243 -2.2408083784072526
v -0.33512486074651976 0.15427679166679892 -2.2407639040809206
v -0.3215304420408701 0.18035759110779118 -2.2408083784072526
v -0.3054463891999632 0.20498082919746904 -2.2409413730741745
v -0.2870276004450946 0.22790937069259784 -2.241161607270341
v -0.26645145878070775 0.24892240120456374 -2.2414669600200514
v -0.243916123699094 0.2678175537626456 -2.241854490609403
v -0.2196386227961566 0.2844128577185678 -2.242320466906974
v -0.1938527616770226 0.29854849122331917 -2.2428604013062907
v -0.16680687228025487 0.3100883203989255 -2.2434690939439297
v -0.13876142130553146 0.31892121038211346 -2.244140682777045
v -0.10998650177694189 0.32496209561379596 -2.2448687000380456
v -0.08075923189951763 0.32815279906690825 -2.245646134522734
v -0.051361086259429076 0.3284625925229809 -2.2464654991120336
v -0.02207518506985147 0.32588849250168156 -2.247318902877039
v 0.006816432431457367 0.32045528899336173 -2.2481981270729747
v 0.03503552417419539 0.3122153067178974 -2.249094704290202
v 0.06231032487875522 0.301247901209034 -2.25
v 0.0883781633044292 0.28765869457721555 -2.250905295709798
v 0.11298799191704807 0.2715785583109224 -2.2518018729270253
v 0.13590280461397147 0.25316235291269573 -2.252681097122961
v 0.15690191922241742 0.23258743650784222 -2.2535345008879664
v 0.1757831027894226 0.21005195678873403 -2.254353865477266
v 0.19236451919573205 0.18577294274421272 -2.2551312999619544
v 0.2064864803370287 0.15998421455178588 -2.255859317222955
v 0.21801298400767283 0.13293413176149949 -2.2565309060560703
v 0.226833023676288 0.1048832014577036 -2.2571395986937093
v 0.23286165753934146 0.07610156943342172 -2.257679533093026
v 0.23604082655714553 0.046866418538688635 -2.258145509390597
v 0.2363399135941482 0.017459299258179607 -2.2585330399799486
v 0.2337560382786853 -0.011836581773867823 -2.258838392729659
v 0.228314084742535 -0.04073908920835686 -2.2590586269258255
v 0.22006646197312457 -0.06896987609897617 -2.2591916215927474
v 0.20909259908633288 -0.09625706453545066 -2.2592360959190794
v 0.19549818038068328 -0.1223378639764428 -2.2591916215927474
v 0.17941412753977626 -0.14696110206612084 -2.2590586269258255
v 0.16099533878490774 -0.16988964356124958 -2.258838392729659
v 0.1404191971205208 -0.19090267407321557 -2.2585330399799486
v 0.11788386203890712 -0.2097978266312973 -2.258145509390597
v 0.09360636113596972 -0.22639313058721958 -2.257679533093026
v 0.06782050001683558 -0.24052876409197102 -2.2571395986937093
v 0.040774610620068014 -0.2520685932675773 -2.2565309060560703
v 0.012729159645344684 -0.2609014832507652 -2.255859317222955
v -0.01604575988324501 -0.26694236848244773 -2.2551312999619544
v -0.04527302976066923 -0.27013307193556 -2.254353865477266
v -0.07467117540075768 -0.2704428653916327 -2.2535345008879664
v -0.10395707659033541 -0.26786876537033344 -2.252681097122961
v -0.13284869409164426 -0.26243556186201356 -2.2518018729270253
v -0.16106778583438242 -0.2541955795865492 -2.250905295709798
v -0.1883425865389421 -0.24322817407768585 -2.25
f 1//1 65//1 66//1 2//1
f 2//65 66//65 65//65 1//65
f 2//2 66//2 67//2 3//2
f 3//66 67//66 66//66 2//66
f 3//3 67//3 68//3 4//3
f 4//67 68//67 67//67 3//67
f 4//4 68//4 69//4 5//4
f 5//68 69//68 68//68 4//68
f 5//5 69//5 70//5 6//5
f 6//69 70//69 69//69 5//69
f 6//6 70//6 71//6 7//6
f 7//70 71//70 70//70 6//70
f 7//7 71//7 72//7 8//7
f 8//71 72//71 71//71 7//71
f 8//8 72//8 73//8 9//8
f 9//72 73//72 72//72 8//72
f 9//9 73//9 74//9 10//9
f 10//73 74//73 73//73 9//73
f 10//10 74//10 75//10 11//10
f 11//74 75//74 74//74 10//74
f 11//11 75//11 76//11 12//11
f 12//75 76//75 75//75 11//75
f 12//12 76//12 77//12 13//12
f 13//76 77//76 76//76 12//76
f 13//13 77//13 78//13 14//13
f 14//77 78//77 77//77 13//77
f 14//14 78//14 79//14 15//14
f 15//78 79//78 78//78 14//78
f 15//15 79//15 80//15 16//15
f 16//79 80//79 79//79 15//79
f 16//16 80//16 81//16 17//16
f 17//80 81//80 80//80 16//80
f 17//17 81//17 82//17 18//17
f 18//81 82//81 81//81 17//81
f 18//18 82//18 83//18 19//18
f 19//82 83//82 82//82 18//82
f 19//19 83//19 84//19 20//19
f 20//83 84//83 83//83 19//83
f 20//20 84//20 85//20 21//20
f 21//84 85//84 84//84 20//84
f 21//21 85//21 86//21 22//21
f 22//85 86//85 85//85 21//85
f 22//22 86//22 87//22 23//22
f 23//86 87//86 86//86 22//86
f 23//23 87//23 88//23 24//23
f 24//87 88//87 87//87 23//87
f 24//24 88//24 89//24 25//24
f 25//88 89//88 88//88 24//88
f 25//25 89//25 90//25 26//25
f 26//89 90//89 89//89 25//89
f 26//26 90//26 91//26 27//26
f 27//90 91//90 90//90 26//90
f 27//27 91//27 92//27 28//27
f 28//91 92//91 91//91 27//91
f 28//28 92//28 93//28 29//28
f 29//92 93//92 92//92 28//92
f 29//29 93//29 94//29 30//29
f 30//93 94//93 93//93 29//93
f 30//30 94//30 95//30 31//30
f 31//94 95//94 94//94 30//94
f 31//31 95//31 96//31 32//31
f 32//95 96//95 95//95 31//95
f 32//32 96//32 97//32 33//32
f 33//96 97//96 96//96 32//96
f 33//33 97//33 98//33 34//33
f 34//97 98//97 97//97 33//97
f 34//34 98//34 99//34 35//34
f 35//98 99//98 98//98 34//98
f 35//35 99//35 100//35 36//35
f 36//99 100//99 99//99 35//99
f 36//36 100//36 101//36 37//36
f 37//100 101//100 100//100 36//100
f 37//37 101//37 102//37 38//37
f 38//101 102//101 101//101 37//101
f 38//38 102//38 103//38 39//38
f 39//102 103//102 102//102 38//102
f 39//39 103//39 104//39 40//39
f 40//103 104//103 103//103 39//103
f 40//40 104//40 105//40 41//40
f 41//104 105//104 104//104 40//104
f 41//41 105//41 106//41 42//41
f 42//105 106//105 105//105 41//105
f 42//42 106//42 107//42 43//42
f 43//106 107//106 106//106 42//106
f 43//43 107//43 108//43 44//43
f 44//107 108//107 107//107 43//107
f 44//44 108//44 109//44 45//44
f 45//108 109//108 108//108 44//108
f 45//45 109//45 110//45 46//45
f 46//109 110//109 109//109 45//109
f 46//46 110//46 111//46 47//46
f 47//110 111//110 110//110 46//110
f 47//47 111//47 112//47 48//47
f 48//111 112//111 111//111 47//111
f 48//48 112//48 113//48 49//48
f 49//112 113//112 112//112 48//112
f 49//49 113//49 114//49 50//49
f 50//113 114//113 113//113 49//113
f 50//50 114//50 115//50 51//50
f 51//114 115//114 114//114 50//114
f 51//51 115//51 116//51 52//51
f 52//115 116//115 115//115 51//115
f 52//52 116//52 117//52 53//52
f 53//116 117//116 116//116 52//116
f 53//53 117//53 118//53 54//53
f 54//117 118//117 117//117 53//117
f 54//54 118//54 119//54 55//54
f 55//118 119//118 118//118 54//118
f 55//55 119//55 120//55 56//55
f 56//119 120//119 119//119 55//119
f 56//56 120//56 121//56 57//56
f 57//120 121//120 120//120 56//120
f 57//57 121//57 122//57 58//57
f 58//121 122//121 121//121 57//121
f 58//58 122//58 123//58 59//58
f 59//122 123//122 122//122 58//122
f 59//59 123//59 124//59 60//59
f 60//123 124//123 123//123 59//123
f 60//60 124//60 125//60 61//60
f 61//124 125//124 124//124 60//124
f 61//61 125//61 126//61 62//61
f 62//125 126//125 125//125 61//125
f 62//62 126//62 127//62 63//62
f 63//126 127//126 126//126 62//126
f 63//63 127//63 128//63 64//63
f 64//127 128//127 127//127 63//127
f 64//64 128//64 65//64 1//64
f 1//128 65//128 128//128 64//128