o Jets_16
vn -0.03401027667074402 -0.05742104736171183 -0.010177424653519895
vn -0.039345782145577546 -0.0537138943752693 -0.011143722461983703
vn -0.044290696120042966 -0.049494501320678674 -0.012086527546567076
vn -0.048797396369401266 -0.04480350325960969 -0.012996760178915743
vn -0.05282248090663812 -0.03968607706775118 -0.013865654321196427
vn -0.05632718596732472 -0.03419150635680124 -0.014684842047833071
vn -0.05927775932586046 -0.02837270684634241 -0.015446434133204706
vn -0.06164578534785464 -0.022285716756541563 -0.016143096029200485
vn -0.06340845864822106 -0.015989157129449927 -0.016768118500927923
vn -0.06454880371950178 -0.009543667276326273 -0.017315482240312187
vn -0.06505583841528464 -0.003011320787918992 -0.01777991583532365
vn -0.06492467971427568 0.0035449722681446527 -0.018156946536557084
vn -0.06415659074646385 0.01006207120570024 -0.018442943332253506
vn -0.0627589686284899 0.016477212799370866 -0.018635151916928827
vn -0.06074527322536821 0.02272861572873497 -0.01873172121684069
vn -0.05813489752462764 0.028756075566220174 -0.018731721216840663
vn -0.05495298087124367 0.034501544578645404 -0.018635151916928827
vn -0.05123016686200066 0.03990969075862916 -0.018442943332253492
vn -0.0470023082309049 0.04492843070206454 -0.018156946536557084
vn -0.042310121567756154 0.049509431199773024 -0.01777991583532365
vn -0.03719879519513114 0.05360857471273284 -0.017315482240312152
vn -0.03171755398013332 0.057186384248094635 -0.01676811850092791
vn -0.0259191852720142 0.06020840354420298 -0.016143096029200527
vn -0.019859530531143976 0.06264552890323205 -0.015446434133204706
vn -0.013596947545220783 0.06447428947570721 -0.01468484204783313
vn -0.007191748411876198 0.06567707329761185 -0.01386565432119638
vn -0.0007056187002013603 0.06624229690323435 -0.01299676017891574
vn 0.005798976615000173 0.06616451688026836 -0.012086527546567069
vn 0.012259394725070205 0.06544448229285438 -0.011143722461983696
vn 0.01861341827198515 0.06408912746768075 -0.010177424653519881
vn 0.0247998545355248 0.062111505212625484 -0.009196940097303194
vn 0.03075912475262177 0.05953066111108318 -0.008211711395597385
vn 0.03643383789341714 0.05637145010258471 -0.007231226839380642
vn 0.04176934336825022 0.05266429711614218 -0.006264929030916799
vn 0.04671425734271595 0.04844490406155161 -0.005322123946333468
vn 0.05122095759207457 0.043753906000482706 -0.004411891313984777
vn 0.055246042129310835 0.03863647980862428 -0.003542997171704098
vn 0.05875074718999784 0.03314190909767392 -0.0027238094450674315
vn 0.06170132054853339 0.02732310958721583 -0.0019622173596958604
vn 0.06406934657052749 0.02123611949741447 -0.0012655554637000296
vn 0.06583201987089438 0.014939559870323048 -0.0006405329919726118
vn 0.06697236494217473 0.008494070017199241 -9.31692525883228E-05
vn 0.06747939963795718 0.001961723528791842 0.00037126434242311596
vn 0.06734824093694894 -0.004594569527271705 0.0007482950436565048
vn 0.06658015196913672 -0.011111668464827189 0.001034291839353002
vn 0.06518252985116348 -0.017526810058497592 0.0012265004240283334
vn 0.06316883444804083 -0.023778212987862077 0.0013230697239401312
vn 0.06055845874730048 -0.02980567282534692 0.0013230697239401306
vn 0.05737654209391704 -0.03555114183777271 0.0012265004240283339
vn 0.053653728084673544 -0.040959288017755974 0.0010342918393530048
vn 0.04942586945357813 -0.045978027961191575 0.0007482950436565015
vn 0.04473368279042925 -0.05055902845889976 0.00037126434242312593
vn 0.03962235641780401 -0.054658171971859626 -9.31692525883137E-05
vn 0.034141115202806605 -0.05823598150722209 -0.0006405329919726144
vn 0.028342746494687154 -0.061258000803329604 -0.0012655554637000348
vn 0.02228309175381671 -0.0636951261623589 -0.001962217359695831
vn 0.01602050876789407 -0.06552388673483445 -0.002723809445067442
vn 0.009615309634548874 -0.06672667055673887 -0.0035429971717041014
vn 0.0031291799228746475 -0.06729189416236092 -0.004411891313984742
vn -0.0033754153923272745 -0.06721411413939582 -0.005322123946333482
vn -0.009835833502397306 -0.06649407955198128 -0.006264929030916792
vn -0.016189857049311973 -0.06513872472680804 -0.0072312268393806695
vn -0.02237629331285168 -0.06316110247175222 -0.008211711395597322
vn -0.02833556352994887 -0.060580258370210194 -0.009196940097303194
vn 0.03401027667074402 0.05742104736171183 0.010177424653519895
vn 0.039345782145577546 0.0537138943752693 0.011143722461983703
vn 0.044290696120042966 0.049494501320678674 0.012086527546567076
vn 0.048797396369401266 0.04480350325960969 0.012996760178915743
vn 0.05282248090663812 0.03968607706775118 0.013865654321196427
vn 0.05632718596732472 0.03419150635680124 0.014684842047833071
vn 0.05927775932586046 0.02837270684634241 0.015446434133204706
vn 0.06164578534785464 0.022285716756541563 0.016143096029200485
vn 0.06340845864822106 0.015989157129449927 0.016768118500927923
vn 0.06454880371950178 0.009543667276326273 0.017315482240312187
vn 0.06505583841528464 0.003011320787918992 0.01777991583532365
vn 0.06492467971427568 -0.0035449722681446527 0.018156946536557084
vn 0.06415659074646385 -0.01006207120570024 0.018442943332253506
vn 0.0627589686284899 -0.016477212799370866 0.018635151916928827
vn 0.06074527322536821 -0.02272861572873497 0.01873172121684069
vn 0.05813489752462764 -0.028756075566220174 0.018731721216840663
vn 0.05495298087124367 -0.034501544578645404 0.018635151916928827
vn 0.05123016686200066 -0.03990969075862916 0.018442943332253492
vn 0.0470023082309049 -0.04492843070206454 0.018156946536557084
vn 0.042310121567756154 -0.049509431199773024 0.01777991583532365
vn 0.03719879519513114 -0.05360857471273284 0.017315482240312152
vn 0.03171755398013332 -0.057186384248094635 0.01676811850092791
vn 0.0259191852720142 -0.06020840354420298 0.016143096029200527
vn 0.019859530531143976 -0.06264552890323205 0.015446434133204706
vn 0.013596947545220783 -0.06447428947570721 0.01468484204783313
vn 0.007191748411876198 -0.06567707329761185 0.01386565432119638
vn 0.0007056187002013603 -0.06624229690323435 0.01299676017891574
vn -0.005798976615000173 -0.06616451688026836 0.012086527546567069
vn -0.012259394725070205 -0.06544448229285438 0.011143722461983696
vn -0.01861341827198515 -0.06408912746768075 0.010177424653519881
vn -0.0247998545355248 -0.062111505212625484 0.009196940097303194
vn -0.03075912475262177 -0.05953066111108318 0.008211711395597385
vn -0.03643383789341714 -0.05637145010258471 0.007231226839380642
vn -0.04176934336825022 -0.05266429711614218 0.006264929030916799
vn -0.04671425734271595 -0.04844490406155161 0.005322123946333468
vn -0.05122095759207457 -0.043753906000482706 0.004411891313984777
vn -0.055246042129310835 -0.03863647980862428 0.003542997171704098
vn -0.05875074718999784 -0.03314190909767392 0.0027238094450674315
vn -0.06170132054853339 -0.02732310958721583 0.0019622173596958604
vn -0.06406934657052749 -0.02123611949741447 0.0012655554637000296
vn -0.06583201987089438 -0.014939559870323048 0.0006405329919726118
vn -0.06697236494217473 -0.008494070017199241 9.31692525883228E-05
vn -0.06747939963795718 -0.001961723528791842 -0.00037126434242311596
vn -0.06734824093694894 0.004594569527271705 -0.0007482950436565048
vn -0.06658015196913672 0.011111668464827189 -0.001034291839353002
vn -0.06518252985116348 0.017526810058497592 -0.0012265004240283334
vn -0.06316883444804083 0.023778212987862077 -0.0013230697239401312
vn -0.06055845874730048 0.02980567282534692 -0.0013230697239401306
vn -0.05737654209391704 0.03555114183777271 -0.0012265004240283339
vn -0.053653728084673544 0.040959288017755974 -0.0010342918393530048
vn -0.04942586945357813 0.045978027961191575 -0.0007482950436565015
vn -0.04473368279042925 0.05055902845889976 -0.00037126434242312593
vn -0.03962235641780401 0.054658171971859626 9.31692525883137E-05
vn -0.034141115202806605 0.05823598150722209 0.0006405329919726144
vn -0.028342746494687154 0.061258000803329604 0.0012655554637000348
vn -0.02228309175381671 0.0636951261623589 0.001962217359695831
vn -0.01602050876789407 0.06552388673483445 0.002723809445067442
vn -0.009615309634548874 0.06672667055673887 0.0035429971717041014
vn -0.0031291799228746475 0.06729189416236092 0.004411891313984742
vn 0.0033754153923272745 0.06721411413939582 0.005322123946333482
vn 0.009835833502397306 0.06649407955198128 0.006264929030916792
vn 0.016189857049311973 0.06513872472680804 0.0072312268393806695
vn 0.02237629331285168 0.06316110247175222 0.008211711395597322
vn 0.02833556352994887 0.060580258370210194 0.009196940097303194
v 0 0 0
v 0 0 0
v 0 0 0
v 0 0 0
v 0 0 0
v 0 0 0
v 0 0 0
v 0 0 0
v 0 0 0
v 0 0 0
v 0 0 0
v 0 0 0
v 0 0 0
v 0 0 0
v 0 0 0
v 0 0 0
v 0 0 0
v 0 0 0
v 0 0 0
v 0 0 0
v 0 0 0
v 0 0 0
v 0 0 0
v 0 0 0
v 0 0 0
v 0 0 0
v 0 0 0
v 0 0 0
v 0 0 0
v 0 0 0
v 0 0 0
v 0 0 0
v 0 0 0
v 0 0 0
v 0 0 0
v 0 0 0
v 0 0 0
v 0 0 0
v 0 0 0
v 0 0 0
v 0 0 0
v 0 0 0
v 0 0 0
v 0 0 0
v 0 0 0
v 0 0 0
v 0 0 0
v 0 0 0
v 0 0 0
v 0 0 0
v 0 0 0
v 0 0 0
v 0 0 0
v 0 0 0
v 0 0 0
v 0 0 0
v 0 0 0
v 0 0 0
v 0 0 0
v 0 0 0
v 0 0 0
v 0 0 0
v 0 0 0
v 0 0 0
v 0.4584182341387589 0.1264942219597422 -2.2455937982505314
v 0.483097949926751 0.1111030732634305 -2.2412300306325847
v 0.5061418002849901 0.09333549658739163 -2.2369507226137997
v 0.5273278603374766 0.07336260340776118 -2.2327970862697044
v 0.5464520967444262 0.05137674360415301 -2.2288091233889005
v 0.5633303326548692 0.027589653025169386 -2.2250252402339736
v 0.5778000214304058 0.0022304143564323975 -2.2214818776681855
v 0.5897218120581907 -0.024456749070908154 -2.2182131602100448
v 0.598980891177365 -0.052214825284359376 -2.215250567395535
v 0.6054880887944835 -0.08077648883587779 -2.212622630612979
v 0.6091807370392972 -0.10986667529206871 -2.210354658330168
v 0.6100232736906017 -0.1392052302550456 -2.2084684923599855
v 0.6080075846598676 -0.16850960740242948 -2.206982297511808
v 0.6031530821343485 -0.19749758956288876 -2.2059103866544603
v 0.5955065176271062 -0.2258900066217754 -2.2052630828754647
v 0.5851415317343829 -0.2534134240819385 -2.2050466200640644
v 0.572157944936403 -0.279802776387406 -2.2052630828754647
v 0.5566807962715817 -0.304803919649589 -2.2059103866544603
v 0.5388591391422314 -0.3281760791918575 -2.206982297511808
v 0.5188646058488161 -0.34969416834129746 -2.2084684923599855
v 0.4968897546770755 -0.36915095613641563 -2.210354658330168
v 0.4731462154564691 -0.3863590630745829 -2.212622630612979
v 0.44786265144922993 -0.40115276567907665 -2.215250567395535
v 0.4212825571981497 -0.41338959250675517 -2.2182131602100448
v 0.39366191354102403 -0.42295169622593787 -2.2214818776681855
v 0.3652667223752506 -0.42974698855063137 -2.2250252402339736
v 0.3363704449141464 -0.43371002710106427 -2.2288091233889005
v 0.3072513681059738 -0.43480264564957866 -2.2327970862697044
v 0.2781899245785021 -0.4330143216822663 -2.2369507226137997
v 0.24946599191950203 -0.42836227773652974 -2.2412300306325847
v 0.22135619730257836 -0.4208913155386323 -2.2455937982505314
v 0.19413125341626894 -0.4106733845385831 -2.25
v 0.1680533513528672 -0.3978068889976019 -2.2544062017494686
v 0.1433736355648751 -0.3824157403012902 -2.2587699693674153
v 0.12032978520663598 -0.36464816362525143 -2.2630492773862003
v 0.09914372515414951 -0.34467527044562096 -2.2672029137302956
v 0.08001948874719983 -0.32268941064201273 -2.2711908766110995
v 0.06314125283675687 -0.2989023200630292 -2.2749747597660264
v 0.04867156406122042 -0.2735430813942922 -2.2785181223318145
v 0.03674977343343533 -0.2468559179669516 -2.2817868397899552
v 0.0274906943142611 -0.21909784175350047 -2.284749432604465
v 0.020983496697142612 -0.1905361782019819 -2.287377369387021
v 0.017290848452328866 -0.161445991745791 -2.289645341669832
v 0.01644831180102435 -0.13210743678281428 -2.2915315076400145
v 0.018464000831758476 -0.10280305963543031 -2.293017702488192
v 0.02331850335727753 -0.07381507747497107 -2.2940896133455397
v 0.030965067864519857 -0.0454226604160842 -2.2947369171245353
v 0.04133005375724319 -0.01789924295592127 -2.2949533799359356
v 0.054313640555222975 0.008490109349546165 -2.2947369171245353
v 0.06979078922004434 0.033491252611729305 -2.2940896133455397
v 0.08761244634939469 0.05686341215399773 -2.293017702488192
v 0.10760697964281002 0.07838150130343777 -2.2915315076400145
v 0.1295818308145505 0.09783828909855591 -2.289645341669832
v 0.1533253700351569 0.11504639603672312 -2.2873773693870216
v 0.17860893404239625 0.12984009864121698 -2.284749432604465
v 0.20518902829347632 0.14207692546889544 -2.2817868397899552
v 0.23280967195060193 0.1516390291880781 -2.2785181223318145
v 0.2612048631163755 0.15843432151277165 -2.2749747597660264
v 0.2901011405774796 0.1623973600632045 -2.2711908766110995
v 0.3192202173856521 0.16348997861171893 -2.267202913730296
v 0.34828166091312396 0.16170165464440656 -2.2630492773862003
v 0.37700559357212404 0.15704961069867002 -2.2587699693674153
v 0.4051153881890478 0.14957864850077257 -2.2544062017494686
v 0.4323403320753571 0.13936071750072343 -2.25
f 1//1 65//1 66//1 2//1
f 2//65 66//65 65//65 1//65
f 2//2 66//2 67//2 3//2
f 3//66 67//66 66//66 2//66
f 3//3 67//3 68//3 4//3
f 4//67 68//67 67//67 3//67
f 4//4 68//4 69//4 5//4
f 5//68 69//68 68//68 4//68
f 5//5 69//5 70//5 6//5
f 6//69 70//69 69//69 5//69
f 6//6 70//6 71//6 7//6
f 7//70 71//70 70//70 6//70
f 7//7 71//7 72//7 8//7
f 8//71 72//71 71//71 7//71
f 8//8 72//8 73//8 9//8
f 9//72 73//72 72//72 8//72
f 9//9 73//9 74//9 10//9
f 10//73 74//73 73//73 9//73
f 10//10 74//10 75//10 11//10
f 11//74 75//74 74//74 10//74
f 11//11 75//11 76//11 12//11
f 12//75 76//75 75//75 11//75
f 12//12 76//12 77//12 13//12
f 13//76 77//76 76//76 12//76
f 13//13 77//13 78//13 14//13
f 14//77 78//77 77//77 13//77
f 14//14 78//14 79//14 15//14
f 15//78 79//78 78//78 14//78
f 15//15 79//15 80//15 16//15
f 16//79 80//79 79//79 15//79
f 16//16 80//16 81//16 17//16
f 17//80 81//80 80//80 16//80
f 17//17 81//17 82//17 18//17
f 18//81 82//81 81//81 17//81
f 18//18 82//18 83//18 19//18
f 19//82 83//82 82//82 18//82
f 19//19 83//19 84//19 20//19
f 20//83 84//83 83//83 19//83
f 20//20 84//20 85//20 21//20
f 21//84 85//84 84//84 20//84
f 21//21 85//21 86//21 22//21
f 22//85 86//85 85//85 21//85
f 22//22 86//22 87//22 23//22
f 23//86 87//86 86//86 22//86
f 23//23 87//23 88//23 24//23
f 24//87 88//87 87//87 23//87
f 24//24 88//24 89//24 25//24
f 25//88 89//88 88//88 24//88
f 25//25 89//25 90//25 26//25
f 26//89 90//89 89//89 25//89
f 26//26 90//26 91//26 27//26
f 27//90 91//90 90//90 26//90
f 27//27 91//27 92//27 28//27
f 28//91 92//91 91//91 27//91
f 28//28 92//28 93//28 29//28
f 29//92 93//92 92//92 28//92
f 29//29 93//29 94//29 30//29
f 30//93 94//93 93//93 29//93
f 30//30 94//30 95//30 31//30
f 31//94 95//94 94//94 30//94
f 31//31 95//31 96//31 32//31
f 32//95 96//95 95//95 31//95
f 32//32 96//32 97//32 33//32
f 33//96 97//96 96//96 32//96
f 33//33 97//33 98//33 34//33
f 34//97 98//97 97//97 33//97
f 34//34 98//34 99//34 35//34
f 35//98 99//98 98//98 34//98
f 35//35 99//35 100//35 36//35
f 36//99 100//99 99//99 35//99
f 36//36 100//36 101//36 37//36
f 37//100 101//100 100//100 36//100
f 37//37 101//37 102//37 38//37
f 38//101 102//101 101//101 37//101
f 38//38 102//38 103//38 39//38
f 39//102 103//102 102//102 38//102
f 39//39 103//39 104//39 40//39
f 40//103 104//103 103//103 39//103
f 40//40 104//40 105//40 41//40
f 41//104 105//104 104//104 40//104
f 41//41 105//41 106//41 42//41
f 42//105 106//105 105//105 41//105
f 42//42 106//42 107//42 43//42
f 43//106 107//106 106//106 42//106
f 43//43 107//43 108//43 44//43
f 44//107 108//107 107//107 43//107
f 44//44 108//44 109//44 45//44
f 45//108 109//108 108//108 44//108
f 45//45 109//45 110//45 46//45
f 46//109 110//109 109//109 45//109
f 46//46 110//46 111//46 47//46
f 47//110 111//110 110//110 46//110
f 47//47 111//47 112//47 48//47
f 48//111 112//111 111//111 47//111
f 48//48 112//48 113//48 49//48
f 49//112 113//112 112//112 48//112
f 49//49 113//49 114//49 50//49
f 50//113 114//113 113//113 49//113
f 50//50 114//50 115//50 51//50
f 51//114 115//114 114//114 50//114
f 51//51 115//51 116//51 52//51
f 52//115 116//115 115//115 51//115
f 52//52 116//52 117//52 53//52
f 53//116 117//116 116//116 52//116
f 53//53 117//53 118//53 54//53
f 54//117 118//117 117//117 53//117
f 54//54 118//54 119//54 55//54
f 55//118 119//118 118//118 54//118
f 55//55 119//55 120//55 56//55
f 56//119 120//119 119//119 55//119
f 56//56 120//56 121//56 57//56
f 57//120 121//120 120//120 56//120
f 57//57 121//57 122//57 58//57
f 58//121 122//121 121//121 57//121
f 58//58 122//58 123//58 59//58
f 59//122 123//122 122//122 58//122
f 59//59 123//59 124//59 60//59
f 60//123 124//123 123//123 59//123
f 60//60 124//60 125//60 61//60
f 61//124 125//124 124//124 60//124
f 61//61 125//61 126//61 62//61
f 62//125 126//125 125//125 61//125
f 62//62 126//62 127//62 63//62
f 63//126 127//126 126//126 62//126
f 63//63 127//63 128//63 64//63
f 64//127 128//127 127//127 63//127
f 64//64 128//64 65//64 1//64
f 1//128 65//128 128//128 64//128