o Jets_35
vn 0.03616387997519821 -0.014328831648534102 -0.00016440192087485705
vn 0.03673168963928841 -0.012377575217774162 -0.003278302492981
vn 0.03698946098868838 -0.010249404512241933 -0.006316497619321737
vn 0.036934711544390764 -0.007964814979207702 -0.009249727819984288
vn 0.03656796857347344 -0.00554580846475855 -0.012049744484669334
vn 0.03589276401122876 -0.003015681323992103 -0.014689581922251282
vn 0.03491560044669495 -0.0003988000643819767 -0.01714381705512419
vn 0.033645888499170606 0.0022796333170089778 -0.019388814257337184
vn 0.032095856188805616 0.004993824042537065 -0.02140295297859246
vn 0.030280431174082634 0.007717632971788235 -0.023166835961964394
vn 0.028217096990305834 0.010424828335788117 -0.02466347605008634
vn 0.025925724673597994 0.013089338363278136 -0.025878459780763197
vn 0.02342838139196024 0.015685502366123705 -0.02680008619649049
vn 0.02074911792638212 0.01818831786577052 -0.027419479531072988
vn 0.017913737048671496 0.020573681380778308 -0.027730674688103807
vn 0.014949545026657018 0.022818620556525282 -0.02773067468810375
vn 0.011885088649902897 0.02490151540154084 -0.027419479531073043
vn 0.008749880308519975 0.026802306499840722 -0.02680008619649049
vn 0.005574113772714773 0.02850268819407087 -0.02587845978076314
vn 0.0023883734102776444 0.02998628487899191 -0.024663476050086286
vn -0.0007766603575979358 0.031238808707511834 -0.023166835961964338
vn -0.003890506525544568 0.032248197190463346 -0.02140295297859246
vn -0.006923177052762686 0.033004729364967345 -0.019388814257337184
vn -0.009845465664249708 0.033501119412620683 -0.017143817055124133
vn -0.012629229123190977 0.033732586825910404 -0.014689581922251227
vn -0.015247658265716724 0.033696902447112875 -0.012049744484669334
vn -0.01767553618780615 0.03339440993630416 -0.009249727819984344
vn -0.0198894810978561 0.03282802246172145 -0.006316497619321737
vn -0.02186817149611725 0.032003194644364186 -0.003278302492981
vn -0.0235925515123927 0.030927870027010806 -0.00016440192087485705
vn -0.02504601442448312 0.02961240457355807 0.0029952155322557905
vn -0.026214562590001655 0.02806946693542922 0.006170121023115205
vn -0.027086942251320967 0.0263139164455356 0.009329738476245852
vn -0.027654751915411113 0.024362660014775495 0.012443639048351995
vn -0.027912523264811195 0.02223448930924332 0.015481834174692732
vn -0.02785777382051363 0.01994989977620909 0.018415064375355228
vn -0.027491030849596254 0.017530893261759828 0.02121508104004033
vn -0.02681582628735152 0.015000766120993492 0.023854918477622333
vn -0.02583866272281765 0.012383884861383365 0.02630915361049524
vn -0.024568950775293308 0.00970545147999241 0.028554150812708068
vn -0.023018918464928484 0.0069912607544642125 0.030568289533963733
vn -0.021203493450205446 0.004267451825213153 0.032332172517335334
vn -0.01914015926642848 0.0015602564612132164 0.033828812605457115
vn -0.016848786949720806 -0.0011042535662765807 0.03504379633613419
vn -0.01435144366808322 -0.0037004175691223717 0.03596542275186154
vn -0.0116721802025051 -0.006203233068769132 0.03658481608644426
vn -0.008836799324794087 -0.00858859658377692 0.036896011243474525
vn -0.005872607302779553 -0.010833535759523949 0.036896011243474525
vn -0.0028081509260257653 -0.012916430604539453 0.03658481608644437
vn 0.0003270574153573236 -0.014817221702839334 0.03596542275186132
vn 0.003502823951162526 -0.01651760339706948 0.0350437963361343
vn 0.006688564313599321 -0.01800120008199041 0.033828812605457226
vn 0.009853598081475123 -0.01925372391051061 0.032332172517335334
vn 0.012967444249421811 -0.02026311239346218 0.030568289533963622
vn 0.016000114776639873 -0.021019644567965956 0.02855415081270818
vn 0.018922403388126785 -0.02151603461561924 0.02630915361049513
vn 0.021706166847068276 -0.02174750202890907 0.023854918477622333
vn 0.02432459598959391 -0.021711817650111653 0.021215081040040218
vn 0.026752473911683228 -0.021409325139302604 0.01841506437535534
vn 0.028966418821733453 -0.020842937664720118 0.015481834174692843
vn 0.030945109219994493 -0.020018109847362964 0.012443639048351995
vn 0.03266948923627011 -0.01894278523000953 0.009329738476245908
vn 0.03412295214836025 -0.017627319776556516 0.006170121023115038
vn 0.035291500313878954 -0.016084382138428 0.0029952155322559015
vn -0.03616387997519821 0.014328831648534102 0.00016440192087485705
vn -0.03673168963928841 0.012377575217774162 0.003278302492981
vn -0.03698946098868838 0.010249404512241933 0.006316497619321737
vn -0.036934711544390764 0.007964814979207702 0.009249727819984288
vn -0.03656796857347344 0.00554580846475855 0.012049744484669334
vn -0.03589276401122876 0.003015681323992103 0.014689581922251282
vn -0.03491560044669495 0.0003988000643819767 0.01714381705512419
vn -0.033645888499170606 -0.0022796333170089778 0.019388814257337184
vn -0.032095856188805616 -0.004993824042537065 0.02140295297859246
vn -0.030280431174082634 -0.007717632971788235 0.023166835961964394
vn -0.028217096990305834 -0.010424828335788117 0.02466347605008634
vn -0.025925724673597994 -0.013089338363278136 0.025878459780763197
vn -0.02342838139196024 -0.015685502366123705 0.02680008619649049
vn -0.02074911792638212 -0.01818831786577052 0.027419479531072988
vn -0.017913737048671496 -0.020573681380778308 0.027730674688103807
vn -0.014949545026657018 -0.022818620556525282 0.02773067468810375
vn -0.011885088649902897 -0.02490151540154084 0.027419479531073043
vn -0.008749880308519975 -0.026802306499840722 0.02680008619649049
vn -0.005574113772714773 -0.02850268819407087 0.02587845978076314
vn -0.0023883734102776444 -0.02998628487899191 0.024663476050086286
vn 0.0007766603575979358 -0.031238808707511834 0.023166835961964338
vn 0.003890506525544568 -0.032248197190463346 0.02140295297859246
vn 0.006923177052762686 -0.033004729364967345 0.019388814257337184
vn 0.009845465664249708 -0.033501119412620683 0.017143817055124133
vn 0.012629229123190977 -0.033732586825910404 0.014689581922251227
vn 0.015247658265716724 -0.033696902447112875 0.012049744484669334
vn 0.01767553618780615 -0.03339440993630416 0.009249727819984344
vn 0.0198894810978561 -0.03282802246172145 0.006316497619321737
vn 0.02186817149611725 -0.032003194644364186 0.003278302492981
vn 0.0235925515123927 -0.030927870027010806 0.00016440192087485705
vn 0.02504601442448312 -0.02961240457355807 -0.0029952155322557905
vn 0.026214562590001655 -0.02806946693542922 -0.006170121023115205
vn 0.027086942251320967 -0.0263139164455356 -0.009329738476245852
vn 0.027654751915411113 -0.024362660014775495 -0.012443639048351995
vn 0.027912523264811195 -0.02223448930924332 -0.015481834174692732
vn 0.02785777382051363 -0.01994989977620909 -0.018415064375355228
vn 0.027491030849596254 -0.017530893261759828 -0.02121508104004033
vn 0.02681582628735152 -0.015000766120993492 -0.023854918477622333
vn 0.02583866272281765 -0.012383884861383365 -0.02630915361049524
vn 0.024568950775293308 -0.00970545147999241 -0.028554150812708068
vn 0.023018918464928484 -0.0069912607544642125 -0.030568289533963733
vn 0.021203493450205446 -0.004267451825213153 -0.032332172517335334
vn 0.01914015926642848 -0.0015602564612132164 -0.033828812605457115
vn 0.016848786949720806 0.0011042535662765807 -0.03504379633613419
vn 0.01435144366808322 0.0037004175691223717 -0.03596542275186154
vn 0.0116721802025051 0.006203233068769132 -0.03658481608644426
vn 0.008836799324794087 0.00858859658377692 -0.036896011243474525
vn 0.005872607302779553 0.010833535759523949 -0.036896011243474525
vn 0.0028081509260257653 0.012916430604539453 -0.03658481608644437
vn -0.0003270574153573236 0.014817221702839334 -0.03596542275186132
vn -0.003502823951162526 0.01651760339706948 -0.0350437963361343
vn -0.006688564313599321 0.01800120008199041 -0.033828812605457226
vn -0.009853598081475123 0.01925372391051061 -0.032332172517335334
vn -0.012967444249421811 0.02026311239346218 -0.030568289533963622
vn -0.016000114776639873 0.021019644567965956 -0.02855415081270818
vn -0.018922403388126785 0.02151603461561924 -0.02630915361049513
vn -0.021706166847068276 0.02174750202890907 -0.023854918477622333
vn -0.02432459598959391 0.021711817650111653 -0.021215081040040218
vn -0.026752473911683228 0.021409325139302604 -0.01841506437535534
vn -0.028966418821733453 0.020842937664720118 -0.015481834174692843
vn -0.030945109219994493 0.020018109847362964 -0.012443639048351995
vn -0.03266948923627011 0.01894278523000953 -0.009329738476245908
vn -0.03412295214836025 0.017627319776556516 -0.006170121023115038
vn -0.035291500313878954 0.016084382138428 -0.0029952155322559015
v 0 0 0
v 0 0 0
v 0 0 0
v 0 0 0
v 0 0 0
v 0 0 0
v 0 0 0
v 0 0 0
v 0 0 0
v 0 0 0
v 0 0 0
v 0 0 0
v 0 0 0
v 0 0 0
v 0 0 0
v 0 0 0
v 0 0 0
v 0 0 0
v 0 0 0
v 0 0 0
v 0 0 0
v 0 0 0
v 0 0 0
v 0 0 0
v 0 0 0
v 0 0 0
v 0 0 0
v 0 0 0
v 0 0 0
v 0 0 0
v 0 0 0
v 0 0 0
v 0 0 0
v 0 0 0
v 0 0 0
v 0 0 0
v 0 0 0
v 0 0 0
v 0 0 0
v 0 0 0
v 0 0 0
v 0 0 0
v 0 0 0
v 0 0 0
v 0 0 0
v 0 0 0
v 0 0 0
v 0 0 0
v 0 0 0
v 0 0 0
v 0 0 0
v 0 0 0
v 0 0 0
v 0 0 0
v 0 0 0
v 0 0 0
v 0 0 0
v 0 0 0
v 0 0 0
v 0 0 0
v 0 0 0
v 0 0 0
v 0 0 0
v 0 0 0
v 0.4171235252513804 1.044777137998697 0.6956693741366229
v 0.4114209046374757 1.030099544445869 0.7205102006732608
v 0.40815190713630467 1.0139465117369748 0.7448702394054593
v 0.40734801498081924 0.9964736024071471 0.7685148898436758
v 0.4090169700919291 0.9778490901248961 0.7912164410787095
v 0.41314269951957044 0.9582523391246937 0.8127562647622366
v 0.41968547023400204 0.9378720768313458 0.8329269206173198
v 0.4285822717766016 0.9169045763117218 0.8515341542016721
v 0.43974742308502746 0.8955517660578276 0.8683987676841278
v 0.4530733976486868 0.8740192853050416 0.8833583456177154
v 0.4684318590478131 0.8525145036138644 0.8962688190891972
v 0.4856748969033436 0.8312445237876914 0.9070058531814603
v 0.5046364513347263 0.8104141873596025 0.9154660443867362
v 0.5251339122073468 0.7902241018564204 0.921567916438907
v 0.54696987776795 0.7708687088385642 0.9252527049744879
v 0.5699340557314344 0.7525344113215297 0.926484923465571
v 0.5938052885105148 0.7353977786129526 0.925252704974488
v 0.6183536830841856 0.7196238458536531 0.921567916438907
v 0.6433428249931846 0.7053645246390118 0.9154660443867362
v 0.668532055140474 0.6927571400272635 0.9070058531814603
v 0.6936787874699012 0.681923108024117 0.8962688190891972
v 0.7185408452025316 0.6729667662802468 0.8833583456177154
v 0.7428787931314169 0.6659743692626808 0.8683987676841278
v 0.7664582435135263 0.6610132575771313 0.8515341542016721
v 0.7890521133518412 0.6581312094411496 0.8329269206173198
v 0.8104428113287531 0.657355980553773 0.8127562647622366
v 0.8304243333293991 0.6586950367929699 0.7912164410787095
v 0.8488042463739024 0.6621354823151546 0.7685148898436758
v 0.8654055418521617 0.6676441837492095 0.7448702394054593
v 0.88006834021353 0.6751680892889621 0.7205102006732609
v 0.8926514306942865 0.6846347396110795 0.695669374136623
v 0.9030336312544848 0.6959529656979621 0.6705869905344708
v 0.9111149556272417 0.7090137668452217 0.6455046069323187
v 0.9168175762411463 0.7236913603980497 0.6206637803956808
v 0.9200865737423174 0.7398443931069438 0.5963037416634824
v 0.9208904658978028 0.7573173024367714 0.5726590912252658
v 0.919221510786693 0.7759418147190226 0.5499575399902321
v 0.9150957813590517 0.7955385657192249 0.528417716306705
v 0.90855301064462 0.8159188280125729 0.5082470604516218
v 0.8996562091020205 0.8368863285321968 0.4896398268672695
v 0.8884910577935947 0.8582391387860909 0.4727752133848138
v 0.8751650832299351 0.8797716195388771 0.45781563545122617
v 0.8598066218308089 0.9012764012300543 0.44490516197974433
v 0.8425635839752785 0.9225463810562271 0.4341681278874814
v 0.8236020295438958 0.9433767174843161 0.42570793668220547
v 0.8031045686712753 0.9635668029874982 0.4196060646300346
v 0.7812686031106719 0.9829221960053546 0.4159212760944536
v 0.7583044251471877 1.0012564935223889 0.41468905760337055
v 0.7344331923681073 1.0183931262309658 0.4159212760944536
v 0.7098847977944365 1.0341670589902656 0.4196060646300346
v 0.6848956558854375 1.0484263802049067 0.4257079366822054
v 0.6597064257381481 1.061033764816655 0.4341681278874814
v 0.634559693408721 1.0718677968198016 0.44490516197974433
v 0.6096976356760906 1.0808241385636719 0.4578156354512261
v 0.585359687747205 1.0878165355812377 0.47277521338481376
v 0.5617802373650957 1.0927776472667874 0.4896398268672695
v 0.539186367526781 1.095659695402769 0.5082470604516217
v 0.517795669549869 1.0964349242901457 0.528417716306705
v 0.49781414754922293 1.0950958680509486 0.5499575399902321
v 0.4794342345047198 1.091655422528764 0.5726590912252657
v 0.46283293902646044 1.0861467210947091 0.5963037416634822
v 0.4481701406650921 1.0786228155549566 0.6206637803956807
v 0.4355870501843354 1.0691561652328392 0.6455046069323187
v 0.4252048496241373 1.0578379391459565 0.6705869905344707
f 1//1 65//1 66//1 2//1
f 2//65 66//65 65//65 1//65
f 2//2 66//2 67//2 3//2
f 3//66 67//66 66//66 2//66
f 3//3 67//3 68//3 4//3
f 4//67 68//67 67//67 3//67
f 4//4 68//4 69//4 5//4
f 5//68 69//68 68//68 4//68
f 5//5 69//5 70//5 6//5
f 6//69 70//69 69//69 5//69
f 6//6 70//6 71//6 7//6
f 7//70 71//70 70//70 6//70
f 7//7 71//7 72//7 8//7
f 8//71 72//71 71//71 7//71
f 8//8 72//8 73//8 9//8
f 9//72 73//72 72//72 8//72
f 9//9 73//9 74//9 10//9
f 10//73 74//73 73//73 9//73
f 10//10 74//10 75//10 11//10
f 11//74 75//74 74//74 10//74
f 11//11 75//11 76//11 12//11
f 12//75 76//75 75//75 11//75
f 12//12 76//12 77//12 13//12
f 13//76 77//76 76//76 12//76
f 13//13 77//13 78//13 14//13
f 14//77 78//77 77//77 13//77
f 14//14 78//14 79//14 15//14
f 15//78 79//78 78//78 14//78
f 15//15 79//15 80//15 16//15
f 16//79 80//79 79//79 15//79
f 16//16 80//16 81//16 17//16
f 17//80 81//80 80//80 16//80
f 17//17 81//17 82//17 18//17
f 18//81 82//81 81//81 17//81
f 18//18 82//18 83//18 19//18
f 19//82 83//82 82//82 18//82
f 19//19 83//19 84//19 20//19
f 20//83 84//83 83//83 19//83
f 20//20 84//20 85//20 21//20
f 21//84 85//84 84//84 20//84
f 21//21 85//21 86//21 22//21
f 22//85 86//85 85//85 21//85
f 22//22 86//22 87//22 23//22
f 23//86 87//86 86//86 22//86
f 23//23 87//23 88//23 24//23
f 24//87 88//87 87//87 23//87
f 24//24 88//24 89//24 25//24
f 25//88 89//88 88//88 24//88
f 25//25 89//25 90//25 26//25
f 26//89 90//89 89//89 25//89
f 26//26 90//26 91//26 27//26
f 27//90 91//90 90//90 26//90
f 27//27 91//27 92//27 28//27
f 28//91 92//91 91//91 27//91
f 28//28 92//28 93//28 29//28
f 29//92 93//92 92//92 28//92
f 29//29 93//29 94//29 30//29
f 30//93 94//93 93//93 29//93
f 30//30 94//30 95//30 31//30
f 31//94 95//94 94//94 30//94
f 31//31 95//31 96//31 32//31
f 32//95 96//95 95//95 31//95
f 32//32 96//32 97//32 33//32
f 33//96 97//96 96//96 32//96
f 33//33 97//33 98//33 34//33
f 34//97 98//97 97//97 33//97
f 34//34 98//34 99//34 35//34
f 35//98 99//98 98//98 34//98
f 35//35 99//35 100//35 36//35
f 36//99 100//99 99//99 35//99
f 36//36 100//36 101//36 37//36
f 37//100 101//100 100//100 36//100
f 37//37 101//37 102//37 38//37
f 38//101 102//101 101//101 37//101
f 38//38 102//38 103//38 39//38
f 39//102 103//102 102//102 38//102
f 39//39 103//39 104//39 40//39
f 40//103 104//103 103//103 39//103
f 40//40 104//40 105//40 41//40
f 41//104 105//104 104//104 40//104
f 41//41 105//41 106//41 42//41
f 42//105 106//105 105//105 41//105
f 42//42 106//42 107//42 43//42
f 43//106 107//106 106//106 42//106
f 43//43 107//43 108//43 44//43
f 44//107 108//107 107//107 43//107
f 44//44 108//44 109//44 45//44
f 45//108 109//108 108//108 44//108
f 45//45 109//45 110//45 46//45
f 46//109 110//109 109//109 45//109
f 46//46 110//46 111//46 47//46
f 47//110 111//110 110//110 46//110
f 47//47 111//47 112//47 48//47
f 48//111 112//111 111//111 47//111
f 48//48 112//48 113//48 49//48
f 49//112 113//112 112//112 48//112
f 49//49 113//49 114//49 50//49
f 50//113 114//113 113//113 49//113
f 50//50 114//50 115//50 51//50
f 51//114 115//114 114//114 50//114
f 51//51 115//51 116//51 52//51
f 52//115 116//115 115//115 51//115
f 52//52 116//52 117//52 53//52
f 53//116 117//116 116//116 52//116
f 53//53 117//53 118//53 54//53
f 54//117 118//117 117//117 53//117
f 54//54 118//54 119//54 55//54
f 55//118 119//118 118//118 54//118
f 55//55 119//55 120//55 56//55
f 56//119 120//119 119//119 55//119
f 56//56 120//56 121//56 57//56
f 57//120 121//120 120//120 56//120
f 57//57 121//57 122//57 58//57
f 58//121 122//121 121//121 57//121
f 58//58 122//58 123//58 59//58
f 59//122 123//122 122//122 58//122
f 59//59 123//59 124//59 60//59
f 60//123 124//123 123//123 59//123
f 60//60 124//60 125//60 61//60
f 61//124 125//124 124//124 60//124
f 61//61 125//61 126//61 62//61
f 62//125 126//125 125//125 61//125
f 62//62 126//62 127//62 63//62
f 63//126 127//126 126//126 62//126
f 63//63 127//63 128//63 64//63
f 64//127 128//127 127//127 63//127
f 64//64 128//64 65//64 1//64
f 1//128 65//128 128//128 64//128