o Jets_31
vn -0.06131435379032757 0.029731655771136734 -0.011090606291586834
vn -0.057943231194548916 0.035292476703206566 -0.012784597389923581
vn -0.054021392000648705 0.04049288153638987 -0.0144374040161642
vn -0.04958660566395823 0.045282787529312696 -0.016033108738981994
vn -0.044681581601201836 0.04961606526883425 -0.017556344049595315
vn -0.039353557875461576 0.05345098292151215 -0.01899244035927776
vn -0.03365384626781065 0.05675060813397245 -0.020327567275517183
vn -0.027637338116810684 0.059483163711659764 -0.02154886679625532
vn -0.021361975684913714 0.06162233365059483 -0.022644577139477443
vn -0.01488819414280007 0.06314751657487594 -0.023604146015602
vn -0.008278339545650049 0.06404402413919302 -0.024418332251798347
vn -0.0015960684065474684 0.0643032224856202 -0.025079294789532303
vn 0.005094265350535476 0.06392261539238947 -0.025580668198246503
vn 0.011728230154211872 0.06290586831386957 -0.02591762397793676
vn 0.01824193729692647 0.06126277308023753 -0.026086917060245796
vn 0.024572656218141198 0.059009153596799924 -0.02608691706024574
vn 0.030659418633921298 0.056166713451136 -0.025917623977936732
vn 0.03644360569484073 0.05276282689568457 -0.02558066819824656
vn 0.041869512517544116 0.048830275218728514 -0.025079294789532303
vn 0.0468848846532266 0.0444069310426678 -0.024418332251798347
vn 0.05144142132653973 0.03953539358996361 -0.0236041460156019
vn 0.05549524059846389 0.034262578429339996 -0.02264457713947743
vn 0.05900730197336701 0.028639265653206958 -0.02154886679625545
vn 0.06194378238032061 0.022719610837613313 -0.020327567275517155
vn 0.06427640190776263 0.01656062349444709 -0.018992440359277774
vn 0.06598269615450447 0.010221618038666946 -0.01755634404959533
vn 0.06704623257419384 0.003763642558065383 -0.01603310873898195
vn 0.06745676872972184 -0.002751109113190875 -0.014437404016164168
vn 0.06721035093348804 -0.009259896355182207 -0.012784597389923547
vn 0.06630935232357693 -0.01570003598870362 -0.011090606291586869
vn 0.06476245000913683 -0.022009505948545005 -0.009371744781460745
vn 0.06258454150507908 -0.028127542589886367 -0.007644566435513089
vn 0.05979660126086361 -0.03399522587541304 -0.005925704925386882
vn 0.05642547866508496 -0.03955604680748226 -0.004231713827050204
vn 0.05250363947118497 -0.044756451640665884 -0.0025789072008096103
vn 0.048068853134494494 -0.049546357633588944 -0.0009832024779917459
vn 0.04316382907173755 -0.053879635373110246 0.0005400328326214954
vn 0.03783580534599751 -0.05771455302578832 0.001976129142304009
vn 0.03213609373834703 -0.061014178238248507 0.0033112560585433493
vn 0.026119585587346728 -0.06374673381593565 0.004532555579281547
vn 0.01984422315544976 -0.06588590375487147 0.005628265922503692
vn 0.013370441613336115 -0.06741108667915197 0.00658783479862822
vn 0.006760587016185982 -0.06830759424346877 0.007402021034824478
vn 7.831587708362342E-05 -0.06856679258989667 0.00806298357255851
vn -0.006612017879999654 -0.06818618549666544 0.008564356981272746
vn -0.013245982683675828 -0.06716943841814621 0.008901312760963058
vn -0.019759689826390314 -0.06552634318451334 0.009070605843271906
vn -0.026090408747605043 -0.06327272370107573 0.009070605843271903
vn -0.03217717116338559 -0.06043028355541248 0.008901312760963048
vn -0.0379613582243048 -0.057026396999960594 0.008564356981272751
vn -0.043387265047008294 -0.05309384532300487 0.008062983572558505
vn -0.04840263718269033 -0.04867050114694359 0.007402021034824482
vn -0.05295917385600357 -0.043798963694239926 0.006587834798628211
vn -0.05701299312792807 -0.03852614853361647 0.0056282659225037075
vn -0.060525054502830855 -0.03290283575748276 0.004532555579281557
vn -0.06346153490978446 -0.0269831809418892 0.0033112560585433215
vn -0.06579415443722714 -0.020824193598723256 0.0019761291423040506
vn -0.06750044868396832 -0.014485188142943 0.0005400328326215162
vn -0.06856398510365724 -0.00802721266234152 -0.0009832024779917736
vn -0.06897452125918635 -0.0015124609910852904 -0.0025789072008095895
vn -0.06872810346295188 0.004996326250906291 -0.004231713827050204
vn -0.06782710485304122 0.011436465884427427 -0.005925704925386965
vn -0.06628020253860045 0.017745935844268812 -0.00764456643551302
vn -0.06410229403454304 0.023863972485610424 -0.009371744781460759
vn 0.06131435379032757 -0.029731655771136734 0.011090606291586834
vn 0.057943231194548916 -0.035292476703206566 0.012784597389923581
vn 0.054021392000648705 -0.04049288153638987 0.0144374040161642
vn 0.04958660566395823 -0.045282787529312696 0.016033108738981994
vn 0.044681581601201836 -0.04961606526883425 0.017556344049595315
vn 0.039353557875461576 -0.05345098292151215 0.01899244035927776
vn 0.03365384626781065 -0.05675060813397245 0.020327567275517183
vn 0.027637338116810684 -0.059483163711659764 0.02154886679625532
vn 0.021361975684913714 -0.06162233365059483 0.022644577139477443
vn 0.01488819414280007 -0.06314751657487594 0.023604146015602
vn 0.008278339545650049 -0.06404402413919302 0.024418332251798347
vn 0.0015960684065474684 -0.0643032224856202 0.025079294789532303
vn -0.005094265350535476 -0.06392261539238947 0.025580668198246503
vn -0.011728230154211872 -0.06290586831386957 0.02591762397793676
vn -0.01824193729692647 -0.06126277308023753 0.026086917060245796
vn -0.024572656218141198 -0.059009153596799924 0.02608691706024574
vn -0.030659418633921298 -0.056166713451136 0.025917623977936732
vn -0.03644360569484073 -0.05276282689568457 0.02558066819824656
vn -0.041869512517544116 -0.048830275218728514 0.025079294789532303
vn -0.0468848846532266 -0.0444069310426678 0.024418332251798347
vn -0.05144142132653973 -0.03953539358996361 0.0236041460156019
vn -0.05549524059846389 -0.034262578429339996 0.02264457713947743
vn -0.05900730197336701 -0.028639265653206958 0.02154886679625545
vn -0.06194378238032061 -0.022719610837613313 0.020327567275517155
vn -0.06427640190776263 -0.01656062349444709 0.018992440359277774
vn -0.06598269615450447 -0.010221618038666946 0.01755634404959533
vn -0.06704623257419384 -0.003763642558065383 0.01603310873898195
vn -0.06745676872972184 0.002751109113190875 0.014437404016164168
vn -0.06721035093348804 0.009259896355182207 0.012784597389923547
vn -0.06630935232357693 0.01570003598870362 0.011090606291586869
vn -0.06476245000913683 0.022009505948545005 0.009371744781460745
vn -0.06258454150507908 0.028127542589886367 0.007644566435513089
vn -0.05979660126086361 0.03399522587541304 0.005925704925386882
vn -0.05642547866508496 0.03955604680748226 0.004231713827050204
vn -0.05250363947118497 0.044756451640665884 0.0025789072008096103
vn -0.048068853134494494 0.049546357633588944 0.0009832024779917459
vn -0.04316382907173755 0.053879635373110246 -0.0005400328326214954
vn -0.03783580534599751 0.05771455302578832 -0.001976129142304009
vn -0.03213609373834703 0.061014178238248507 -0.0033112560585433493
vn -0.026119585587346728 0.06374673381593565 -0.004532555579281547
vn -0.01984422315544976 0.06588590375487147 -0.005628265922503692
vn -0.013370441613336115 0.06741108667915197 -0.00658783479862822
vn -0.006760587016185982 0.06830759424346877 -0.007402021034824478
vn -7.831587708362342E-05 0.06856679258989667 -0.00806298357255851
vn 0.006612017879999654 0.06818618549666544 -0.008564356981272746
vn 0.013245982683675828 0.06716943841814621 -0.008901312760963058
vn 0.019759689826390314 0.06552634318451334 -0.009070605843271906
vn 0.026090408747605043 0.06327272370107573 -0.009070605843271903
vn 0.03217717116338559 0.06043028355541248 -0.008901312760963048
vn 0.0379613582243048 0.057026396999960594 -0.008564356981272751
vn 0.043387265047008294 0.05309384532300487 -0.008062983572558505
vn 0.04840263718269033 0.04867050114694359 -0.007402021034824482
vn 0.05295917385600357 0.043798963694239926 -0.006587834798628211
vn 0.05701299312792807 0.03852614853361647 -0.0056282659225037075
vn 0.060525054502830855 0.03290283575748276 -0.004532555579281557
vn 0.06346153490978446 0.0269831809418892 -0.0033112560585433215
vn 0.06579415443722714 0.020824193598723256 -0.0019761291423040506
vn 0.06750044868396832 0.014485188142943 -0.0005400328326215162
vn 0.06856398510365724 0.00802721266234152 0.0009832024779917736
vn 0.06897452125918635 0.0015124609910852904 0.0025789072008095895
vn 0.06872810346295188 -0.004996326250906291 0.004231713827050204
vn 0.06782710485304122 -0.011436465884427427 0.005925704925386965
vn 0.06628020253860045 -0.017745935844268812 0.00764456643551302
vn 0.06410229403454304 -0.023863972485610424 0.009371744781460759
v 0 0 0
v 0 0 0
v 0 0 0
v 0 0 0
v 0 0 0
v 0 0 0
v 0 0 0
v 0 0 0
v 0 0 0
v 0 0 0
v 0 0 0
v 0 0 0
v 0 0 0
v 0 0 0
v 0 0 0
v 0 0 0
v 0 0 0
v 0 0 0
v 0 0 0
v 0 0 0
v 0 0 0
v 0 0 0
v 0 0 0
v 0 0 0
v 0 0 0
v 0 0 0
v 0 0 0
v 0 0 0
v 0 0 0
v 0 0 0
v 0 0 0
v 0 0 0
v 0 0 0
v 0 0 0
v 0 0 0
v 0 0 0
v 0 0 0
v 0 0 0
v 0 0 0
v 0 0 0
v 0 0 0
v 0 0 0
v 0 0 0
v 0 0 0
v 0 0 0
v 0 0 0
v 0 0 0
v 0 0 0
v 0 0 0
v 0 0 0
v 0 0 0
v 0 0 0
v 0 0 0
v 0 0 0
v 0 0 0
v 0 0 0
v 0 0 0
v 0 0 0
v 0 0 0
v 0 0 0
v 0 0 0
v 0 0 0
v 0 0 0
v 0 0 0
v 0.07077735065983018 -0.690525252856161 -2.2424496897668735
v 0.0572827780113713 -0.7155652280007772 -2.2349720931487114
v 0.04130382061963986 -0.7391431889094896 -2.227639223488617
v 0.0229943645793049 -0.761032066929723 -2.2205217003299706
v 0.0025307399610016434 -0.7810210602004646 -2.2136880693116248
v -0.019889977343640536 -0.798917663789422 -2.2072041420359283
v -0.044051863570567035 -0.8145495236207547 -2.2011323622670216
v -0.06972222654718216 -0.8277660963390432 -2.1955312045632516
v -0.0966538466451731 -0.8384400991240968 -2.19045461113521
v -0.12458735764067519 -0.8464687354940921 -2.1859514723527567
v -0.15325374455279128 -0.8517746852918867 -2.182065155904033
v -0.18237693440491673 -0.8543068493204009 -2.178833089140917
v -0.21167645495842047 -0.8540408414558183 -2.176286398633165
v -0.24087013581362499 -0.8509792234992897 -2.1744496104025286
v -0.26967682586500547 -0.8451514805053868 -2.17334041372376
v -0.29781910094002856 -0.8366137368249094 -2.1729694907672243
v -0.3250259355455893 -0.825448215596706 -2.17334041372376
v -0.35103531299166735 -0.811762446893899 -2.1744496104025286
v -0.37559674875528515 -0.7956882321504986 -2.176286398633165
v -0.39847370278339245 -0.7773803748415431 -2.178833089140917
v -0.41944585750288343 -0.7570151896410109 -2.182065155904033
v -0.4383112395992632 -0.7347888044151257 -2.1859514723527567
v -0.4548881651300771 -0.7109152714037908 -2.19045461113521
v -0.4690169892405941 -0.685624505780506 -2.1955312045632516
v -0.4805616436310287 -0.6591600714435625 -2.2011323622670216
v -0.4894109469686512 -0.6317768353625564 -2.2072041420359283
v -0.4954796756247989 -0.6037385130701471 -2.2136880693116248
v -0.49870938442500856 -0.5753151289373168 -2.2205217003299706
v -0.49906896950799584 -0.546780415691067 -2.227639223488617
v -0.49655496787284237 -0.5184091782186199 -2.2349720931487114
v -0.4911915907295876 -0.4904746470461311 -2.2424496897668735
v -0.4830304903320415 -0.4632458469793599 -2.25
v -0.4721502625383436 -0.4369850062477254 -2.2575503102331265
v -0.4586556898898846 -0.4119450311031092 -2.2650279068512886
v -0.4426767324981533 -0.3883670701943968 -2.272360776511383
v -0.42436727645781835 -0.36647819217416333 -2.2794782996700294
v -0.40390365183951504 -0.3464891989034217 -2.2863119306883752
v -0.3814829345348729 -0.32859259531446444 -2.2927958579640717
v -0.35732104830794637 -0.31296073548313175 -2.2988676377329784
v -0.33165068533133124 -0.29974416276484317 -2.3044687954367484
v -0.3047190652333404 -0.28907015997978963 -2.30954538886479
v -0.2767855542378381 -0.28104152360979434 -2.3140485276472433
v -0.2481191673257221 -0.27573557381199965 -2.317934844095967
v -0.2189959774735968 -0.27320340978348545 -2.321166910859083
v -0.18969645692009296 -0.2734694176480681 -2.323713601366835
v -0.16050277606488847 -0.27653103560459674 -2.3255503895974714
v -0.1316960860135078 -0.28235877859849967 -2.32665958627624
v -0.10355381093848484 -0.290896522278977 -2.3270305092327757
v -0.07634697633292424 -0.3020620435071803 -2.32665958627624
v -0.050337598886846 -0.3157478122099874 -2.3255503895974714
v -0.02577616312322828 -0.3318220269533878 -2.323713601366835
v -0.0028992090951208416 -0.3501298842623433 -2.321166910859083
v 0.01807294562436998 -0.37049506946287547 -2.317934844095967
v 0.036938327720749814 -0.39272145468876063 -2.3140485276472433
v 0.05351525325156384 -0.4165949877000956 -2.30954538886479
v 0.0676440773620807 -0.4418857533233803 -2.3044687954367484
v 0.0791887317525152 -0.4683501876603237 -2.2988676377329784
v 0.08803803509013777 -0.49573342374133006 -2.2927958579640717
v 0.09410676374628549 -0.5237717460337392 -2.2863119306883752
v 0.09733647254649522 -0.5521951301665693 -2.2794782996700294
v 0.09769605762948255 -0.5807298434128194 -2.272360776511383
v 0.09518205599432902 -0.6091010808852665 -2.2650279068512886
v 0.08981867885107428 -0.6370356120577554 -2.2575503102331265
v 0.08165757845352814 -0.6642644121245265 -2.25
f 1//1 65//1 66//1 2//1
f 2//65 66//65 65//65 1//65
f 2//2 66//2 67//2 3//2
f 3//66 67//66 66//66 2//66
f 3//3 67//3 68//3 4//3
f 4//67 68//67 67//67 3//67
f 4//4 68//4 69//4 5//4
f 5//68 69//68 68//68 4//68
f 5//5 69//5 70//5 6//5
f 6//69 70//69 69//69 5//69
f 6//6 70//6 71//6 7//6
f 7//70 71//70 70//70 6//70
f 7//7 71//7 72//7 8//7
f 8//71 72//71 71//71 7//71
f 8//8 72//8 73//8 9//8
f 9//72 73//72 72//72 8//72
f 9//9 73//9 74//9 10//9
f 10//73 74//73 73//73 9//73
f 10//10 74//10 75//10 11//10
f 11//74 75//74 74//74 10//74
f 11//11 75//11 76//11 12//11
f 12//75 76//75 75//75 11//75
f 12//12 76//12 77//12 13//12
f 13//76 77//76 76//76 12//76
f 13//13 77//13 78//13 14//13
f 14//77 78//77 77//77 13//77
f 14//14 78//14 79//14 15//14
f 15//78 79//78 78//78 14//78
f 15//15 79//15 80//15 16//15
f 16//79 80//79 79//79 15//79
f 16//16 80//16 81//16 17//16
f 17//80 81//80 80//80 16//80
f 17//17 81//17 82//17 18//17
f 18//81 82//81 81//81 17//81
f 18//18 82//18 83//18 19//18
f 19//82 83//82 82//82 18//82
f 19//19 83//19 84//19 20//19
f 20//83 84//83 83//83 19//83
f 20//20 84//20 85//20 21//20
f 21//84 85//84 84//84 20//84
f 21//21 85//21 86//21 22//21
f 22//85 86//85 85//85 21//85
f 22//22 86//22 87//22 23//22
f 23//86 87//86 86//86 22//86
f 23//23 87//23 88//23 24//23
f 24//87 88//87 87//87 23//87
f 24//24 88//24 89//24 25//24
f 25//88 89//88 88//88 24//88
f 25//25 89//25 90//25 26//25
f 26//89 90//89 89//89 25//89
f 26//26 90//26 91//26 27//26
f 27//90 91//90 90//90 26//90
f 27//27 91//27 92//27 28//27
f 28//91 92//91 91//91 27//91
f 28//28 92//28 93//28 29//28
f 29//92 93//92 92//92 28//92
f 29//29 93//29 94//29 30//29
f 30//93 94//93 93//93 29//93
f 30//30 94//30 95//30 31//30
f 31//94 95//94 94//94 30//94
f 31//31 95//31 96//31 32//31
f 32//95 96//95 95//95 31//95
f 32//32 96//32 97//32 33//32
f 33//96 97//96 96//96 32//96
f 33//33 97//33 98//33 34//33
f 34//97 98//97 97//97 33//97
f 34//34 98//34 99//34 35//34
f 35//98 99//98 98//98 34//98
f 35//35 99//35 100//35 36//35
f 36//99 100//99 99//99 35//99
f 36//36 100//36 101//36 37//36
f 37//100 101//100 100//100 36//100
f 37//37 101//37 102//37 38//37
f 38//101 102//101 101//101 37//101
f 38//38 102//38 103//38 39//38
f 39//102 103//102 102//102 38//102
f 39//39 103//39 104//39 40//39
f 40//103 104//103 103//103 39//103
f 40//40 104//40 105//40 41//40
f 41//104 105//104 104//104 40//104
f 41//41 105//41 106//41 42//41
f 42//105 106//105 105//105 41//105
f 42//42 106//42 107//42 43//42
f 43//106 107//106 106//106 42//106
f 43//43 107//43 108//43 44//43
f 44//107 108//107 107//107 43//107
f 44//44 108//44 109//44 45//44
f 45//108 109//108 108//108 44//108
f 45//45 109//45 110//45 46//45
f 46//109 110//109 109//109 45//109
f 46//46 110//46 111//46 47//46
f 47//110 111//110 110//110 46//110
f 47//47 111//47 112//47 48//47
f 48//111 112//111 111//111 47//111
f 48//48 112//48 113//48 49//48
f 49//112 113//112 112//112 48//112
f 49//49 113//49 114//49 50//49
f 50//113 114//113 113//113 49//113
f 50//50 114//50 115//50 51//50
f 51//114 115//114 114//114 50//114
f 51//51 115//51 116//51 52//51
f 52//115 116//115 115//115 51//115
f 52//52 116//52 117//52 53//52
f 53//116 117//116 116//116 52//116
f 53//53 117//53 118//53 54//53
f 54//117 118//117 117//117 53//117
f 54//54 118//54 119//54 55//54
f 55//118 119//118 118//118 54//118
f 55//55 119//55 120//55 56//55
f 56//119 120//119 119//119 55//119
f 56//56 120//56 121//56 57//56
f 57//120 121//120 120//120 56//120
f 57//57 121//57 122//57 58//57
f 58//121 122//121 121//121 57//121
f 58//58 122//58 123//58 59//58
f 59//122 123//122 122//122 58//122
f 59//59 123//59 124//59 60//59
f 60//123 124//123 123//123 59//123
f 60//60 124//60 125//60 61//60
f 61//124 125//124 124//124 60//124
f 61//61 125//61 126//61 62//61
f 62//125 126//125 125//125 61//125
f 62//62 126//62 127//62 63//62
f 63//126 127//126 126//126 62//126
f 63//63 127//63 128//63 64//63
f 64//127 128//127 127//127 63//127
f 64//64 128//64 65//64 1//64
f 1//128 65//128 128//128 64//128