o Jets_19
vn 0.050915160015717165 0.04755720296936006 -0.011703237863722404
vn 0.05481025604909129 0.04234205742156716 -0.01392813179617508
vn 0.05815650876839096 0.0367376056032136 -0.016098933896523282
vn 0.06092169193068142 0.030797821449016105 -0.018194738153859302
vn 0.06307917531050689 0.02457990832739565 -0.020195360827501896
vn 0.0646081811635193 0.018143748140770466 -0.022081534827452398
vn 0.06549398432751485 0.011551324630100224 -0.023835095267003725
vn 0.06572805403379434 0.004866126437578888 -0.025439154400529074
vn 0.0653081360631309 -0.0018474643236996435 -0.02687826426170492
vn 0.06423827445513353 -0.008524792104680268 -0.02813856543587062
vn 0.0625287725619319 -0.015101550588636492 -0.029207920533768417
vn 0.06019609382126645 -0.021514401996142407 -0.030076031081236132
vn 0.057262703204582266 -0.02770158706252568 -0.03073453669914472
vn 0.05375685086707227 -0.033603519813335536 -0.031177095618417416
vn 0.04971230008324068 -0.03916336140985832 -0.031399445754734745
vn 0.04516800208811156 -0.044327567538199775 -0.031399445754734745
vn 0.04016772095554377 -0.04904640407030314 -0.031177095618417305
vn 0.03475961212627743 -0.05327442603078447 -0.03073453669914472
vn 0.028995758644708935 -0.056970915256893795 -0.030076031081236132
vn 0.022931669570711133 -0.06010027253667527 -0.029207920533768306
vn 0.016625745397032432 -0.06263236044884546 -0.028138565435870677
vn 0.010138715620636063 -0.06454279360262949 -0.02687826426170492
vn 0.003533053884438697 -0.06581317348240856 -0.02543915440052913
vn -0.0031276236780171107 -0.06643126563547774 -0.02383509526700367
vn -0.009779171100708695 -0.06639111749652127 -0.022081534827452454
vn -0.01635753034585008 -0.06569311571406411 -0.02019536082750184
vn -0.022799348217813264 -0.06434398242683814 -0.018194738153859302
vn -0.02904258648903535 -0.062356710525909964 -0.016098933896523226
vn -0.03502711936206304 -0.05975043852603912 -0.013928131796175136
vn -0.04069531251385139 -0.05655026625131809 -0.01170323786372246
vn -0.04599257814579816 -0.05278701311014378 -0.009445679043985411
vn -0.05086790069408886 -0.04849692128746952 -0.007177196862505286
vn -0.05527432813746036 -0.04372130671275043 -0.004919638042768237
vn -0.05916942417083382 -0.0385061611649572 -0.002694744110315589
vn -0.06251567689013382 -0.03290170934660419 -0.0005239420099674708
vn -0.0652808600524244 -0.026961925192406477 0.0015718622473686605
vn -0.06743834343224964 -0.020744012070786244 0.0035724849210111986
vn -0.06896734928526249 -0.014307851884160727 0.005458658920961729
vn -0.0698531524492576 -0.007715428373490929 0.007212219360512945
vn -0.07008722215553687 -0.0010302301809691494 0.008816278494038376
vn -0.06966730418487455 0.005683360580308938 0.010255388355214334
vn -0.06859744257687606 0.012360688361290006 0.011515689529379897
vn -0.06688794068367421 0.018937446845245676 0.012585044627277608
vn -0.06455526194300998 0.025350298252752368 0.013453155174745574
vn -0.06162187132632502 0.031537483319135085 0.014111660792653913
vn -0.05811601898881569 0.03743941606994561 0.014554219711926886
vn -0.054071468204982986 0.042999257666467616 0.01477656984824395
vn -0.0495271702098542 0.0481634637948094 0.014776569848243964
vn -0.04452688907728719 0.05288230032691299 0.01455421971192683
vn -0.03911878024802007 0.0571103222873941 0.01411166079265394
vn -0.03335492676645213 0.06080681151350342 0.01345315517474556
vn -0.027290837692453662 0.06393616879328445 0.012585044627277595
vn -0.020984913518775183 0.06646825670545509 0.011515689529379938
vn -0.014497883742379036 0.06837868985923956 0.010255388355214376
vn -0.00789222200618167 0.06964906973901752 0.008816278494038376
vn -0.0012315444437256406 0.07026716189208715 0.007212219360512917
vn 0.005420002978966054 0.07022701375313134 0.005458658920961812
vn 0.011998362224107217 0.06952901197067352 0.003572484921011254
vn 0.01844018009607018 0.06817987868344755 0.001571862247368605
vn 0.024683418367292376 0.06619260678251981 -0.0005239420099674152
vn 0.03066795124032029 0.06358633478264886 -0.0026947441103155334
vn 0.03633614439210864 0.060386162507928054 -0.004919638042768237
vn 0.04163341002405552 0.05662290936675296 -0.007177196862505286
vn 0.04650873257234611 0.05233281754407915 -0.009445679043985467
vn -0.050915160015717165 -0.04755720296936006 0.011703237863722404
vn -0.05481025604909129 -0.04234205742156716 0.01392813179617508
vn -0.05815650876839096 -0.0367376056032136 0.016098933896523282
vn -0.06092169193068142 -0.030797821449016105 0.018194738153859302
vn -0.06307917531050689 -0.02457990832739565 0.020195360827501896
vn -0.0646081811635193 -0.018143748140770466 0.022081534827452398
vn -0.06549398432751485 -0.011551324630100224 0.023835095267003725
vn -0.06572805403379434 -0.004866126437578888 0.025439154400529074
vn -0.0653081360631309 0.0018474643236996435 0.02687826426170492
vn -0.06423827445513353 0.008524792104680268 0.02813856543587062
vn -0.0625287725619319 0.015101550588636492 0.029207920533768417
vn -0.06019609382126645 0.021514401996142407 0.030076031081236132
vn -0.057262703204582266 0.02770158706252568 0.03073453669914472
vn -0.05375685086707227 0.033603519813335536 0.031177095618417416
vn -0.04971230008324068 0.03916336140985832 0.031399445754734745
vn -0.04516800208811156 0.044327567538199775 0.031399445754734745
vn -0.04016772095554377 0.04904640407030314 0.031177095618417305
vn -0.03475961212627743 0.05327442603078447 0.03073453669914472
vn -0.028995758644708935 0.056970915256893795 0.030076031081236132
vn -0.022931669570711133 0.06010027253667527 0.029207920533768306
vn -0.016625745397032432 0.06263236044884546 0.028138565435870677
vn -0.010138715620636063 0.06454279360262949 0.02687826426170492
vn -0.003533053884438697 0.06581317348240856 0.02543915440052913
vn 0.0031276236780171107 0.06643126563547774 0.02383509526700367
vn 0.009779171100708695 0.06639111749652127 0.022081534827452454
vn 0.01635753034585008 0.06569311571406411 0.02019536082750184
vn 0.022799348217813264 0.06434398242683814 0.018194738153859302
vn 0.02904258648903535 0.062356710525909964 0.016098933896523226
vn 0.03502711936206304 0.05975043852603912 0.013928131796175136
vn 0.04069531251385139 0.05655026625131809 0.01170323786372246
vn 0.04599257814579816 0.05278701311014378 0.009445679043985411
vn 0.05086790069408886 0.04849692128746952 0.007177196862505286
vn 0.05527432813746036 0.04372130671275043 0.004919638042768237
vn 0.05916942417083382 0.0385061611649572 0.002694744110315589
vn 0.06251567689013382 0.03290170934660419 0.0005239420099674708
vn 0.0652808600524244 0.026961925192406477 -0.0015718622473686605
vn 0.06743834343224964 0.020744012070786244 -0.0035724849210111986
vn 0.06896734928526249 0.014307851884160727 -0.005458658920961729
vn 0.0698531524492576 0.007715428373490929 -0.007212219360512945
vn 0.07008722215553687 0.0010302301809691494 -0.008816278494038376
vn 0.06966730418487455 -0.005683360580308938 -0.010255388355214334
vn 0.06859744257687606 -0.012360688361290006 -0.011515689529379897
vn 0.06688794068367421 -0.018937446845245676 -0.012585044627277608
vn 0.06455526194300998 -0.025350298252752368 -0.013453155174745574
vn 0.06162187132632502 -0.031537483319135085 -0.014111660792653913
vn 0.05811601898881569 -0.03743941606994561 -0.014554219711926886
vn 0.054071468204982986 -0.042999257666467616 -0.01477656984824395
vn 0.0495271702098542 -0.0481634637948094 -0.014776569848243964
vn 0.04452688907728719 -0.05288230032691299 -0.01455421971192683
vn 0.03911878024802007 -0.0571103222873941 -0.01411166079265394
vn 0.03335492676645213 -0.06080681151350342 -0.01345315517474556
vn 0.027290837692453662 -0.06393616879328445 -0.012585044627277595
vn 0.020984913518775183 -0.06646825670545509 -0.011515689529379938
vn 0.014497883742379036 -0.06837868985923956 -0.010255388355214376
vn 0.00789222200618167 -0.06964906973901752 -0.008816278494038376
vn 0.0012315444437256406 -0.07026716189208715 -0.007212219360512917
vn -0.005420002978966054 -0.07022701375313134 -0.005458658920961812
vn -0.011998362224107217 -0.06952901197067352 -0.003572484921011254
vn -0.01844018009607018 -0.06817987868344755 -0.001571862247368605
vn -0.024683418367292376 -0.06619260678251981 0.0005239420099674152
vn -0.03066795124032029 -0.06358633478264886 0.0026947441103155334
vn -0.03633614439210864 -0.060386162507928054 0.004919638042768237
vn -0.04163341002405552 -0.05662290936675296 0.007177196862505286
vn -0.04650873257234611 -0.05233281754407915 0.009445679043985467
v 0 0 0
v 0 0 0
v 0 0 0
v 0 0 0
v 0 0 0
v 0 0 0
v 0 0 0
v 0 0 0
v 0 0 0
v 0 0 0
v 0 0 0
v 0 0 0
v 0 0 0
v 0 0 0
v 0 0 0
v 0 0 0
v 0 0 0
v 0 0 0
v 0 0 0
v 0 0 0
v 0 0 0
v 0 0 0
v 0 0 0
v 0 0 0
v 0 0 0
v 0 0 0
v 0 0 0
v 0 0 0
v 0 0 0
v 0 0 0
v 0 0 0
v 0 0 0
v 0 0 0
v 0 0 0
v 0 0 0
v 0 0 0
v 0 0 0
v 0 0 0
v 0 0 0
v 0 0 0
v 0 0 0
v 0 0 0
v 0 0 0
v 0 0 0
v 0 0 0
v 0 0 0
v 0 0 0
v 0 0 0
v 0 0 0
v 0 0 0
v 0 0 0
v 0 0 0
v 0 0 0
v 0 0 0
v 0 0 0
v 0 0 0
v 0 0 0
v 0 0 0
v 0 0 0
v 0 0 0
v 0 0 0
v 0 0 0
v 0 0 0
v 0 0 0
v -0.8078895870708614 0.3136205350098475 -2.240312678185847
v -0.8256577711074959 0.3350042804175351 -2.2307186505763927
v -0.8411568078411011 0.3581620294430597 -2.221310312902146
v -0.8542374330752969 0.3828707603039922 -2.2121782725980297
v -0.8647736732384808 0.40889251441497554 -2.2034104762042537
v -0.8726640585781867 0.4359766880589832 -2.1950913623930552
v -0.87783260037027 0.463862445838108 -2.187301048778126
v -0.8802295227318603 0.4922812326610312 -2.180114560338197
v -0.8798317419903247 0.5209593600753588 -2.173601106885478
v -0.876643088991653 0.5496206420370318 -2.1678234165373356
v -0.8706942722073178 0.5779890547329087 -2.162837131610228
v -0.8620425819949058 0.6057913948409767 -2.1586902727537853
v -0.850771338860658 0.6327599106276895 -2.1554227764856977
v -0.8369890910374451 0.6586348805435311 -2.1530661105812223
v -0.8208285691059478 0.6831671144835144 -2.1516429710213036
v -0.8024454077266064 0.7061203536241144 -2.1511670634178715
v -0.7820166467927622 0.72727354572489 -2.1516429710213036
v -0.7597390264397046 0.7464229739823995 -2.1530661105812223
v -0.7358270923296198 0.7633842189343814 -2.1554227764856977
v -0.7105111294595806 0.7779939345199878 -2.1586902727537853
v -0.6840349443911387 0.7901114211916468 -2.162837131610228
v -0.6566535172598581 0.7996199809286182 -2.1678234165373356
v -0.6286305461772237 0.8064280411027274 -2.173601106885478
v -0.6002359076736753 0.8104700363728334 -2.180114560338197
v -0.5717430576400907 0.811707040114906 -2.187301048778126
v -0.5434263977980694 0.8101271393066939 -2.1950913623930552
v -0.5155586330613511 0.8057455492566417 -2.2034104762042537
v -0.4884081452384198 0.798604467072152 -2.2121782725980297
v -0.46223640836897706 0.7887726652783744 -2.221310312902146
v -0.43729547058600227 0.7763448295011925 -2.2307186505763927
v -0.4138255267544488 0.7614406465928866 -2.240312678185847
v -0.3920526052633909 0.7442036519823187 -2.25
v -0.37218639124907715 0.7247998473502885 -2.259687321814153
v -0.3544182072124426 0.7034161019426007 -2.2692813494236073
v -0.3389191704788375 0.6802583529170763 -2.278689687097854
v -0.32583854524464173 0.6555496220561438 -2.2878217274019703
v -0.31530230508145785 0.6295278679451604 -2.2965895237957463
v -0.30741191974175186 0.6024436943011527 -2.3049086376069448
v -0.30224337794966866 0.5745579365220279 -2.312698951221874
v -0.29984645558807826 0.5461391496991047 -2.319885439661803
v -0.30024423632961394 0.5174610222847772 -2.3263988931145216
v -0.3034328893282856 0.488799740323104 -2.3321765834626644
v -0.30938170611262084 0.46043132762722716 -2.337162868389772
v -0.3180333963250327 0.43262898751915946 -2.3413097272462147
v -0.32930463945928057 0.40566047173244635 -2.3445772235143023
v -0.34308688728249337 0.37978550181660486 -2.3469338894187777
v -0.3592474092139908 0.3552532678766213 -2.3483570289786964
v -0.3776305705933321 0.33230002873602155 -2.3488329365821285
v -0.3980593315271763 0.31114683663524606 -2.3483570289786964
v -0.420336951880234 0.2919974083777363 -2.3469338894187777
v -0.44424888599031875 0.2750361634257546 -2.3445772235143023
v -0.46956484886035804 0.26042644784014807 -2.3413097272462147
v -0.49604103392879983 0.2483089611684891 -2.337162868389772
v -0.5234224610600804 0.23880040143151782 -2.3321765834626644
v -0.551445432142715 0.23199234125740853 -2.326398893114522
v -0.5798400706462632 0.2279503459873024 -2.319885439661803
v -0.6083329206798477 0.22671334224522988 -2.312698951221874
v -0.6366495805218692 0.22829324305344206 -2.3049086376069448
v -0.6645173452585875 0.2326748331034943 -2.2965895237957463
v -0.6916678330815187 0.2398159152879838 -2.2878217274019703
v -0.7178395699509615 0.24964771708176137 -2.278689687097854
v -0.7427805077339363 0.2620755528589433 -2.2692813494236073
v -0.76625045156549 0.2769797357672493 -2.259687321814153
v -0.7880233730565477 0.29421673037781715 -2.25
f 1//1 65//1 66//1 2//1
f 2//65 66//65 65//65 1//65
f 2//2 66//2 67//2 3//2
f 3//66 67//66 66//66 2//66
f 3//3 67//3 68//3 4//3
f 4//67 68//67 67//67 3//67
f 4//4 68//4 69//4 5//4
f 5//68 69//68 68//68 4//68
f 5//5 69//5 70//5 6//5
f 6//69 70//69 69//69 5//69
f 6//6 70//6 71//6 7//6
f 7//70 71//70 70//70 6//70
f 7//7 71//7 72//7 8//7
f 8//71 72//71 71//71 7//71
f 8//8 72//8 73//8 9//8
f 9//72 73//72 72//72 8//72
f 9//9 73//9 74//9 10//9
f 10//73 74//73 73//73 9//73
f 10//10 74//10 75//10 11//10
f 11//74 75//74 74//74 10//74
f 11//11 75//11 76//11 12//11
f 12//75 76//75 75//75 11//75
f 12//12 76//12 77//12 13//12
f 13//76 77//76 76//76 12//76
f 13//13 77//13 78//13 14//13
f 14//77 78//77 77//77 13//77
f 14//14 78//14 79//14 15//14
f 15//78 79//78 78//78 14//78
f 15//15 79//15 80//15 16//15
f 16//79 80//79 79//79 15//79
f 16//16 80//16 81//16 17//16
f 17//80 81//80 80//80 16//80
f 17//17 81//17 82//17 18//17
f 18//81 82//81 81//81 17//81
f 18//18 82//18 83//18 19//18
f 19//82 83//82 82//82 18//82
f 19//19 83//19 84//19 20//19
f 20//83 84//83 83//83 19//83
f 20//20 84//20 85//20 21//20
f 21//84 85//84 84//84 20//84
f 21//21 85//21 86//21 22//21
f 22//85 86//85 85//85 21//85
f 22//22 86//22 87//22 23//22
f 23//86 87//86 86//86 22//86
f 23//23 87//23 88//23 24//23
f 24//87 88//87 87//87 23//87
f 24//24 88//24 89//24 25//24
f 25//88 89//88 88//88 24//88
f 25//25 89//25 90//25 26//25
f 26//89 90//89 89//89 25//89
f 26//26 90//26 91//26 27//26
f 27//90 91//90 90//90 26//90
f 27//27 91//27 92//27 28//27
f 28//91 92//91 91//91 27//91
f 28//28 92//28 93//28 29//28
f 29//92 93//92 92//92 28//92
f 29//29 93//29 94//29 30//29
f 30//93 94//93 93//93 29//93
f 30//30 94//30 95//30 31//30
f 31//94 95//94 94//94 30//94
f 31//31 95//31 96//31 32//31
f 32//95 96//95 95//95 31//95
f 32//32 96//32 97//32 33//32
f 33//96 97//96 96//96 32//96
f 33//33 97//33 98//33 34//33
f 34//97 98//97 97//97 33//97
f 34//34 98//34 99//34 35//34
f 35//98 99//98 98//98 34//98
f 35//35 99//35 100//35 36//35
f 36//99 100//99 99//99 35//99
f 36//36 100//36 101//36 37//36
f 37//100 101//100 100//100 36//100
f 37//37 101//37 102//37 38//37
f 38//101 102//101 101//101 37//101
f 38//38 102//38 103//38 39//38
f 39//102 103//102 102//102 38//102
f 39//39 103//39 104//39 40//39
f 40//103 104//103 103//103 39//103
f 40//40 104//40 105//40 41//40
f 41//104 105//104 104//104 40//104
f 41//41 105//41 106//41 42//41
f 42//105 106//105 105//105 41//105
f 42//42 106//42 107//42 43//42
f 43//106 107//106 106//106 42//106
f 43//43 107//43 108//43 44//43
f 44//107 108//107 107//107 43//107
f 44//44 108//44 109//44 45//44
f 45//108 109//108 108//108 44//108
f 45//45 109//45 110//45 46//45
f 46//109 110//109 109//109 45//109
f 46//46 110//46 111//46 47//46
f 47//110 111//110 110//110 46//110
f 47//47 111//47 112//47 48//47
f 48//111 112//111 111//111 47//111
f 48//48 112//48 113//48 49//48
f 49//112 113//112 112//112 48//112
f 49//49 113//49 114//49 50//49
f 50//113 114//113 113//113 49//113
f 50//50 114//50 115//50 51//50
f 51//114 115//114 114//114 50//114
f 51//51 115//51 116//51 52//51
f 52//115 116//115 115//115 51//115
f 52//52 116//52 117//52 53//52
f 53//116 117//116 116//116 52//116
f 53//53 117//53 118//53 54//53
f 54//117 118//117 117//117 53//117
f 54//54 118//54 119//54 55//54
f 55//118 119//118 118//118 54//118
f 55//55 119//55 120//55 56//55
f 56//119 120//119 119//119 55//119
f 56//56 120//56 121//56 57//56
f 57//120 121//120 120//120 56//120
f 57//57 121//57 122//57 58//57
f 58//121 122//121 121//121 57//121
f 58//58 122//58 123//58 59//58
f 59//122 123//122 122//122 58//122
f 59//59 123//59 124//59 60//59
f 60//123 124//123 123//123 59//123
f 60//60 124//60 125//60 61//60
f 61//124 125//124 124//124 60//124
f 61//61 125//61 126//61 62//61
f 62//125 126//125 125//125 61//125
f 62//62 126//62 127//62 63//62
f 63//126 127//126 126//126 62//126
f 63//63 127//63 128//63 64//63
f 64//127 128//127 127//127 63//127
f 64//64 128//64 65//64 1//64
f 1//128 65//128 128//128 64//128