o Jets_20
vn -0.059951822058749535 -0.028026729594310185 -0.009206021093442845
vn -0.06237495438988483 -0.022001370816738808 -0.009474920122808943
vn -0.06419542525020232 -0.01576712044844264 -0.009737281653493713
vn -0.06539570251014626 -0.009384017728456762 -0.009990579000535222
vn -0.06596422684356505 -0.0029135354253332357 -0.010232372772015042
vn -0.06589552305034127 0.0035820121792230486 -0.010460334361735952
vn -0.06519025278556068 0.010040069410952701 -0.010672268374972406
vn -0.06385520818741264 0.016398441648381668 -0.010866133771322013
vn -0.06190324646518791 0.02259589429102271 -0.011040063521040401
vn -0.059353166077321495 0.028572742482055324 -0.011192382585557992
vn -0.056229525691964766 0.034271425906122865 -0.011321624049017542
vn -0.05256240767358389 0.03963706312663351 -0.011426543245475262
vn -0.04838712837334658 0.044617980123998424 -0.011506129745714591
vn -0.04374389801335399 0.049166207944686846 -0.011559617088231888
vn -0.038677433440221565 0.05323794466847109 -0.011586490160679572
vn -0.03323652747739825 0.05679397724486385 -0.011586490160679586
vn -0.02747357902360892 0.059800059136228656 -0.011559617088231909
vn -0.021444088422811203 0.0622272401306605 -0.011506129745714584
vn -0.015206122965545799 0.06405214514835139 -0.01142654324547527
vn -0.008819757669184969 0.06525719935638549 -0.011321624049017532
vn -0.002346496722675062 0.06583079742399012 -0.011192382585557985
vn 0.004151318832424811 0.06576741528821409 -0.011040063521040385
vn 0.010611111480251623 0.06506766335367276 -0.010866133771322046
vn 0.016970669886325007 0.06373828061401901 -0.010672268374972416
vn 0.02316874802670621 0.06179206975175025 -0.01046033436173595
vn 0.029145655020688332 0.05924777384137728 -0.010232372772015032
vn 0.03484382998661162 0.056129895843370775 -0.009990579000535224
vn 0.040208396384613154 0.05246846262725685 -0.009737281653493725
vn 0.0451876905077101 0.048298735796449443 -0.009474920122808914
vn 0.04973375903153909 0.043660872099734405 -0.009206021093442839
vn 0.05380282083108079 0.038599536699824855 -0.00893317421004336
vn 0.05735568861683038 0.03316347302342909 -0.008659007137250853
vn 0.060358146329816065 0.027405033335406115 -0.008386160253851353
vn 0.06278127866095112 0.021379674557834183 -0.008117261224485195
vn 0.06460174952126896 0.015145424189538126 -0.007854899693800488
vn 0.06580202678121294 0.008762321469552137 -0.0076016023467589885
vn 0.06637055111463147 0.002291839166428833 -0.007359808575279108
vn 0.06630184732140781 -0.0042037084381275625 -0.007131846985558243
vn 0.06559657705662715 -0.010661765669857215 -0.006919912972321795
vn 0.0642615324584791 -0.01702013790728596 -0.0067260475759721265
vn 0.0623095707362548 -0.023217590549927225 -0.0065521178262538384
vn 0.05975949034838793 -0.02919443874095995 -0.0063997987617361585
vn 0.05663584996303095 -0.0348931221650271 -0.00627055729827663
vn 0.05296873194465071 -0.04025875938553819 -0.006165638101818978
vn 0.04879345264441309 -0.04523967638290277 -0.006086051601579556
vn 0.044150222284421115 -0.04978790420359164 -0.006032564259062307
vn 0.03908375771128769 -0.053859640927375385 -0.006005691186614596
vn 0.03364285174846471 -0.05741567350376808 -0.006005691186614611
vn 0.027879903294675545 -0.0604217553951335 -0.006032564259062302
vn 0.021850412693877774 -0.06284893638956489 -0.00608605160157955
vn 0.01561244723661237 -0.06467384140725618 -0.006165638101818985
vn 0.00922608194025154 -0.06587889561528965 -0.006270557298276634
vn 0.002752820993741578 -0.06645249368289449 -0.006399798761736147
vn -0.003744994561358239 -0.06638911154711902 -0.006552117826253836
vn -0.010204787209184996 -0.0656893596125768 -0.006726047575972123
vn -0.01656434561525838 -0.06435997687292316 -0.006919912972321765
vn -0.022762423755639527 -0.06241376601065518 -0.007131846985558292
vn -0.02873933074962204 -0.059869470100281486 -0.007359808575279091
vn -0.034437505715544825 -0.056751592102275095 -0.00760160234675894
vn -0.03980207211354664 -0.05309015888616159 -0.007854899693800516
vn -0.044781366236643694 -0.0489204320553539 -0.008117261224485216
vn -0.0493274347604728 -0.044282568358638974 -0.008386160253851388
vn -0.05339649656001397 -0.039221232958729035 -0.008659007137250822
vn -0.05694936434576378 -0.03378516928233388 -0.00893317421004335
vn 0.059951822058749535 0.028026729594310185 0.009206021093442845
vn 0.06237495438988483 0.022001370816738808 0.009474920122808943
vn 0.06419542525020232 0.01576712044844264 0.009737281653493713
vn 0.06539570251014626 0.009384017728456762 0.009990579000535222
vn 0.06596422684356505 0.0029135354253332357 0.010232372772015042
vn 0.06589552305034127 -0.0035820121792230486 0.010460334361735952
vn 0.06519025278556068 -0.010040069410952701 0.010672268374972406
vn 0.06385520818741264 -0.016398441648381668 0.010866133771322013
vn 0.06190324646518791 -0.02259589429102271 0.011040063521040401
vn 0.059353166077321495 -0.028572742482055324 0.011192382585557992
vn 0.056229525691964766 -0.034271425906122865 0.011321624049017542
vn 0.05256240767358389 -0.03963706312663351 0.011426543245475262
vn 0.04838712837334658 -0.044617980123998424 0.011506129745714591
vn 0.04374389801335399 -0.049166207944686846 0.011559617088231888
vn 0.038677433440221565 -0.05323794466847109 0.011586490160679572
vn 0.03323652747739825 -0.05679397724486385 0.011586490160679586
vn 0.02747357902360892 -0.059800059136228656 0.011559617088231909
vn 0.021444088422811203 -0.0622272401306605 0.011506129745714584
vn 0.015206122965545799 -0.06405214514835139 0.01142654324547527
vn 0.008819757669184969 -0.06525719935638549 0.011321624049017532
vn 0.002346496722675062 -0.06583079742399012 0.011192382585557985
vn -0.004151318832424811 -0.06576741528821409 0.011040063521040385
vn -0.010611111480251623 -0.06506766335367276 0.010866133771322046
vn -0.016970669886325007 -0.06373828061401901 0.010672268374972416
vn -0.02316874802670621 -0.06179206975175025 0.01046033436173595
vn -0.029145655020688332 -0.05924777384137728 0.010232372772015032
vn -0.03484382998661162 -0.056129895843370775 0.009990579000535224
vn -0.040208396384613154 -0.05246846262725685 0.009737281653493725
vn -0.0451876905077101 -0.048298735796449443 0.009474920122808914
vn -0.04973375903153909 -0.043660872099734405 0.009206021093442839
vn -0.05380282083108079 -0.038599536699824855 0.00893317421004336
vn -0.05735568861683038 -0.03316347302342909 0.008659007137250853
vn -0.060358146329816065 -0.027405033335406115 0.008386160253851353
vn -0.06278127866095112 -0.021379674557834183 0.008117261224485195
vn -0.06460174952126896 -0.015145424189538126 0.007854899693800488
vn -0.06580202678121294 -0.008762321469552137 0.0076016023467589885
vn -0.06637055111463147 -0.002291839166428833 0.007359808575279108
vn -0.06630184732140781 0.0042037084381275625 0.007131846985558243
vn -0.06559657705662715 0.010661765669857215 0.006919912972321795
vn -0.0642615324584791 0.01702013790728596 0.0067260475759721265
vn -0.0623095707362548 0.023217590549927225 0.0065521178262538384
vn -0.05975949034838793 0.02919443874095995 0.0063997987617361585
vn -0.05663584996303095 0.0348931221650271 0.00627055729827663
vn -0.05296873194465071 0.04025875938553819 0.006165638101818978
vn -0.04879345264441309 0.04523967638290277 0.006086051601579556
vn -0.044150222284421115 0.04978790420359164 0.006032564259062307
vn -0.03908375771128769 0.053859640927375385 0.006005691186614596
vn -0.03364285174846471 0.05741567350376808 0.006005691186614611
vn -0.027879903294675545 0.0604217553951335 0.006032564259062302
vn -0.021850412693877774 0.06284893638956489 0.00608605160157955
vn -0.01561244723661237 0.06467384140725618 0.006165638101818985
vn -0.00922608194025154 0.06587889561528965 0.006270557298276634
vn -0.002752820993741578 0.06645249368289449 0.006399798761736147
vn 0.003744994561358239 0.06638911154711902 0.006552117826253836
vn 0.010204787209184996 0.0656893596125768 0.006726047575972123
vn 0.01656434561525838 0.06435997687292316 0.006919912972321765
vn 0.022762423755639527 0.06241376601065518 0.007131846985558292
vn 0.02873933074962204 0.059869470100281486 0.007359808575279091
vn 0.034437505715544825 0.056751592102275095 0.00760160234675894
vn 0.03980207211354664 0.05309015888616159 0.007854899693800516
vn 0.044781366236643694 0.0489204320553539 0.008117261224485216
vn 0.0493274347604728 0.044282568358638974 0.008386160253851388
vn 0.05339649656001397 0.039221232958729035 0.008659007137250822
vn 0.05694936434576378 0.03378516928233388 0.00893317421004335
v 0 0 0
v 0 0 0
v 0 0 0
v 0 0 0
v 0 0 0
v 0 0 0
v 0 0 0
v 0 0 0
v 0 0 0
v 0 0 0
v 0 0 0
v 0 0 0
v 0 0 0
v 0 0 0
v 0 0 0
v 0 0 0
v 0 0 0
v 0 0 0
v 0 0 0
v 0 0 0
v 0 0 0
v 0 0 0
v 0 0 0
v 0 0 0
v 0 0 0
v 0 0 0
v 0 0 0
v 0 0 0
v 0 0 0
v 0 0 0
v 0 0 0
v 0 0 0
v 0 0 0
v 0 0 0
v 0 0 0
v 0 0 0
v 0 0 0
v 0 0 0
v 0 0 0
v 0 0 0
v 0 0 0
v 0 0 0
v 0 0 0
v 0 0 0
v 0 0 0
v 0 0 0
v 0 0 0
v 0 0 0
v 0 0 0
v 0 0 0
v 0 0 0
v 0 0 0
v 0 0 0
v 0 0 0
v 0 0 0
v 0 0 0
v 0 0 0
v 0 0 0
v 0 0 0
v 0 0 0
v 0 0 0
v 0 0 0
v 0 0 0
v 0 0 0
v 0.317688164089608 0.059092026106273676 -2.248760926180902
v 0.32997799052041327 0.032399843936212425 -2.2475337853200292
v 0.339590428290325 0.004629874718673432 -2.2463303954546943
v 0.3464329043689258 -0.02395044156216912 -2.2451623458871404
v 0.35043952197110095 -0.053065860836940565 -2.244040885573224
v 0.3515716951791014 -0.08243598570191762 -2.2429768147888214
v 0.34981852054602536 -0.11177796579930727 -2.2419803811172656
v 0.34519688210197214 -0.14080922182081368 -2.24106118075952
v 0.3377512887516024 -0.16925016690085076 -2.240228066117516
v 0.32755344562905564 -0.19682689919089588 -2.239489060540683
v 0.31470156353831014 -0.22327383968402045 -2.2388512810567067
v 0.29931941312945304 -0.2483362898859075 -2.2383208698306643
v 0.2815551329196605 -0.2717728847005839 -2.2379029350126145
v 0.26157980263829617 -0.2933579169082383 -2.2376015015433217
v 0.23958579563559584 -0.31288351084913213 -2.2374194723918754
v 0.21578492622214282 -0.3301616243798394 -2.2373586005985113
v 0.19040640978126722 -0.3450258598218816 -2.2374194723918754
v 0.16369465529960311 -0.3573330664623342 -2.2376015015433217
v 0.13590691157493925 -0.3669647191734462 -2.2379029350126145
v 0.10731078976966985 -0.3738280598744126 -2.2383208698306643
v 0.07818168616901014 -0.37785699084239943 -2.2388512810567067
v 0.04880012996422232 -0.37901271126974734 -2.239489060540683
v 0.019449081603150738 -0.3772840909369598 -2.240228066117516
v -0.009588792273572323 -0.3726877774028017 -2.24106118075952
v -0.038033841066797434 -0.3652680356792074 -2.2419803811172656
v -0.0656121234070004 -0.3550963219350185 -2.2429768147888214
v -0.09205804535942241 -0.34227059533401616 -2.244040885573224
v -0.11711691823885023 -0.32691437463462303 -2.2451623458871404
v -0.14054741140088162 -0.3091755486367386 -2.2463303954546943
v -0.1621238763879556 -0.28922495193175124 -2.2475337853200292
v -0.18163852004735132 -0.2672547196720353 -2.248760926180902
v -0.19890340569283943 -0.24347643720440257 -2.25
v -0.21375226303770722 -0.21811910238754784 -2.251239073819098
v -0.22604208946851256 -0.19142692021748656 -2.2524662146799708
v -0.23565452723842423 -0.16365695099994768 -2.2536696045453057
v -0.24249700331702506 -0.13507663471910508 -2.2548376541128596
v -0.2465036209192002 -0.1059612154443336 -2.255959114426776
v -0.24763579412720066 -0.07659109057935659 -2.2570231852111786
v -0.2458826194941246 -0.04724911048196695 -2.2580196188827344
v -0.24126098105007138 -0.01821785446046055 -2.25893881924048
v -0.23381538769970167 0.010223090619576478 -2.259771933882484
v -0.22361754457715488 0.03779982290962175 -2.260510939459317
v -0.21076566248640938 0.06424676340274629 -2.2611487189432933
v -0.1953835120775524 0.0893092136046332 -2.2616791301693357
v -0.17761923186775977 0.1127458084193097 -2.2620970649873855
v -0.1576439015863955 0.13433084062696407 -2.2623984984566783
v -0.13564989458369503 0.1538564345678581 -2.2625805276081246
v -0.11184902517024209 0.17113454809856524 -2.2626413994014887
v -0.0864705087293666 0.18599878354060737 -2.2625805276081246
v -0.05975875424770232 0.19830599018106002 -2.2623984984566783
v -0.031971010523038516 0.207937642892172 -2.2620970649873855
v -0.0033748887177689826 0.2148009835931384 -2.2616791301693357
v 0.025754214882890585 0.21882991456112524 -2.2611487189432933
v 0.05513577108767837 0.2199856349884731 -2.260510939459317
v 0.08448681944875017 0.21825701465568562 -2.259771933882484
v 0.11352469332547305 0.2136607011215275 -2.25893881924048
v 0.14196974211869803 0.20624095939793322 -2.258019618882735
v 0.1695480244589012 0.1960692456537443 -2.2570231852111786
v 0.19599394641132312 0.18324351905274197 -2.255959114426776
v 0.22105281929075085 0.16788729835334895 -2.2548376541128596
v 0.24448331245278235 0.15014847235546447 -2.2536696045453057
v 0.26605977743985637 0.13019787565047708 -2.2524662146799708
v 0.2855744210992522 0.10822764339076105 -2.251239073819098
v 0.30283930674474013 0.08444936092312844 -2.25
f 1//1 65//1 66//1 2//1
f 2//65 66//65 65//65 1//65
f 2//2 66//2 67//2 3//2
f 3//66 67//66 66//66 2//66
f 3//3 67//3 68//3 4//3
f 4//67 68//67 67//67 3//67
f 4//4 68//4 69//4 5//4
f 5//68 69//68 68//68 4//68
f 5//5 69//5 70//5 6//5
f 6//69 70//69 69//69 5//69
f 6//6 70//6 71//6 7//6
f 7//70 71//70 70//70 6//70
f 7//7 71//7 72//7 8//7
f 8//71 72//71 71//71 7//71
f 8//8 72//8 73//8 9//8
f 9//72 73//72 72//72 8//72
f 9//9 73//9 74//9 10//9
f 10//73 74//73 73//73 9//73
f 10//10 74//10 75//10 11//10
f 11//74 75//74 74//74 10//74
f 11//11 75//11 76//11 12//11
f 12//75 76//75 75//75 11//75
f 12//12 76//12 77//12 13//12
f 13//76 77//76 76//76 12//76
f 13//13 77//13 78//13 14//13
f 14//77 78//77 77//77 13//77
f 14//14 78//14 79//14 15//14
f 15//78 79//78 78//78 14//78
f 15//15 79//15 80//15 16//15
f 16//79 80//79 79//79 15//79
f 16//16 80//16 81//16 17//16
f 17//80 81//80 80//80 16//80
f 17//17 81//17 82//17 18//17
f 18//81 82//81 81//81 17//81
f 18//18 82//18 83//18 19//18
f 19//82 83//82 82//82 18//82
f 19//19 83//19 84//19 20//19
f 20//83 84//83 83//83 19//83
f 20//20 84//20 85//20 21//20
f 21//84 85//84 84//84 20//84
f 21//21 85//21 86//21 22//21
f 22//85 86//85 85//85 21//85
f 22//22 86//22 87//22 23//22
f 23//86 87//86 86//86 22//86
f 23//23 87//23 88//23 24//23
f 24//87 88//87 87//87 23//87
f 24//24 88//24 89//24 25//24
f 25//88 89//88 88//88 24//88
f 25//25 89//25 90//25 26//25
f 26//89 90//89 89//89 25//89
f 26//26 90//26 91//26 27//26
f 27//90 91//90 90//90 26//90
f 27//27 91//27 92//27 28//27
f 28//91 92//91 91//91 27//91
f 28//28 92//28 93//28 29//28
f 29//92 93//92 92//92 28//92
f 29//29 93//29 94//29 30//29
f 30//93 94//93 93//93 29//93
f 30//30 94//30 95//30 31//30
f 31//94 95//94 94//94 30//94
f 31//31 95//31 96//31 32//31
f 32//95 96//95 95//95 31//95
f 32//32 96//32 97//32 33//32
f 33//96 97//96 96//96 32//96
f 33//33 97//33 98//33 34//33
f 34//97 98//97 97//97 33//97
f 34//34 98//34 99//34 35//34
f 35//98 99//98 98//98 34//98
f 35//35 99//35 100//35 36//35
f 36//99 100//99 99//99 35//99
f 36//36 100//36 101//36 37//36
f 37//100 101//100 100//100 36//100
f 37//37 101//37 102//37 38//37
f 38//101 102//101 101//101 37//101
f 38//38 102//38 103//38 39//38
f 39//102 103//102 102//102 38//102
f 39//39 103//39 104//39 40//39
f 40//103 104//103 103//103 39//103
f 40//40 104//40 105//40 41//40
f 41//104 105//104 104//104 40//104
f 41//41 105//41 106//41 42//41
f 42//105 106//105 105//105 41//105
f 42//42 106//42 107//42 43//42
f 43//106 107//106 106//106 42//106
f 43//43 107//43 108//43 44//43
f 44//107 108//107 107//107 43//107
f 44//44 108//44 109//44 45//44
f 45//108 109//108 108//108 44//108
f 45//45 109//45 110//45 46//45
f 46//109 110//109 109//109 45//109
f 46//46 110//46 111//46 47//46
f 47//110 111//110 110//110 46//110
f 47//47 111//47 112//47 48//47
f 48//111 112//111 111//111 47//111
f 48//48 112//48 113//48 49//48
f 49//112 113//112 112//112 48//112
f 49//49 113//49 114//49 50//49
f 50//113 114//113 113//113 49//113
f 50//50 114//50 115//50 51//50
f 51//114 115//114 114//114 50//114
f 51//51 115//51 116//51 52//51
f 52//115 116//115 115//115 51//115
f 52//52 116//52 117//52 53//52
f 53//116 117//116 116//116 52//116
f 53//53 117//53 118//53 54//53
f 54//117 118//117 117//117 53//117
f 54//54 118//54 119//54 55//54
f 55//118 119//118 118//118 54//118
f 55//55 119//55 120//55 56//55
f 56//119 120//119 119//119 55//119
f 56//56 120//56 121//56 57//56
f 57//120 121//120 120//120 56//120
f 57//57 121//57 122//57 58//57
f 58//121 122//121 121//121 57//121
f 58//58 122//58 123//58 59//58
f 59//122 123//122 122//122 58//122
f 59//59 123//59 124//59 60//59
f 60//123 124//123 123//123 59//123
f 60//60 124//60 125//60 61//60
f 61//124 125//124 124//124 60//124
f 61//61 125//61 126//61 62//61
f 62//125 126//125 125//125 61//125
f 62//62 126//62 127//62 63//62
f 63//126 127//126 126//126 62//126
f 63//63 127//63 128//63 64//63
f 64//127 128//127 127//127 63//127
f 64//64 128//64 65//64 1//64
f 1//128 65//128 128//128 64//128