o Jets_37
vn 0.0658239002781331 0.007181507494870565 0.008606792748092264
vn 0.0648201615823079 0.013597644660971686 0.008478649140668001
vn 0.06319223955204174 0.019884533089157275 0.008353620972769628
vn 0.06095581196639868 0.025981626607100794 0.008232912334001346
vn 0.058132416845584345 0.03183020687121396 0.008117685714540558
vn 0.05474924502803674 0.03737394885639456 0.008009050809721946
vn 0.050838878307788826 0.04255946329680749 0.007908053833064796
vn 0.04643897565398036 0.047336810853700784 0.00781566744066485
vn 0.04159191053439937 0.051659983058538195 0.007732781363984528
vn 0.03634436283582215 0.055487345399700294 0.00766019384125231
vn 0.030746869311187586 0.05878203828559342 0.007598603929992582
vn 0.0248533368830397 0.06151233202266315 0.007548604774719168
vn 0.018720523490392882 0.06365193238969158 0.007510677894629669
vn 0.012407491478755972 0.06518023386551978 0.007485188546312341
vn 0.005975038797455867 0.0660825180714809 0.007472382206125366
vn -0.0005148865178515871 0.06635009551743265 0.007472382206125365
vn -0.006999782938624577 0.06598038928629774 0.007485188546312343
vn -0.01341719736732705 0.06497695985118426 0.007510677894629671
vn -0.019705326594894546 0.06334947078608275 0.007548604774719168
vn -0.02580361249942431 0.061113595700365814 0.007598603929992575
vn -0.03165332525399389 0.058290867293362414 0.007660193841252296
vn -0.037198128926998586 0.054908469982693164 0.007732781363984524
vn -0.042384624027969164 0.05099897810346543 0.007815667440664864
vn -0.04716286177385659 0.046600042199622105 0.007908053833064796
vn -0.0514868251231177 0.04175402642862025 0.008009050809721953
vn -0.05531487194497986 0.03650760057143565 0.008117685714540523
vn -0.05861013605592619 0.030911290577062434 0.008232912334001356
vn -0.06134088226119283 0.02501899196999957 0.008353620972769638
vn -0.06348081198204529 0.01888745080689158 0.008478649140667973
vn -0.06500931652546815 0.01257571718098005 0.008606792748092274
vn -0.06591167555714171 0.006144576537427948 0.008736817702052504
vn -0.06617919886631167 -0.000344035723749081 0.008867471791163206
vn -0.06580931005726759 -0.006827630719439259 0.008997496745123436
vn -0.06480557136144205 -0.01324376788554027 0.009125640352547645
vn -0.06317764933117626 -0.019530656313725858 0.009250668520446086
vn -0.06094122174553307 -0.0256277498316696 0.009371377159214364
vn -0.058117826624718594 -0.031476330095782545 0.009486603778675114
vn -0.05473465480717121 -0.03702007208096303 0.00959523868349374
vn -0.05082428808692341 -0.042205586521376126 0.009696235660150918
vn -0.04642438543311467 -0.04698293407826937 0.009788622052550787
vn -0.041577320313534116 -0.051306106283107056 0.009871508129231245
vn -0.0363297726149564 -0.05513346862426893 0.009944095651963338
vn -0.030732279090321946 -0.05842816151016167 0.010005685563223073
vn -0.024838746662174005 -0.06115845524723207 0.01005568471849659
vn -0.018705933269527297 -0.06329805561426011 0.010093611598585985
vn -0.01239290125789072 -0.06482635709008878 0.010119100946903395
vn -0.0059604485765900606 -0.06572864129604924 0.010131907287090302
vn 0.0005294767387171717 -0.06599621874200098 0.010131907287090302
vn 0.0070143731594903835 -0.06562651251086682 0.010119100946903395
vn 0.013431787588192523 -0.06462308307575276 0.010093611598585975
vn 0.01971991681576013 -0.06299559401065172 0.010055684718496601
vn 0.025818202720290007 -0.060759718924934175 0.010005685563223086
vn 0.031667915474859365 -0.05793699051793111 0.00994409565196333
vn 0.03721271914786439 -0.05455459320726208 0.009871508129231224
vn 0.04239921424883453 -0.05064510132803385 0.009788622052550787
vn 0.04717745199472201 -0.04624616542419052 0.009696235660150869
vn 0.051501415343983614 -0.041400149653189 0.00959523868349381
vn 0.05532946216584539 -0.036153723796004456 0.009486603778675079
vn 0.05862472627679144 -0.03055741380163124 0.009371377159214336
vn 0.06135547248205858 -0.024665115194568266 0.009250668520446113
vn 0.06349540220291094 -0.018533574031460165 0.009125640352547676
vn 0.06502390674633399 -0.012221840405548856 0.00899749674512347
vn 0.065926265778007 -0.005790699761996421 0.008867471791163165
vn 0.06619378908717737 0.0006979124991806085 0.008736817702052516
vn -0.0658239002781331 -0.007181507494870565 -0.008606792748092264
vn -0.0648201615823079 -0.013597644660971686 -0.008478649140668001
vn -0.06319223955204174 -0.019884533089157275 -0.008353620972769628
vn -0.06095581196639868 -0.025981626607100794 -0.008232912334001346
vn -0.058132416845584345 -0.03183020687121396 -0.008117685714540558
vn -0.05474924502803674 -0.03737394885639456 -0.008009050809721946
vn -0.050838878307788826 -0.04255946329680749 -0.007908053833064796
vn -0.04643897565398036 -0.047336810853700784 -0.00781566744066485
vn -0.04159191053439937 -0.051659983058538195 -0.007732781363984528
vn -0.03634436283582215 -0.055487345399700294 -0.00766019384125231
vn -0.030746869311187586 -0.05878203828559342 -0.007598603929992582
vn -0.0248533368830397 -0.06151233202266315 -0.007548604774719168
vn -0.018720523490392882 -0.06365193238969158 -0.007510677894629669
vn -0.012407491478755972 -0.06518023386551978 -0.007485188546312341
vn -0.005975038797455867 -0.0660825180714809 -0.007472382206125366
vn 0.0005148865178515871 -0.06635009551743265 -0.007472382206125365
vn 0.006999782938624577 -0.06598038928629774 -0.007485188546312343
vn 0.01341719736732705 -0.06497695985118426 -0.007510677894629671
vn 0.019705326594894546 -0.06334947078608275 -0.007548604774719168
vn 0.02580361249942431 -0.061113595700365814 -0.007598603929992575
vn 0.03165332525399389 -0.058290867293362414 -0.007660193841252296
vn 0.037198128926998586 -0.054908469982693164 -0.007732781363984524
vn 0.042384624027969164 -0.05099897810346543 -0.007815667440664864
vn 0.04716286177385659 -0.046600042199622105 -0.007908053833064796
vn 0.0514868251231177 -0.04175402642862025 -0.008009050809721953
vn 0.05531487194497986 -0.03650760057143565 -0.008117685714540523
vn 0.05861013605592619 -0.030911290577062434 -0.008232912334001356
vn 0.06134088226119283 -0.02501899196999957 -0.008353620972769638
vn 0.06348081198204529 -0.01888745080689158 -0.008478649140667973
vn 0.06500931652546815 -0.01257571718098005 -0.008606792748092274
vn 0.06591167555714171 -0.006144576537427948 -0.008736817702052504
vn 0.06617919886631167 0.000344035723749081 -0.008867471791163206
vn 0.06580931005726759 0.006827630719439259 -0.008997496745123436
vn 0.06480557136144205 0.01324376788554027 -0.009125640352547645
vn 0.06317764933117626 0.019530656313725858 -0.009250668520446086
vn 0.06094122174553307 0.0256277498316696 -0.009371377159214364
vn 0.058117826624718594 0.031476330095782545 -0.009486603778675114
vn 0.05473465480717121 0.03702007208096303 -0.00959523868349374
vn 0.05082428808692341 0.042205586521376126 -0.009696235660150918
vn 0.04642438543311467 0.04698293407826937 -0.009788622052550787
vn 0.041577320313534116 0.051306106283107056 -0.009871508129231245
vn 0.0363297726149564 0.05513346862426893 -0.009944095651963338
vn 0.030732279090321946 0.05842816151016167 -0.010005685563223073
vn 0.024838746662174005 0.06115845524723207 -0.01005568471849659
vn 0.018705933269527297 0.06329805561426011 -0.010093611598585985
vn 0.01239290125789072 0.06482635709008878 -0.010119100946903395
vn 0.0059604485765900606 0.06572864129604924 -0.010131907287090302
vn -0.0005294767387171717 0.06599621874200098 -0.010131907287090302
vn -0.0070143731594903835 0.06562651251086682 -0.010119100946903395
vn -0.013431787588192523 0.06462308307575276 -0.010093611598585975
vn -0.01971991681576013 0.06299559401065172 -0.010055684718496601
vn -0.025818202720290007 0.060759718924934175 -0.010005685563223086
vn -0.031667915474859365 0.05793699051793111 -0.00994409565196333
vn -0.03721271914786439 0.05455459320726208 -0.009871508129231224
vn -0.04239921424883453 0.05064510132803385 -0.009788622052550787
vn -0.04717745199472201 0.04624616542419052 -0.009696235660150869
vn -0.051501415343983614 0.041400149653189 -0.00959523868349381
vn -0.05532946216584539 0.036153723796004456 -0.009486603778675079
vn -0.05862472627679144 0.03055741380163124 -0.009371377159214336
vn -0.06135547248205858 0.024665115194568266 -0.009250668520446113
vn -0.06349540220291094 0.018533574031460165 -0.009125640352547676
vn -0.06502390674633399 0.012221840405548856 -0.00899749674512347
vn -0.065926265778007 0.005790699761996421 -0.008867471791163165
vn -0.06619378908717737 -0.0006979124991806085 -0.008736817702052516
v 0 0 0
v 0 0 0
v 0 0 0
v 0 0 0
v 0 0 0
v 0 0 0
v 0 0 0
v 0 0 0
v 0 0 0
v 0 0 0
v 0 0 0
v 0 0 0
v 0 0 0
v 0 0 0
v 0 0 0
v 0 0 0
v 0 0 0
v 0 0 0
v 0 0 0
v 0 0 0
v 0 0 0
v 0 0 0
v 0 0 0
v 0 0 0
v 0 0 0
v 0 0 0
v 0 0 0
v 0 0 0
v 0 0 0
v 0 0 0
v 0 0 0
v 0 0 0
v 0 0 0
v 0 0 0
v 0 0 0
v 0 0 0
v 0 0 0
v 0 0 0
v 0 0 0
v 0 0 0
v 0 0 0
v 0 0 0
v 0 0 0
v 0 0 0
v 0 0 0
v 0 0 0
v 0 0 0
v 0 0 0
v 0 0 0
v 0 0 0
v 0 0 0
v 0 0 0
v 0 0 0
v 0 0 0
v 0 0 0
v 0 0 0
v 0 0 0
v 0 0 0
v 0 0 0
v 0 0 0
v 0 0 0
v 0 0 0
v 0 0 0
v 0 0 0
v -0.29734908955191547 0.028170617666928098 2.2505908860001673
v -0.2942354627236511 -0.001069443407853761 2.251176081445142
v -0.2882702287642251 -0.029863626074037093 2.251749950582888
v -0.27951083613759525 -0.05793462661204519 2.252306966739901
v -0.2680416425831271 -0.08501210594152717 2.252841765546092
v -0.2539731027044493 -0.11083529313448429 2.253349196596607
v -0.23744070423123959 -0.13515549678185831 2.2538243730530403
v -0.21860366319832322 -0.15773850002774933 2.2542627187063573
v -0.19764339060822136 -0.17836681620577405 2.254660012048293
v -0.1747617453440272 -0.19684178335455357 2.255012426926782
v -0.15017909015801462 -0.2129854774410006 2.255316569393895
v -0.12413216945787105 -0.22664242586602185 2.255569510391412
v -0.09687182932863424 -0.23768110475063703 2.2557688139592558
v -0.06866060174776652 -0.2459952055828314 2.2559125606951174
v -0.03977017625869728 -0.25150465902664115 2.255999366239351
v -0.010478783451999298 -0.254156406033629 2.256028394607112
v 0.018931484547294798 -0.253924908830525 2.255999366239351
v 0.04817739078106385 -0.25081239686194445 2.2559125606951174
v 0.07697728118483813 -0.24484884531961687 2.2557688139592558
v 0.10505379707040781 -0.2360916864649037 2.255569510391412
v 0.13213654624160995 -0.22462525652472587 2.255316569393895
v 0.15796470701898913 -0.21055998348759558 2.255012426926782
v 0.1822895400951505 -0.1940313236217206 2.254660012048293
v 0.20487678403026416 -0.17519845695709393 2.2542627187063573
v 0.22550891131779144 -0.1542427542947881 2.2538243730530403
v 0.24398722329328537 -0.1313660305069934 2.253349196596607
v 0.26013376371114905 -0.10678860094947576 2.252841765546092
v 0.2737930325605618 -0.08074715970426352 2.252306966739901
v 0.28483348361558775 -0.053492500086248 2.251749950582888
v 0.2931487912972426 -0.025287099366463332 2.251176081445142
v 0.2986588746469423 0.0035974090275188095 2.2505908860001673
v 0.3013106685499115 0.032882851489985786 2.25
v 0.30107863478124647 0.06228719320097275 2.2494091139998327
v 0.2979650079529821 0.09152725427575464 2.248823918554858
v 0.29199977399355614 0.12032143694193786 2.248250049417112
v 0.2832403813669263 0.14839243747994602 2.247693033260099
v 0.2717711878124581 0.175469916809428 2.247158234453908
v 0.25770264793378034 0.20129310400238506 2.246650803403393
v 0.2411702494605706 0.22561330764975907 2.2461756269469597
v 0.22233320842765425 0.24819631089565014 2.2457372812936427
v 0.20137293583755247 0.2688246270736748 2.245339987951707
v 0.17849129057335816 0.28729959422245444 2.244987573073218
v 0.15390863538734562 0.30344328830890144 2.244683430606105
v 0.12786171468720223 0.3171002367339226 2.244430489608588
v 0.1006013745579653 0.3281389156185378 2.2442311860407442
v 0.07239014697709763 0.3364530164507322 2.2440874393048826
v 0.04349972148802821 0.34196246989454204 2.244000633760649
v 0.014208328681330358 0.3446142169015298 2.243971605392888
v -0.015201939317963606 0.3443827196984258 2.244000633760649
v -0.044447845551732854 0.3412702077298453 2.2440874393048826
v -0.07324773595550706 0.3353066561875177 2.2442311860407442
v -0.10132425184107686 0.3265494973328045 2.244430489608588
v -0.1284070010122789 0.3150830673926267 2.244683430606105
v -0.15423516178965807 0.3010177943554964 2.244987573073218
v -0.17855999486581958 0.2844891344896214 2.245339987951707
v -0.20114723880093313 0.2656562678249948 2.2457372812936427
v -0.2217793660884603 0.24470056516268904 2.2461756269469597
v -0.24025767806395434 0.22182384137489422 2.246650803403393
v -0.256404218481818 0.19724641181737662 2.247158234453908
v -0.27006348733123076 0.1712049705721645 2.247693033260099
v -0.28110393838625675 0.1439503109541489 2.248250049417112
v -0.2894192460679116 0.1157449102343642 2.248823918554858
v -0.29492932941761135 0.08686040184038195 2.2494091139998327
v -0.2975811233205805 0.0575749593779151 2.25
f 1//1 65//1 66//1 2//1
f 2//65 66//65 65//65 1//65
f 2//2 66//2 67//2 3//2
f 3//66 67//66 66//66 2//66
f 3//3 67//3 68//3 4//3
f 4//67 68//67 67//67 3//67
f 4//4 68//4 69//4 5//4
f 5//68 69//68 68//68 4//68
f 5//5 69//5 70//5 6//5
f 6//69 70//69 69//69 5//69
f 6//6 70//6 71//6 7//6
f 7//70 71//70 70//70 6//70
f 7//7 71//7 72//7 8//7
f 8//71 72//71 71//71 7//71
f 8//8 72//8 73//8 9//8
f 9//72 73//72 72//72 8//72
f 9//9 73//9 74//9 10//9
f 10//73 74//73 73//73 9//73
f 10//10 74//10 75//10 11//10
f 11//74 75//74 74//74 10//74
f 11//11 75//11 76//11 12//11
f 12//75 76//75 75//75 11//75
f 12//12 76//12 77//12 13//12
f 13//76 77//76 76//76 12//76
f 13//13 77//13 78//13 14//13
f 14//77 78//77 77//77 13//77
f 14//14 78//14 79//14 15//14
f 15//78 79//78 78//78 14//78
f 15//15 79//15 80//15 16//15
f 16//79 80//79 79//79 15//79
f 16//16 80//16 81//16 17//16
f 17//80 81//80 80//80 16//80
f 17//17 81//17 82//17 18//17
f 18//81 82//81 81//81 17//81
f 18//18 82//18 83//18 19//18
f 19//82 83//82 82//82 18//82
f 19//19 83//19 84//19 20//19
f 20//83 84//83 83//83 19//83
f 20//20 84//20 85//20 21//20
f 21//84 85//84 84//84 20//84
f 21//21 85//21 86//21 22//21
f 22//85 86//85 85//85 21//85
f 22//22 86//22 87//22 23//22
f 23//86 87//86 86//86 22//86
f 23//23 87//23 88//23 24//23
f 24//87 88//87 87//87 23//87
f 24//24 88//24 89//24 25//24
f 25//88 89//88 88//88 24//88
f 25//25 89//25 90//25 26//25
f 26//89 90//89 89//89 25//89
f 26//26 90//26 91//26 27//26
f 27//90 91//90 90//90 26//90
f 27//27 91//27 92//27 28//27
f 28//91 92//91 91//91 27//91
f 28//28 92//28 93//28 29//28
f 29//92 93//92 92//92 28//92
f 29//29 93//29 94//29 30//29
f 30//93 94//93 93//93 29//93
f 30//30 94//30 95//30 31//30
f 31//94 95//94 94//94 30//94
f 31//31 95//31 96//31 32//31
f 32//95 96//95 95//95 31//95
f 32//32 96//32 97//32 33//32
f 33//96 97//96 96//96 32//96
f 33//33 97//33 98//33 34//33
f 34//97 98//97 97//97 33//97
f 34//34 98//34 99//34 35//34
f 35//98 99//98 98//98 34//98
f 35//35 99//35 100//35 36//35
f 36//99 100//99 99//99 35//99
f 36//36 100//36 101//36 37//36
f 37//100 101//100 100//100 36//100
f 37//37 101//37 102//37 38//37
f 38//101 102//101 101//101 37//101
f 38//38 102//38 103//38 39//38
f 39//102 103//102 102//102 38//102
f 39//39 103//39 104//39 40//39
f 40//103 104//103 103//103 39//103
f 40//40 104//40 105//40 41//40
f 41//104 105//104 104//104 40//104
f 41//41 105//41 106//41 42//41
f 42//105 106//105 105//105 41//105
f 42//42 106//42 107//42 43//42
f 43//106 107//106 106//106 42//106
f 43//43 107//43 108//43 44//43
f 44//107 108//107 107//107 43//107
f 44//44 108//44 109//44 45//44
f 45//108 109//108 108//108 44//108
f 45//45 109//45 110//45 46//45
f 46//109 110//109 109//109 45//109
f 46//46 110//46 111//46 47//46
f 47//110 111//110 110//110 46//110
f 47//47 111//47 112//47 48//47
f 48//111 112//111 111//111 47//111
f 48//48 112//48 113//48 49//48
f 49//112 113//112 112//112 48//112
f 49//49 113//49 114//49 50//49
f 50//113 114//113 113//113 49//113
f 50//50 114//50 115//50 51//50
f 51//114 115//114 114//114 50//114
f 51//51 115//51 116//51 52//51
f 52//115 116//115 115//115 51//115
f 52//52 116//52 117//52 53//52
f 53//116 117//116 116//116 52//116
f 53//53 117//53 118//53 54//53
f 54//117 118//117 117//117 53//117
f 54//54 118//54 119//54 55//54
f 55//118 119//118 118//118 54//118
f 55//55 119//55 120//55 56//55
f 56//119 120//119 119//119 55//119
f 56//56 120//56 121//56 57//56
f 57//120 121//120 120//120 56//120
f 57//57 121//57 122//57 58//57
f 58//121 122//121 121//121 57//121
f 58//58 122//58 123//58 59//58
f 59//122 123//122 122//122 58//122
f 59//59 123//59 124//59 60//59
f 60//123 124//123 123//123 59//123
f 60//60 124//60 125//60 61//60
f 61//124 125//124 124//124 60//124
f 61//61 125//61 126//61 62//61
f 62//125 126//125 125//125 61//125
f 62//62 126//62 127//62 63//62
f 63//126 127//126 126//126 62//126
f 63//63 127//63 128//63 64//63
f 64//127 128//127 127//127 63//127
f 64//64 128//64 65//64 1//64
f 1//128 65//128 128//128 64//128