o Jets_44
vn -0.019746269016393758 -0.06321736610318696 0.008553450943562212
vn -0.013465202391575115 -0.06486748842756115 0.00839102555056423
vn -0.007052515366143819 -0.06589384799156697 0.008232549059111385
vn -0.0005699656216865412 -0.0662865603915372 0.008079547684448376
vn 0.005920016344035717 -0.06604184359238208 0.007933494913452294
vn 0.012354928456907444 -0.06516205435065345 0.0077957973141484305
vn 0.018672798995601814 -0.06365566551769039 0.007667780989691183
vn 0.02481278341313109 -0.06153718444143054 0.007550678807265952
vn 0.03071575030309759 -0.058827013252717913 0.007445618524904055
vn 0.03632485086746162 -0.055551252381629834 0.007353611930556423
vn 0.04158606640154172 -0.0517414491960681 0.007275545098022564
vn 0.0464487285236716 -0.04743429418336004 0.0072121698535754265
vn 0.05086600713941358 -0.04267126760080803 0.007164096535463457
vn 0.05479536144096819 -0.03749823999813767 0.007131788116019656
vn 0.058198949598407934 -0.03196503045902721 0.00711555574298485
vn 0.061043993197186064 -0.026124926816098015 0.007115555742984857
vn 0.06330309291218701 -0.020034172459956867 0.007131788116019659
vn 0.06495449237820616 -0.01375142468459889 0.007164096535463454
vn 0.06598228771563909 -0.007337189785599829 0.007212169853575433
vn 0.0663765806935357 -0.0008532403514140974 0.007275545098022567
vn 0.06613357405497644 0.005637979640419233 0.007353611930556404
vn 0.06525560808673239 0.012073956192917179 0.007445618524904059
vn 0.06375113808102201 0.01839270733361653 0.0075506788072659675
vn 0.06163465290642728 0.024533380034851726 0.007667780989691189
vn 0.05892653547216825 0.030436836261676703 0.007795797314148437
vn 0.055652866429544146 0.03604622250346917 0.007933494913452271
vn 0.051845173001005496 0.04130751730431931 0.008079547684448386
vn 0.047540125355765794 0.046170051519177524 0.008232549059111388
vn 0.04277918345602649 0.050586996285423624 0.008391025550564209
vn 0.03760819777487867 0.05451581401041142 0.008553450943562208
vn 0.032076967731180184 0.05791866803173834 0.008718260992779985
vn 0.026238762093928503 0.060762787004990104 0.008883868487349216
vn 0.02014980597489946 0.06302078050970084 0.00904867853656699
vn 0.013868739350080261 0.06467090283407476 0.009211103929564908
vn 0.00745605232464952 0.0656972623980808 0.009369580421017829
vn 0.0009735025801917985 0.06608997479805107 0.00952258179568082
vn -0.005516479385530237 0.06584525799889582 0.00966863456667686
vn -0.011951391498402075 0.0649654687571671 0.009806332165980758
vn -0.018269262037096223 0.06345907992420435 0.009934348490438026
vn -0.0244092464546255 0.06134059884794407 0.010051450672863178
vn -0.030312213344592553 0.05863042765923199 0.010156510955225191
vn -0.03592131390895614 0.05535466678814355 0.010248517549572733
vn -0.04118252944303602 0.0515448636025817 0.010326584382106568
vn -0.04604519156516618 0.04723770858987408 0.01038995962655382
vn -0.05046247018090805 0.04247468200732163 0.010438032944665686
vn -0.05439182448246316 0.03730165440465183 0.010470341364109577
vn -0.05779541263990229 0.03176844486554098 0.01048657373714431
vn -0.060640456238680474 0.025928341222611673 0.010486573737144303
vn -0.06289955595368202 0.019837586866470747 0.010470341364109577
vn -0.0645509554197006 0.01355483909111277 0.010438032944665686
vn -0.06557875075713397 0.007140604192113265 0.010389959626553829
vn -0.06597304373502995 0.0006566547579280879 0.010326584382106582
vn -0.06573003709647102 -0.005834565233905464 0.010248517549572712
vn -0.06485207112822738 -0.0122705417864033 0.010156510955225188
vn -0.06334760112251628 -0.018589292927102763 0.010051450672863201
vn -0.06123111594792166 -0.024729965628337958 0.009934348490437978
vn -0.058522998513663105 -0.030633421855163045 0.009806332165980817
vn -0.055249329471038666 -0.03624280809695535 0.009668634566676833
vn -0.05144163604249996 -0.04150410289780526 0.009522581795680794
vn -0.04713658839726037 -0.04636663711266387 0.009369580421017848
vn -0.042375646497521235 -0.050783581878909856 0.00921110392956493
vn -0.03720466081637358 -0.05471239960389779 0.00904867853656701
vn -0.03167343077267448 -0.05811525362522435 0.008883868487349199
vn -0.025835225135423356 -0.06095937259847639 0.008718260992780003
vn 0.019746269016393758 0.06321736610318696 -0.008553450943562212
vn 0.013465202391575115 0.06486748842756115 -0.00839102555056423
vn 0.007052515366143819 0.06589384799156697 -0.008232549059111385
vn 0.0005699656216865412 0.0662865603915372 -0.008079547684448376
vn -0.005920016344035717 0.06604184359238208 -0.007933494913452294
vn -0.012354928456907444 0.06516205435065345 -0.0077957973141484305
vn -0.018672798995601814 0.06365566551769039 -0.007667780989691183
vn -0.02481278341313109 0.06153718444143054 -0.007550678807265952
vn -0.03071575030309759 0.058827013252717913 -0.007445618524904055
vn -0.03632485086746162 0.055551252381629834 -0.007353611930556423
vn -0.04158606640154172 0.0517414491960681 -0.007275545098022564
vn -0.0464487285236716 0.04743429418336004 -0.0072121698535754265
vn -0.05086600713941358 0.04267126760080803 -0.007164096535463457
vn -0.05479536144096819 0.03749823999813767 -0.007131788116019656
vn -0.058198949598407934 0.03196503045902721 -0.00711555574298485
vn -0.061043993197186064 0.026124926816098015 -0.007115555742984857
vn -0.06330309291218701 0.020034172459956867 -0.007131788116019659
vn -0.06495449237820616 0.01375142468459889 -0.007164096535463454
vn -0.06598228771563909 0.007337189785599829 -0.007212169853575433
vn -0.0663765806935357 0.0008532403514140974 -0.007275545098022567
vn -0.06613357405497644 -0.005637979640419233 -0.007353611930556404
vn -0.06525560808673239 -0.012073956192917179 -0.007445618524904059
vn -0.06375113808102201 -0.01839270733361653 -0.0075506788072659675
vn -0.06163465290642728 -0.024533380034851726 -0.007667780989691189
vn -0.05892653547216825 -0.030436836261676703 -0.007795797314148437
vn -0.055652866429544146 -0.03604622250346917 -0.007933494913452271
vn -0.051845173001005496 -0.04130751730431931 -0.008079547684448386
vn -0.047540125355765794 -0.046170051519177524 -0.008232549059111388
vn -0.04277918345602649 -0.050586996285423624 -0.008391025550564209
vn -0.03760819777487867 -0.05451581401041142 -0.008553450943562208
vn -0.032076967731180184 -0.05791866803173834 -0.008718260992779985
vn -0.026238762093928503 -0.060762787004990104 -0.008883868487349216
vn -0.02014980597489946 -0.06302078050970084 -0.00904867853656699
vn -0.013868739350080261 -0.06467090283407476 -0.009211103929564908
vn -0.00745605232464952 -0.0656972623980808 -0.009369580421017829
vn -0.0009735025801917985 -0.06608997479805107 -0.00952258179568082
vn 0.005516479385530237 -0.06584525799889582 -0.00966863456667686
vn 0.011951391498402075 -0.0649654687571671 -0.009806332165980758
vn 0.018269262037096223 -0.06345907992420435 -0.009934348490438026
vn 0.0244092464546255 -0.06134059884794407 -0.010051450672863178
vn 0.030312213344592553 -0.05863042765923199 -0.010156510955225191
vn 0.03592131390895614 -0.05535466678814355 -0.010248517549572733
vn 0.04118252944303602 -0.0515448636025817 -0.010326584382106568
vn 0.04604519156516618 -0.04723770858987408 -0.01038995962655382
vn 0.05046247018090805 -0.04247468200732163 -0.010438032944665686
vn 0.05439182448246316 -0.03730165440465183 -0.010470341364109577
vn 0.05779541263990229 -0.03176844486554098 -0.01048657373714431
vn 0.060640456238680474 -0.025928341222611673 -0.010486573737144303
vn 0.06289955595368202 -0.019837586866470747 -0.010470341364109577
vn 0.0645509554197006 -0.01355483909111277 -0.010438032944665686
vn 0.06557875075713397 -0.007140604192113265 -0.010389959626553829
vn 0.06597304373502995 -0.0006566547579280879 -0.010326584382106582
vn 0.06573003709647102 0.005834565233905464 -0.010248517549572712
vn 0.06485207112822738 0.0122705417864033 -0.010156510955225188
vn 0.06334760112251628 0.018589292927102763 -0.010051450672863201
vn 0.06123111594792166 0.024729965628337958 -0.009934348490437978
vn 0.058522998513663105 0.030633421855163045 -0.009806332165980817
vn 0.055249329471038666 0.03624280809695535 -0.009668634566676833
vn 0.05144163604249996 0.04150410289780526 -0.009522581795680794
vn 0.04713658839726037 0.04636663711266387 -0.009369580421017848
vn 0.042375646497521235 0.050783581878909856 -0.00921110392956493
vn 0.03720466081637358 0.05471239960389779 -0.00904867853656701
vn 0.03167343077267448 0.05811525362522435 -0.008883868487349199
vn 0.025835225135423356 0.06095937259847639 -0.008718260992780003
v 0 0 0
v 0 0 0
v 0 0 0
v 0 0 0
v 0 0 0
v 0 0 0
v 0 0 0
v 0 0 0
v 0 0 0
v 0 0 0
v 0 0 0
v 0 0 0
v 0 0 0
v 0 0 0
v 0 0 0
v 0 0 0
v 0 0 0
v 0 0 0
v 0 0 0
v 0 0 0
v 0 0 0
v 0 0 0
v 0 0 0
v 0 0 0
v 0 0 0
v 0 0 0
v 0 0 0
v 0 0 0
v 0 0 0
v 0 0 0
v 0 0 0
v 0 0 0
v 0 0 0
v 0 0 0
v 0 0 0
v 0 0 0
v 0 0 0
v 0 0 0
v 0 0 0
v 0 0 0
v 0 0 0
v 0 0 0
v 0 0 0
v 0 0 0
v 0 0 0
v 0 0 0
v 0 0 0
v 0 0 0
v 0 0 0
v 0 0 0
v 0 0 0
v 0 0 0
v 0 0 0
v 0 0 0
v 0 0 0
v 0 0 0
v 0 0 0
v 0 0 0
v 0 0 0
v 0 0 0
v 0 0 0
v 0 0 0
v 0 0 0
v 0 0 0
v 0.155804620165003 0.255864980039941 2.2507488716509947
v 0.12776870158496048 0.2647224914167969 2.2514905312586158
v 0.09899906621864601 0.27078857794367056 2.252217836235409
v 0.06977278138171955 0.27400481989124803 2.252923782236863
v 0.040371312173873276 0.27434024309139743 2.2536015706170733
v 0.011077810816056695 0.2717916172353403 2.2542446739034228
v -0.01782561026019778 0.26638348698329123 2.2548468986597077
v -0.046060595309708526 0.25816793558596196 2.255402445132315
v -0.07335522599163591 0.24722408329438608 2.2559059631050213
v -0.09944664009175014 0.23365732538864983 2.2563526034244985
v -0.12408356302924925 0.21759831716372954 2.2567380647003112
v -0.14702872776833315 0.19920171564757808 2.2570586347296593
v -0.16806115982946154 0.1786446901694014 2.2573112262479187
v -0.18697830539438873 0.1561252161221676 2.2574934066606875
v -0.20359798201016088 0.13186016835134823 2.2576034214710012
v -0.21776013310572878 0.10608323253160067 2.2576402111760965
v -0.2293283694242227 0.07904265464597551 2.2576034214710012
v -0.23819128252605426 0.05099885024139496 2.2574934066606875
v -0.24426351771309185 0.022221896484577962 2.2573112262479187
v -0.24748659604106282 -0.007011068828714346 2.2570586347296593
v -0.24782947750375495 -0.03641851626215045 2.2567380647003112
v -0.24528885996524447 -0.06571723602120026 2.2563526034244985
v -0.23988921096127003 -0.09462506541827495 2.2559059631050213
v -0.23168253206348832 -0.12286360625365364 2.255402445132315
v -0.22074785807591202 -0.1501609059423349 2.2548468986597077
v -0.2071904958865422 -0.1762540765660948 2.2542446739034228
v -0.19114101030447084 -0.2008918266278485 2.2536015706170733
v -0.1727539666493942 -0.22383688112613723 2.252923782236863
v -0.15220644220309137 -0.24486826664309977 2.252217836235409
v -0.12969632085839974 -0.26378343943928284 2.2514905312586158
v -0.10544038738915251 -0.28040023606057407 2.250748871650995
v -0.07967223969430065 -0.2945586276718455 2.25
v -0.05264003912244802 -0.3061222612221162 2.2492511283490053
v -0.024604120542405468 -0.31497977259897214 2.2485094687413842
v 0.0041655148239089015 -0.32104585912584577 2.247782163764591
v 0.03339179966083538 -0.3242621010734233 2.247076217763137
v 0.0627932688686817 -0.32459752427357264 2.2463984293829267
v 0.09208677022649825 -0.32204889841751555 2.2457553260965772
v 0.12099019130275265 -0.3166407681654664 2.2451531013402923
v 0.14922517635226348 -0.30842521676813717 2.244597554867685
v 0.17651980703419076 -0.2974813644765614 2.2440940368949787
v 0.20261122113430513 -0.283914606570825 2.2436473965755015
v 0.22724814407180424 -0.2678555983459048 2.2432619352996888
v 0.250193308810888 -0.24945899682975345 2.2429413652703407
v 0.2712257408720165 -0.22890197135157672 2.2426887737520813
v 0.29014288643694364 -0.20638249730434297 2.2425065933393125
v 0.30676256305271593 -0.18211744953352343 2.2423965785289988
v 0.3209247141482838 -0.15634051371377594 2.2423597888239035
v 0.3324929504667776 -0.1292999358281509 2.2423965785289988
v 0.34135586356860925 -0.10125613142357016 2.2425065933393125
v 0.34742809875564684 -0.07247917766675323 2.2426887737520813
v 0.35065117708361776 -0.043246212353460795 2.2429413652703407
v 0.35099405854630994 -0.013838764920024841 2.2432619352996888
v 0.3484534410077994 0.015459954839024955 2.2436473965755015
v 0.343053792003825 0.04436778423609983 2.2440940368949787
v 0.3348471131060433 0.07260632507147836 2.244597554867685
v 0.323912439118467 0.0999036247601595 2.2451531013402923
v 0.3103550769290972 0.12599679538391953 2.2457553260965772
v 0.29430559134702583 0.15063454544567317 2.2463984293829267
v 0.2759185476919493 0.17357959994396185 2.247076217763137
v 0.2553710232456464 0.19461098546092448 2.247782163764591
v 0.23286090190095476 0.21352615825710758 2.2485094687413842
v 0.20860496843170745 0.2301429548783989 2.2492511283490053
v 0.18283682073685567 0.2443013464896702 2.25
f 1//1 65//1 66//1 2//1
f 2//65 66//65 65//65 1//65
f 2//2 66//2 67//2 3//2
f 3//66 67//66 66//66 2//66
f 3//3 67//3 68//3 4//3
f 4//67 68//67 67//67 3//67
f 4//4 68//4 69//4 5//4
f 5//68 69//68 68//68 4//68
f 5//5 69//5 70//5 6//5
f 6//69 70//69 69//69 5//69
f 6//6 70//6 71//6 7//6
f 7//70 71//70 70//70 6//70
f 7//7 71//7 72//7 8//7
f 8//71 72//71 71//71 7//71
f 8//8 72//8 73//8 9//8
f 9//72 73//72 72//72 8//72
f 9//9 73//9 74//9 10//9
f 10//73 74//73 73//73 9//73
f 10//10 74//10 75//10 11//10
f 11//74 75//74 74//74 10//74
f 11//11 75//11 76//11 12//11
f 12//75 76//75 75//75 11//75
f 12//12 76//12 77//12 13//12
f 13//76 77//76 76//76 12//76
f 13//13 77//13 78//13 14//13
f 14//77 78//77 77//77 13//77
f 14//14 78//14 79//14 15//14
f 15//78 79//78 78//78 14//78
f 15//15 79//15 80//15 16//15
f 16//79 80//79 79//79 15//79
f 16//16 80//16 81//16 17//16
f 17//80 81//80 80//80 16//80
f 17//17 81//17 82//17 18//17
f 18//81 82//81 81//81 17//81
f 18//18 82//18 83//18 19//18
f 19//82 83//82 82//82 18//82
f 19//19 83//19 84//19 20//19
f 20//83 84//83 83//83 19//83
f 20//20 84//20 85//20 21//20
f 21//84 85//84 84//84 20//84
f 21//21 85//21 86//21 22//21
f 22//85 86//85 85//85 21//85
f 22//22 86//22 87//22 23//22
f 23//86 87//86 86//86 22//86
f 23//23 87//23 88//23 24//23
f 24//87 88//87 87//87 23//87
f 24//24 88//24 89//24 25//24
f 25//88 89//88 88//88 24//88
f 25//25 89//25 90//25 26//25
f 26//89 90//89 89//89 25//89
f 26//26 90//26 91//26 27//26
f 27//90 91//90 90//90 26//90
f 27//27 91//27 92//27 28//27
f 28//91 92//91 91//91 27//91
f 28//28 92//28 93//28 29//28
f 29//92 93//92 92//92 28//92
f 29//29 93//29 94//29 30//29
f 30//93 94//93 93//93 29//93
f 30//30 94//30 95//30 31//30
f 31//94 95//94 94//94 30//94
f 31//31 95//31 96//31 32//31
f 32//95 96//95 95//95 31//95
f 32//32 96//32 97//32 33//32
f 33//96 97//96 96//96 32//96
f 33//33 97//33 98//33 34//33
f 34//97 98//97 97//97 33//97
f 34//34 98//34 99//34 35//34
f 35//98 99//98 98//98 34//98
f 35//35 99//35 100//35 36//35
f 36//99 100//99 99//99 35//99
f 36//36 100//36 101//36 37//36
f 37//100 101//100 100//100 36//100
f 37//37 101//37 102//37 38//37
f 38//101 102//101 101//101 37//101
f 38//38 102//38 103//38 39//38
f 39//102 103//102 102//102 38//102
f 39//39 103//39 104//39 40//39
f 40//103 104//103 103//103 39//103
f 40//40 104//40 105//40 41//40
f 41//104 105//104 104//104 40//104
f 41//41 105//41 106//41 42//41
f 42//105 106//105 105//105 41//105
f 42//42 106//42 107//42 43//42
f 43//106 107//106 106//106 42//106
f 43//43 107//43 108//43 44//43
f 44//107 108//107 107//107 43//107
f 44//44 108//44 109//44 45//44
f 45//108 109//108 108//108 44//108
f 45//45 109//45 110//45 46//45
f 46//109 110//109 109//109 45//109
f 46//46 110//46 111//46 47//46
f 47//110 111//110 110//110 46//110
f 47//47 111//47 112//47 48//47
f 48//111 112//111 111//111 47//111
f 48//48 112//48 113//48 49//48
f 49//112 113//112 112//112 48//112
f 49//49 113//49 114//49 50//49
f 50//113 114//113 113//113 49//113
f 50//50 114//50 115//50 51//50
f 51//114 115//114 114//114 50//114
f 51//51 115//51 116//51 52//51
f 52//115 116//115 115//115 51//115
f 52//52 116//52 117//52 53//52
f 53//116 117//116 116//116 52//116
f 53//53 117//53 118//53 54//53
f 54//117 118//117 117//117 53//117
f 54//54 118//54 119//54 55//54
f 55//118 119//118 118//118 54//118
f 55//55 119//55 120//55 56//55
f 56//119 120//119 119//119 55//119
f 56//56 120//56 121//56 57//56
f 57//120 121//120 120//120 56//120
f 57//57 121//57 122//57 58//57
f 58//121 122//121 121//121 57//121
f 58//58 122//58 123//58 59//58
f 59//122 123//122 122//122 58//122
f 59//59 123//59 124//59 60//59
f 60//123 124//123 123//123 59//123
f 60//60 124//60 125//60 61//60
f 61//124 125//124 124//124 60//124
f 61//61 125//61 126//61 62//61
f 62//125 126//125 125//125 61//125
f 62//62 126//62 127//62 63//62
f 63//126 127//126 126//126 62//126
f 63//63 127//63 128//63 64//63
f 64//127 128//127 127//127 63//127
f 64//64 128//64 65//64 1//64
f 1//128 65//128 128//128 64//128