o Jets_38
vn 0.06961421617240182 -0.011783557945613254 -0.012001839157420063
vn 0.06777683025597891 -0.01803208755810226 -0.014497605770100813
vn 0.0652890501326695 -0.024076113573626046 -0.01693269506840886
vn 0.06217483448502037 -0.029857428717654233 -0.019283655811246275
vn 0.058464174912121525 -0.035320355764961286 -0.02152784696149357
vn 0.05419280709411334 -0.04041228374174244 -0.02364365573157437
vn 0.04940186663804935 -0.0450841745980502 -0.025610705726414024
vn 0.044137492919517296 -0.04929103547102248 -0.02741005317926319
vn 0.038450384735225995 -0.05299235199074903 -0.029024369390527716
vn 0.03239531204587731 -0.05615247845579917 -0.030438107612617935
vn 0.026030588511511965 -0.05874098112081397 -0.031637652773627456
vn 0.01941750989907698 -0.06073293129010942 -0.03261145259791743
vn 0.0126197637706853 -0.06210914539464453 -0.033350128860846845
vn 0.005702816137580946 -0.06285636974027771 -0.03384656770620227
vn -0.001266719013341966 -0.06296740814808616 -0.0340959881565219
vn -0.008221721248644176 -0.062441191257502665 -0.034095988156521914
vn -0.015095210094808742 -0.06128278682484284 -0.03384656770620226
vn -0.02182099009681604 -0.05950335091804193 -0.033350128860846845
vn -0.02833428831656226 -0.057120020477620936 -0.03261145259791745
vn -0.03457237813165781 -0.05415574827858183 -0.031637652773627456
vn -0.040475183327099984 -0.05063908188263705 -0.030438107612617837
vn -0.04598585666205235 -0.04660388870958598 -0.02902436939052766
vn -0.051051327339860286 -0.042089029875545414 -0.027410053179263316
vn -0.05562281210882691 -0.037137985939159956 -0.025610705726414107
vn -0.05965628507160092 -0.0317984381600529 -0.023643655731574342
vn -0.0631129016786307 -0.02612180930223107 -0.021527846961493624
vn -0.06595937282240927 -0.020162768404756504 -0.019283655811246248
vn -0.06816828542978515 -0.013978704289014154 -0.016932695068408776
vn -0.06971836646483354 -0.0076291728729928066 -0.014497605770100785
vn -0.0705946877998267 -0.001175323615234869 -0.012001839157420036
vn -0.07078880998126258 0.005320689387873445 -0.009469430827171554
vn -0.0702988635064159 0.01179630598003134 -0.006924769255930718
vn -0.0691295668276719 0.018189162433523975 -0.004392360925682182
vn -0.06729218091124833 0.024437692046012982 -0.0018965943130013763
vn -0.06480440078793959 0.030481718061536656 0.000538494985306559
vn -0.061690185140290454 0.03626303320556534 0.0028894557281441136
vn -0.05797952556739161 0.04172596025287212 0.005133646878391351
vn -0.05370815774938276 0.04681788822965327 0.007249455648472208
vn -0.04891721729331988 0.05148977908596075 0.009216505643311751
vn -0.04365284357478716 0.05569663995893315 0.01101585309616096
vn -0.037965735390495414 0.0593979564786602 0.012630169307425526
vn -0.031910662701147396 0.06255808294370985 0.014043907529515731
vn -0.025545939166781828 0.06514658560872433 0.015243452690525128
vn -0.01893286055434662 0.06713853577802043 0.01621725251481526
vn -0.012135114425955607 0.06851474988255515 0.016955928777744586
vn -0.005218166792851031 0.06926197422818894 0.017452367623100186
vn 0.001751368358072103 0.0693730126359966 0.017701788073419572
vn 0.008706370593374535 0.06884679574541312 0.017701788073419586
vn 0.015579859439538879 0.06768839131275407 0.017452367623100182
vn 0.0223056394415464 0.06590895540595257 0.016955928777744596
vn 0.02881893766129262 0.06352562496553199 0.016217252514815265
vn 0.03505702747638839 0.06056135276649227 0.015243452690525156
vn 0.04095983267182968 0.05704468637054791 0.014043907529515717
vn 0.04647050600678271 0.05300949319749715 0.012630169307425554
vn 0.0515359766845902 0.04849463436345597 0.011015853096160932
vn 0.05610746145355705 0.04354359042707051 0.009216505643311779
vn 0.06014093441633195 0.0382040426479639 0.007249455648472208
vn 0.06359755102336062 0.0325274137901419 0.005133646878391407
vn 0.0664440221671394 0.026568372892667114 0.002889455728144058
vn 0.06865293477451595 0.020384308776925097 0.0005384949853066145
vn 0.07020301580956367 0.014034777360903639 -0.0018965943130013763
vn 0.07107933714455705 0.007580928103145812 -0.004392360925682209
vn 0.0712734593259925 0.0010849151000371648 -0.006924769255930663
vn 0.07078351285114604 -0.00539070149212062 -0.009469430827171499
vn -0.06961421617240182 0.011783557945613254 0.012001839157420063
vn -0.06777683025597891 0.01803208755810226 0.014497605770100813
vn -0.0652890501326695 0.024076113573626046 0.01693269506840886
vn -0.06217483448502037 0.029857428717654233 0.019283655811246275
vn -0.058464174912121525 0.035320355764961286 0.02152784696149357
vn -0.05419280709411334 0.04041228374174244 0.02364365573157437
vn -0.04940186663804935 0.0450841745980502 0.025610705726414024
vn -0.044137492919517296 0.04929103547102248 0.02741005317926319
vn -0.038450384735225995 0.05299235199074903 0.029024369390527716
vn -0.03239531204587731 0.05615247845579917 0.030438107612617935
vn -0.026030588511511965 0.05874098112081397 0.031637652773627456
vn -0.01941750989907698 0.06073293129010942 0.03261145259791743
vn -0.0126197637706853 0.06210914539464453 0.033350128860846845
vn -0.005702816137580946 0.06285636974027771 0.03384656770620227
vn 0.001266719013341966 0.06296740814808616 0.0340959881565219
vn 0.008221721248644176 0.062441191257502665 0.034095988156521914
vn 0.015095210094808742 0.06128278682484284 0.03384656770620226
vn 0.02182099009681604 0.05950335091804193 0.033350128860846845
vn 0.02833428831656226 0.057120020477620936 0.03261145259791745
vn 0.03457237813165781 0.05415574827858183 0.031637652773627456
vn 0.040475183327099984 0.05063908188263705 0.030438107612617837
vn 0.04598585666205235 0.04660388870958598 0.02902436939052766
vn 0.051051327339860286 0.042089029875545414 0.027410053179263316
vn 0.05562281210882691 0.037137985939159956 0.025610705726414107
vn 0.05965628507160092 0.0317984381600529 0.023643655731574342
vn 0.0631129016786307 0.02612180930223107 0.021527846961493624
vn 0.06595937282240927 0.020162768404756504 0.019283655811246248
vn 0.06816828542978515 0.013978704289014154 0.016932695068408776
vn 0.06971836646483354 0.0076291728729928066 0.014497605770100785
vn 0.0705946877998267 0.001175323615234869 0.012001839157420036
vn 0.07078880998126258 -0.005320689387873445 0.009469430827171554
vn 0.0702988635064159 -0.01179630598003134 0.006924769255930718
vn 0.0691295668276719 -0.018189162433523975 0.004392360925682182
vn 0.06729218091124833 -0.024437692046012982 0.0018965943130013763
vn 0.06480440078793959 -0.030481718061536656 -0.000538494985306559
vn 0.061690185140290454 -0.03626303320556534 -0.0028894557281441136
vn 0.05797952556739161 -0.04172596025287212 -0.005133646878391351
vn 0.05370815774938276 -0.04681788822965327 -0.007249455648472208
vn 0.04891721729331988 -0.05148977908596075 -0.009216505643311751
vn 0.04365284357478716 -0.05569663995893315 -0.01101585309616096
vn 0.037965735390495414 -0.0593979564786602 -0.012630169307425526
vn 0.031910662701147396 -0.06255808294370985 -0.014043907529515731
vn 0.025545939166781828 -0.06514658560872433 -0.015243452690525128
vn 0.01893286055434662 -0.06713853577802043 -0.01621725251481526
vn 0.012135114425955607 -0.06851474988255515 -0.016955928777744586
vn 0.005218166792851031 -0.06926197422818894 -0.017452367623100186
vn -0.001751368358072103 -0.0693730126359966 -0.017701788073419572
vn -0.008706370593374535 -0.06884679574541312 -0.017701788073419586
vn -0.015579859439538879 -0.06768839131275407 -0.017452367623100182
vn -0.0223056394415464 -0.06590895540595257 -0.016955928777744596
vn -0.02881893766129262 -0.06352562496553199 -0.016217252514815265
vn -0.03505702747638839 -0.06056135276649227 -0.015243452690525156
vn -0.04095983267182968 -0.05704468637054791 -0.014043907529515717
vn -0.04647050600678271 -0.05300949319749715 -0.012630169307425554
vn -0.0515359766845902 -0.04849463436345597 -0.011015853096160932
vn -0.05610746145355705 -0.04354359042707051 -0.009216505643311779
vn -0.06014093441633195 -0.0382040426479639 -0.007249455648472208
vn -0.06359755102336062 -0.0325274137901419 -0.005133646878391407
vn -0.0664440221671394 -0.026568372892667114 -0.002889455728144058
vn -0.06865293477451595 -0.020384308776925097 -0.0005384949853066145
vn -0.07020301580956367 -0.014034777360903639 0.0018965943130013763
vn -0.07107933714455705 -0.007580928103145812 0.004392360925682209
vn -0.0712734593259925 -0.0010849151000371648 0.006924769255930663
vn -0.07078351285114604 0.00539070149212062 0.009469430827171499
v 0 0 0
v 0 0 0
v 0 0 0
v 0 0 0
v 0 0 0
v 0 0 0
v 0 0 0
v 0 0 0
v 0 0 0
v 0 0 0
v 0 0 0
v 0 0 0
v 0 0 0
v 0 0 0
v 0 0 0
v 0 0 0
v 0 0 0
v 0 0 0
v 0 0 0
v 0 0 0
v 0 0 0
v 0 0 0
v 0 0 0
v 0 0 0
v 0 0 0
v 0 0 0
v 0 0 0
v 0 0 0
v 0 0 0
v 0 0 0
v 0 0 0
v 0 0 0
v 0 0 0
v 0 0 0
v 0 0 0
v 0 0 0
v 0 0 0
v 0 0 0
v 0 0 0
v 0 0 0
v 0 0 0
v 0 0 0
v 0 0 0
v 0 0 0
v 0 0 0
v 0 0 0
v 0 0 0
v 0 0 0
v 0 0 0
v 0 0 0
v 0 0 0
v 0 0 0
v 0 0 0
v 0 0 0
v 0 0 0
v 0 0 0
v 0 0 0
v 0 0 0
v 0 0 0
v 0 0 0
v 0 0 0
v 0 0 0
v 0 0 0
v 0 0 0
v -0.22882859401336014 0.9289035198496358 -2.2392827723815514
v -0.2224817635828037 0.9555883231930103 -2.228668757523701
v -0.21335173586311507 0.9815367775641446 -2.2182601741917405
v -0.2015264380122157 1.0064989851625765 -2.2081572627330677
v -0.18711975411277504 1.0302345462834022 -2.198457319707842
v -0.17027042840623938 1.0525148744978507 -2.1892537608699247
v -0.15114072910994092 1.0731253980655509 -2.1806352215221025
v -0.1299148856854603 1.091867626377687 -2.1726847029096676
v -0.10679731460820172 1.1085610615300692 -2.165478772873053
v -0.08201065072498892 1.1230449366166204 -2.1590868284576734
v -0.05579360315878609 1.1351797640025652 -2.1535704275824417
v -0.028398656409351672 1.1448486786666057 -2.1489826962033574
v -8.963878948400894E-05 1.151958563674961 -2.14536781668151
v 0.028860818385854324 1.1564409469483417 -2.1427606022827894
v 0.05817390638813515 1.1582526606855055 -2.1411861619071035
v 0.08756732415573269 1.15737625709278 -2.140659658275947
v 0.1167579970074683 1.1538201764158538 -2.1411861619071035
v 0.14546480280653473 1.1476186656555976 -2.1427606022827894
v 0.17341127932035075 1.1388314487507232 -2.14536781668151
v 0.20032828670299024 1.1275431514036054 -2.1489826962033574
v 0.2259565994590254 1.1138624860885087 -2.1535704275824417
v 0.2500494029267546 1.0979212050910294 -2.1590868284576734
v 0.27237467023831774 1.0798728316615642 -2.165478772873053
v 0.29271739686527193 1.059891181502483 -2.1726847029096676
v 0.3108816712297339 1.038168688827899 -2.1806352215221025
v 0.32669256143997155 1.014914553116991 -2.1892537608699247
v 0.33999779998014845 0.9903527244086583 -2.198457319707842
v 0.35066925012973954 0.9647197465402239 -2.2081572627330672
v 0.35860413999019614 0.9382624791009717 -2.2182601741917405
v 0.3637260522345101 0.9112357200393554 -2.228668757523701
v 0.3659856600478465 0.8838997518194674 -2.2392827723815514
v 0.36536120217173584 0.8565178347586259 -2.25
v 0.36185869247688834 0.829353671686605 -2.2607172276184486
v 0.3555118620463319 0.8026688683432304 -2.271331242476299
v 0.3463818343266433 0.7767204139720963 -2.2817398258082595
v 0.33455653647574396 0.7517582063736644 -2.2918427372669323
v 0.32014985257630324 0.7280226452528387 -2.301542680292158
v 0.3033005268697676 0.7057423170383901 -2.3107462391300753
v 0.2841708275734691 0.6851317934706902 -2.3193647784778975
v 0.26294498414898854 0.6663895651585539 -2.3273152970903324
v 0.23982741307173003 0.6496961300061717 -2.334521227126947
v 0.21504074918851712 0.6352122549196205 -2.3409131715423266
v 0.1888237016223143 0.6230774275336757 -2.3464295724175583
v 0.16142875487288003 0.6134085128696352 -2.3510173037966426
v 0.13311973725301224 0.60629862786128 -2.35463218331849
v 0.10416928007767398 0.6018162445878992 -2.3572393977172106
v 0.07485619207539294 0.6000045308507354 -2.3588138380928965
v 0.04546277430779554 0.6008809344434609 -2.359340341724053
v 0.016272101456060062 0.6044370151203871 -2.3588138380928965
v -0.012434704343006558 0.6106385258806433 -2.3572393977172106
v -0.04038118085682249 0.6194257427855177 -2.35463218331849
v -0.06729818823946213 0.6307140401326354 -2.3510173037966426
v -0.09292650099549715 0.6443947054477321 -2.3464295724175583
v -0.11701930446322636 0.6603359864452113 -2.3409131715423266
v -0.13934457177478965 0.6783843598746767 -2.334521227126947
v -0.1596872984017437 0.6983660100337579 -2.3273152970903324
v -0.1778515727662056 0.7200885027083417 -2.3193647784778975
v -0.1936624629764433 0.74334263841925 -2.3107462391300753
v -0.2069677015166202 0.7679044671275824 -2.301542680292158
v -0.21763915166621128 0.7935374449960167 -2.2918427372669328
v -0.22557404152666793 0.8199947124352691 -2.2817398258082595
v -0.2306959537709819 0.8470214714968854 -2.271331242476299
v -0.23295556158431835 0.8743574397167735 -2.2607172276184486
v -0.23233110370820764 0.9017393567776149 -2.25
f 1//1 65//1 66//1 2//1
f 2//65 66//65 65//65 1//65
f 2//2 66//2 67//2 3//2
f 3//66 67//66 66//66 2//66
f 3//3 67//3 68//3 4//3
f 4//67 68//67 67//67 3//67
f 4//4 68//4 69//4 5//4
f 5//68 69//68 68//68 4//68
f 5//5 69//5 70//5 6//5
f 6//69 70//69 69//69 5//69
f 6//6 70//6 71//6 7//6
f 7//70 71//70 70//70 6//70
f 7//7 71//7 72//7 8//7
f 8//71 72//71 71//71 7//71
f 8//8 72//8 73//8 9//8
f 9//72 73//72 72//72 8//72
f 9//9 73//9 74//9 10//9
f 10//73 74//73 73//73 9//73
f 10//10 74//10 75//10 11//10
f 11//74 75//74 74//74 10//74
f 11//11 75//11 76//11 12//11
f 12//75 76//75 75//75 11//75
f 12//12 76//12 77//12 13//12
f 13//76 77//76 76//76 12//76
f 13//13 77//13 78//13 14//13
f 14//77 78//77 77//77 13//77
f 14//14 78//14 79//14 15//14
f 15//78 79//78 78//78 14//78
f 15//15 79//15 80//15 16//15
f 16//79 80//79 79//79 15//79
f 16//16 80//16 81//16 17//16
f 17//80 81//80 80//80 16//80
f 17//17 81//17 82//17 18//17
f 18//81 82//81 81//81 17//81
f 18//18 82//18 83//18 19//18
f 19//82 83//82 82//82 18//82
f 19//19 83//19 84//19 20//19
f 20//83 84//83 83//83 19//83
f 20//20 84//20 85//20 21//20
f 21//84 85//84 84//84 20//84
f 21//21 85//21 86//21 22//21
f 22//85 86//85 85//85 21//85
f 22//22 86//22 87//22 23//22
f 23//86 87//86 86//86 22//86
f 23//23 87//23 88//23 24//23
f 24//87 88//87 87//87 23//87
f 24//24 88//24 89//24 25//24
f 25//88 89//88 88//88 24//88
f 25//25 89//25 90//25 26//25
f 26//89 90//89 89//89 25//89
f 26//26 90//26 91//26 27//26
f 27//90 91//90 90//90 26//90
f 27//27 91//27 92//27 28//27
f 28//91 92//91 91//91 27//91
f 28//28 92//28 93//28 29//28
f 29//92 93//92 92//92 28//92
f 29//29 93//29 94//29 30//29
f 30//93 94//93 93//93 29//93
f 30//30 94//30 95//30 31//30
f 31//94 95//94 94//94 30//94
f 31//31 95//31 96//31 32//31
f 32//95 96//95 95//95 31//95
f 32//32 96//32 97//32 33//32
f 33//96 97//96 96//96 32//96
f 33//33 97//33 98//33 34//33
f 34//97 98//97 97//97 33//97
f 34//34 98//34 99//34 35//34
f 35//98 99//98 98//98 34//98
f 35//35 99//35 100//35 36//35
f 36//99 100//99 99//99 35//99
f 36//36 100//36 101//36 37//36
f 37//100 101//100 100//100 36//100
f 37//37 101//37 102//37 38//37
f 38//101 102//101 101//101 37//101
f 38//38 102//38 103//38 39//38
f 39//102 103//102 102//102 38//102
f 39//39 103//39 104//39 40//39
f 40//103 104//103 103//103 39//103
f 40//40 104//40 105//40 41//40
f 41//104 105//104 104//104 40//104
f 41//41 105//41 106//41 42//41
f 42//105 106//105 105//105 41//105
f 42//42 106//42 107//42 43//42
f 43//106 107//106 106//106 42//106
f 43//43 107//43 108//43 44//43
f 44//107 108//107 107//107 43//107
f 44//44 108//44 109//44 45//44
f 45//108 109//108 108//108 44//108
f 45//45 109//45 110//45 46//45
f 46//109 110//109 109//109 45//109
f 46//46 110//46 111//46 47//46
f 47//110 111//110 110//110 46//110
f 47//47 111//47 112//47 48//47
f 48//111 112//111 111//111 47//111
f 48//48 112//48 113//48 49//48
f 49//112 113//112 112//112 48//112
f 49//49 113//49 114//49 50//49
f 50//113 114//113 113//113 49//113
f 50//50 114//50 115//50 51//50
f 51//114 115//114 114//114 50//114
f 51//51 115//51 116//51 52//51
f 52//115 116//115 115//115 51//115
f 52//52 116//52 117//52 53//52
f 53//116 117//116 116//116 52//116
f 53//53 117//53 118//53 54//53
f 54//117 118//117 117//117 53//117
f 54//54 118//54 119//54 55//54
f 55//118 119//118 118//118 54//118
f 55//55 119//55 120//55 56//55
f 56//119 120//119 119//119 55//119
f 56//56 120//56 121//56 57//56
f 57//120 121//120 120//120 56//120
f 57//57 121//57 122//57 58//57
f 58//121 122//121 121//121 57//121
f 58//58 122//58 123//58 59//58
f 59//122 123//122 122//122 58//122
f 59//59 123//59 124//59 60//59
f 60//123 124//123 123//123 59//123
f 60//60 124//60 125//60 61//60
f 61//124 125//124 124//124 60//124
f 61//61 125//61 126//61 62//61
f 62//125 126//125 125//125 61//125
f 62//62 126//62 127//62 63//62
f 63//126 127//126 126//126 62//126
f 63//63 127//63 128//63 64//63
f 64//127 128//127 127//127 63//127
f 64//64 128//64 65//64 1//64
f 1//128 65//128 128//128 64//128