o Jets_1
vn -0.0018890727839771563 0.033110329975868 -0.005159151734289297
vn -0.0018720886806917472 0.03247354743816447 -0.008273052306395287
vn -0.0019200052250990577 0.031541221522992095 -0.01131124743273608
vn -0.0020323609546825964 0.030322331038575068 -0.014244477633398638
vn -0.002208073822346583 0.028828614566591707 -0.017044494298083693
vn -0.002445451617120995 0.02707445741321579 -0.019684331735665642
vn -0.0027422082610782453 0.025076753070753938 -0.022138566868538562
vn -0.0030954858255133424 0.022854740524080513 -0.02438356407075149
vn -0.003501882054359616 0.020429818968695584 -0.026397702792006823
vn -0.003957483129774505 0.01782534172477443 -0.028161585775378667
vn -0.004457901364344891 0.015066391331928136 -0.029658225863500726
vn -0.004998317456915393 0.01217953799063548 -0.03087320959417747
vn -0.005573526905093114 0.00919258367668746 -0.0317948360099049
vn -0.006177990127450593 0.006134294392963202 -0.0324142293444874
vn -0.006805885812723345 0.003034123137095668 -0.03272542450151811
vn -0.007451166982219502 -7.807374699525527E-05 -0.032725424501518136
vn -0.008107619225530209 -0.003172324102015789 -0.032414229344487344
vn -0.008768920548699086 -0.006218828605557503 -0.03179483600990485
vn -0.009428702258480082 -0.009188247753863121 -0.030873209594177498
vn -0.010080610296334405 -0.012051984417284278 -0.029658225863500698
vn -0.010718366431488435 -0.014782459246274776 -0.028161585775378584
vn -0.01133582872372775 -0.017353376275602017 -0.026397702792006872
vn -0.011927050673638806 -0.019739976168867523 -0.024383564070751484
vn -0.01248633849064909 -0.021919274664450622 -0.0221385668685386
vn -0.013008305927343117 -0.02387028392651344 -0.019684331735665694
vn -0.0134879261519689 -0.025574214669331782 -0.01704449429808369
vn -0.013920580159576465 -0.027014657108389503 -0.014244477633398644
vn -0.014302101255559613 -0.02817773899557218 -0.011311247432736038
vn -0.014628815183203374 -0.029052259216500943 -0.008273052306395412
vn -0.01489757550878475 -0.029629795663387325 -0.005159151734289158
vn -0.015105793923448829 -0.02990478634453383 -0.0019995342811583994
vn -0.015251465170038721 -0.029874582949355973 0.001175371209700793
vn -0.015333186354817757 -0.029539476353060173 0.0043349886628315515
vn -0.015350170458103087 -0.028902693815356525 0.0074488892349375835
vn -0.015302253913695857 -0.027970367900184256 0.010487084361278431
vn -0.01518989818411233 -0.026751477415767277 0.013420314561940927
vn -0.015014185316448242 -0.025257760943783736 0.016220331226626028
vn -0.01477680752167393 -0.023503603790407945 0.018860168664207977
vn -0.014480050877716671 -0.02150589944794612 0.021314403797080828
vn -0.014126773313281493 -0.01928388690127253 0.023559400999293767
vn -0.013720377084435353 -0.016858965345887877 0.02557353972054921
vn -0.013264776009020374 -0.0142544881019665 0.027337422703921033
vn -0.01276435777444998 -0.011495537709120263 0.028834062792042814
vn -0.012223941681879555 -0.008608684367827524 0.03004904652271989
vn -0.011648732233701761 -0.00562173005387967 0.030970672938447186
vn -0.011044269011344365 -0.0025634407701553563 0.03159006627302996
vn -0.01041637332607151 0.000536730485712289 0.03190126143006031
vn -0.009771092156575387 0.0036489273698030456 0.031901261430060224
vn -0.009114639913264735 0.00674317772482369 0.031590066273029904
vn -0.008453338590095762 0.009789682228365404 0.030970672938447158
vn -0.0077935568803148975 0.012759101376671023 0.030049046522719933
vn -0.007141648842460473 0.015622838040092124 0.028834062792042897
vn -0.0065038927073064155 0.01835331286908254 0.02733742270392095
vn -0.00588643041506718 0.02092422989841003 0.02557353972054935
vn -0.0052952084651561 0.023310829791675203 0.02355940099929374
vn -0.004735920648145777 0.02549012828725844 0.021314403797080786
vn -0.004213953211451837 0.027441137549321426 0.01886016866420808
vn -0.0037343329868259377 0.029145068292139642 0.01622033122662598
vn -0.0033016789792184474 0.030585510731197252 0.01342031456194099
vn -0.0029201578832353144 0.031748592618380145 0.010487084361278515
vn -0.0025934439555914627 0.03262311283930881 0.007448889234937597
vn -0.0023246836300101813 0.03320064928619533 0.0043349886628315515
vn -0.0021164652153460735 0.03347563996734154 0.0011753712097007513
vn -0.0019707939687561974 0.033445436572163895 -0.0019995342811583855
vn 0.0018890727839771563 -0.033110329975868 0.005159151734289297
vn 0.0018720886806917472 -0.03247354743816447 0.008273052306395287
vn 0.0019200052250990577 -0.031541221522992095 0.01131124743273608
vn 0.0020323609546825964 -0.030322331038575068 0.014244477633398638
vn 0.002208073822346583 -0.028828614566591707 0.017044494298083693
vn 0.002445451617120995 -0.02707445741321579 0.019684331735665642
vn 0.0027422082610782453 -0.025076753070753938 0.022138566868538562
vn 0.0030954858255133424 -0.022854740524080513 0.02438356407075149
vn 0.003501882054359616 -0.020429818968695584 0.026397702792006823
vn 0.003957483129774505 -0.01782534172477443 0.028161585775378667
vn 0.004457901364344891 -0.015066391331928136 0.029658225863500726
vn 0.004998317456915393 -0.01217953799063548 0.03087320959417747
vn 0.005573526905093114 -0.00919258367668746 0.0317948360099049
vn 0.006177990127450593 -0.006134294392963202 0.0324142293444874
vn 0.006805885812723345 -0.003034123137095668 0.03272542450151811
vn 0.007451166982219502 7.807374699525527E-05 0.032725424501518136
vn 0.008107619225530209 0.003172324102015789 0.032414229344487344
vn 0.008768920548699086 0.006218828605557503 0.03179483600990485
vn 0.009428702258480082 0.009188247753863121 0.030873209594177498
vn 0.010080610296334405 0.012051984417284278 0.029658225863500698
vn 0.010718366431488435 0.014782459246274776 0.028161585775378584
vn 0.01133582872372775 0.017353376275602017 0.026397702792006872
vn 0.011927050673638806 0.019739976168867523 0.024383564070751484
vn 0.01248633849064909 0.021919274664450622 0.0221385668685386
vn 0.013008305927343117 0.02387028392651344 0.019684331735665694
vn 0.0134879261519689 0.025574214669331782 0.01704449429808369
vn 0.013920580159576465 0.027014657108389503 0.014244477633398644
vn 0.014302101255559613 0.02817773899557218 0.011311247432736038
vn 0.014628815183203374 0.029052259216500943 0.008273052306395412
vn 0.01489757550878475 0.029629795663387325 0.005159151734289158
vn 0.015105793923448829 0.02990478634453383 0.0019995342811583994
vn 0.015251465170038721 0.029874582949355973 -0.001175371209700793
vn 0.015333186354817757 0.029539476353060173 -0.0043349886628315515
vn 0.015350170458103087 0.028902693815356525 -0.0074488892349375835
vn 0.015302253913695857 0.027970367900184256 -0.010487084361278431
vn 0.01518989818411233 0.026751477415767277 -0.013420314561940927
vn 0.015014185316448242 0.025257760943783736 -0.016220331226626028
vn 0.01477680752167393 0.023503603790407945 -0.018860168664207977
vn 0.014480050877716671 0.02150589944794612 -0.021314403797080828
vn 0.014126773313281493 0.01928388690127253 -0.023559400999293767
vn 0.013720377084435353 0.016858965345887877 -0.02557353972054921
vn 0.013264776009020374 0.0142544881019665 -0.027337422703921033
vn 0.01276435777444998 0.011495537709120263 -0.028834062792042814
vn 0.012223941681879555 0.008608684367827524 -0.03004904652271989
vn 0.011648732233701761 0.00562173005387967 -0.030970672938447186
vn 0.011044269011344365 0.0025634407701553563 -0.03159006627302996
vn 0.01041637332607151 -0.000536730485712289 -0.03190126143006031
vn 0.009771092156575387 -0.0036489273698030456 -0.031901261430060224
vn 0.009114639913264735 -0.00674317772482369 -0.031590066273029904
vn 0.008453338590095762 -0.009789682228365404 -0.030970672938447158
vn 0.0077935568803148975 -0.012759101376671023 -0.030049046522719933
vn 0.007141648842460473 -0.015622838040092124 -0.028834062792042897
vn 0.0065038927073064155 -0.01835331286908254 -0.02733742270392095
vn 0.00588643041506718 -0.02092422989841003 -0.02557353972054935
vn 0.0052952084651561 -0.023310829791675203 -0.02355940099929374
vn 0.004735920648145777 -0.02549012828725844 -0.021314403797080786
vn 0.004213953211451837 -0.027441137549321426 -0.01886016866420808
vn 0.0037343329868259377 -0.029145068292139642 -0.01622033122662598
vn 0.0033016789792184474 -0.030585510731197252 -0.01342031456194099
vn 0.0029201578832353144 -0.031748592618380145 -0.010487084361278515
vn 0.0025934439555914627 -0.03262311283930881 -0.007448889234937597
vn 0.0023246836300101813 -0.03320064928619533 -0.0043349886628315515
vn 0.0021164652153460735 -0.03347563996734154 -0.0011753712097007513
vn 0.0019707939687561974 -0.033445436572163895 0.0019995342811583855
v 0 0 0
v 0 0 0
v 0 0 0
v 0 0 0
v 0 0 0
v 0 0 0
v 0 0 0
v 0 0 0
v 0 0 0
v 0 0 0
v 0 0 0
v 0 0 0
v 0 0 0
v 0 0 0
v 0 0 0
v 0 0 0
v 0 0 0
v 0 0 0
v 0 0 0
v 0 0 0
v 0 0 0
v 0 0 0
v 0 0 0
v 0 0 0
v 0 0 0
v 0 0 0
v 0 0 0
v 0 0 0
v 0 0 0
v 0 0 0
v 0 0 0
v 0 0 0
v 0 0 0
v 0 0 0
v 0 0 0
v 0 0 0
v 0 0 0
v 0 0 0
v 0 0 0
v 0 0 0
v 0 0 0
v 0 0 0
v 0 0 0
v 0 0 0
v 0 0 0
v 0 0 0
v 0 0 0
v 0 0 0
v 0 0 0
v 0 0 0
v 0 0 0
v 0 0 0
v 0 0 0
v 0 0 0
v 0 0 0
v 0 0 0
v 0 0 0
v 0 0 0
v 0 0 0
v 0 0 0
v 0 0 0
v 0 0 0
v 0 0 0
v 0 0 0
v -1.1389906645975034 -0.0684429960794321 -0.0222001454755851
v -1.1394478995815716 -0.06394088964304667 0.006860829580257084
v -1.13930461045795 -0.05667226916160367 0.035359336943192404
v -1.1385621771792291 -0.04670713542377147 0.063020920408447
v -1.1372277497837384 -0.03414145811494157 0.08957918380589076
v -1.1353141795367683 -0.019096251576695977 0.11477835654078271
v -1.1328398951658614 -0.0017164093725444696 0.13837575680441688
v -1.1298287253820907 0.017830691116298786 0.1601441287326032
v -1.1263096693965466 0.039356800626594135 0.17987383100387072
v -1.1223166176420822 0.062654610956389 0.19737485579999486
v -1.1178880253899166 0.0874997514563288 0.21247865868515553
v -1.113066542404353 0.11365294984166388 0.2250397817809902
v -1.1078986022022332 0.14086233651515084 0.2349372546054776
v -1.1024339748727872 0.16886587020896024 0.24207575908480872
v -1.0967252877644664 0.197393861585332 0.24638654751854433
v -1.09082751865481 0.22617157049232536 0.2478281046575509
v -1.0847974662843924 0.25492185186167 0.24638654751854439
v -1.078693203353903 0.2833678247672765 0.24207575908480872
v -1.0725735172522914 0.3112355389399134 0.2349372546054776
v -1.0664973439020773 0.3382566130580562 0.2250397817809902
v -1.060523200174197 0.3641708194067253 0.21247865868515553
v -1.0547086203385498 0.3887285900126368 0.19737485579999486
v -1.0491096019775252 0.41169342012021304 0.17987383100387078
v -1.043780066698675 0.4328441458616648 0.1601441287326032
v -1.0387713408401542 0.4519770741859391 0.13837575680441688
v -1.034131661170029 0.46890794453415063 0.11477835654078271
v -1.0299057103398295 0.48347370336949086 0.08957918380589082
v -1.0261341865661902 0.4955340744719219 0.06302092040844703
v -1.0228534116847758 0.5049729098748577 0.03535933694319242
v -1.0200949813511484 0.5116993084335758 0.006860829580257195
v -1.0178854607573322 0.5156484912529322 -0.022200145475585034
v -1.0162461287944924 0.5167824255435337 -0.05154371514820142
v -1.0151927731255812 0.5150901908982901 -0.0808872848208178
v -1.014735538141513 0.5105880844619047 -0.10994825987666003
v -1.0148788272651346 0.5033194639804618 -0.13844676723959526
v -1.0156212605438555 0.4933543302426296 -0.1661083507048499
v -1.0169556879393462 0.48078865293379963 -0.1926666141022937
v -1.0188692581863164 0.4657434463955541 -0.21786578683718555
v -1.0213435425572233 0.44836360419140253 -0.2414631871008197
v -1.024354712340994 0.4288165037025593 -0.2632315590290061
v -1.027873768326538 0.40729039419226404 -0.28296126130027355
v -1.0318668200810024 0.38399258386246904 -0.30046228609639775
v -1.036295412333168 0.35914744336252924 -0.3155660889815584
v -1.0411168953187315 0.3329942449771943 -0.32812721207739304
v -1.0462848355208514 0.3057848583037073 -0.3380246849018804
v -1.0517494628502975 0.2777813246098979 -0.3451631893812116
v -1.0574581499586182 0.24925333323352594 -0.34947397781494727
v -1.0633559190682746 0.22047562432653273 -0.3509155349539538
v -1.069385971438692 0.19172534295718824 -0.34947397781494727
v -1.0754902343691817 0.16327937005158155 -0.3451631893812116
v -1.0816099204707932 0.13541165587894466 -0.3380246849018805
v -1.0876860938210073 0.1083905817608018 -0.32812721207739304
v -1.0936602375488875 0.08247637541213282 -0.3155660889815584
v -1.0994748173845348 0.0579186048062213 -0.3004622860963978
v -1.1050738357455594 0.03495377469864494 -0.2829612613002736
v -1.1104033710244097 0.013803048957193281 -0.26323155902900613
v -1.1154120968829304 -0.005329879367080903 -0.24146318710081988
v -1.1200517765530555 -0.022260749715292516 -0.2178657868371856
v -1.1242777273832552 -0.03682650855063274 -0.19266661410229374
v -1.1280492511568945 -0.048886879653063764 -0.16610835070485008
v -1.1313300260383088 -0.05832571505599965 -0.13844676723959537
v -1.1340884563719362 -0.06505211361471774 -0.10994825987666013
v -1.1362979769657524 -0.06900129643407421 -0.08088728482081778
v -1.1379373089285922 -0.07013523072467565 -0.05154371514820153
f 1//1 65//1 66//1 2//1
f 2//65 66//65 65//65 1//65
f 2//2 66//2 67//2 3//2
f 3//66 67//66 66//66 2//66
f 3//3 67//3 68//3 4//3
f 4//67 68//67 67//67 3//67
f 4//4 68//4 69//4 5//4
f 5//68 69//68 68//68 4//68
f 5//5 69//5 70//5 6//5
f 6//69 70//69 69//69 5//69
f 6//6 70//6 71//6 7//6
f 7//70 71//70 70//70 6//70
f 7//7 71//7 72//7 8//7
f 8//71 72//71 71//71 7//71
f 8//8 72//8 73//8 9//8
f 9//72 73//72 72//72 8//72
f 9//9 73//9 74//9 10//9
f 10//73 74//73 73//73 9//73
f 10//10 74//10 75//10 11//10
f 11//74 75//74 74//74 10//74
f 11//11 75//11 76//11 12//11
f 12//75 76//75 75//75 11//75
f 12//12 76//12 77//12 13//12
f 13//76 77//76 76//76 12//76
f 13//13 77//13 78//13 14//13
f 14//77 78//77 77//77 13//77
f 14//14 78//14 79//14 15//14
f 15//78 79//78 78//78 14//78
f 15//15 79//15 80//15 16//15
f 16//79 80//79 79//79 15//79
f 16//16 80//16 81//16 17//16
f 17//80 81//80 80//80 16//80
f 17//17 81//17 82//17 18//17
f 18//81 82//81 81//81 17//81
f 18//18 82//18 83//18 19//18
f 19//82 83//82 82//82 18//82
f 19//19 83//19 84//19 20//19
f 20//83 84//83 83//83 19//83
f 20//20 84//20 85//20 21//20
f 21//84 85//84 84//84 20//84
f 21//21 85//21 86//21 22//21
f 22//85 86//85 85//85 21//85
f 22//22 86//22 87//22 23//22
f 23//86 87//86 86//86 22//86
f 23//23 87//23 88//23 24//23
f 24//87 88//87 87//87 23//87
f 24//24 88//24 89//24 25//24
f 25//88 89//88 88//88 24//88
f 25//25 89//25 90//25 26//25
f 26//89 90//89 89//89 25//89
f 26//26 90//26 91//26 27//26
f 27//90 91//90 90//90 26//90
f 27//27 91//27 92//27 28//27
f 28//91 92//91 91//91 27//91
f 28//28 92//28 93//28 29//28
f 29//92 93//92 92//92 28//92
f 29//29 93//29 94//29 30//29
f 30//93 94//93 93//93 29//93
f 30//30 94//30 95//30 31//30
f 31//94 95//94 94//94 30//94
f 31//31 95//31 96//31 32//31
f 32//95 96//95 95//95 31//95
f 32//32 96//32 97//32 33//32
f 33//96 97//96 96//96 32//96
f 33//33 97//33 98//33 34//33
f 34//97 98//97 97//97 33//97
f 34//34 98//34 99//34 35//34
f 35//98 99//98 98//98 34//98
f 35//35 99//35 100//35 36//35
f 36//99 100//99 99//99 35//99
f 36//36 100//36 101//36 37//36
f 37//100 101//100 100//100 36//100
f 37//37 101//37 102//37 38//37
f 38//101 102//101 101//101 37//101
f 38//38 102//38 103//38 39//38
f 39//102 103//102 102//102 38//102
f 39//39 103//39 104//39 40//39
f 40//103 104//103 103//103 39//103
f 40//40 104//40 105//40 41//40
f 41//104 105//104 104//104 40//104
f 41//41 105//41 106//41 42//41
f 42//105 106//105 105//105 41//105
f 42//42 106//42 107//42 43//42
f 43//106 107//106 106//106 42//106
f 43//43 107//43 108//43 44//43
f 44//107 108//107 107//107 43//107
f 44//44 108//44 109//44 45//44
f 45//108 109//108 108//108 44//108
f 45//45 109//45 110//45 46//45
f 46//109 110//109 109//109 45//109
f 46//46 110//46 111//46 47//46
f 47//110 111//110 110//110 46//110
f 47//47 111//47 112//47 48//47
f 48//111 112//111 111//111 47//111
f 48//48 112//48 113//48 49//48
f 49//112 113//112 112//112 48//112
f 49//49 113//49 114//49 50//49
f 50//113 114//113 113//113 49//113
f 50//50 114//50 115//50 51//50
f 51//114 115//114 114//114 50//114
f 51//51 115//51 116//51 52//51
f 52//115 116//115 115//115 51//115
f 52//52 116//52 117//52 53//52
f 53//116 117//116 116//116 52//116
f 53//53 117//53 118//53 54//53
f 54//117 118//117 117//117 53//117
f 54//54 118//54 119//54 55//54
f 55//118 119//118 118//118 54//118
f 55//55 119//55 120//55 56//55
f 56//119 120//119 119//119 55//119
f 56//56 120//56 121//56 57//56
f 57//120 121//120 120//120 56//120
f 57//57 121//57 122//57 58//57
f 58//121 122//121 121//121 57//121
f 58//58 122//58 123//58 59//58
f 59//122 123//122 122//122 58//122
f 59//59 123//59 124//59 60//59
f 60//123 124//123 123//123 59//123
f 60//60 124//60 125//60 61//60
f 61//124 125//124 124//124 60//124
f 61//61 125//61 126//61 62//61
f 62//125 126//125 125//125 61//125
f 62//62 126//62 127//62 63//62
f 63//126 127//126 126//126 62//126
f 63//63 127//63 128//63 64//63
f 64//127 128//127 127//127 63//127
f 64//64 128//64 65//64 1//64
f 1//128 65//128 128//128 64//128