o Jets_45
vn -0.019449879923431723 -0.06324022617237227 -0.0089375979797729
vn -0.025551825619444135 -0.061017564574424255 -0.009025835913433825
vn -0.03140653249538594 -0.058207449410331624 -0.009111928598090645
vn -0.036957616523533354 -0.05483694362528968 -0.009195046914127057
vn -0.042151617730164126 -0.05093850703251451 -0.00927439038672255
vn -0.04693851504432872 -0.04654968370749624 -0.00934919489486246
vn -0.051272208028107225 -0.041712740418030414 -0.009418740030241124
vn -0.05511096084902822 -0.036474259572136014 -0.009482356035187538
vn -0.05841780421895082 -0.03088469060400445 -0.009539430252798131
vn -0.061160891428517716 -0.02499786411836802 -0.00958941302715725
vn -0.06331380504837747 -0.018870473472349714 -0.009631822996824576
vn -0.06485581134346784 -0.012561528787443543 -0.009666251730608469
vn -0.06577205995022094 -0.006131788649784697 -0.009692367660981941
vn -0.06605372689368152 0.00035682502824729845 -0.00970991927725913
vn -0.06569809956720923 0.006841823349895804 -0.009718737547780585
vn -0.06470860285636337 0.013260752236263107 -0.009718737547780586
vn -0.06309476615538331 0.01955179389323003 -0.009709919277259137
vn -0.06087213159391269 0.025654362150606125 -0.009692367660981936
vn -0.05806210435779413 0.031509685940071086 -0.009666251730608484
vn -0.054691746545428244 0.03706137529268483 -0.009631822996824566
vn -0.05079351654497294 0.04225596440512103 -0.009589413027157226
vn -0.0464049564423229 0.047043426544575384 -0.009539430252798117
vn -0.04156833047029662 0.05137765583355203 -0.00948235603518758
vn -0.0363302179809738 0.055216911274666824 -0.009418740030241124
vn -0.030741064861069978 0.05852421873927166 -0.00934919489486246
vn -0.024854697710471885 0.06126772704852418 -0.00927439038672253
vn -0.018727805462655622 0.06342101471765235 -0.009195046914127064
vn -0.012419393439267123 0.06496334440929552 -0.009111928598090662
vn -0.005990215096620788 0.06587986264539947 -0.009025835913433793
vn 0.0004978130632974365 0.06616174285433182 -0.008937597979772904
vn 0.006982207782590288 0.0658062703755882 -0.008848064576644783
vn 0.013400520795380899 0.06481686860346023 -0.00875809795966553
vn 0.019690940238748844 0.0632030660178755 -0.008668564556537405
vn 0.025792885934761034 0.06098040441992719 -0.00858032662287643
vn 0.03164759281070306 0.05817028925583495 -0.008494233938219672
vn 0.0371986768388507 0.05479978347079284 -0.00841111562218324
vn 0.04239267804548119 0.05090134687801745 -0.008331772149587718
vn 0.04717957535964584 0.04651252355299945 -0.008256967641447815
vn 0.0515132683434244 0.04167558026353363 -0.0081874225060692
vn 0.05535202116434507 0.03643709941763906 -0.008123806501122696
vn 0.05865886453426822 0.030847530449507943 -0.008066732283512231
vn 0.06140195174383478 0.024960703963870956 -0.008016749509153005
vn 0.06355486536369412 0.018833313317852984 -0.007974339539485693
vn 0.06509687165878521 0.012524368632946592 -0.007939910805701871
vn 0.06601312026553792 0.006094628495287968 -0.007913794875328312
vn 0.06629478720899906 -0.0003939851827440277 -0.007896243259051194
vn 0.065939159882526 -0.006878983504392866 -0.007887424988529687
vn 0.06494966317168019 -0.013297912390759947 -0.00788742498852969
vn 0.06333582647070082 -0.01958895404772687 -0.007896243259051191
vn 0.061113191909229675 -0.025691522305103076 -0.007913794875328301
vn 0.058303164673111474 -0.031546846094567926 -0.007939910805701885
vn 0.05493280686074503 -0.03709853544718167 -0.007974339539485703
vn 0.051034576860290115 -0.04229312455961781 -0.008016749509152994
vn 0.04664601675764024 -0.04708058669907261 -0.008066732283512228
vn 0.041809390785613465 -0.05141481598804848 -0.00812380650112271
vn 0.03657127829629059 -0.05525407142916339 -0.008187422506069148
vn 0.03098212517638732 -0.058561378893768834 -0.008256967641447871
vn 0.025095758025788895 -0.061304887203020936 -0.008331772149587708
vn 0.018968865777972632 -0.06345817487214898 -0.008411115622183198
vn 0.012660453754584355 -0.06500050456379262 -0.008494233938219692
vn 0.006231275411937909 -0.06591702279989636 -0.00858032662287644
vn -0.00025675274798020453 -0.06619890300882897 -0.008668564556537441
vn -0.0067411474672732785 -0.06584343053008476 -0.008758097959665487
vn -0.013159460480063667 -0.0648540287579572 -0.008848064576644797
vn 0.019449879923431723 0.06324022617237227 0.0089375979797729
vn 0.025551825619444135 0.061017564574424255 0.009025835913433825
vn 0.03140653249538594 0.058207449410331624 0.009111928598090645
vn 0.036957616523533354 0.05483694362528968 0.009195046914127057
vn 0.042151617730164126 0.05093850703251451 0.00927439038672255
vn 0.04693851504432872 0.04654968370749624 0.00934919489486246
vn 0.051272208028107225 0.041712740418030414 0.009418740030241124
vn 0.05511096084902822 0.036474259572136014 0.009482356035187538
vn 0.05841780421895082 0.03088469060400445 0.009539430252798131
vn 0.061160891428517716 0.02499786411836802 0.00958941302715725
vn 0.06331380504837747 0.018870473472349714 0.009631822996824576
vn 0.06485581134346784 0.012561528787443543 0.009666251730608469
vn 0.06577205995022094 0.006131788649784697 0.009692367660981941
vn 0.06605372689368152 -0.00035682502824729845 0.00970991927725913
vn 0.06569809956720923 -0.006841823349895804 0.009718737547780585
vn 0.06470860285636337 -0.013260752236263107 0.009718737547780586
vn 0.06309476615538331 -0.01955179389323003 0.009709919277259137
vn 0.06087213159391269 -0.025654362150606125 0.009692367660981936
vn 0.05806210435779413 -0.031509685940071086 0.009666251730608484
vn 0.054691746545428244 -0.03706137529268483 0.009631822996824566
vn 0.05079351654497294 -0.04225596440512103 0.009589413027157226
vn 0.0464049564423229 -0.047043426544575384 0.009539430252798117
vn 0.04156833047029662 -0.05137765583355203 0.00948235603518758
vn 0.0363302179809738 -0.055216911274666824 0.009418740030241124
vn 0.030741064861069978 -0.05852421873927166 0.00934919489486246
vn 0.024854697710471885 -0.06126772704852418 0.00927439038672253
vn 0.018727805462655622 -0.06342101471765235 0.009195046914127064
vn 0.012419393439267123 -0.06496334440929552 0.009111928598090662
vn 0.005990215096620788 -0.06587986264539947 0.009025835913433793
vn -0.0004978130632974365 -0.06616174285433182 0.008937597979772904
vn -0.006982207782590288 -0.0658062703755882 0.008848064576644783
vn -0.013400520795380899 -0.06481686860346023 0.00875809795966553
vn -0.019690940238748844 -0.0632030660178755 0.008668564556537405
vn -0.025792885934761034 -0.06098040441992719 0.00858032662287643
vn -0.03164759281070306 -0.05817028925583495 0.008494233938219672
vn -0.0371986768388507 -0.05479978347079284 0.00841111562218324
vn -0.04239267804548119 -0.05090134687801745 0.008331772149587718
vn -0.04717957535964584 -0.04651252355299945 0.008256967641447815
vn -0.0515132683434244 -0.04167558026353363 0.0081874225060692
vn -0.05535202116434507 -0.03643709941763906 0.008123806501122696
vn -0.05865886453426822 -0.030847530449507943 0.008066732283512231
vn -0.06140195174383478 -0.024960703963870956 0.008016749509153005
vn -0.06355486536369412 -0.018833313317852984 0.007974339539485693
vn -0.06509687165878521 -0.012524368632946592 0.007939910805701871
vn -0.06601312026553792 -0.006094628495287968 0.007913794875328312
vn -0.06629478720899906 0.0003939851827440277 0.007896243259051194
vn -0.065939159882526 0.006878983504392866 0.007887424988529687
vn -0.06494966317168019 0.013297912390759947 0.00788742498852969
vn -0.06333582647070082 0.01958895404772687 0.007896243259051191
vn -0.061113191909229675 0.025691522305103076 0.007913794875328301
vn -0.058303164673111474 0.031546846094567926 0.007939910805701885
vn -0.05493280686074503 0.03709853544718167 0.007974339539485703
vn -0.051034576860290115 0.04229312455961781 0.008016749509152994
vn -0.04664601675764024 0.04708058669907261 0.008066732283512228
vn -0.041809390785613465 0.05141481598804848 0.00812380650112271
vn -0.03657127829629059 0.05525407142916339 0.008187422506069148
vn -0.03098212517638732 0.058561378893768834 0.008256967641447871
vn -0.025095758025788895 0.061304887203020936 0.008331772149587708
vn -0.018968865777972632 0.06345817487214898 0.008411115622183198
vn -0.012660453754584355 0.06500050456379262 0.008494233938219692
vn -0.006231275411937909 0.06591702279989636 0.00858032662287644
vn 0.00025675274798020453 0.06619890300882897 0.008668564556537441
vn 0.0067411474672732785 0.06584343053008476 0.008758097959665487
vn 0.013159460480063667 0.0648540287579572 0.008848064576644797
v 0 0 0
v 0 0 0
v 0 0 0
v 0 0 0
v 0 0 0
v 0 0 0
v 0 0 0
v 0 0 0
v 0 0 0
v 0 0 0
v 0 0 0
v 0 0 0
v 0 0 0
v 0 0 0
v 0 0 0
v 0 0 0
v 0 0 0
v 0 0 0
v 0 0 0
v 0 0 0
v 0 0 0
v 0 0 0
v 0 0 0
v 0 0 0
v 0 0 0
v 0 0 0
v 0 0 0
v 0 0 0
v 0 0 0
v 0 0 0
v 0 0 0
v 0 0 0
v 0 0 0
v 0 0 0
v 0 0 0
v 0 0 0
v 0 0 0
v 0 0 0
v 0 0 0
v 0 0 0
v 0 0 0
v 0 0 0
v 0 0 0
v 0 0 0
v 0 0 0
v 0 0 0
v 0 0 0
v 0 0 0
v 0 0 0
v 0 0 0
v 0 0 0
v 0 0 0
v 0 0 0
v 0 0 0
v 0 0 0
v 0 0 0
v 0 0 0
v 0 0 0
v 0 0 0
v 0 0 0
v 0 0 0
v 0 0 0
v 0 0 0
v 0 0 0
v 0.10527711557526365 0.2855513398628214 -2.249593080699717
v 0.13337010714345093 0.27685423041297613 -2.2491900802547407
v 0.1604753559082928 0.2654451286353596 -2.248794879779658
v 0.18633182350694763 0.2514339104169396 -2.2484112852710836
v 0.21069049802185738 0.2349555114484705 -2.248042990953828
v 0.23331679210163753 0.21616862772002787 -2.2476935437034973
v 0.25399280216550923 0.1952541871918719 -2.247366308888139
v 0.27251940693390064 0.17241360735928488 -2.24706443795791
v 0.2887181850752197 0.1478668554919857 -2.2467908380948876
v 0.30243313350081275 0.12185033022907589 -2.246548144215318
v 0.31353216975998777 0.09461458493091678 -2.246338693593931
v 0.3219084040662186 0.06642191471330235 -2.2461645033547084
v 0.3274811687042208 0.03754383040210954 -2.2460272510448753
v 0.33019679490414716 0.00825844373562189 -2.2459282584792057
v 0.33002912970118037 -0.02115221100354161 -2.245868479010222
v 0.32697978780288006 -0.05040489313274357 -2.2458484883468883
v 0.3210781360386667 -0.07921788333193704 -2.245868479010222
v 0.31238101054120054 -0.10731369675472106 -2.2459282584792057
v 0.30097216938335486 -0.1344217553591004 -2.2460272510448753
v 0.28696148594218635 -0.16028099372194274 -2.2461645033547084
v 0.2704838907582524 -0.1846423732417162 -2.246338693593931
v 0.2516980720807441 -0.20727128051636057 -2.246548144215318
v 0.23078494761289872 -0.22794978679860223 -2.2467908380948876
v 0.20794592217561841 -0.2464787467689217 -2.24706443795791
v 0.18340094806894555 -0.26267971641384497 -2.247366308888139
v 0.1573864068111751 -0.27639667153934044 -2.2476935437034973
v 0.13015283265561425 -0.28749751036909926 -2.248042990953828
v 0.10196249980876693 -0.2958753257568551 -2.2484112852710836
v 0.07308689658635176 -0.30144943476064406 -2.248794879779658
v 0.0438041108324112 -0.30416615566364175 -2.2491900802547407
v 0.014396151781354404 -0.3039993249584415 -2.249593080699717
v -0.01485376584513114 -0.30095054931593357 -2.25
v -0.043663949350670916 -0.2950491901121854 -2.250406919300283
v -0.07175694091885823 -0.28635208066234014 -2.2508099197452593
v -0.0988621896837 -0.2749429788847237 -2.251205120220342
v -0.1247186572823549 -0.26093176066630364 -2.2515887147289164
v -0.14907733179726465 -0.24445336169783444 -2.251957009046172
v -0.17170362587704474 -0.22566647796939188 -2.2523064562965027
v -0.19237963594091642 -0.2047520374412359 -2.252633691111861
v -0.21090624070930789 -0.18191145760864885 -2.25293556204209
v -0.22710501885062692 -0.15736470574134978 -2.2532091619051124
v -0.24081996727622004 -0.13134818047843982 -2.253451855784682
v -0.2519190035353951 -0.10411243518028075 -2.253661306406069
v -0.2602952378416259 -0.07591976496266649 -2.2538354966452916
v -0.26586800247962805 -0.047041680651473565 -2.2539727489551247
v -0.26858362867955454 -0.017756293984985957 -2.2540717415207943
v -0.26841596347658775 0.011654360754177744 -2.254131520989778
v -0.2653666215782874 0.04090704288337956 -2.2541515116531117
v -0.259464969814074 0.0697200330825729 -2.254131520989778
v -0.25076784431660787 0.09781584650535712 -2.2540717415207943
v -0.23935900315876216 0.1249239051097364 -2.2539727489551247
v -0.2253483197175936 0.15078314347257885 -2.2538354966452916
v -0.2088707245336597 0.1751445229923522 -2.253661306406069
v -0.19008490585615137 0.19777343026699656 -2.253451855784682
v -0.16917178138830588 0.21845193654923836 -2.2532091619051124
v -0.1463327559510257 0.23698089651955773 -2.25293556204209
v -0.12178778184435296 0.25318186616448085 -2.252633691111861
v -0.09577324058658238 0.26689882128997644 -2.2523064562965027
v -0.06853966643102156 0.2779996601197352 -2.251957009046172
v -0.04034933358417435 0.28637747550749104 -2.2515887147289164
v -0.011473730361759079 0.29195158451128006 -2.251205120220342
v 0.017809055392181496 0.29466830541427774 -2.2508099197452593
v 0.04721701444323842 0.29450147470907756 -2.250406919300283
v 0.07646693206972383 0.29145269906656956 -2.25
f 1//1 65//1 66//1 2//1
f 2//65 66//65 65//65 1//65
f 2//2 66//2 67//2 3//2
f 3//66 67//66 66//66 2//66
f 3//3 67//3 68//3 4//3
f 4//67 68//67 67//67 3//67
f 4//4 68//4 69//4 5//4
f 5//68 69//68 68//68 4//68
f 5//5 69//5 70//5 6//5
f 6//69 70//69 69//69 5//69
f 6//6 70//6 71//6 7//6
f 7//70 71//70 70//70 6//70
f 7//7 71//7 72//7 8//7
f 8//71 72//71 71//71 7//71
f 8//8 72//8 73//8 9//8
f 9//72 73//72 72//72 8//72
f 9//9 73//9 74//9 10//9
f 10//73 74//73 73//73 9//73
f 10//10 74//10 75//10 11//10
f 11//74 75//74 74//74 10//74
f 11//11 75//11 76//11 12//11
f 12//75 76//75 75//75 11//75
f 12//12 76//12 77//12 13//12
f 13//76 77//76 76//76 12//76
f 13//13 77//13 78//13 14//13
f 14//77 78//77 77//77 13//77
f 14//14 78//14 79//14 15//14
f 15//78 79//78 78//78 14//78
f 15//15 79//15 80//15 16//15
f 16//79 80//79 79//79 15//79
f 16//16 80//16 81//16 17//16
f 17//80 81//80 80//80 16//80
f 17//17 81//17 82//17 18//17
f 18//81 82//81 81//81 17//81
f 18//18 82//18 83//18 19//18
f 19//82 83//82 82//82 18//82
f 19//19 83//19 84//19 20//19
f 20//83 84//83 83//83 19//83
f 20//20 84//20 85//20 21//20
f 21//84 85//84 84//84 20//84
f 21//21 85//21 86//21 22//21
f 22//85 86//85 85//85 21//85
f 22//22 86//22 87//22 23//22
f 23//86 87//86 86//86 22//86
f 23//23 87//23 88//23 24//23
f 24//87 88//87 87//87 23//87
f 24//24 88//24 89//24 25//24
f 25//88 89//88 88//88 24//88
f 25//25 89//25 90//25 26//25
f 26//89 90//89 89//89 25//89
f 26//26 90//26 91//26 27//26
f 27//90 91//90 90//90 26//90
f 27//27 91//27 92//27 28//27
f 28//91 92//91 91//91 27//91
f 28//28 92//28 93//28 29//28
f 29//92 93//92 92//92 28//92
f 29//29 93//29 94//29 30//29
f 30//93 94//93 93//93 29//93
f 30//30 94//30 95//30 31//30
f 31//94 95//94 94//94 30//94
f 31//31 95//31 96//31 32//31
f 32//95 96//95 95//95 31//95
f 32//32 96//32 97//32 33//32
f 33//96 97//96 96//96 32//96
f 33//33 97//33 98//33 34//33
f 34//97 98//97 97//97 33//97
f 34//34 98//34 99//34 35//34
f 35//98 99//98 98//98 34//98
f 35//35 99//35 100//35 36//35
f 36//99 100//99 99//99 35//99
f 36//36 100//36 101//36 37//36
f 37//100 101//100 100//100 36//100
f 37//37 101//37 102//37 38//37
f 38//101 102//101 101//101 37//101
f 38//38 102//38 103//38 39//38
f 39//102 103//102 102//102 38//102
f 39//39 103//39 104//39 40//39
f 40//103 104//103 103//103 39//103
f 40//40 104//40 105//40 41//40
f 41//104 105//104 104//104 40//104
f 41//41 105//41 106//41 42//41
f 42//105 106//105 105//105 41//105
f 42//42 106//42 107//42 43//42
f 43//106 107//106 106//106 42//106
f 43//43 107//43 108//43 44//43
f 44//107 108//107 107//107 43//107
f 44//44 108//44 109//44 45//44
f 45//108 109//108 108//108 44//108
f 45//45 109//45 110//45 46//45
f 46//109 110//109 109//109 45//109
f 46//46 110//46 111//46 47//46
f 47//110 111//110 110//110 46//110
f 47//47 111//47 112//47 48//47
f 48//111 112//111 111//111 47//111
f 48//48 112//48 113//48 49//48
f 49//112 113//112 112//112 48//112
f 49//49 113//49 114//49 50//49
f 50//113 114//113 113//113 49//113
f 50//50 114//50 115//50 51//50
f 51//114 115//114 114//114 50//114
f 51//51 115//51 116//51 52//51
f 52//115 116//115 115//115 51//115
f 52//52 116//52 117//52 53//52
f 53//116 117//116 116//116 52//116
f 53//53 117//53 118//53 54//53
f 54//117 118//117 117//117 53//117
f 54//54 118//54 119//54 55//54
f 55//118 119//118 118//118 54//118
f 55//55 119//55 120//55 56//55
f 56//119 120//119 119//119 55//119
f 56//56 120//56 121//56 57//56
f 57//120 121//120 120//120 56//120
f 57//57 121//57 122//57 58//57
f 58//121 122//121 121//121 57//121
f 58//58 122//58 123//58 59//58
f 59//122 123//122 122//122 58//122
f 59//59 123//59 124//59 60//59
f 60//123 124//123 123//123 59//123
f 60//60 124//60 125//60 61//60
f 61//124 125//124 124//124 60//124
f 61//61 125//61 126//61 62//61
f 62//125 126//125 125//125 61//125
f 62//62 126//62 127//62 63//62
f 63//126 127//126 126//126 62//126
f 63//63 127//63 128//63 64//63
f 64//127 128//127 127//127 63//127
f 64//64 128//64 65//64 1//64
f 1//128 65//128 128//128 64//128