o Jets_6
vn -0.03407313677554891 0.04609505991885965 -0.012048903049503012
vn -0.02976869825612871 0.048112610133029365 -0.015162803621608933
vn -0.025214590511204227 0.04963725751161352 -0.01820099874794967
vn -0.02045467208788687 0.050654318866899084 -0.021134228948612388
vn -0.015534783602629831 0.05115399934205178 -0.023934245613297378
vn -0.01050230627103077 0.051131486740943366 -0.02657408305087927
vn -0.005405705600824096 0.050586997872228645 -0.02902831818375229
vn -0.00029406464255088416 0.049525776461361914 -0.03127331538596512
vn 0.004783388707055414 0.04795804265065162 -0.03328745410722056
vn 0.009777755796618104 0.045898894573705995 -0.03505133709059227
vn 0.014640938140866977 0.04336816295215096 -0.036547977178714386
vn 0.019326100635341126 0.04039022011493976 -0.03776296090939124
vn 0.0237881226040475 0.03699374527950483 -0.03868458732511859
vn 0.027984032336238585 0.0332114483552135 -0.03930398065970098
vn 0.031873420927476026 0.02907975492906001 -0.039615175816731796
vn 0.03541883143947011 0.02463845546735155 -0.039615175816731796
vn 0.03858611963087144 0.01993032211176593 -0.03930398065970109
vn 0.041344782784981104 0.015000696760244736 -0.03868458732511848
vn 0.04366825346758674 0.009897054399730543 -0.03776296090939113
vn 0.04553415538587591 0.004668545896090226 -0.0365479771787145
vn 0.0469245188843701 -0.0006344753555937999 -0.03505133709059216
vn 0.0478259540025292 -0.00596093836174072 -0.03328745410722045
vn 0.048229779427390373 -0.011259546371860107 -0.03127331538596534
vn 0.04813210609935825 -0.016479270894301123 -0.029028318183752178
vn 0.04753387466597658 -0.021569843128521837 -0.02657408305087927
vn 0.04644084642297441 -0.02648223808111516 -0.02393424561329749
vn 0.044863547829842365 -0.031169146703300843 -0.021134228948612277
vn 0.04281716913427136 -0.03558543150292204 -0.01820099874794967
vn 0.04032141808176404 -0.03968856124317033 -0.015162803621609044
vn 0.037400330119272795 -0.04343902054165061 -0.012048903049503012
vn 0.03408203692070477 -0.04680069042510682 -0.008889285596372143
vn 0.03039849546352602 -0.04974119617488615 -0.005714380105512951
vn 0.026385180265598107 -0.052232219113174994 -0.0025547626523821365
vn 0.022080741746177912 -0.05424976932734471 0.00055913791972384
vn 0.017526634001253427 -0.055774416705929086 0.0035973330460647435
vn 0.012766715577936072 -0.05679147806121465 0.00653056324672735
vn 0.007846827092679032 -0.057291158536366904 0.009330579911412284
vn 0.0028143497610797485 -0.05726864593525871 0.011970417348994344
vn -0.002282250909126371 -0.05672415706654421 0.01442465248186714
vn -0.0073938918674001375 -0.05566293565567704 0.01666964968408008
vn -0.012471345217005991 -0.05409520184496719 0.018683788405335522
vn -0.017465712306569015 -0.05203605376802134 0.02044767138870729
vn -0.022328894650818 -0.04950532214646586 0.021944311476829292
vn -0.027014057145291703 -0.04652737930925577 0.023159295207506203
vn -0.03147607911399808 -0.0431309044738204 0.024080921623233442
vn -0.035671988846189495 -0.03934860754952907 0.02470031495781616
vn -0.039561377437426826 -0.03521691412337513 0.025011510114846647
vn -0.04310678794942069 -0.030775614661667117 0.025011510114846647
vn -0.04627407614082235 -0.026067481306081497 0.024700314957816105
vn -0.04903273929493168 -0.02113785595456008 0.024080921623233442
vn -0.0513562099775382 -0.01603421359404633 0.02315929520750637
vn -0.05322211189582626 -0.010805705090405349 0.021944311476829126
vn -0.0546124753943209 -0.005502683838721989 0.02044767138870729
vn -0.05551391051248045 -0.00017622083257506915 0.018683788405335577
vn -0.05591773593734062 0.005122387177544319 0.01666964968408008
vn -0.05582006260930927 0.010342111699985779 0.014424652481867195
vn -0.055221831175927605 0.015432683934206493 0.011970417348994289
vn -0.05412880293292499 0.020345078886799817 0.00933057991141234
vn -0.052551504339793054 0.025031987508985276 0.0065305632467272945
vn -0.05050512564422238 0.029448272308606693 0.003597333046064688
vn -0.04800937459171517 0.033551402048854984 0.000559137919724062
vn -0.045088286629223706 0.03730186134733526 -0.002554762652382192
vn -0.04176999343065546 0.04066353123079125 -0.00571438010551284
vn -0.03808645197347693 0.043604036980570804 -0.008889285596372143
vn 0.03407313677554891 -0.04609505991885965 0.012048903049503012
vn 0.02976869825612871 -0.048112610133029365 0.015162803621608933
vn 0.025214590511204227 -0.04963725751161352 0.01820099874794967
vn 0.02045467208788687 -0.050654318866899084 0.021134228948612388
vn 0.015534783602629831 -0.05115399934205178 0.023934245613297378
vn 0.01050230627103077 -0.051131486740943366 0.02657408305087927
vn 0.005405705600824096 -0.050586997872228645 0.02902831818375229
vn 0.00029406464255088416 -0.049525776461361914 0.03127331538596512
vn -0.004783388707055414 -0.04795804265065162 0.03328745410722056
vn -0.009777755796618104 -0.045898894573705995 0.03505133709059227
vn -0.014640938140866977 -0.04336816295215096 0.036547977178714386
vn -0.019326100635341126 -0.04039022011493976 0.03776296090939124
vn -0.0237881226040475 -0.03699374527950483 0.03868458732511859
vn -0.027984032336238585 -0.0332114483552135 0.03930398065970098
vn -0.031873420927476026 -0.02907975492906001 0.039615175816731796
vn -0.03541883143947011 -0.02463845546735155 0.039615175816731796
vn -0.03858611963087144 -0.01993032211176593 0.03930398065970109
vn -0.041344782784981104 -0.015000696760244736 0.03868458732511848
vn -0.04366825346758674 -0.009897054399730543 0.03776296090939113
vn -0.04553415538587591 -0.004668545896090226 0.0365479771787145
vn -0.0469245188843701 0.0006344753555937999 0.03505133709059216
vn -0.0478259540025292 0.00596093836174072 0.03328745410722045
vn -0.048229779427390373 0.011259546371860107 0.03127331538596534
vn -0.04813210609935825 0.016479270894301123 0.029028318183752178
vn -0.04753387466597658 0.021569843128521837 0.02657408305087927
vn -0.04644084642297441 0.02648223808111516 0.02393424561329749
vn -0.044863547829842365 0.031169146703300843 0.021134228948612277
vn -0.04281716913427136 0.03558543150292204 0.01820099874794967
vn -0.04032141808176404 0.03968856124317033 0.015162803621609044
vn -0.037400330119272795 0.04343902054165061 0.012048903049503012
vn -0.03408203692070477 0.04680069042510682 0.008889285596372143
vn -0.03039849546352602 0.04974119617488615 0.005714380105512951
vn -0.026385180265598107 0.052232219113174994 0.0025547626523821365
vn -0.022080741746177912 0.05424976932734471 -0.00055913791972384
vn -0.017526634001253427 0.055774416705929086 -0.0035973330460647435
vn -0.012766715577936072 0.05679147806121465 -0.00653056324672735
vn -0.007846827092679032 0.057291158536366904 -0.009330579911412284
vn -0.0028143497610797485 0.05726864593525871 -0.011970417348994344
vn 0.002282250909126371 0.05672415706654421 -0.01442465248186714
vn 0.0073938918674001375 0.05566293565567704 -0.01666964968408008
vn 0.012471345217005991 0.05409520184496719 -0.018683788405335522
vn 0.017465712306569015 0.05203605376802134 -0.02044767138870729
vn 0.022328894650818 0.04950532214646586 -0.021944311476829292
vn 0.027014057145291703 0.04652737930925577 -0.023159295207506203
vn 0.03147607911399808 0.0431309044738204 -0.024080921623233442
vn 0.035671988846189495 0.03934860754952907 -0.02470031495781616
vn 0.039561377437426826 0.03521691412337513 -0.025011510114846647
vn 0.04310678794942069 0.030775614661667117 -0.025011510114846647
vn 0.04627407614082235 0.026067481306081497 -0.024700314957816105
vn 0.04903273929493168 0.02113785595456008 -0.024080921623233442
vn 0.0513562099775382 0.01603421359404633 -0.02315929520750637
vn 0.05322211189582626 0.010805705090405349 -0.021944311476829126
vn 0.0546124753943209 0.005502683838721989 -0.02044767138870729
vn 0.05551391051248045 0.00017622083257506915 -0.018683788405335577
vn 0.05591773593734062 -0.005122387177544319 -0.01666964968408008
vn 0.05582006260930927 -0.010342111699985779 -0.014424652481867195
vn 0.055221831175927605 -0.015432683934206493 -0.011970417348994289
vn 0.05412880293292499 -0.020345078886799817 -0.00933057991141234
vn 0.052551504339793054 -0.025031987508985276 -0.0065305632467272945
vn 0.05050512564422238 -0.029448272308606693 -0.003597333046064688
vn 0.04800937459171517 -0.033551402048854984 -0.000559137919724062
vn 0.045088286629223706 -0.03730186134733526 0.002554762652382192
vn 0.04176999343065546 -0.04066353123079125 0.00571438010551284
vn 0.03808645197347693 -0.043604036980570804 0.008889285596372143
v 0 0 0
v 0 0 0
v 0 0 0
v 0 0 0
v 0 0 0
v 0 0 0
v 0 0 0
v 0 0 0
v 0 0 0
v 0 0 0
v 0 0 0
v 0 0 0
v 0 0 0
v 0 0 0
v 0 0 0
v 0 0 0
v 0 0 0
v 0 0 0
v 0 0 0
v 0 0 0
v 0 0 0
v 0 0 0
v 0 0 0
v 0 0 0
v 0 0 0
v 0 0 0
v 0 0 0
v 0 0 0
v 0 0 0
v 0 0 0
v 0 0 0
v 0 0 0
v 0 0 0
v 0 0 0
v 0 0 0
v 0 0 0
v 0 0 0
v 0 0 0
v 0 0 0
v 0 0 0
v 0 0 0
v 0 0 0
v 0 0 0
v 0 0 0
v 0 0 0
v 0 0 0
v 0 0 0
v 0 0 0
v 0 0 0
v 0 0 0
v 0 0 0
v 0 0 0
v 0 0 0
v 0 0 0
v 0 0 0
v 0 0 0
v 0 0 0
v 0 0 0
v 0 0 0
v 0 0 0
v 0 0 0
v 0 0 0
v 0 0 0
v 0 0 0
v -0.6926409043554445 -0.9345586265761698 -1.616585969631169
v -0.7141907414230504 -0.9462395467073135 -1.6003323877292939
v -0.7371416768726448 -0.9554167577163283 -1.5843933897220148
v -0.7612726806495904 -0.9620018780444235 -1.5689224768732841
v -0.7863513579961671 -0.9659314893830464 -1.5540686425310966
v -0.8121361875401275 -0.9671677474268623 -1.5399749372400993
v -0.8383788472775417 -0.9656987463351017 -1.5267770910866474
v -0.8648266060494415 -0.9615386333913158 -1.5146022065438756
v -0.8912247574810377 -0.9547274727573027 -1.5035675344053991
v -0.9173190729433466 -0.9453308596333269 -1.4937793445960774
v -0.9428582499138622 -0.9334392885404834 -1.4853319027345426
v -0.9675963321572245 -0.9191672818089904 -1.478306562303763
v -0.9912950784182184 -0.9026522866655446 -1.472770981172529
v -1.0137262568152978 -0.8840533515413922 -1.4687784700131903
v -1.0346738428383697 -0.8635495943489909 -1.4663674788907402
v -1.0539360997829166 -0.8413384774785974 -1.4655612269676697
v -1.0713275215847415 -0.8176339061275049 -1.4663674788907402
v -1.086680619344775 -0.7926641682760615 -1.4687784700131903
v -1.0998475343387304 -0.7666697361496236 -1.472770981172529
v -1.1107014619774485 -0.7399009503395709 -1.478306562303763
v -1.1191378730044081 -0.7126156088865612 -1.4853319027345426
v -1.1250755201696079 -0.6850764845444718 -1.4937793445960772
v -1.128457220684999 -0.6575487941351336 -1.5035675344053991
v -1.1292504069259928 -0.6302976443653547 -1.5146022065438756
v -1.1274474400754886 -0.6035854787044123 -1.5267770910866474
v -1.1230656836898587 -0.577669549909976 -1.5399749372400993
v -1.1161473364784087 -0.5527994425434242 -1.5540686425310966
v -1.106759025906738 -0.5292146693340803 -1.5689224768732841
v -1.094991166537824 -0.5071423645406989 -1.5843933897220148
v -1.0809570892903564 -0.48679509652438935 -1.6003323877292939
v -1.0647919500000347 -0.46836882059909674 -1.616585969631169
v -1.0466514277949888 -0.45204099187480873 -1.6329976045488133
v -1.0267102258206717 -0.43796885626783943 -1.6494092394664575
v -1.0051603887530658 -0.42628793613669574 -1.6656628213683327
v -0.9822094533034715 -0.417110725127681 -1.6816018193756117
v -0.9580784495265258 -0.41052560479958583 -1.6970727322243424
v -0.9329997721799491 -0.40659599346096287 -1.71192656656653
v -0.9072149426359888 -0.405359735417147 -1.7260202718575273
v -0.8809722828985744 -0.4068287365089076 -1.739218118010979
v -0.8545245241266747 -0.4109888494526933 -1.751393002553751
v -0.8281263726950786 -0.41780001008670653 -1.7624276746922274
v -0.8020320572327696 -0.4271966232106824 -1.772215864501549
v -0.7764928802622539 -0.43908819430352586 -1.780663306363084
v -0.7517547980188918 -0.45336020103501884 -1.7876886467938633
v -0.7280560517578978 -0.4698751961784646 -1.7932242279250976
v -0.7056248733608184 -0.48847413130261697 -1.7972167390844362
v -0.6846772873377464 -0.5089778884950183 -1.7996277302068864
v -0.6654150303931996 -0.5311890053654119 -1.8004339821299569
v -0.6480236085913746 -0.5548935767165043 -1.7996277302068864
v -0.6326705108313413 -0.5798633145679478 -1.7972167390844362
v -0.6195035958373858 -0.6058577466943855 -1.7932242279250976
v -0.6086496681986675 -0.6326265325044385 -1.7876886467938633
v -0.6002132571717081 -0.659911873957448 -1.780663306363084
v -0.5942756100065083 -0.6874509982995374 -1.7722158645015493
v -0.5908939094911172 -0.7149786887088758 -1.7624276746922274
v -0.5901007232501234 -0.7422298384786544 -1.7513930025537512
v -0.5919036901006276 -0.7689420041395969 -1.7392181180109791
v -0.5962854464862575 -0.7948579329340333 -1.7260202718575273
v -0.6032037936977075 -0.819728040300585 -1.71192656656653
v -0.6125921042693783 -0.8433128135099288 -1.6970727322243426
v -0.6243599636382922 -0.8653851183033103 -1.681601819375612
v -0.6383940408857598 -0.8857323863196199 -1.6656628213683327
v -0.6545591801760816 -0.9041586622449126 -1.6494092394664575
v -0.6726997023811273 -0.9204864909692005 -1.6329976045488133
f 1//1 65//1 66//1 2//1
f 2//65 66//65 65//65 1//65
f 2//2 66//2 67//2 3//2
f 3//66 67//66 66//66 2//66
f 3//3 67//3 68//3 4//3
f 4//67 68//67 67//67 3//67
f 4//4 68//4 69//4 5//4
f 5//68 69//68 68//68 4//68
f 5//5 69//5 70//5 6//5
f 6//69 70//69 69//69 5//69
f 6//6 70//6 71//6 7//6
f 7//70 71//70 70//70 6//70
f 7//7 71//7 72//7 8//7
f 8//71 72//71 71//71 7//71
f 8//8 72//8 73//8 9//8
f 9//72 73//72 72//72 8//72
f 9//9 73//9 74//9 10//9
f 10//73 74//73 73//73 9//73
f 10//10 74//10 75//10 11//10
f 11//74 75//74 74//74 10//74
f 11//11 75//11 76//11 12//11
f 12//75 76//75 75//75 11//75
f 12//12 76//12 77//12 13//12
f 13//76 77//76 76//76 12//76
f 13//13 77//13 78//13 14//13
f 14//77 78//77 77//77 13//77
f 14//14 78//14 79//14 15//14
f 15//78 79//78 78//78 14//78
f 15//15 79//15 80//15 16//15
f 16//79 80//79 79//79 15//79
f 16//16 80//16 81//16 17//16
f 17//80 81//80 80//80 16//80
f 17//17 81//17 82//17 18//17
f 18//81 82//81 81//81 17//81
f 18//18 82//18 83//18 19//18
f 19//82 83//82 82//82 18//82
f 19//19 83//19 84//19 20//19
f 20//83 84//83 83//83 19//83
f 20//20 84//20 85//20 21//20
f 21//84 85//84 84//84 20//84
f 21//21 85//21 86//21 22//21
f 22//85 86//85 85//85 21//85
f 22//22 86//22 87//22 23//22
f 23//86 87//86 86//86 22//86
f 23//23 87//23 88//23 24//23
f 24//87 88//87 87//87 23//87
f 24//24 88//24 89//24 25//24
f 25//88 89//88 88//88 24//88
f 25//25 89//25 90//25 26//25
f 26//89 90//89 89//89 25//89
f 26//26 90//26 91//26 27//26
f 27//90 91//90 90//90 26//90
f 27//27 91//27 92//27 28//27
f 28//91 92//91 91//91 27//91
f 28//28 92//28 93//28 29//28
f 29//92 93//92 92//92 28//92
f 29//29 93//29 94//29 30//29
f 30//93 94//93 93//93 29//93
f 30//30 94//30 95//30 31//30
f 31//94 95//94 94//94 30//94
f 31//31 95//31 96//31 32//31
f 32//95 96//95 95//95 31//95
f 32//32 96//32 97//32 33//32
f 33//96 97//96 96//96 32//96
f 33//33 97//33 98//33 34//33
f 34//97 98//97 97//97 33//97
f 34//34 98//34 99//34 35//34
f 35//98 99//98 98//98 34//98
f 35//35 99//35 100//35 36//35
f 36//99 100//99 99//99 35//99
f 36//36 100//36 101//36 37//36
f 37//100 101//100 100//100 36//100
f 37//37 101//37 102//37 38//37
f 38//101 102//101 101//101 37//101
f 38//38 102//38 103//38 39//38
f 39//102 103//102 102//102 38//102
f 39//39 103//39 104//39 40//39
f 40//103 104//103 103//103 39//103
f 40//40 104//40 105//40 41//40
f 41//104 105//104 104//104 40//104
f 41//41 105//41 106//41 42//41
f 42//105 106//105 105//105 41//105
f 42//42 106//42 107//42 43//42
f 43//106 107//106 106//106 42//106
f 43//43 107//43 108//43 44//43
f 44//107 108//107 107//107 43//107
f 44//44 108//44 109//44 45//44
f 45//108 109//108 108//108 44//108
f 45//45 109//45 110//45 46//45
f 46//109 110//109 109//109 45//109
f 46//46 110//46 111//46 47//46
f 47//110 111//110 110//110 46//110
f 47//47 111//47 112//47 48//47
f 48//111 112//111 111//111 47//111
f 48//48 112//48 113//48 49//48
f 49//112 113//112 112//112 48//112
f 49//49 113//49 114//49 50//49
f 50//113 114//113 113//113 49//113
f 50//50 114//50 115//50 51//50
f 51//114 115//114 114//114 50//114
f 51//51 115//51 116//51 52//51
f 52//115 116//115 115//115 51//115
f 52//52 116//52 117//52 53//52
f 53//116 117//116 116//116 52//116
f 53//53 117//53 118//53 54//53
f 54//117 118//117 117//117 53//117
f 54//54 118//54 119//54 55//54
f 55//118 119//118 118//118 54//118
f 55//55 119//55 120//55 56//55
f 56//119 120//119 119//119 55//119
f 56//56 120//56 121//56 57//56
f 57//120 121//120 120//120 56//120
f 57//57 121//57 122//57 58//57
f 58//121 122//121 121//121 57//121
f 58//58 122//58 123//58 59//58
f 59//122 123//122 122//122 58//122
f 59//59 123//59 124//59 60//59
f 60//123 124//123 123//123 59//123
f 60//60 124//60 125//60 61//60
f 61//124 125//124 124//124 60//124
f 61//61 125//61 126//61 62//61
f 62//125 126//125 125//125 61//125
f 62//62 126//62 127//62 63//62
f 63//126 127//126 126//126 62//126
f 63//63 127//63 128//63 64//63
f 64//127 128//127 127//127 63//127
f 64//64 128//64 65//64 1//64
f 1//128 65//128 128//128 64//128