o Jets_21
vn 0.04156264424524936 -0.051634714811106625 0.008396427082341666
vn 0.04643780163131361 -0.047344117798456986 0.008134017922720616
vn 0.0508687573653408 -0.04259582115248223 0.007877988479452765
vn 0.05481283892140554 -0.03743555356556533 0.007630804456036637
vn 0.05823206263806885 -0.031913011235458144 0.007394846369742334
vn 0.06109349952180121 -0.026081379263728055 0.0071723866259286485
vn 0.06336959237119183 -0.0199968194541571 0.006965567633537367
vn 0.06503842116786201 -0.01371792944387018 0.006776381172523983
vn 0.06608391417822551 -0.007305178376056987 0.0066066492119279206
vn 0.06649600273306744 -0.0008203245490667754 0.006458006363314594
vn 0.06627071819433493 0.005674179349765052 0.006331884138572674
vn 0.06541023017528826 0.012115787697635438 0.006229497163671771
vn 0.06392282564594148 0.018442464284813442 0.006151831481150605
vn 0.06182282912501087 0.024593279757250952 0.006099635053988289
vn 0.05913046472696751 0.030508998399570608 0.006073410562311825
vn 0.05587166139276048 0.036132648607386686 0.006073410562311834
vn 0.05207780317994126 0.04141007155499726 0.006099635053988285
vn 0.04778542701703353 0.04629044277448435 0.0061518314811505985
vn 0.04303587083293747 0.05072676162312251 0.006229497163671778
vn 0.03787487545007728 0.054676303925259795 0.006331884138572667
vn 0.03235214407527687 0.05810103342948762 0.0064580063633145925
vn 0.026520863630708158 0.060967968118533035 0.0066066492119279145
vn 0.020437192534754067 0.06324949784411427 0.006776381172523999
vn 0.014159719865741383 0.06492365022776292 0.006965567633537374
vn 0.007748901117088813 0.0659743022668397 0.007172386625928643
vn 0.0012664759778555634 0.0663913356078634 0.007394846369742317
vn -0.0052251262542134524 0.0661707339917868 0.007630804456036651
vn -0.011663387900952782 0.06531462193276538 0.007877988479452765
vn -0.01798630498319176 0.06383124425792591 0.008134017922720595
vn -0.02413298435297173 0.06173488670517424 0.008396427082341673
vn -0.030044230127843685 0.059045738343728726 0.008662688814661285
vn -0.035663113779580424 0.05578969714234794 0.008930238873643762
vn -0.040935522387021916 0.05199812055773456 0.009196500605963387
vn -0.04581067977308584 0.04770752354508501 0.009458909765584375
vn -0.050241635507113414 0.04295922689911014 0.009714939208852295
vn -0.05418571706317832 0.03779895931219335 0.00996212323226841
vn -0.057604940779841185 0.032276416982086054 0.010198081318562677
vn -0.06046637766357374 0.026444785010355853 0.01042054106237639
vn -0.06274247051296439 0.020360225200785287 0.010627360054767686
vn -0.06441129930963437 0.014081335190498256 0.010816546515781015
vn -0.06545679231999826 0.007668584122685007 0.010986278476377174
vn -0.06586888087483993 0.0011837302956947404 0.011134921324990402
vn -0.06564359633610706 -0.005310773603137142 0.011261043549732338
vn -0.06478310831706091 -0.011752381951007473 0.01136343052463333
vn -0.06329570378771393 -0.018079058538185255 0.011441096207154375
vn -0.06119570726678386 -0.024229874010623043 0.01149329263431683
vn -0.058503342868739705 -0.0301455926529427 0.011519517125993188
vn -0.05524453953453268 -0.03576924286075844 0.011519517125993181
vn -0.05145068132171404 -0.041046665808369576 0.01149329263431681
vn -0.04715830515880581 -0.045927037027856166 0.011441096207154347
vn -0.04240874897471014 -0.050363355876494875 0.011363430524633386
vn -0.03724775359184951 -0.0543128981786315 0.011261043549732327
vn -0.031725022217049426 -0.057737627682859505 0.011134921324990402
vn -0.025893741772480827 -0.060604562371905424 0.010986278476377204
vn -0.019810070676526403 -0.06288609209748591 0.010816546515781005
vn -0.01353259800751383 -0.06456024448113462 0.010627360054767616
vn -0.0071217792588613715 -0.06561089652021213 0.010420541062376464
vn -0.0006393541196280106 -0.06602792986123529 0.01019808131856266
vn 0.005852248112440894 -0.06580732824515859 0.00996212323226836
vn 0.012290509759180113 -0.0649512161861377 0.009714939208852337
vn 0.018613426841419423 -0.06346783851129789 0.009458909765584396
vn 0.024760106211199173 -0.06137148095854653 0.009196500605963422
vn 0.03067135198607107 -0.058682332597100414 0.008930238873643736
vn 0.0362902356378082 -0.05542629139572 0.008662688814661295
vn -0.04156264424524936 0.051634714811106625 -0.008396427082341666
vn -0.04643780163131361 0.047344117798456986 -0.008134017922720616
vn -0.0508687573653408 0.04259582115248223 -0.007877988479452765
vn -0.05481283892140554 0.03743555356556533 -0.007630804456036637
vn -0.05823206263806885 0.031913011235458144 -0.007394846369742334
vn -0.06109349952180121 0.026081379263728055 -0.0071723866259286485
vn -0.06336959237119183 0.0199968194541571 -0.006965567633537367
vn -0.06503842116786201 0.01371792944387018 -0.006776381172523983
vn -0.06608391417822551 0.007305178376056987 -0.0066066492119279206
vn -0.06649600273306744 0.0008203245490667754 -0.006458006363314594
vn -0.06627071819433493 -0.005674179349765052 -0.006331884138572674
vn -0.06541023017528826 -0.012115787697635438 -0.006229497163671771
vn -0.06392282564594148 -0.018442464284813442 -0.006151831481150605
vn -0.06182282912501087 -0.024593279757250952 -0.006099635053988289
vn -0.05913046472696751 -0.030508998399570608 -0.006073410562311825
vn -0.05587166139276048 -0.036132648607386686 -0.006073410562311834
vn -0.05207780317994126 -0.04141007155499726 -0.006099635053988285
vn -0.04778542701703353 -0.04629044277448435 -0.0061518314811505985
vn -0.04303587083293747 -0.05072676162312251 -0.006229497163671778
vn -0.03787487545007728 -0.054676303925259795 -0.006331884138572667
vn -0.03235214407527687 -0.05810103342948762 -0.0064580063633145925
vn -0.026520863630708158 -0.060967968118533035 -0.0066066492119279145
vn -0.020437192534754067 -0.06324949784411427 -0.006776381172523999
vn -0.014159719865741383 -0.06492365022776292 -0.006965567633537374
vn -0.007748901117088813 -0.0659743022668397 -0.007172386625928643
vn -0.0012664759778555634 -0.0663913356078634 -0.007394846369742317
vn 0.0052251262542134524 -0.0661707339917868 -0.007630804456036651
vn 0.011663387900952782 -0.06531462193276538 -0.007877988479452765
vn 0.01798630498319176 -0.06383124425792591 -0.008134017922720595
vn 0.02413298435297173 -0.06173488670517424 -0.008396427082341673
vn 0.030044230127843685 -0.059045738343728726 -0.008662688814661285
vn 0.035663113779580424 -0.05578969714234794 -0.008930238873643762
vn 0.040935522387021916 -0.05199812055773456 -0.009196500605963387
vn 0.04581067977308584 -0.04770752354508501 -0.009458909765584375
vn 0.050241635507113414 -0.04295922689911014 -0.009714939208852295
vn 0.05418571706317832 -0.03779895931219335 -0.00996212323226841
vn 0.057604940779841185 -0.032276416982086054 -0.010198081318562677
vn 0.06046637766357374 -0.026444785010355853 -0.01042054106237639
vn 0.06274247051296439 -0.020360225200785287 -0.010627360054767686
vn 0.06441129930963437 -0.014081335190498256 -0.010816546515781015
vn 0.06545679231999826 -0.007668584122685007 -0.010986278476377174
vn 0.06586888087483993 -0.0011837302956947404 -0.011134921324990402
vn 0.06564359633610706 0.005310773603137142 -0.011261043549732338
vn 0.06478310831706091 0.011752381951007473 -0.01136343052463333
vn 0.06329570378771393 0.018079058538185255 -0.011441096207154375
vn 0.06119570726678386 0.024229874010623043 -0.01149329263431683
vn 0.058503342868739705 0.0301455926529427 -0.011519517125993188
vn 0.05524453953453268 0.03576924286075844 -0.011519517125993181
vn 0.05145068132171404 0.041046665808369576 -0.01149329263431681
vn 0.04715830515880581 0.045927037027856166 -0.011441096207154347
vn 0.04240874897471014 0.050363355876494875 -0.011363430524633386
vn 0.03724775359184951 0.0543128981786315 -0.011261043549732327
vn 0.031725022217049426 0.057737627682859505 -0.011134921324990402
vn 0.025893741772480827 0.060604562371905424 -0.010986278476377204
vn 0.019810070676526403 0.06288609209748591 -0.010816546515781005
vn 0.01353259800751383 0.06456024448113462 -0.010627360054767616
vn 0.0071217792588613715 0.06561089652021213 -0.010420541062376464
vn 0.0006393541196280106 0.06602792986123529 -0.01019808131856266
vn -0.005852248112440894 0.06580732824515859 -0.00996212323226836
vn -0.012290509759180113 0.0649512161861377 -0.009714939208852337
vn -0.018613426841419423 0.06346783851129789 -0.009458909765584396
vn -0.024760106211199173 0.06137148095854653 -0.009196500605963422
vn -0.03067135198607107 0.058682332597100414 -0.008930238873643736
vn -0.0362902356378082 0.05542629139572 -0.008662688814661295
v 0 0 0
v 0 0 0
v 0 0 0
v 0 0 0
v 0 0 0
v 0 0 0
v 0 0 0
v 0 0 0
v 0 0 0
v 0 0 0
v 0 0 0
v 0 0 0
v 0 0 0
v 0 0 0
v 0 0 0
v 0 0 0
v 0 0 0
v 0 0 0
v 0 0 0
v 0 0 0
v 0 0 0
v 0 0 0
v 0 0 0
v 0 0 0
v 0 0 0
v 0 0 0
v 0 0 0
v 0 0 0
v 0 0 0
v 0 0 0
v 0 0 0
v 0 0 0
v 0 0 0
v 0 0 0
v 0 0 0
v 0 0 0
v 0 0 0
v 0 0 0
v 0 0 0
v 0 0 0
v 0 0 0
v 0 0 0
v 0 0 0
v 0 0 0
v 0 0 0
v 0 0 0
v 0 0 0
v 0 0 0
v 0 0 0
v 0 0 0
v 0 0 0
v 0 0 0
v 0 0 0
v 0 0 0
v 0 0 0
v 0 0 0
v 0 0 0
v 0 0 0
v 0 0 0
v 0 0 0
v 0 0 0
v 0 0 0
v 0 0 0
v 0 0 0
v -0.09473201767088194 0.2898205397163313 2.251209220109338
v -0.11771884759880819 0.2715123513244392 2.2524067947679964
v -0.13879957175655153 0.25103694752806177 2.2535811906773513
v -0.157771171246577 0.22859151765875252 2.254721097762805
v -0.1744509391948643 0.204392223476073 2.2558155380959883
v -0.18867824031798283 0.17867211741168215 2.2568539716182108
v -0.20031605792868304 0.15167889814702026 2.257826397646988
v -0.20925231348149562 0.12367252513960067 2.2587234511880805
v -0.21540094595039275 0.09492271507132567 2.259536493125508
v -0.2187027406435146 0.06570634432939754 2.26025769342096
v -0.21912589947302188 0.03630478253535403 2.260880106521342
v -0.21666634718806418 0.007001182801800163 2.261397738248253
v -0.21134777062167373 -0.021922245186852735 2.261805603525195
v -0.20322139057361452 -0.05018695300791977 2.2620997743865905
v -0.19236546852608064 -0.07752073607402324 2.2622774178062337
v -0.17888455294284053 -0.10366035511207082 2.2623368229808833
v -0.16290847241037873 -0.1283540713013568 2.2622774178062337
v -0.14459108531763695 -0.1513640706560198 2.2620997743865905
v -0.1241087981156207 -0.17246875430372943 2.261805603525195
v -0.10165886642684227 -0.19146487260396466 2.261397738248253
v -0.07745749536584581 -0.20816948255315953 2.260880106521342
v -0.05173775736576394 -0.22242170962583463 2.26025769342096
v -0.024747347563376265 -0.23408429708422035 2.259536493125508
v 0.003253801640461365 -0.2430449278356736 2.2587234511880805
v 0.03199602387193076 -0.24921730610767878 2.257826397646988
v 0.061202515818845935 -0.2525419885233114 2.2568539716182108
v 0.09059200299786548 -0.2529869565734525 2.2558155380959883
v 0.11988144858152766 -0.25054792497253503 2.254721097762805
v 0.14878877919762212 -0.24524838292818607 2.2535811906773513
v 0.17703560144996142 -0.2371393679273172 2.2524067947679964
v 0.20434988299897194 -0.2262989742172251 2.251209220109338
v 0.23046857238183155 -0.2128316007153001 2.25
v 0.2551401323418553 -0.19686694559038098 2.248790779890662
v 0.2781269622697815 -0.1785587571984888 2.2475932052320036
v 0.2992076864275248 -0.1580833534021115 2.2464188093226487
v 0.3181792859175503 -0.13563792353280224 2.245278902237195
v 0.3348590538658376 -0.11143862935012262 2.2441844619040117
v 0.3490863549889561 -0.08571852328573186 2.2431460283817892
v 0.3607241725996563 -0.05872530402106997 2.242173602353012
v 0.3696604281524689 -0.03071893101365035 2.2412765488119195
v 0.3758090606213661 -0.0019691209453754216 2.240463506874492
v 0.37911085531448796 0.027247249796552825 2.23974230657904
v 0.37953401414399524 0.05664881159059633 2.239119893478658
v 0.3770744618590375 0.08595241132415003 2.238602261751747
v 0.371755885292647 0.11487583931280303 2.238194396474805
v 0.3636295052445879 0.14314054713387003 2.2379002256134095
v 0.352773583197054 0.1704743301999737 2.2377225821937663
v 0.3392926676138138 0.19661394923802117 2.2376631770191167
v 0.32331658708135214 0.221307665427307 2.2377225821937663
v 0.30499919998861025 0.2443176647819702 2.2379002256134095
v 0.2845169127865941 0.26542234842967977 2.238194396474805
v 0.26206698109781545 0.28441846672991505 2.238602261751747
v 0.23786561003681916 0.30112307667910987 2.239119893478658
v 0.21214587203673732 0.31537530375178496 2.23974230657904
v 0.18515546223434948 0.3270378912101708 2.240463506874492
v 0.157154313030512 0.335998521961624 2.2412765488119195
v 0.12841209079904276 0.3421709002336291 2.242173602353012
v 0.0992055988521274 0.3454955826492617 2.2431460283817892
v 0.0698161116731079 0.3459405506994028 2.2441844619040117
v 0.04052666608944583 0.3435015190984854 2.245278902237195
v 0.011619335473351242 0.33820197705413646 2.2464188093226487
v -0.016627486778988065 0.3300929620532676 2.2475932052320036
v -0.04394176832799872 0.3192525683431755 2.248790779890662
v -0.0700604577108582 0.30578519484125055 2.25
f 1//1 65//1 66//1 2//1
f 2//65 66//65 65//65 1//65
f 2//2 66//2 67//2 3//2
f 3//66 67//66 66//66 2//66
f 3//3 67//3 68//3 4//3
f 4//67 68//67 67//67 3//67
f 4//4 68//4 69//4 5//4
f 5//68 69//68 68//68 4//68
f 5//5 69//5 70//5 6//5
f 6//69 70//69 69//69 5//69
f 6//6 70//6 71//6 7//6
f 7//70 71//70 70//70 6//70
f 7//7 71//7 72//7 8//7
f 8//71 72//71 71//71 7//71
f 8//8 72//8 73//8 9//8
f 9//72 73//72 72//72 8//72
f 9//9 73//9 74//9 10//9
f 10//73 74//73 73//73 9//73
f 10//10 74//10 75//10 11//10
f 11//74 75//74 74//74 10//74
f 11//11 75//11 76//11 12//11
f 12//75 76//75 75//75 11//75
f 12//12 76//12 77//12 13//12
f 13//76 77//76 76//76 12//76
f 13//13 77//13 78//13 14//13
f 14//77 78//77 77//77 13//77
f 14//14 78//14 79//14 15//14
f 15//78 79//78 78//78 14//78
f 15//15 79//15 80//15 16//15
f 16//79 80//79 79//79 15//79
f 16//16 80//16 81//16 17//16
f 17//80 81//80 80//80 16//80
f 17//17 81//17 82//17 18//17
f 18//81 82//81 81//81 17//81
f 18//18 82//18 83//18 19//18
f 19//82 83//82 82//82 18//82
f 19//19 83//19 84//19 20//19
f 20//83 84//83 83//83 19//83
f 20//20 84//20 85//20 21//20
f 21//84 85//84 84//84 20//84
f 21//21 85//21 86//21 22//21
f 22//85 86//85 85//85 21//85
f 22//22 86//22 87//22 23//22
f 23//86 87//86 86//86 22//86
f 23//23 87//23 88//23 24//23
f 24//87 88//87 87//87 23//87
f 24//24 88//24 89//24 25//24
f 25//88 89//88 88//88 24//88
f 25//25 89//25 90//25 26//25
f 26//89 90//89 89//89 25//89
f 26//26 90//26 91//26 27//26
f 27//90 91//90 90//90 26//90
f 27//27 91//27 92//27 28//27
f 28//91 92//91 91//91 27//91
f 28//28 92//28 93//28 29//28
f 29//92 93//92 92//92 28//92
f 29//29 93//29 94//29 30//29
f 30//93 94//93 93//93 29//93
f 30//30 94//30 95//30 31//30
f 31//94 95//94 94//94 30//94
f 31//31 95//31 96//31 32//31
f 32//95 96//95 95//95 31//95
f 32//32 96//32 97//32 33//32
f 33//96 97//96 96//96 32//96
f 33//33 97//33 98//33 34//33
f 34//97 98//97 97//97 33//97
f 34//34 98//34 99//34 35//34
f 35//98 99//98 98//98 34//98
f 35//35 99//35 100//35 36//35
f 36//99 100//99 99//99 35//99
f 36//36 100//36 101//36 37//36
f 37//100 101//100 100//100 36//100
f 37//37 101//37 102//37 38//37
f 38//101 102//101 101//101 37//101
f 38//38 102//38 103//38 39//38
f 39//102 103//102 102//102 38//102
f 39//39 103//39 104//39 40//39
f 40//103 104//103 103//103 39//103
f 40//40 104//40 105//40 41//40
f 41//104 105//104 104//104 40//104
f 41//41 105//41 106//41 42//41
f 42//105 106//105 105//105 41//105
f 42//42 106//42 107//42 43//42
f 43//106 107//106 106//106 42//106
f 43//43 107//43 108//43 44//43
f 44//107 108//107 107//107 43//107
f 44//44 108//44 109//44 45//44
f 45//108 109//108 108//108 44//108
f 45//45 109//45 110//45 46//45
f 46//109 110//109 109//109 45//109
f 46//46 110//46 111//46 47//46
f 47//110 111//110 110//110 46//110
f 47//47 111//47 112//47 48//47
f 48//111 112//111 111//111 47//111
f 48//48 112//48 113//48 49//48
f 49//112 113//112 112//112 48//112
f 49//49 113//49 114//49 50//49
f 50//113 114//113 113//113 49//113
f 50//50 114//50 115//50 51//50
f 51//114 115//114 114//114 50//114
f 51//51 115//51 116//51 52//51
f 52//115 116//115 115//115 51//115
f 52//52 116//52 117//52 53//52
f 53//116 117//116 116//116 52//116
f 53//53 117//53 118//53 54//53
f 54//117 118//117 117//117 53//117
f 54//54 118//54 119//54 55//54
f 55//118 119//118 118//118 54//118
f 55//55 119//55 120//55 56//55
f 56//119 120//119 119//119 55//119
f 56//56 120//56 121//56 57//56
f 57//120 121//120 120//120 56//120
f 57//57 121//57 122//57 58//57
f 58//121 122//121 121//121 57//121
f 58//58 122//58 123//58 59//58
f 59//122 123//122 122//122 58//122
f 59//59 123//59 124//59 60//59
f 60//123 124//123 123//123 59//123
f 60//60 124//60 125//60 61//60
f 61//124 125//124 124//124 60//124
f 61//61 125//61 126//61 62//61
f 62//125 126//125 125//125 61//125
f 62//62 126//62 127//62 63//62
f 63//126 127//126 126//126 62//126
f 63//63 127//63 128//63 64//63
f 64//127 128//127 127//127 63//127
f 64//64 128//64 65//64 1//64
f 1//128 65//128 128//128 64//128