o Jets_18
vn -0.0625778147011673 0.021836654141651923 -0.009542088618300554
vn -0.060071354856431 0.02782842268376806 -0.010044153957478819
vn -0.05698769381937285 0.03354565746218585 -0.010534013036558043
vn -0.05335652893148002 0.038933298380630255 -0.011006948244822429
vn -0.04921283029562029 0.04393945951187228 -0.01145840495768373
vn -0.044596503994832504 0.04851592878757255 -0.011884035400205759
vn -0.039552007774933506 0.052618632306853375 -0.01227974051855376
vn -0.034127922892124185 0.05620805879205784 -0.01264170945612357
vn -0.028376486248932076 0.059249640103953616 -0.012966456254174114
vn -0.02235308732428476 0.06171408415180957 -0.013250853423515441
vn -0.016115734742553567 0.06357765699224302 -0.013492162063939606
vn -0.009724497618783357 0.06482241140006753 -0.013688058241326462
vn -0.003240927060280896 0.06543635970988378 -0.013836655368400038
vn 0.0032725366041939097 0.06541358926385046 -0.013936522373595269
vn 0.009753165158931765 0.06475431935381029 -0.013986697483059238
vn 0.016138546608277737 0.06346489910939032 -0.01398669748305923
vn 0.022367186238271275 0.06155774635241307 -0.01393652237359528
vn 0.0283790988443533 0.059051228006484324 -0.01383665536840005
vn 0.0341163864216828 0.0559694832134775 -0.013688058241326448
vn 0.03952379575456877 0.05234219086040243 -0.013492162063939606
vn 0.044549250535145024 0.048204283755498456 -0.01325085342351541
vn 0.049144352886682285 0.04359561220619668 -0.012966456254174141
vn 0.053264849461596264 0.03856056023887244 -0.012641709456123584
vn 0.0568710576253777 0.033147618156410874 -0.012279740518553767
vn 0.05992824762205606 0.027408915550080737 -0.011884035400205772
vn 0.062406977040732614 0.021399719263075045 -0.011458404957683702
vn 0.06428337436209508 0.015177901140598915 -0.011006948244822429
vn 0.06553936885419487 0.008803380692363416 -0.010534013036558057
vn 0.06616286460347659 0.0023375480349520084 -0.010044153957478777
vn 0.06614785700503811 -0.004157327328560445 -0.00954208861830054
vn 0.06549449059025542 -0.010618696197963073 -0.009032652182696319
vn 0.06420905763486962 -0.01698433205890071 -0.008520750802027268
vn 0.06230393756093028 -0.023192930358221564 -0.00801131436642303
vn 0.05979747771619359 -0.02918469890033759 -0.007509249027244707
vn 0.05671381667913572 -0.03490193367875549 -0.00701938994816554
vn 0.053082651791243024 -0.04028957459719984 -0.006546454739901133
vn 0.04893895315538292 -0.04529573572844181 -0.006094998027039807
vn 0.04432262685459508 -0.049872205004142245 -0.005669367584517792
vn 0.03927813063469668 -0.053974908523423015 -0.005273662466169825
vn 0.033854045751886996 -0.05756433500862734 -0.004911693528599962
vn 0.028102609108694693 -0.060605916320523645 -0.004586946730549463
vn 0.022079210184047987 -0.06307036036837915 -0.0043025495612080775
vn 0.015841857602316545 -0.06493393320881227 -0.004061240920783965
vn 0.009450620478546001 -0.06617868761663745 -0.0038653447433971404
vn 0.0029670499200439293 -0.06679263592645336 -0.003716747616323484
vn -0.0035464137444310984 -0.06676986548042058 -0.0036168806111282923
vn -0.010027042299168731 -0.06611059557037964 -0.0035667055016643254
vn -0.016412423748515037 -0.06482117532595966 -0.0035667055016643263
vn -0.022641063378508353 -0.06291402256898311 -0.0036168806111282906
vn -0.028652975984590268 -0.0604075042230538 -0.003716747616323476
vn -0.034390263561920015 -0.05732575943004753 -0.003865344743397149
vn -0.03979767289480568 -0.05369846707697168 -0.004061240920783961
vn -0.044823127675382116 -0.0495605599720681 -0.004302549561208064
vn -0.04941823002691978 -0.04495188842276665 -0.004586946730549471
vn -0.05353872660183305 -0.03991683645544203 -0.004911693528599958
vn -0.057144934765614594 -0.03450389437298029 -0.005273662466169787
vn -0.060202124762293474 -0.0287651917666506 -0.00566936758451783
vn -0.06268085418096969 -0.022755995479644908 -0.006094998027039795
vn -0.06455725150233194 -0.016534177357168778 -0.006546454739901099
vn -0.06581324599443228 -0.010159656908933057 -0.007019389948165557
vn -0.06643674174371378 -0.003693824251521649 -0.007509249027244716
vn -0.06642173414527558 0.0028010511119905823 -0.008011314366423057
vn -0.06576836773049222 0.009262419981393655 -0.008520750802027244
vn -0.0644829347751068 0.015628055842331068 -0.009032652182696312
vn 0.0625778147011673 -0.021836654141651923 0.009542088618300554
vn 0.060071354856431 -0.02782842268376806 0.010044153957478819
vn 0.05698769381937285 -0.03354565746218585 0.010534013036558043
vn 0.05335652893148002 -0.038933298380630255 0.011006948244822429
vn 0.04921283029562029 -0.04393945951187228 0.01145840495768373
vn 0.044596503994832504 -0.04851592878757255 0.011884035400205759
vn 0.039552007774933506 -0.052618632306853375 0.01227974051855376
vn 0.034127922892124185 -0.05620805879205784 0.01264170945612357
vn 0.028376486248932076 -0.059249640103953616 0.012966456254174114
vn 0.02235308732428476 -0.06171408415180957 0.013250853423515441
vn 0.016115734742553567 -0.06357765699224302 0.013492162063939606
vn 0.009724497618783357 -0.06482241140006753 0.013688058241326462
vn 0.003240927060280896 -0.06543635970988378 0.013836655368400038
vn -0.0032725366041939097 -0.06541358926385046 0.013936522373595269
vn -0.009753165158931765 -0.06475431935381029 0.013986697483059238
vn -0.016138546608277737 -0.06346489910939032 0.01398669748305923
vn -0.022367186238271275 -0.06155774635241307 0.01393652237359528
vn -0.0283790988443533 -0.059051228006484324 0.01383665536840005
vn -0.0341163864216828 -0.0559694832134775 0.013688058241326448
vn -0.03952379575456877 -0.05234219086040243 0.013492162063939606
vn -0.044549250535145024 -0.048204283755498456 0.01325085342351541
vn -0.049144352886682285 -0.04359561220619668 0.012966456254174141
vn -0.053264849461596264 -0.03856056023887244 0.012641709456123584
vn -0.0568710576253777 -0.033147618156410874 0.012279740518553767
vn -0.05992824762205606 -0.027408915550080737 0.011884035400205772
vn -0.062406977040732614 -0.021399719263075045 0.011458404957683702
vn -0.06428337436209508 -0.015177901140598915 0.011006948244822429
vn -0.06553936885419487 -0.008803380692363416 0.010534013036558057
vn -0.06616286460347659 -0.0023375480349520084 0.010044153957478777
vn -0.06614785700503811 0.004157327328560445 0.00954208861830054
vn -0.06549449059025542 0.010618696197963073 0.009032652182696319
vn -0.06420905763486962 0.01698433205890071 0.008520750802027268
vn -0.06230393756093028 0.023192930358221564 0.00801131436642303
vn -0.05979747771619359 0.02918469890033759 0.007509249027244707
vn -0.05671381667913572 0.03490193367875549 0.00701938994816554
vn -0.053082651791243024 0.04028957459719984 0.006546454739901133
vn -0.04893895315538292 0.04529573572844181 0.006094998027039807
vn -0.04432262685459508 0.049872205004142245 0.005669367584517792
vn -0.03927813063469668 0.053974908523423015 0.005273662466169825
vn -0.033854045751886996 0.05756433500862734 0.004911693528599962
vn -0.028102609108694693 0.060605916320523645 0.004586946730549463
vn -0.022079210184047987 0.06307036036837915 0.0043025495612080775
vn -0.015841857602316545 0.06493393320881227 0.004061240920783965
vn -0.009450620478546001 0.06617868761663745 0.0038653447433971404
vn -0.0029670499200439293 0.06679263592645336 0.003716747616323484
vn 0.0035464137444310984 0.06676986548042058 0.0036168806111282923
vn 0.010027042299168731 0.06611059557037964 0.0035667055016643254
vn 0.016412423748515037 0.06482117532595966 0.0035667055016643263
vn 0.022641063378508353 0.06291402256898311 0.0036168806111282906
vn 0.028652975984590268 0.0604075042230538 0.003716747616323476
vn 0.034390263561920015 0.05732575943004753 0.003865344743397149
vn 0.03979767289480568 0.05369846707697168 0.004061240920783961
vn 0.044823127675382116 0.0495605599720681 0.004302549561208064
vn 0.04941823002691978 0.04495188842276665 0.004586946730549471
vn 0.05353872660183305 0.03991683645544203 0.004911693528599958
vn 0.057144934765614594 0.03450389437298029 0.005273662466169787
vn 0.060202124762293474 0.0287651917666506 0.00566936758451783
vn 0.06268085418096969 0.022755995479644908 0.006094998027039795
vn 0.06455725150233194 0.016534177357168778 0.006546454739901099
vn 0.06581324599443228 0.010159656908933057 0.007019389948165557
vn 0.06643674174371378 0.003693824251521649 0.007509249027244716
vn 0.06642173414527558 -0.0028010511119905823 0.008011314366423057
vn 0.06576836773049222 -0.009262419981393655 0.008520750802027244
vn 0.0644829347751068 -0.015628055842331068 0.009032652182696312
v 0 0 0
v 0 0 0
v 0 0 0
v 0 0 0
v 0 0 0
v 0 0 0
v 0 0 0
v 0 0 0
v 0 0 0
v 0 0 0
v 0 0 0
v 0 0 0
v 0 0 0
v 0 0 0
v 0 0 0
v 0 0 0
v 0 0 0
v 0 0 0
v 0 0 0
v 0 0 0
v 0 0 0
v 0 0 0
v 0 0 0
v 0 0 0
v 0 0 0
v 0 0 0
v 0 0 0
v 0 0 0
v 0 0 0
v 0 0 0
v 0 0 0
v 0 0 0
v 0 0 0
v 0 0 0
v 0 0 0
v 0 0 0
v 0 0 0
v 0 0 0
v 0 0 0
v 0 0 0
v 0 0 0
v 0 0 0
v 0 0 0
v 0 0 0
v 0 0 0
v 0 0 0
v 0 0 0
v 0 0 0
v 0 0 0
v 0 0 0
v 0 0 0
v 0 0 0
v 0 0 0
v 0 0 0
v 0 0 0
v 0 0 0
v 0 0 0
v 0 0 0
v 0 0 0
v 0 0 0
v 0 0 0
v 0 0 0
v 0 0 0
v 0 0 0
v 0.2514537751402918 -0.26158974325807094 -2.2476916066398913
v 0.24148287067596944 -0.28916460180039816 -2.2454054443697364
v 0.22884826758957258 -0.31562889704919045 -2.2431635301819406
v 0.2136716440155997 -0.34072776337434657 -2.2409874549356874
v 0.19609915913545456 -0.3642194849727192 -2.238898175425162
v 0.1763000455846304 -0.3858778237234348 -2.2369158125541664
v 0.15446497964991798 -0.4054941979846717 -2.2350594575608187
v 0.1308042449525298 -0.422879691348893 -2.233346988158492
v 0.10554570730187501 -0.43786687201112406 -2.231794896363661
v 0.07893262022325065 -0.45031140522876134 -2.2304181296687697
v 0.05122128229341711 -0.4600934433440448 -2.2292299470897077
v 0.02267856884519681 -0.4671187799825186 -2.228241791474238
v -0.006420638187869469 -0.47131975731191444 -2.2274631793011173
v -0.03579609753480854 -0.47265591762406245 -2.2269016090312066
v -0.06516490746384995 -0.4711143929647371 -2.2265624888931903
v -0.09424423028075252 -0.46671002905909087 -2.2264490847993796
v -0.12275401621041451 -0.4594852423392053 -2.2265624888931903
v -0.15041970042929895 -0.4495096114506629 -2.2269016090312066
v -0.17697484727477666 -0.4368792071721552 -2.2274631793011173
v -0.20216371616620582 -0.42171566720136533 -2.228241791474238
v -0.22574372452652555 -0.4041650247174461 -2.2292299470897077
v -0.24748778398508206 -0.38439630200167496 -2.2304181296687697
v -0.2671864873627777 -0.3625998826604877 -2.231794896363661
v -0.2846501253776785 -0.3389856781272748 -2.233346988158492
v -0.29971051364910534 -0.31378110610052845 -2.2350594575608187
v -0.3122226124051587 -0.2872289003870868 -2.2369158125541664
v -0.32206592329500877 -0.25958477324288254 -2.238898175425162
v -0.32914564985388534 -0.23111495272413116 -2.2409874549356874
v -0.3333936104448542 -0.20209361876561538 -2.2431635301819406
v -0.3347688948852528 -0.17280026267803075 -2.2454054443697364
v -0.33325825843411316 -0.14351699549387778 -2.2476916066398913
v -0.3288762493462577 -0.11452583108400213 -2.25
v -0.32166506876465223 -0.08610597020985351 -2.2523083933601087
v -0.31169416430032987 -0.058531111667526226 -2.2545945556302636
v -0.29905956121393307 -0.032066816418734045 -2.2568364698180594
v -0.2838829376399602 -0.006967950093577896 -2.2590125450643126
v -0.266310452759815 0.016523771504794782 -2.261101824574838
v -0.2465113392089909 0.038182110255510326 -2.2630841874458336
v -0.2246762732742785 0.05779848451674713 -2.2649405424391813
v -0.20101553857689028 0.07518397788096856 -2.266653011841508
v -0.17575700092623558 0.0901711585431996 -2.268205103636339
v -0.14914391384761105 0.10261569176083682 -2.2695818703312303
v -0.12143257591777756 0.11239772987612037 -2.2707700529102923
v -0.09288986246955742 0.11942306651459414 -2.271758208525762
v -0.06379065543649104 0.12362404384398998 -2.2725368206988827
v -0.03441519608955201 0.12496020415613798 -2.2730983909687934
v -0.005046386160510386 0.12341867949681265 -2.2734375111068097
v 0.02403293665639203 0.1190143155911664 -2.2735509152006204
v 0.05254272258605391 0.11178952887128082 -2.2734375111068097
v 0.08020840680493851 0.10181389798273846 -2.2730983909687934
v 0.10676355365041615 0.08918349370423082 -2.2725368206988827
v 0.13195242254184544 0.07401995373344081 -2.271758208525762
v 0.15553243090216504 0.0564693112495217 -2.2707700529102923
v 0.17727649036072157 0.036700588533750605 -2.2695818703312303
v 0.1969751937384173 0.014904169192563183 -2.268205103636339
v 0.21443883175331802 -0.008710035340649597 -2.266653011841508
v 0.2294992200247448 -0.03391460736739582 -2.2649405424391813
v 0.2420113187807982 -0.06046681308083761 -2.2630841874458336
v 0.2518546296706483 -0.08811094022504187 -2.261101824574838
v 0.25893435622952493 -0.11658076074379312 -2.2590125450643126
v 0.2631823168204938 -0.145602094702309 -2.2568364698180594
v 0.2645576012608924 -0.17489545078989366 -2.2545945556302636
v 0.2630469648097528 -0.20417871797404677 -2.2523083933601087
v 0.2586649557218973 -0.23316988238392228 -2.25
f 1//1 65//1 66//1 2//1
f 2//65 66//65 65//65 1//65
f 2//2 66//2 67//2 3//2
f 3//66 67//66 66//66 2//66
f 3//3 67//3 68//3 4//3
f 4//67 68//67 67//67 3//67
f 4//4 68//4 69//4 5//4
f 5//68 69//68 68//68 4//68
f 5//5 69//5 70//5 6//5
f 6//69 70//69 69//69 5//69
f 6//6 70//6 71//6 7//6
f 7//70 71//70 70//70 6//70
f 7//7 71//7 72//7 8//7
f 8//71 72//71 71//71 7//71
f 8//8 72//8 73//8 9//8
f 9//72 73//72 72//72 8//72
f 9//9 73//9 74//9 10//9
f 10//73 74//73 73//73 9//73
f 10//10 74//10 75//10 11//10
f 11//74 75//74 74//74 10//74
f 11//11 75//11 76//11 12//11
f 12//75 76//75 75//75 11//75
f 12//12 76//12 77//12 13//12
f 13//76 77//76 76//76 12//76
f 13//13 77//13 78//13 14//13
f 14//77 78//77 77//77 13//77
f 14//14 78//14 79//14 15//14
f 15//78 79//78 78//78 14//78
f 15//15 79//15 80//15 16//15
f 16//79 80//79 79//79 15//79
f 16//16 80//16 81//16 17//16
f 17//80 81//80 80//80 16//80
f 17//17 81//17 82//17 18//17
f 18//81 82//81 81//81 17//81
f 18//18 82//18 83//18 19//18
f 19//82 83//82 82//82 18//82
f 19//19 83//19 84//19 20//19
f 20//83 84//83 83//83 19//83
f 20//20 84//20 85//20 21//20
f 21//84 85//84 84//84 20//84
f 21//21 85//21 86//21 22//21
f 22//85 86//85 85//85 21//85
f 22//22 86//22 87//22 23//22
f 23//86 87//86 86//86 22//86
f 23//23 87//23 88//23 24//23
f 24//87 88//87 87//87 23//87
f 24//24 88//24 89//24 25//24
f 25//88 89//88 88//88 24//88
f 25//25 89//25 90//25 26//25
f 26//89 90//89 89//89 25//89
f 26//26 90//26 91//26 27//26
f 27//90 91//90 90//90 26//90
f 27//27 91//27 92//27 28//27
f 28//91 92//91 91//91 27//91
f 28//28 92//28 93//28 29//28
f 29//92 93//92 92//92 28//92
f 29//29 93//29 94//29 30//29
f 30//93 94//93 93//93 29//93
f 30//30 94//30 95//30 31//30
f 31//94 95//94 94//94 30//94
f 31//31 95//31 96//31 32//31
f 32//95 96//95 95//95 31//95
f 32//32 96//32 97//32 33//32
f 33//96 97//96 96//96 32//96
f 33//33 97//33 98//33 34//33
f 34//97 98//97 97//97 33//97
f 34//34 98//34 99//34 35//34
f 35//98 99//98 98//98 34//98
f 35//35 99//35 100//35 36//35
f 36//99 100//99 99//99 35//99
f 36//36 100//36 101//36 37//36
f 37//100 101//100 100//100 36//100
f 37//37 101//37 102//37 38//37
f 38//101 102//101 101//101 37//101
f 38//38 102//38 103//38 39//38
f 39//102 103//102 102//102 38//102
f 39//39 103//39 104//39 40//39
f 40//103 104//103 103//103 39//103
f 40//40 104//40 105//40 41//40
f 41//104 105//104 104//104 40//104
f 41//41 105//41 106//41 42//41
f 42//105 106//105 105//105 41//105
f 42//42 106//42 107//42 43//42
f 43//106 107//106 106//106 42//106
f 43//43 107//43 108//43 44//43
f 44//107 108//107 107//107 43//107
f 44//44 108//44 109//44 45//44
f 45//108 109//108 108//108 44//108
f 45//45 109//45 110//45 46//45
f 46//109 110//109 109//109 45//109
f 46//46 110//46 111//46 47//46
f 47//110 111//110 110//110 46//110
f 47//47 111//47 112//47 48//47
f 48//111 112//111 111//111 47//111
f 48//48 112//48 113//48 49//48
f 49//112 113//112 112//112 48//112
f 49//49 113//49 114//49 50//49
f 50//113 114//113 113//113 49//113
f 50//50 114//50 115//50 51//50
f 51//114 115//114 114//114 50//114
f 51//51 115//51 116//51 52//51
f 52//115 116//115 115//115 51//115
f 52//52 116//52 117//52 53//52
f 53//116 117//116 116//116 52//116
f 53//53 117//53 118//53 54//53
f 54//117 118//117 117//117 53//117
f 54//54 118//54 119//54 55//54
f 55//118 119//118 118//118 54//118
f 55//55 119//55 120//55 56//55
f 56//119 120//119 119//119 55//119
f 56//56 120//56 121//56 57//56
f 57//120 121//120 120//120 56//120
f 57//57 121//57 122//57 58//57
f 58//121 122//121 121//121 57//121
f 58//58 122//58 123//58 59//58
f 59//122 123//122 122//122 58//122
f 59//59 123//59 124//59 60//59
f 60//123 124//123 123//123 59//123
f 60//60 124//60 125//60 61//60
f 61//124 125//124 124//124 60//124
f 61//61 125//61 126//61 62//61
f 62//125 126//125 125//125 61//125
f 62//62 126//62 127//62 63//62
f 63//126 127//126 126//126 62//126
f 63//63 127//63 128//63 64//63
f 64//127 128//127 127//127 63//127
f 64//64 128//64 65//64 1//64
f 1//128 65//128 128//128 64//128