o Jets_17
vn -0.039667368225271726 0.045537377297544035 0.0026574670743713114
vn -0.043319602747776464 0.042159443195404656 -0.0004564334977350537
vn -0.04659458157913554 0.03835293342828727 -0.0034946286240757907
vn -0.04946076488291795 0.0341545067660991 -0.006427858824738397
vn -0.05189054974709251 0.029604596352690526 -0.009227875489423276
vn -0.05386053601516294 0.024747020312576806 -0.01186771292700528
vn -0.05535175164246264 0.019628559758445352 -0.014321948059878131
vn -0.056349835407319526 0.014298508263467014 -0.01656694526209107
vn -0.056845175217470345 0.008808197137242013 -0.018581083983346458
vn -0.05683300067976216 0.0032105010772243148 -0.020344966966718392
vn -0.056313429041649266 -0.002440671043515197 -0.02184160705484023
vn -0.055291464062033335 -0.008090895348209726 -0.02305659078551714
vn -0.05377694782233011 -0.013685757088077954 -0.02397821720124449
vn -0.05178446594184771 -0.019171374686102638 -0.024597610535826986
vn -0.04933320711029654 -0.024494918646070785 -0.024908805692857694
vn -0.04644677829021826 -0.02960512032950291 -0.024908805692857694
vn -0.0431529773690329 -0.03445276570066702 -0.02459761053582693
vn -0.039483525450186296 -0.038991169284646965 -0.023978217201244545
vn -0.03547376136158342 -0.04317662377398479 -0.023056590785517028
vn -0.031162301323357622 -0.04696882095394539 -0.02184160705484034
vn -0.0265906670525603 -0.05033123989266075 -0.020344966966718225
vn -0.021802885886329726 -0.053231498657666076 -0.018581083983346486
vn -0.01684506677456321 -0.05564166617161037 -0.016566945262091154
vn -0.011764956225526979 -0.057538531203804144 -0.014321948059878187
vn -0.006611478480879174 -0.058903825907054896 -0.011867712927005225
vn -0.0014342643484783757 -0.05972440174702398 -0.009227875489423332
vn 0.0037168267694275836 -0.05999235612980103 -0.006427858824738203
vn 0.008792187049500133 -0.05970510850820032 -0.003494628624075735
vn 0.013742937997767879 -0.058865425233843416 -0.0004564334977349982
vn 0.0185214011762439 -0.05748139291568033 0.002657467074371256
vn 0.02308155737234502 -0.05556634054152387 0.005817084527501903
vn 0.027379489789068512 -0.05313871111261137 0.008991990018361151
vn 0.03137380698775194 -0.05022188402742045 0.01215160747149191
vn 0.03502604151025612 -0.046843949925280404 0.015265508043597886
vn 0.03830102034161553 -0.043037440158163465 0.018303703169938734
vn 0.041167203645398054 -0.038839013495975294 0.021236933370601507
vn 0.04359698850957261 -0.0342891030825665 0.024036950035286275
vn 0.04556697477764293 -0.029431527042452776 0.026676787472868335
vn 0.047058190404942635 -0.024313066488321322 0.029131022605741297
vn 0.048056274169799296 -0.018983014993342984 0.031376019807954125
vn 0.048551613979950226 -0.013492703867117983 0.03339015852920979
vn 0.04853943944224204 -0.007895007807100729 0.03515404151258139
vn 0.048019867804128924 -0.0022438356863609954 0.03665068160070317
vn 0.046997902824513216 0.0034063886183335335 0.03786566533138025
vn 0.045483386584810215 0.009001250358201984 0.0387872917471076
vn 0.043490904704327926 0.014486867956226668 0.03940668508169021
vn 0.04103964587277642 0.019810411916194592 0.03971788023872069
vn 0.03815321705269792 0.024920613599626495 0.03971788023872047
vn 0.034859416131513 0.029768258970791495 0.03940668508169054
vn 0.031189964212666288 0.03430666255477077 0.0387872917471076
vn 0.027180200124063525 0.03849211704410882 0.03786566533138025
vn 0.02286874008583717 0.04228431422406942 0.03665068160070317
vn 0.018297105815040515 0.04564673316278456 0.03515404151258139
vn 0.013509324648809828 0.048546991927790106 0.03339015852920968
vn 0.008551505537043091 0.0509571594417344 0.031376019807954125
vn 0.0034713949880067485 0.05285402447392795 0.029131022605741075
vn -0.0016820827566410568 0.05421931917717915 0.0266767874728685
vn -0.006859296889041744 0.05503989501714779 0.024036950035286275
vn -0.012010388006947315 0.055307849399924836 0.021236933370601396
vn -0.01708574828702014 0.05502060177832435 0.0183037031699389
vn -0.022036499235287943 0.054180918503967446 0.015265508043597942
vn -0.02681496241376391 0.05279688618580436 0.01215160747149191
vn -0.031375118609865194 0.05088183381164768 0.008991990018361151
vn -0.035673051026588576 0.0484542043827354 0.005817084527501959
vn 0.039667368225271726 -0.045537377297544035 -0.0026574670743713114
vn 0.043319602747776464 -0.042159443195404656 0.0004564334977350537
vn 0.04659458157913554 -0.03835293342828727 0.0034946286240757907
vn 0.04946076488291795 -0.0341545067660991 0.006427858824738397
vn 0.05189054974709251 -0.029604596352690526 0.009227875489423276
vn 0.05386053601516294 -0.024747020312576806 0.01186771292700528
vn 0.05535175164246264 -0.019628559758445352 0.014321948059878131
vn 0.056349835407319526 -0.014298508263467014 0.01656694526209107
vn 0.056845175217470345 -0.008808197137242013 0.018581083983346458
vn 0.05683300067976216 -0.0032105010772243148 0.020344966966718392
vn 0.056313429041649266 0.002440671043515197 0.02184160705484023
vn 0.055291464062033335 0.008090895348209726 0.02305659078551714
vn 0.05377694782233011 0.013685757088077954 0.02397821720124449
vn 0.05178446594184771 0.019171374686102638 0.024597610535826986
vn 0.04933320711029654 0.024494918646070785 0.024908805692857694
vn 0.04644677829021826 0.02960512032950291 0.024908805692857694
vn 0.0431529773690329 0.03445276570066702 0.02459761053582693
vn 0.039483525450186296 0.038991169284646965 0.023978217201244545
vn 0.03547376136158342 0.04317662377398479 0.023056590785517028
vn 0.031162301323357622 0.04696882095394539 0.02184160705484034
vn 0.0265906670525603 0.05033123989266075 0.020344966966718225
vn 0.021802885886329726 0.053231498657666076 0.018581083983346486
vn 0.01684506677456321 0.05564166617161037 0.016566945262091154
vn 0.011764956225526979 0.057538531203804144 0.014321948059878187
vn 0.006611478480879174 0.058903825907054896 0.011867712927005225
vn 0.0014342643484783757 0.05972440174702398 0.009227875489423332
vn -0.0037168267694275836 0.05999235612980103 0.006427858824738203
vn -0.008792187049500133 0.05970510850820032 0.003494628624075735
vn -0.013742937997767879 0.058865425233843416 0.0004564334977349982
vn -0.0185214011762439 0.05748139291568033 -0.002657467074371256
vn -0.02308155737234502 0.05556634054152387 -0.005817084527501903
vn -0.027379489789068512 0.05313871111261137 -0.008991990018361151
vn -0.03137380698775194 0.05022188402742045 -0.01215160747149191
vn -0.03502604151025612 0.046843949925280404 -0.015265508043597886
vn -0.03830102034161553 0.043037440158163465 -0.018303703169938734
vn -0.041167203645398054 0.038839013495975294 -0.021236933370601507
vn -0.04359698850957261 0.0342891030825665 -0.024036950035286275
vn -0.04556697477764293 0.029431527042452776 -0.026676787472868335
vn -0.047058190404942635 0.024313066488321322 -0.029131022605741297
vn -0.048056274169799296 0.018983014993342984 -0.031376019807954125
vn -0.048551613979950226 0.013492703867117983 -0.03339015852920979
vn -0.04853943944224204 0.007895007807100729 -0.03515404151258139
vn -0.048019867804128924 0.0022438356863609954 -0.03665068160070317
vn -0.046997902824513216 -0.0034063886183335335 -0.03786566533138025
vn -0.045483386584810215 -0.009001250358201984 -0.0387872917471076
vn -0.043490904704327926 -0.014486867956226668 -0.03940668508169021
vn -0.04103964587277642 -0.019810411916194592 -0.03971788023872069
vn -0.03815321705269792 -0.024920613599626495 -0.03971788023872047
vn -0.034859416131513 -0.029768258970791495 -0.03940668508169054
vn -0.031189964212666288 -0.03430666255477077 -0.0387872917471076
vn -0.027180200124063525 -0.03849211704410882 -0.03786566533138025
vn -0.02286874008583717 -0.04228431422406942 -0.03665068160070317
vn -0.018297105815040515 -0.04564673316278456 -0.03515404151258139
vn -0.013509324648809828 -0.048546991927790106 -0.03339015852920968
vn -0.008551505537043091 -0.0509571594417344 -0.031376019807954125
vn -0.0034713949880067485 -0.05285402447392795 -0.029131022605741075
vn 0.0016820827566410568 -0.05421931917717915 -0.0266767874728685
vn 0.006859296889041744 -0.05503989501714779 -0.024036950035286275
vn 0.012010388006947315 -0.055307849399924836 -0.021236933370601396
vn 0.01708574828702014 -0.05502060177832435 -0.0183037031699389
vn 0.022036499235287943 -0.054180918503967446 -0.015265508043597942
vn 0.02681496241376391 -0.05279688618580436 -0.01215160747149191
vn 0.031375118609865194 -0.05088183381164768 -0.008991990018361151
vn 0.035673051026588576 -0.0484542043827354 -0.005817084527501959
v 0 0 0
v 0 0 0
v 0 0 0
v 0 0 0
v 0 0 0
v 0 0 0
v 0 0 0
v 0 0 0
v 0 0 0
v 0 0 0
v 0 0 0
v 0 0 0
v 0 0 0
v 0 0 0
v 0 0 0
v 0 0 0
v 0 0 0
v 0 0 0
v 0 0 0
v 0 0 0
v 0 0 0
v 0 0 0
v 0 0 0
v 0 0 0
v 0 0 0
v 0 0 0
v 0 0 0
v 0 0 0
v 0 0 0
v 0 0 0
v 0 0 0
v 0 0 0
v 0 0 0
v 0 0 0
v 0 0 0
v 0 0 0
v 0 0 0
v 0 0 0
v 0 0 0
v 0 0 0
v 0 0 0
v 0 0 0
v 0 0 0
v 0 0 0
v 0 0 0
v 0 0 0
v 0 0 0
v 0 0 0
v 0 0 0
v 0 0 0
v 0 0 0
v 0 0 0
v 0 0 0
v 0 0 0
v 0 0 0
v 0 0 0
v 0 0 0
v 0 0 0
v 0 0 0
v 0 0 0
v 0 0 0
v 0 0 0
v 0 0 0
v 0 0 0
v -0.7895786346944585 -0.7885296972712382 1.726105257884109
v -0.7703961596695801 -0.772738383269012 1.7418432803581838
v -0.753018248423091 -0.7547151722694989 1.7572766974577005
v -0.7376122597400272 -0.7346336376471138 1.7722568769392268
v -0.7243265617131771 -0.7126871755579536 1.7866395514853566
v -0.7132891028772403 -0.6890871424290936 1.8002862080778406
v -0.7046061799944958 -0.664060819480655 1.8130654219536722
v -0.6983614143588728 -0.637849223883411 1.8248541222973982
v -0.6946149464771785 -0.6107047876316789 1.835538777480349
v -0.6934028568831413 -0.582888926485221 1.8450164884322868
v -0.6947368186621474 -0.554669522392574 1.8531959796157
v -0.6986039850330472 -0.5263183436414459 1.859998478059128
v -0.7049671130696809 -0.4981084275815405 1.8653584719839367
v -0.713764922370616 -0.47031145112562384 1.8692243417185592
v -0.7249126852229125 -0.4431951143523391 1.8715588568241517
v -0.7383030425763162 -0.4170205624081106 1.8723395346440719
v -0.7538070379695996 -0.3920398705366268 1.8715588568241517
v -0.7712753594517793 -0.3684936164564455 1.8692243417185592
v -0.7905397775378262 -0.3466085634660505 1.8653584719839367
v -0.8114147653505697 -0.3265954765893263 1.859998478059128
v -0.8336992853459435 -0.30864709279316177 1.8531959796157
v -0.8571787254144347 -0.2929362648250988 1.8450164884322868
v -0.8816269657130162 -0.2796142965468818 1.835538777480349
v -0.906808556322845 -0.26880948579555874 1.8248541222973982
v -0.9324809847606905 -0.26062588880517523 1.8130654219536722
v -0.9583970115067196 -0.2551423180883579 1.8002862080778406
v -0.9843070510562266 -0.2524115834287343 1.7866395514853566
v -1.0099615755644815 -0.2524599832938481 1.7722568769392268
v -1.0351135179362803 -0.25528705156654014 1.7572766974577005
v -1.0595206512171318 -0.26086556203391154 1.7418432803581838
v -1.0829479213712454 -0.26914179059063775 1.726105257884109
v -1.1051697109803884 -0.28003603263147053 1.7102141957951795
v -1.125972012062959 -0.29344337065015835 1.69432313370625
v -1.1451544870878376 -0.3092346846523847 1.6785851112321752
v -1.1625323983343268 -0.3272578956518976 1.6631516941326585
v -1.1779383870173905 -0.3473394302742827 1.6481715146511322
v -1.1912240850442406 -0.369285892363443 1.6337888401050025
v -1.2022615438801774 -0.39288592549230295 1.6201421835125185
v -1.210944466762922 -0.41791224844074154 1.607362969636687
v -1.217189232398545 -0.44412384403798555 1.5955742692929609
v -1.2209357002802392 -0.4712682802897176 1.58488961411001
v -1.2221477898742763 -0.4990841414361757 1.5754119031580722
v -1.2208138280952703 -0.5273035455288225 1.567232411974659
v -1.2169466617243705 -0.5556547242799506 1.560429913531231
v -1.2105835336877369 -0.583864640339856 1.5550699196064224
v -1.2017857243868018 -0.6116616167957727 1.5512040498717998
v -1.190637961534505 -0.6387779535690575 1.5488695347662074
v -1.1772476041811015 -0.664952505513286 1.5480888569462872
v -1.1617436087878183 -0.6899331973847695 1.5488695347662074
v -1.1442752873056383 -0.7134794514649511 1.5512040498717998
v -1.1250108692195915 -0.7353645044553461 1.5550699196064224
v -1.104135881406848 -0.7553775913320704 1.560429913531231
v -1.0818513614114742 -0.7733259751282348 1.567232411974659
v -1.058371921342983 -0.7890368030962978 1.5754119031580722
v -1.0339236810444015 -0.8023587713745148 1.58488961411001
v -1.0087420904345727 -0.8131635821258378 1.5955742692929609
v -0.9830696619967273 -0.8213471791162212 1.6073629696366867
v -0.9571536352506981 -0.8268307498330386 1.6201421835125185
v -0.9312435957011911 -0.8295614844926622 1.6337888401050025
v -0.9055890711929362 -0.8295130846275485 1.648171514651132
v -0.8804371288211376 -0.8266860163548565 1.6631516941326585
v -0.856029995540286 -0.821107505887485 1.6785851112321752
v -0.8326027253861723 -0.8128312773307589 1.69432313370625
v -0.8103809357770293 -0.8019370352899261 1.7102141957951795
f 1//1 65//1 66//1 2//1
f 2//65 66//65 65//65 1//65
f 2//2 66//2 67//2 3//2
f 3//66 67//66 66//66 2//66
f 3//3 67//3 68//3 4//3
f 4//67 68//67 67//67 3//67
f 4//4 68//4 69//4 5//4
f 5//68 69//68 68//68 4//68
f 5//5 69//5 70//5 6//5
f 6//69 70//69 69//69 5//69
f 6//6 70//6 71//6 7//6
f 7//70 71//70 70//70 6//70
f 7//7 71//7 72//7 8//7
f 8//71 72//71 71//71 7//71
f 8//8 72//8 73//8 9//8
f 9//72 73//72 72//72 8//72
f 9//9 73//9 74//9 10//9
f 10//73 74//73 73//73 9//73
f 10//10 74//10 75//10 11//10
f 11//74 75//74 74//74 10//74
f 11//11 75//11 76//11 12//11
f 12//75 76//75 75//75 11//75
f 12//12 76//12 77//12 13//12
f 13//76 77//76 76//76 12//76
f 13//13 77//13 78//13 14//13
f 14//77 78//77 77//77 13//77
f 14//14 78//14 79//14 15//14
f 15//78 79//78 78//78 14//78
f 15//15 79//15 80//15 16//15
f 16//79 80//79 79//79 15//79
f 16//16 80//16 81//16 17//16
f 17//80 81//80 80//80 16//80
f 17//17 81//17 82//17 18//17
f 18//81 82//81 81//81 17//81
f 18//18 82//18 83//18 19//18
f 19//82 83//82 82//82 18//82
f 19//19 83//19 84//19 20//19
f 20//83 84//83 83//83 19//83
f 20//20 84//20 85//20 21//20
f 21//84 85//84 84//84 20//84
f 21//21 85//21 86//21 22//21
f 22//85 86//85 85//85 21//85
f 22//22 86//22 87//22 23//22
f 23//86 87//86 86//86 22//86
f 23//23 87//23 88//23 24//23
f 24//87 88//87 87//87 23//87
f 24//24 88//24 89//24 25//24
f 25//88 89//88 88//88 24//88
f 25//25 89//25 90//25 26//25
f 26//89 90//89 89//89 25//89
f 26//26 90//26 91//26 27//26
f 27//90 91//90 90//90 26//90
f 27//27 91//27 92//27 28//27
f 28//91 92//91 91//91 27//91
f 28//28 92//28 93//28 29//28
f 29//92 93//92 92//92 28//92
f 29//29 93//29 94//29 30//29
f 30//93 94//93 93//93 29//93
f 30//30 94//30 95//30 31//30
f 31//94 95//94 94//94 30//94
f 31//31 95//31 96//31 32//31
f 32//95 96//95 95//95 31//95
f 32//32 96//32 97//32 33//32
f 33//96 97//96 96//96 32//96
f 33//33 97//33 98//33 34//33
f 34//97 98//97 97//97 33//97
f 34//34 98//34 99//34 35//34
f 35//98 99//98 98//98 34//98
f 35//35 99//35 100//35 36//35
f 36//99 100//99 99//99 35//99
f 36//36 100//36 101//36 37//36
f 37//100 101//100 100//100 36//100
f 37//37 101//37 102//37 38//37
f 38//101 102//101 101//101 37//101
f 38//38 102//38 103//38 39//38
f 39//102 103//102 102//102 38//102
f 39//39 103//39 104//39 40//39
f 40//103 104//103 103//103 39//103
f 40//40 104//40 105//40 41//40
f 41//104 105//104 104//104 40//104
f 41//41 105//41 106//41 42//41
f 42//105 106//105 105//105 41//105
f 42//42 106//42 107//42 43//42
f 43//106 107//106 106//106 42//106
f 43//43 107//43 108//43 44//43
f 44//107 108//107 107//107 43//107
f 44//44 108//44 109//44 45//44
f 45//108 109//108 108//108 44//108
f 45//45 109//45 110//45 46//45
f 46//109 110//109 109//109 45//109
f 46//46 110//46 111//46 47//46
f 47//110 111//110 110//110 46//110
f 47//47 111//47 112//47 48//47
f 48//111 112//111 111//111 47//111
f 48//48 112//48 113//48 49//48
f 49//112 113//112 112//112 48//112
f 49//49 113//49 114//49 50//49
f 50//113 114//113 113//113 49//113
f 50//50 114//50 115//50 51//50
f 51//114 115//114 114//114 50//114
f 51//51 115//51 116//51 52//51
f 52//115 116//115 115//115 51//115
f 52//52 116//52 117//52 53//52
f 53//116 117//116 116//116 52//116
f 53//53 117//53 118//53 54//53
f 54//117 118//117 117//117 53//117
f 54//54 118//54 119//54 55//54
f 55//118 119//118 118//118 54//118
f 55//55 119//55 120//55 56//55
f 56//119 120//119 119//119 55//119
f 56//56 120//56 121//56 57//56
f 57//120 121//120 120//120 56//120
f 57//57 121//57 122//57 58//57
f 58//121 122//121 121//121 57//121
f 58//58 122//58 123//58 59//58
f 59//122 123//122 122//122 58//122
f 59//59 123//59 124//59 60//59
f 60//123 124//123 123//123 59//123
f 60//60 124//60 125//60 61//60
f 61//124 125//124 124//124 60//124
f 61//61 125//61 126//61 62//61
f 62//125 126//125 125//125 61//125
f 62//62 126//62 127//62 63//62
f 63//126 127//126 126//126 62//126
f 63//63 127//63 128//63 64//63
f 64//127 128//127 127//127 63//127
f 64//64 128//64 65//64 1//64
f 1//128 65//128 128//128 64//128