o Jets_2
vn -0.03475711481279703 0.003680582784247509 -0.0021243444186585803
vn -0.034529020161288115 0.0025345838058400544 -0.005238244990764668
vn -0.03399933209144218 0.0012893856190191177 -0.008276440117105377
vn -0.03317315178892888 -4.30198369817808E-05 -0.011209670317767984
vn -0.03205843582169732 -0.0014498007692543419 -0.014009686982453057
vn -0.03066591951387798 -0.0029174091083960796 -0.016649524420034922
vn -0.029009013558741747 -0.0044317109838248325 -0.019103759552907884
vn -0.027103674866393646 -0.005978122840678529 -0.02134875675512085
vn -0.024968252890004816 -0.0075417518874209555 -0.023362895476376128
vn -0.022623312910548754 -0.009107539521565455 -0.025126778459748034
vn -0.020091437981901827 -0.01066040635224852 -0.02662341854786998
vn -0.01739701144369088 -0.012185397423007421 -0.027838402278546837
vn -0.014565982096401364 -0.013667826236185843 -0.028760028694274187
vn -0.011625614300246667 -0.0150934161919348 -0.029379422028856683
vn -0.008604225404472587 -0.01644843807967364 -0.029690617185887447
vn -0.00553091303580322 -0.01771984229789328 -0.02969061718588739
vn -0.002435274872393478 -0.018895384528951786 -0.029379422028856683
vn 0.0006528763979952723 -0.019963743658547584 -0.028760028694274242
vn 0.003703800190474449 -0.020914630804238055 -0.02783840227854678
vn 0.006688114441117388 -0.021738888403002254 -0.026623418547870037
vn 0.009577078572298392 -0.02242857840357909 -0.025126778459747867
vn 0.012342870280165896 -0.022977058714240495 -0.023362895476376266
vn 0.014958853478637735 -0.023379047169764522 -0.021348756755120768
vn 0.017399834819470106 -0.023630672401575237 -0.019103759552907995
vn 0.019642306317975367 -0.023729511121138247 -0.016649524420034978
vn 0.02166467174776282 -0.023674611457553063 -0.014009686982452862
vn 0.02344745462420661 -0.02346650212459167 -0.011209670317767984
vn 0.02497348577363795 -0.023107187328894274 -0.008276440117105488
vn 0.026228068681874384 -0.022600127468364872 -0.00523824499076464
vn 0.02719912102968519 -0.02195020580664775 -0.002124344418658497
vn 0.02787729105212927 -0.021163681444628296 0.0010352730344721506
vn 0.0282560476011654 -0.02024812904187087 0.004210178525331454
vn 0.028331743044176794 -0.019212365868505776 0.0073697959784623235
vn 0.028103648392667657 -0.01806636689009819 0.010483696550568355
vn 0.027573960322821944 -0.01682116870327735 0.013521891676909092
vn 0.026747780020308615 -0.015488763247276466 0.016455121877571588
vn 0.025633064053077054 -0.014081982315003821 0.01925513854225669
vn 0.024240547745257718 -0.012614373975862112 0.021894975979838582
vn 0.02258364179012154 -0.011100072100433414 0.0243492111127116
vn 0.020678303097773257 -0.009553660243579676 0.026594208314924317
vn 0.018542881121384747 -0.007990031196837305 0.028608347036179982
vn 0.01619794114192849 -0.006424243562692791 0.030372230019551694
vn 0.01366606621328148 -0.004871376732009651 0.031868870107673475
vn 0.010971639675070408 -0.0033463856612507906 0.03308385383835066
vn 0.008140610327781198 -0.001863956848072383 0.03400548025407768
vn 0.00520024253162657 -0.00043836689232340867 0.03462487358866073
vn 0.002178853635852039 0.0009166549954154335 0.03493606874569083
vn -0.0008944587328170162 0.0021880592136350324 0.03493606874569094
vn -0.003990096896226716 0.0033636014446936195 0.03462487358866062
vn -0.007078248166615633 0.004431960574289347 0.03400548025407779
vn -0.010129171959094865 0.005382847719979829 0.03308385383835055
vn -0.013113486209737596 0.006207105318744001 0.031868870107673586
vn -0.01600245034091871 0.0068967953193209836 0.030372230019551583
vn -0.018768242048786368 0.007445275629982279 0.028608347036179982
vn -0.021384225247257832 0.007847264085506213 0.026594208314924428
vn -0.023825206588090342 0.008098889317317011 0.024349211112711433
vn -0.026067678086595797 0.008197728036880056 0.021894975979838804
vn -0.028090043516383056 0.008142828373294914 0.019255138542256606
vn -0.029872826392826735 0.007934719040333424 0.016455121877571643
vn -0.031398857542258296 0.007575404244636055 0.013521891676909203
vn -0.03265344045049462 0.007068344384106681 0.0104836965505683
vn -0.03362449279830565 0.00641842272238953 0.007369795978462185
vn -0.03430266282074945 0.005631898360370043 0.004210178525331454
vn -0.03468141936978569 0.004716345957612625 0.0010352730344722616
vn 0.03475711481279703 -0.003680582784247509 0.0021243444186585803
vn 0.034529020161288115 -0.0025345838058400544 0.005238244990764668
vn 0.03399933209144218 -0.0012893856190191177 0.008276440117105377
vn 0.03317315178892888 4.30198369817808E-05 0.011209670317767984
vn 0.03205843582169732 0.0014498007692543419 0.014009686982453057
vn 0.03066591951387798 0.0029174091083960796 0.016649524420034922
vn 0.029009013558741747 0.0044317109838248325 0.019103759552907884
vn 0.027103674866393646 0.005978122840678529 0.02134875675512085
vn 0.024968252890004816 0.0075417518874209555 0.023362895476376128
vn 0.022623312910548754 0.009107539521565455 0.025126778459748034
vn 0.020091437981901827 0.01066040635224852 0.02662341854786998
vn 0.01739701144369088 0.012185397423007421 0.027838402278546837
vn 0.014565982096401364 0.013667826236185843 0.028760028694274187
vn 0.011625614300246667 0.0150934161919348 0.029379422028856683
vn 0.008604225404472587 0.01644843807967364 0.029690617185887447
vn 0.00553091303580322 0.01771984229789328 0.02969061718588739
vn 0.002435274872393478 0.018895384528951786 0.029379422028856683
vn -0.0006528763979952723 0.019963743658547584 0.028760028694274242
vn -0.003703800190474449 0.020914630804238055 0.02783840227854678
vn -0.006688114441117388 0.021738888403002254 0.026623418547870037
vn -0.009577078572298392 0.02242857840357909 0.025126778459747867
vn -0.012342870280165896 0.022977058714240495 0.023362895476376266
vn -0.014958853478637735 0.023379047169764522 0.021348756755120768
vn -0.017399834819470106 0.023630672401575237 0.019103759552907995
vn -0.019642306317975367 0.023729511121138247 0.016649524420034978
vn -0.02166467174776282 0.023674611457553063 0.014009686982452862
vn -0.02344745462420661 0.02346650212459167 0.011209670317767984
vn -0.02497348577363795 0.023107187328894274 0.008276440117105488
vn -0.026228068681874384 0.022600127468364872 0.00523824499076464
vn -0.02719912102968519 0.02195020580664775 0.002124344418658497
vn -0.02787729105212927 0.021163681444628296 -0.0010352730344721506
vn -0.0282560476011654 0.02024812904187087 -0.004210178525331454
vn -0.028331743044176794 0.019212365868505776 -0.0073697959784623235
vn -0.028103648392667657 0.01806636689009819 -0.010483696550568355
vn -0.027573960322821944 0.01682116870327735 -0.013521891676909092
vn -0.026747780020308615 0.015488763247276466 -0.016455121877571588
vn -0.025633064053077054 0.014081982315003821 -0.01925513854225669
vn -0.024240547745257718 0.012614373975862112 -0.021894975979838582
vn -0.02258364179012154 0.011100072100433414 -0.0243492111127116
vn -0.020678303097773257 0.009553660243579676 -0.026594208314924317
vn -0.018542881121384747 0.007990031196837305 -0.028608347036179982
vn -0.01619794114192849 0.006424243562692791 -0.030372230019551694
vn -0.01366606621328148 0.004871376732009651 -0.031868870107673475
vn -0.010971639675070408 0.0033463856612507906 -0.03308385383835066
vn -0.008140610327781198 0.001863956848072383 -0.03400548025407768
vn -0.00520024253162657 0.00043836689232340867 -0.03462487358866073
vn -0.002178853635852039 -0.0009166549954154335 -0.03493606874569083
vn 0.0008944587328170162 -0.0021880592136350324 -0.03493606874569094
vn 0.003990096896226716 -0.0033636014446936195 -0.03462487358866062
vn 0.007078248166615633 -0.004431960574289347 -0.03400548025407779
vn 0.010129171959094865 -0.005382847719979829 -0.03308385383835055
vn 0.013113486209737596 -0.006207105318744001 -0.031868870107673586
vn 0.01600245034091871 -0.0068967953193209836 -0.030372230019551583
vn 0.018768242048786368 -0.007445275629982279 -0.028608347036179982
vn 0.021384225247257832 -0.007847264085506213 -0.026594208314924428
vn 0.023825206588090342 -0.008098889317317011 -0.024349211112711433
vn 0.026067678086595797 -0.008197728036880056 -0.021894975979838804
vn 0.028090043516383056 -0.008142828373294914 -0.019255138542256606
vn 0.029872826392826735 -0.007934719040333424 -0.016455121877571643
vn 0.031398857542258296 -0.007575404244636055 -0.013521891676909203
vn 0.03265344045049462 -0.007068344384106681 -0.0104836965505683
vn 0.03362449279830565 -0.00641842272238953 -0.007369795978462185
vn 0.03430266282074945 -0.005631898360370043 -0.004210178525331454
vn 0.03468141936978569 -0.004716345957612625 -0.0010352730344722616
v 0 0 0
v 0 0 0
v 0 0 0
v 0 0 0
v 0 0 0
v 0 0 0
v 0 0 0
v 0 0 0
v 0 0 0
v 0 0 0
v 0 0 0
v 0 0 0
v 0 0 0
v 0 0 0
v 0 0 0
v 0 0 0
v 0 0 0
v 0 0 0
v 0 0 0
v 0 0 0
v 0 0 0
v 0 0 0
v 0 0 0
v 0 0 0
v 0 0 0
v 0 0 0
v 0 0 0
v 0 0 0
v 0 0 0
v 0 0 0
v 0 0 0
v 0 0 0
v 0 0 0
v 0 0 0
v 0 0 0
v 0 0 0
v 0 0 0
v 0 0 0
v 0 0 0
v 0 0 0
v 0 0 0
v 0 0 0
v 0 0 0
v 0 0 0
v 0 0 0
v 0 0 0
v 0 0 0
v 0 0 0
v 0 0 0
v 0 0 0
v 0 0 0
v 0 0 0
v 0 0 0
v 0 0 0
v 0 0 0
v 0 0 0
v 0 0 0
v 0 0 0
v 0 0 0
v 0 0 0
v 0 0 0
v 0 0 0
v 0 0 0
v 0 0 0
v -0.14154925950949987 -1.1223836992079195 0.37132290643881766
v -0.14222390795083428 -1.1127253653519444 0.39909482992277195
v -0.14557849841670512 -1.1021398940995102 0.4263292349752356
v -0.15158072436712022 -1.090729229325385 0.4527638393877132
v -0.1601727810850268 -1.078603261969047 0.4781440634690878
v -0.1712719223673354 -1.0658787717248666 0.502225481787214
v -0.18477125741608952 -1.0526783023898085 0.524776177119446
v -0.20054078025528252 -1.03912898169968 0.5455789739422703
v -0.21842862175947494 -1.0253612970195394 0.5644335299503176
v -0.23826251223649247 -1.0115078386790384 0.5811582654622817
v -0.2598514404787341 -0.9977020230550664 0.5955921121325118
v -0.2829874933055183 -0.9840768076991091 0.6075960641272307
v -0.3074478578806703 -0.9707634108833445 0.6170545168267014
v -0.3329969675219358 -0.9578900478969516 0.6238763801609117
v -0.3593887703369054 -0.9455806962627855 0.6279959558567434
v -0.3863690988372442 -0.933953901766059 0.6293735701482568
v -0.41367811771054586 -0.923121636793628 0.6279959558567435
v -0.4410528261764322 -0.9131882219786956 0.6238763801609117
v -0.46822959082783905 -0.9042493215360864 0.6170545168267014
v -0.4949466845648426 -0.8963910219635627 0.6075960641272307
v -0.5209468071697063 -0.8896890029817914 0.5955921121325118
v -0.5459795632486325 -0.8842078086972636 0.5811582654622818
v -0.5698038736762849 -0.8800002260072642 0.5644335299503177
v -0.5921902973195523 -0.8771067762331972 0.5455789739422703
v -0.612923240681086 -0.8755553248781069 0.524776177119446
v -0.6318030341825346 -0.8753608132666528 0.502225481787214
v -0.6486478550917342 -0.8765251146519839 0.4781440634690879
v -0.6632954785750136 -0.8790370161752876 0.45276383938771325
v -0.6756048400110232 -0.8828723268517493 0.4263292349752356
v -0.6854573935201528 -0.8879941105429608 0.39909482992277207
v -0.6927582536261558 -0.8943530416721239 0.3713229064388177
v -0.6974371090551555 -0.9018878802563193 0.34328092332820087
v -0.6994488998716479 -0.9105260616810196 0.315238940217584
v -0.6987742514303136 -0.9201843955369946 0.2874670167336296
v -0.6954196609644427 -0.9307698667894287 0.26023261168116607
v -0.6894174350140276 -0.9421805315635541 0.23379800726868846
v -0.6808253782961211 -0.9543064989198918 0.20841778318731383
v -0.6697262370138125 -0.9670309891640725 0.18433636486918767
v -0.6562269019650584 -0.9802314584991305 0.1617856695369557
v -0.6404573791258653 -0.993780779189259 0.14098287271413135
v -0.622569537621673 -1.0075484638693994 0.1221283167060841
v -0.6027356471446553 -1.0214019222099007 0.10540358119411994
v -0.5811467189024138 -1.0352077378338727 0.09096973452388973
v -0.5580106660756297 -1.04883295318983 0.07896578252917097
v -0.5335503015004776 -1.0621463500055945 0.06950732982970026
v -0.5080011918592122 -1.0750197129919874 0.0626854664954899
v -0.48160938904424233 -1.0873290646261538 0.05856589079965813
v -0.45462906054390373 -1.09895585912288 0.0571882765081449
v -0.42732004167060217 -1.109788124095311 0.05856589079965813
v -0.3999453332047156 -1.1197215389102435 0.0626854664954899
v -0.37276856855330887 -1.1286604393528528 0.0695073298297002
v -0.3460514748163052 -1.1365187389253764 0.07896578252917097
v -0.3200513522114416 -1.1432207579071476 0.09096973452388973
v -0.29501859613251535 -1.1487019521916755 0.10540358119411988
v -0.2711942857048628 -1.1529095348816747 0.12212831670608404
v -0.24880786206159558 -1.1558029846557418 0.1409828727141313
v -0.22807491870006208 -1.157354436010832 0.1617856695369555
v -0.20919512519861333 -1.1575489476222862 0.1843363648691876
v -0.19235030428941374 -1.1563846462369551 0.20841778318731374
v -0.17770268080613436 -1.1538727447136514 0.23379800726868827
v -0.1653933193701247 -1.1500374340371897 0.26023261168116596
v -0.15554076586099508 -1.1449156503459783 0.2874670167336295
v -0.14823990575499196 -1.1385567192168151 0.31523894021758403
v -0.1435610503259923 -1.1310218806326198 0.34328092332820076
f 1//1 65//1 66//1 2//1
f 2//65 66//65 65//65 1//65
f 2//2 66//2 67//2 3//2
f 3//66 67//66 66//66 2//66
f 3//3 67//3 68//3 4//3
f 4//67 68//67 67//67 3//67
f 4//4 68//4 69//4 5//4
f 5//68 69//68 68//68 4//68
f 5//5 69//5 70//5 6//5
f 6//69 70//69 69//69 5//69
f 6//6 70//6 71//6 7//6
f 7//70 71//70 70//70 6//70
f 7//7 71//7 72//7 8//7
f 8//71 72//71 71//71 7//71
f 8//8 72//8 73//8 9//8
f 9//72 73//72 72//72 8//72
f 9//9 73//9 74//9 10//9
f 10//73 74//73 73//73 9//73
f 10//10 74//10 75//10 11//10
f 11//74 75//74 74//74 10//74
f 11//11 75//11 76//11 12//11
f 12//75 76//75 75//75 11//75
f 12//12 76//12 77//12 13//12
f 13//76 77//76 76//76 12//76
f 13//13 77//13 78//13 14//13
f 14//77 78//77 77//77 13//77
f 14//14 78//14 79//14 15//14
f 15//78 79//78 78//78 14//78
f 15//15 79//15 80//15 16//15
f 16//79 80//79 79//79 15//79
f 16//16 80//16 81//16 17//16
f 17//80 81//80 80//80 16//80
f 17//17 81//17 82//17 18//17
f 18//81 82//81 81//81 17//81
f 18//18 82//18 83//18 19//18
f 19//82 83//82 82//82 18//82
f 19//19 83//19 84//19 20//19
f 20//83 84//83 83//83 19//83
f 20//20 84//20 85//20 21//20
f 21//84 85//84 84//84 20//84
f 21//21 85//21 86//21 22//21
f 22//85 86//85 85//85 21//85
f 22//22 86//22 87//22 23//22
f 23//86 87//86 86//86 22//86
f 23//23 87//23 88//23 24//23
f 24//87 88//87 87//87 23//87
f 24//24 88//24 89//24 25//24
f 25//88 89//88 88//88 24//88
f 25//25 89//25 90//25 26//25
f 26//89 90//89 89//89 25//89
f 26//26 90//26 91//26 27//26
f 27//90 91//90 90//90 26//90
f 27//27 91//27 92//27 28//27
f 28//91 92//91 91//91 27//91
f 28//28 92//28 93//28 29//28
f 29//92 93//92 92//92 28//92
f 29//29 93//29 94//29 30//29
f 30//93 94//93 93//93 29//93
f 30//30 94//30 95//30 31//30
f 31//94 95//94 94//94 30//94
f 31//31 95//31 96//31 32//31
f 32//95 96//95 95//95 31//95
f 32//32 96//32 97//32 33//32
f 33//96 97//96 96//96 32//96
f 33//33 97//33 98//33 34//33
f 34//97 98//97 97//97 33//97
f 34//34 98//34 99//34 35//34
f 35//98 99//98 98//98 34//98
f 35//35 99//35 100//35 36//35
f 36//99 100//99 99//99 35//99
f 36//36 100//36 101//36 37//36
f 37//100 101//100 100//100 36//100
f 37//37 101//37 102//37 38//37
f 38//101 102//101 101//101 37//101
f 38//38 102//38 103//38 39//38
f 39//102 103//102 102//102 38//102
f 39//39 103//39 104//39 40//39
f 40//103 104//103 103//103 39//103
f 40//40 104//40 105//40 41//40
f 41//104 105//104 104//104 40//104
f 41//41 105//41 106//41 42//41
f 42//105 106//105 105//105 41//105
f 42//42 106//42 107//42 43//42
f 43//106 107//106 106//106 42//106
f 43//43 107//43 108//43 44//43
f 44//107 108//107 107//107 43//107
f 44//44 108//44 109//44 45//44
f 45//108 109//108 108//108 44//108
f 45//45 109//45 110//45 46//45
f 46//109 110//109 109//109 45//109
f 46//46 110//46 111//46 47//46
f 47//110 111//110 110//110 46//110
f 47//47 111//47 112//47 48//47
f 48//111 112//111 111//111 47//111
f 48//48 112//48 113//48 49//48
f 49//112 113//112 112//112 48//112
f 49//49 113//49 114//49 50//49
f 50//113 114//113 113//113 49//113
f 50//50 114//50 115//50 51//50
f 51//114 115//114 114//114 50//114
f 51//51 115//51 116//51 52//51
f 52//115 116//115 115//115 51//115
f 52//52 116//52 117//52 53//52
f 53//116 117//116 116//116 52//116
f 53//53 117//53 118//53 54//53
f 54//117 118//117 117//117 53//117
f 54//54 118//54 119//54 55//54
f 55//118 119//118 118//118 54//118
f 55//55 119//55 120//55 56//55
f 56//119 120//119 119//119 55//119
f 56//56 120//56 121//56 57//56
f 57//120 121//120 120//120 56//120
f 57//57 121//57 122//57 58//57
f 58//121 122//121 121//121 57//121
f 58//58 122//58 123//58 59//58
f 59//122 123//122 122//122 58//122
f 59//59 123//59 124//59 60//59
f 60//123 124//123 123//123 59//123
f 60//60 124//60 125//60 61//60
f 61//124 125//124 124//124 60//124
f 61//61 125//61 126//61 62//61
f 62//125 126//125 125//125 61//125
f 62//62 126//62 127//62 63//62
f 63//126 127//126 126//126 62//126
f 63//63 127//63 128//63 64//63
f 64//127 128//127 127//127 63//127
f 64//64 128//64 65//64 1//64
f 1//128 65//128 128//128 64//128