o Jets_7
vn -0.06552304752702909 0.010652150945125505 0.00818165243508167
vn -0.066297841108026 0.004203927254649242 0.00778464987061743
vn -0.06643579091099888 -0.0022897954262112163 0.007397299270118191
vn -0.06593556840393405 -0.008766478998208815 0.007023331031614198
vn -0.0648019910030242 -0.015163749458029785 0.006666346673674078
vn -0.0630459756783165 -0.021419997594042672 0.006329784150812283
vn -0.06068443381732332 -0.027474972316684165 0.006016884744107757
vn -0.05774010835911625 -0.033270360909389785 0.005730661845895287
vn -0.05424135476739002 -0.03875035061192961 0.005473871939150027
vn -0.05022186795184583 -0.04386216612780108 0.005248988051049537
vn -0.04572035776779265 -0.04855657787918466 0.005058175936370311
vn -0.04078017621907881 -0.05278837611468673 0.004903273220085189
vn -0.03544889995459566 -0.05651680630396397 0.004785771700030413
vn -0.029777872079143286 -0.059705961626126236 0.00470680298007704
vn -0.02382170769126063 -0.062325128772051486 0.004667127572166869
vn -0.017637767909974233 -0.06434908373034193 0.004667127572166874
vn -0.01128560745586249 -0.06575833470834286 0.0047068029800770355
vn -0.004826401106543532 -0.06653930984876136 0.004785771700030415
vn 0.001677645449878029 -0.06668448793407099 0.0049032732200851884
vn 0.008163894689589946 -0.0661924708199472 0.005058175936370309
vn 0.014569880486669406 -0.06506799690016302 0.005248988051049529
vn 0.020833909696022446 -0.06332189547326667 0.005473871939150013
vn 0.02689565629209678 -0.06097098245051452 0.005730661845895307
vn 0.032696742341483676 -0.05803789840945567 0.006016884744107765
vn 0.03818130021433175 -0.05455089055279255 0.006329784150812288
vn 0.043296510620161016 -0.05054354067237654 0.006666346673674058
vn 0.04799311128650524 -0.046054441738197505 0.0070233310316142085
vn 0.05222587138152408 -0.04112682622698183 0.007397299270118198
vn 0.05595402711164031 -0.03580814976981117 0.007784649870617388
vn 0.05914167429915644 -0.03014963412845284 0.008181652435081701
vn 0.06175811415911072 -0.024205773901792127 0.008584483611791554
vn 0.06377814894536059 -0.01803381171305629 0.00898926391630536
vn 0.06518232461865103 -0.01169318693206034 0.009392095093015224
vn 0.06595711819964753 -0.0052449632415840775 0.009789097657479436
vn 0.06609506800262072 0.0012487594392763812 0.010176448257978726
vn 0.06559484549555594 0.00772544301127398 0.010550416496482709
vn 0.06446126809464581 0.01412271347109495 0.01090740085442278
vn 0.06270525276993827 0.020378961607107726 0.011243963377284602
vn 0.06034371090894508 0.02643393632974944 0.011556862783989139
vn 0.05739938545073797 0.03222932492245478 0.011843085682201562
vn 0.05390063185901217 0.03770931462499483 0.012099875588946929
vn 0.04988114504346752 0.042821130140866304 0.012324759477047323
vn 0.04537963485941443 0.04751554189224927 0.012515571591726546
vn 0.04043945331070076 0.05174734012775212 0.012670474308011798
vn 0.03510817704621749 0.05547577031702894 0.012787975828066428
vn 0.02943714917076523 0.058664925639191734 0.01286694454801994
vn 0.023480984782882408 0.06128409278511626 0.012906619955929975
vn 0.01729704500159579 0.06330804774340681 0.012906619955929996
vn 0.010944884547484435 0.06471729872140838 0.012866944548019926
vn 0.004485678198165477 0.06549827386182626 0.012787975828066421
vn -0.002018368358256195 0.06564345194713642 0.012670474308011808
vn -0.008504617597968167 0.06515143483301193 0.012515571591726534
vn -0.014910603395047461 0.06402696091322811 0.01232475947704731
vn -0.021174632604401 0.062280859486332094 0.012099875588946945
vn -0.027236379200474836 0.05992994646357938 0.011843085682201562
vn -0.03303746524986173 0.05699686242252047 0.011556862783989076
vn -0.038522023122710136 0.053509854565857884 0.011243963377284692
vn -0.0436372335285391 0.04950250468544182 0.01090740085442278
vn -0.04833383419488335 0.0450134057512625 0.010550416496482667
vn -0.0525665942899024 0.04008579024004727 0.010176448257978775
vn -0.0562947500200186 0.03476711378287617 0.009789097657479436
vn -0.05948239720753479 0.029108598141518227 0.009392095093015272
vn -0.062098837067488644 0.02316473791485696 0.008989263916305314
vn -0.06411887185373893 0.016992775726121345 0.008584483611791573
vn 0.06552304752702909 -0.010652150945125505 -0.00818165243508167
vn 0.066297841108026 -0.004203927254649242 -0.00778464987061743
vn 0.06643579091099888 0.0022897954262112163 -0.007397299270118191
vn 0.06593556840393405 0.008766478998208815 -0.007023331031614198
vn 0.0648019910030242 0.015163749458029785 -0.006666346673674078
vn 0.0630459756783165 0.021419997594042672 -0.006329784150812283
vn 0.06068443381732332 0.027474972316684165 -0.006016884744107757
vn 0.05774010835911625 0.033270360909389785 -0.005730661845895287
vn 0.05424135476739002 0.03875035061192961 -0.005473871939150027
vn 0.05022186795184583 0.04386216612780108 -0.005248988051049537
vn 0.04572035776779265 0.04855657787918466 -0.005058175936370311
vn 0.04078017621907881 0.05278837611468673 -0.004903273220085189
vn 0.03544889995459566 0.05651680630396397 -0.004785771700030413
vn 0.029777872079143286 0.059705961626126236 -0.00470680298007704
vn 0.02382170769126063 0.062325128772051486 -0.004667127572166869
vn 0.017637767909974233 0.06434908373034193 -0.004667127572166874
vn 0.01128560745586249 0.06575833470834286 -0.0047068029800770355
vn 0.004826401106543532 0.06653930984876136 -0.004785771700030415
vn -0.001677645449878029 0.06668448793407099 -0.0049032732200851884
vn -0.008163894689589946 0.0661924708199472 -0.005058175936370309
vn -0.014569880486669406 0.06506799690016302 -0.005248988051049529
vn -0.020833909696022446 0.06332189547326667 -0.005473871939150013
vn -0.02689565629209678 0.06097098245051452 -0.005730661845895307
vn -0.032696742341483676 0.05803789840945567 -0.006016884744107765
vn -0.03818130021433175 0.05455089055279255 -0.006329784150812288
vn -0.043296510620161016 0.05054354067237654 -0.006666346673674058
vn -0.04799311128650524 0.046054441738197505 -0.0070233310316142085
vn -0.05222587138152408 0.04112682622698183 -0.007397299270118198
vn -0.05595402711164031 0.03580814976981117 -0.007784649870617388
vn -0.05914167429915644 0.03014963412845284 -0.008181652435081701
vn -0.06175811415911072 0.024205773901792127 -0.008584483611791554
vn -0.06377814894536059 0.01803381171305629 -0.00898926391630536
vn -0.06518232461865103 0.01169318693206034 -0.009392095093015224
vn -0.06595711819964753 0.0052449632415840775 -0.009789097657479436
vn -0.06609506800262072 -0.0012487594392763812 -0.010176448257978726
vn -0.06559484549555594 -0.00772544301127398 -0.010550416496482709
vn -0.06446126809464581 -0.01412271347109495 -0.01090740085442278
vn -0.06270525276993827 -0.020378961607107726 -0.011243963377284602
vn -0.06034371090894508 -0.02643393632974944 -0.011556862783989139
vn -0.05739938545073797 -0.03222932492245478 -0.011843085682201562
vn -0.05390063185901217 -0.03770931462499483 -0.012099875588946929
vn -0.04988114504346752 -0.042821130140866304 -0.012324759477047323
vn -0.04537963485941443 -0.04751554189224927 -0.012515571591726546
vn -0.04043945331070076 -0.05174734012775212 -0.012670474308011798
vn -0.03510817704621749 -0.05547577031702894 -0.012787975828066428
vn -0.02943714917076523 -0.058664925639191734 -0.01286694454801994
vn -0.023480984782882408 -0.06128409278511626 -0.012906619955929975
vn -0.01729704500159579 -0.06330804774340681 -0.012906619955929996
vn -0.010944884547484435 -0.06471729872140838 -0.012866944548019926
vn -0.004485678198165477 -0.06549827386182626 -0.012787975828066421
vn 0.002018368358256195 -0.06564345194713642 -0.012670474308011808
vn 0.008504617597968167 -0.06515143483301193 -0.012515571591726534
vn 0.014910603395047461 -0.06402696091322811 -0.01232475947704731
vn 0.021174632604401 -0.062280859486332094 -0.012099875588946945
vn 0.027236379200474836 -0.05992994646357938 -0.011843085682201562
vn 0.03303746524986173 -0.05699686242252047 -0.011556862783989076
vn 0.038522023122710136 -0.053509854565857884 -0.011243963377284692
vn 0.0436372335285391 -0.04950250468544182 -0.01090740085442278
vn 0.04833383419488335 -0.0450134057512625 -0.010550416496482667
vn 0.0525665942899024 -0.04008579024004727 -0.010176448257978775
vn 0.0562947500200186 -0.03476711378287617 -0.009789097657479436
vn 0.05948239720753479 -0.029108598141518227 -0.009392095093015272
vn 0.062098837067488644 -0.02316473791485696 -0.008989263916305314
vn 0.06411887185373893 -0.016992775726121345 -0.008584483611791573
v 0 0 0
v 0 0 0
v 0 0 0
v 0 0 0
v 0 0 0
v 0 0 0
v 0 0 0
v 0 0 0
v 0 0 0
v 0 0 0
v 0 0 0
v 0 0 0
v 0 0 0
v 0 0 0
v 0 0 0
v 0 0 0
v 0 0 0
v 0 0 0
v 0 0 0
v 0 0 0
v 0 0 0
v 0 0 0
v 0 0 0
v 0 0 0
v 0 0 0
v 0 0 0
v 0 0 0
v 0 0 0
v 0 0 0
v 0 0 0
v 0 0 0
v 0 0 0
v 0 0 0
v 0 0 0
v 0 0 0
v 0 0 0
v 0 0 0
v 0 0 0
v 0 0 0
v 0 0 0
v 0 0 0
v 0 0 0
v 0 0 0
v 0 0 0
v 0 0 0
v 0 0 0
v 0 0 0
v 0 0 0
v 0 0 0
v 0 0 0
v 0 0 0
v 0 0 0
v 0 0 0
v 0 0 0
v 0 0 0
v 0 0 0
v 0 0 0
v 0 0 0
v 0 0 0
v 0 0 0
v 0 0 0
v 0 0 0
v 0 0 0
v 0 0 0
v 0.24895752817313513 -0.1981959901955468 2.2518274518706902
v 0.2538880690736808 -0.16925756422399663 2.2536373043808786
v 0.25595341193132337 -0.13997271048363563 2.255412127661527
v 0.2551336663653123 -0.11062345812471294 2.257134829194224
v 0.25143672697356695 -0.0814924564913784 2.258788818421487
v 0.24489819730338244 -0.052860253053986325 2.260358166522894
v 0.2355810469698065 -0.025002591583593317 2.2618277598183356
v 0.22357500522382392 0.001812243411293879 2.2631834453210153
v 0.20899569681061855 0.027326010411194618 2.2644121670384494
v 0.1919835284400703 0.05129299789265618 2.265502091708812
v 0.17270233659338477 0.0734823906645439 2.2664427227617123
v 0.151337809688217 0.09368049274450863 2.2672250014059117
v 0.1280956997977023 0.11169278536811458 2.267841393870428
v 0.103199841145516 0.1273458003108755 2.268285963958874
v 0.07688999445993933 0.14048879048208446 2.2685544302182716
v 0.04941953794697956 0.15099518170170334 2.2686442071717843
v 0.02105302711973555 0.15876379167890964 2.2685544302182716
v -0.007936353015814086 0.1637198044528685 2.268285963958874
v -0.03726941888175687 0.16581549091133468 2.267841393870428
v -0.066663677018719 0.16503066844809433 2.2672250014059117
v -0.09583604465230539 0.16137289533249605 2.2664427227617123
v -0.12450557593496622 0.1548773979191853 2.265502091708812
v -0.15239616760808963 0.14560673139905234 2.2644121670384494
v -0.17923921802731513 0.13365017735854773 2.2631834453210153
v -0.2047762139432015 0.11912288394919895 2.2618277598183356
v -0.2287612201251368 0.1021647569479644 2.260358166522894
v -0.25096324785205076 0.08293911238812121 2.258788818421487
v -0.2711684794600705 0.06163110373658692 2.257134829194224
v -0.2891823275235076 0.03844593876481828 2.255412127661527
v -0.30483130883813997 0.01360690328579392 2.2536373043808786
v -0.3179647151593046 -0.012646789210425363 2.2518274518706902
v -0.32845606460467824 -0.04006230131337267 2.25
v -0.3362043197439471 -0.06837560665465325 2.2481725481293098
v -0.3411348606444928 -0.09731403262620347 2.2463626956191214
v -0.3432002035021353 -0.12659888636656436 2.244587872338473
v -0.3423804579361243 -0.15594813872548707 2.242865170805776
v -0.3386835185443789 -0.18507914035882164 2.241211181578513
v -0.3321449888741944 -0.21371134379621365 2.239641833477106
v -0.3228278385406185 -0.24156900526660663 2.2381722401816644
v -0.3108217967946359 -0.26838384026149387 2.2368165546789847
v -0.29624248838143064 -0.2938976072613946 2.2355878329615506
v -0.27923032001088227 -0.3178645947428562 2.234497908291188
v -0.25994912816419674 -0.3400539875147439 2.2335572772382877
v -0.2385846012590291 -0.36025208959470856 2.2327749985940883
v -0.21534249136851433 -0.3782643822183146 2.232158606129572
v -0.19044663271632808 -0.39391739716107554 2.231714036041126
v -0.16413678603075124 -0.40706038733228456 2.2314455697817284
v -0.1366663295177916 -0.4175667785519034 2.2313557928282157
v -0.1082998186905477 -0.4253353885291096 2.2314455697817284
v -0.07931043855499786 -0.43029140130306853 2.231714036041126
v -0.04997737268905516 -0.4323870877615347 2.232158606129572
v -0.020583114552092878 -0.4316022652982943 2.2327749985940883
v 0.008589253081493352 -0.4279444921826961 2.2335572772382877
v 0.03725878436415416 -0.42144899476938535 2.234497908291188
v 0.06514937603727775 -0.4121783282492523 2.2355878329615506
v 0.0919924264565031 -0.40022177420874777 2.2368165546789847
v 0.11752942237238931 -0.38569448079939905 2.2381722401816644
v 0.14151442855432475 -0.36873635379816444 2.239641833477106
v 0.16371645628123874 -0.3495107092383213 2.241211181578513
v 0.18392168788925842 -0.3282027005867871 2.242865170805776
v 0.20193553595269562 -0.3050175356150183 2.244587872338473
v 0.217584517267328 -0.280178500135994 2.2463626956191214
v 0.23071792358849266 -0.2539248076397746 2.2481725481293098
v 0.24120927303386627 -0.22650929553682742 2.25
f 1//1 65//1 66//1 2//1
f 2//65 66//65 65//65 1//65
f 2//2 66//2 67//2 3//2
f 3//66 67//66 66//66 2//66
f 3//3 67//3 68//3 4//3
f 4//67 68//67 67//67 3//67
f 4//4 68//4 69//4 5//4
f 5//68 69//68 68//68 4//68
f 5//5 69//5 70//5 6//5
f 6//69 70//69 69//69 5//69
f 6//6 70//6 71//6 7//6
f 7//70 71//70 70//70 6//70
f 7//7 71//7 72//7 8//7
f 8//71 72//71 71//71 7//71
f 8//8 72//8 73//8 9//8
f 9//72 73//72 72//72 8//72
f 9//9 73//9 74//9 10//9
f 10//73 74//73 73//73 9//73
f 10//10 74//10 75//10 11//10
f 11//74 75//74 74//74 10//74
f 11//11 75//11 76//11 12//11
f 12//75 76//75 75//75 11//75
f 12//12 76//12 77//12 13//12
f 13//76 77//76 76//76 12//76
f 13//13 77//13 78//13 14//13
f 14//77 78//77 77//77 13//77
f 14//14 78//14 79//14 15//14
f 15//78 79//78 78//78 14//78
f 15//15 79//15 80//15 16//15
f 16//79 80//79 79//79 15//79
f 16//16 80//16 81//16 17//16
f 17//80 81//80 80//80 16//80
f 17//17 81//17 82//17 18//17
f 18//81 82//81 81//81 17//81
f 18//18 82//18 83//18 19//18
f 19//82 83//82 82//82 18//82
f 19//19 83//19 84//19 20//19
f 20//83 84//83 83//83 19//83
f 20//20 84//20 85//20 21//20
f 21//84 85//84 84//84 20//84
f 21//21 85//21 86//21 22//21
f 22//85 86//85 85//85 21//85
f 22//22 86//22 87//22 23//22
f 23//86 87//86 86//86 22//86
f 23//23 87//23 88//23 24//23
f 24//87 88//87 87//87 23//87
f 24//24 88//24 89//24 25//24
f 25//88 89//88 88//88 24//88
f 25//25 89//25 90//25 26//25
f 26//89 90//89 89//89 25//89
f 26//26 90//26 91//26 27//26
f 27//90 91//90 90//90 26//90
f 27//27 91//27 92//27 28//27
f 28//91 92//91 91//91 27//91
f 28//28 92//28 93//28 29//28
f 29//92 93//92 92//92 28//92
f 29//29 93//29 94//29 30//29
f 30//93 94//93 93//93 29//93
f 30//30 94//30 95//30 31//30
f 31//94 95//94 94//94 30//94
f 31//31 95//31 96//31 32//31
f 32//95 96//95 95//95 31//95
f 32//32 96//32 97//32 33//32
f 33//96 97//96 96//96 32//96
f 33//33 97//33 98//33 34//33
f 34//97 98//97 97//97 33//97
f 34//34 98//34 99//34 35//34
f 35//98 99//98 98//98 34//98
f 35//35 99//35 100//35 36//35
f 36//99 100//99 99//99 35//99
f 36//36 100//36 101//36 37//36
f 37//100 101//100 100//100 36//100
f 37//37 101//37 102//37 38//37
f 38//101 102//101 101//101 37//101
f 38//38 102//38 103//38 39//38
f 39//102 103//102 102//102 38//102
f 39//39 103//39 104//39 40//39
f 40//103 104//103 103//103 39//103
f 40//40 104//40 105//40 41//40
f 41//104 105//104 104//104 40//104
f 41//41 105//41 106//41 42//41
f 42//105 106//105 105//105 41//105
f 42//42 106//42 107//42 43//42
f 43//106 107//106 106//106 42//106
f 43//43 107//43 108//43 44//43
f 44//107 108//107 107//107 43//107
f 44//44 108//44 109//44 45//44
f 45//108 109//108 108//108 44//108
f 45//45 109//45 110//45 46//45
f 46//109 110//109 109//109 45//109
f 46//46 110//46 111//46 47//46
f 47//110 111//110 110//110 46//110
f 47//47 111//47 112//47 48//47
f 48//111 112//111 111//111 47//111
f 48//48 112//48 113//48 49//48
f 49//112 113//112 112//112 48//112
f 49//49 113//49 114//49 50//49
f 50//113 114//113 113//113 49//113
f 50//50 114//50 115//50 51//50
f 51//114 115//114 114//114 50//114
f 51//51 115//51 116//51 52//51
f 52//115 116//115 115//115 51//115
f 52//52 116//52 117//52 53//52
f 53//116 117//116 116//116 52//116
f 53//53 117//53 118//53 54//53
f 54//117 118//117 117//117 53//117
f 54//54 118//54 119//54 55//54
f 55//118 119//118 118//118 54//118
f 55//55 119//55 120//55 56//55
f 56//119 120//119 119//119 55//119
f 56//56 120//56 121//56 57//56
f 57//120 121//120 120//120 56//120
f 57//57 121//57 122//57 58//57
f 58//121 122//121 121//121 57//121
f 58//58 122//58 123//58 59//58
f 59//122 123//122 122//122 58//122
f 59//59 123//59 124//59 60//59
f 60//123 124//123 123//123 59//123
f 60//60 124//60 125//60 61//60
f 61//124 125//124 124//124 60//124
f 61//61 125//61 126//61 62//61
f 62//125 126//125 125//125 61//125
f 62//62 126//62 127//62 63//62
f 63//126 127//126 126//126 62//126
f 63//63 127//63 128//63 64//63
f 64//127 128//127 127//127 63//127
f 64//64 128//64 65//64 1//64
f 1//128 65//128 128//128 64//128